<?xml version="1.0" encoding="UTF-8" standalone="no"?>
<!-- Created with Inkscape (http://www.inkscape.org/) -->

<svg
   inkscape:version="1.3.2 (091e20e, 2023-11-25, custom)"
   sodipodi:docname="track_brand_hatch.svg"
   xmlns:inkscape="http://www.inkscape.org/namespaces/inkscape"
   xmlns:sodipodi="http://sodipodi.sourceforge.net/DTD/sodipodi-0.dtd"
   xmlns="http://www.w3.org/2000/svg"
   xmlns:svg="http://www.w3.org/2000/svg">
  <g>
    <path
       id="track"
       d="M 138.8198 445.478 L 138.0598 446.238 L 137.5198 446.798 L 136.9598 447.378 L 136.3998 447.938 L 135.8398 448.518 L 135.2798 449.098 L 134.7198 449.678 L 134.1598 450.258 L 133.5998 450.838 L 133.0398 451.418 L 132.4798 451.998 L 131.9198 452.598 L 131.3598 453.178 L 130.7998 453.758 L 130.2398 454.338 L 129.6798 454.938 L 129.1198 455.518 L 128.5598 456.098 L 127.9998 456.698 L 127.4398 457.278 L 126.8798 457.878 L 126.2998 458.478 L 125.7398 459.078 L 125.1598 459.658 L 124.5798 460.258 L 124.0198 460.858 L 123.4198 461.458 L 122.8398 462.058 L 122.2598 462.658 L 121.6598 463.258 L 121.0798 463.858 L 120.4798 464.478 L 119.8798 465.078 L 119.2798 465.678 L 118.6798 466.298 L 118.0798 466.898 L 117.4798 467.518 L 116.8798 468.118 L 116.2798 468.738 L 115.6598 469.358 L 115.0598 469.978 L 114.4398 470.598 L 113.8398 471.218 L 113.2198 471.838 L 112.5998 472.478 L 111.9798 473.098 L 111.3598 473.718 L 110.7398 474.358 L 110.1198 474.998 L 109.4998 475.618 L 108.8598 476.258 L 108.2398 476.898 L 107.6198 477.538 L 106.9798 478.178 L 106.3398 478.818 L 105.7198 479.458 L 105.0798 480.098 L 104.4398 480.758 L 103.7998 481.398 L 103.1598 482.058 L 102.5198 482.698 L 101.8798 483.358 L 101.2198 484.018 L 100.5798 484.678 L 99.9398 485.338 L 99.2798 485.998 L 98.6198 486.658 L 97.9798 487.318 L 97.3198 487.978 L 96.6598 488.638 L 95.9998 489.318 L 95.3398 489.978 L 94.6798 490.658 L 94.0198 491.338 L 93.3598 491.998 L 92.6998 492.678 L 92.0398 493.358 L 91.3598 494.038 L 90.6998 494.718 L 90.0198 495.398 L 89.3598 496.078 L 88.6798 496.778 L 87.9998 497.458 L 87.3398 498.158 L 86.6598 498.838 L 85.9798 499.538 L 85.2998 500.238 L 84.6198 500.918 L 83.9398 501.618 L 83.2598 502.318 L 82.5798 503.018 L 81.8998 503.718 L 81.1998 504.438 L 80.5198 505.138 L 79.8398 505.838 L 79.1398 506.538 L 78.4598 507.238 L 77.7798 507.958 L 77.0798 508.658 L 76.3798 509.358 L 75.6998 510.078 L 74.9998 510.778 L 74.2998 511.498 L 73.5998 512.218 L 72.9198 512.918 L 72.2198 513.638 L 71.5198 514.358 L 70.8198 515.078 L 70.1198 515.798 L 69.3998 516.518 L 68.6998 517.238 L 67.9998 517.958 L 67.2998 518.678 L 66.5798 519.398 L 65.8798 520.118 L 65.1798 520.858 L 64.4598 521.578 L 63.7398 522.298 L 63.0398 523.038 L 62.3198 523.758 L 61.5998 524.478 L 60.8798 525.198 L 60.1598 525.918 L 59.4598 526.618 L 58.7598 527.318 L 58.0798 527.998 L 57.3998 528.678 L 56.7198 529.338 L 56.0598 529.998 L 55.4198 530.658 L 54.7798 531.298 L 54.1398 531.918 L 53.5198 532.538 L 52.9198 533.138 L 52.3198 533.738 L 51.7398 534.318 L 51.1598 534.898 L 50.5798 535.478 L 50.0198 536.038 L 49.4598 536.578 L 48.9198 537.118 L 48.3798 537.638 L 47.8598 538.158 L 47.3398 538.678 L 46.8198 539.158 L 46.3198 539.658 L 45.8198 540.138 L 45.3398 540.598 L 44.8598 541.058 L 44.3798 541.498 L 43.9198 541.938 L 43.4798 542.378 L 43.0198 542.798 L 42.5998 543.198 L 42.1798 543.618 L 41.7598 543.998 L 41.3398 544.398 L 40.9598 544.758 L 40.5598 545.138 L 40.1798 545.498 L 39.7998 545.838 L 39.4198 546.178 L 39.0598 546.498 L 38.6998 546.818 L 38.3598 547.118 L 38.0198 547.418 L 37.6798 547.698 L 37.3398 547.958 L 36.9998 548.218 L 36.6798 548.478 L 36.3598 548.718 L 36.0598 548.938 L 35.4398 549.358 L 34.8598 549.738 L 34.2598 550.058 L 33.6798 550.318 L 33.0598 550.538 L 32.4598 550.718 L 31.8598 550.838 L 31.2598 550.918 L 30.6598 550.938 L 30.0798 550.918 L 29.5198 550.838 L 28.9598 550.718 L 28.4398 550.538 L 27.9398 550.338 L 27.4798 550.078 L 27.0598 549.798 L 26.6598 549.478 L 26.2998 549.118 L 25.9798 548.738 L 25.6998 548.318 L 25.4798 547.898 L 25.2998 547.438 L 25.1598 546.978 L 25.0798 546.518 L 25.0398 546.038 L 25.0198 545.538 V 545.058 L 24.9998 544.578 L 24.9798 544.058 L 24.9598 543.538 L 24.9398 542.978 L 24.9198 542.398 L 24.8998 541.798 V 541.178 L 24.9198 540.518 V 539.838 L 24.9398 539.118 L 24.9798 538.378 L 25.0198 537.618 L 25.0398 537.238 L 25.0798 536.838 L 25.1198 536.438 L 25.1798 536.038 L 25.2198 535.638 L 25.2998 535.218 L 25.3598 534.798 L 25.4398 534.378 L 25.5398 533.958 L 25.6198 533.518 L 25.7198 533.078 L 25.8198 532.638 L 25.9198 532.178 L 26.0198 531.718 L 26.1198 531.258 L 26.2398 530.798 L 26.3398 530.318 L 26.4398 529.838 L 26.5598 529.358 L 26.6598 528.858 L 26.7798 528.358 L 26.8998 527.858 L 26.9998 527.358 L 27.1198 526.838 L 27.2398 526.338 L 27.3598 525.818 L 27.4798 525.298 L 27.5998 524.758 L 27.7198 524.218 L 27.8398 523.698 L 27.9798 523.138 L 28.0998 522.598 L 28.2198 522.038 L 28.3598 521.478 L 28.4798 520.918 L 28.5998 520.358 L 28.7398 519.778 L 28.8798 519.198 L 29.0198 518.618 L 29.1398 518.018 L 29.2798 517.438 L 29.4198 516.838 L 29.5598 516.218 L 29.7198 515.618 L 29.8598 514.998 L 29.9998 514.398 L 30.1598 513.758 L 30.3198 513.138 L 30.4598 512.518 L 30.6198 511.878 L 30.7798 511.238 L 30.9398 510.598 L 31.0998 509.958 L 31.2598 509.318 L 31.4198 508.678 L 31.5798 508.018 L 31.7398 507.378 L 31.9198 506.718 L 32.0798 506.058 L 32.2598 505.398 L 32.4198 504.738 L 32.5998 504.058 L 32.7798 503.378 L 32.9598 502.718 L 33.1398 502.038 L 33.3198 501.338 L 33.5198 500.658 L 33.6998 499.958 L 33.8998 499.258 L 34.0998 498.578 L 34.2998 497.858 L 34.4998 497.158 L 34.7198 496.458 L 34.9198 495.738 L 35.1398 495.038 L 35.3798 494.318 L 35.5998 493.598 L 35.8398 492.878 L 36.0598 492.138 L 36.2998 491.418 L 36.5598 490.678 L 36.7998 489.958 L 37.0598 489.218 L 37.2998 488.478 L 37.5598 487.738 L 37.8198 486.998 L 38.0998 486.238 L 38.3598 485.498 L 38.6398 484.738 L 38.9198 483.998 L 39.1998 483.238 L 39.4798 482.478 L 39.7598 481.738 L 40.0598 480.978 L 40.3398 480.218 L 40.6398 479.438 L 40.9398 478.678 L 41.2198 477.918 L 41.5198 477.138 L 41.8198 476.358 L 42.1198 475.598 L 42.4398 474.818 L 42.7398 474.038 L 43.0398 473.238 L 43.3598 472.458 L 43.6598 471.658 L 43.9798 470.878 L 44.2998 470.078 L 44.6198 469.278 L 44.9398 468.478 L 45.2598 467.678 L 45.5798 466.878 L 45.8998 466.058 L 46.2398 465.258 L 46.5598 464.438 L 46.8998 463.618 L 47.2198 462.798 L 47.5598 461.978 L 47.8998 461.158 L 48.2398 460.318 L 48.5798 459.498 L 48.9198 458.658 L 49.2798 457.838 L 49.6198 456.998 L 49.9598 456.158 L 50.3198 455.318 L 50.6798 454.478 L 51.0398 453.618 L 51.3998 452.778 L 51.7598 451.938 L 52.1198 451.078 L 52.4998 450.218 L 52.8798 449.378 L 53.2598 448.518 L 53.6398 447.658 L 54.0198 446.798 L 54.4198 445.958 L 54.8198 445.098 L 55.2198 444.238 L 55.6398 443.378 L 56.0398 442.518 L 56.4598 441.658 L 56.8798 440.798 L 57.3198 439.918 L 57.7398 439.058 L 58.1798 438.198 L 58.6198 437.338 L 59.0798 436.478 L 59.5198 435.598 L 59.9798 434.738 L 60.4398 433.878 L 60.8998 433.018 L 61.3798 432.158 L 61.8398 431.278 L 62.3198 430.418 L 62.7998 429.558 L 63.2798 428.698 L 63.7798 427.838 L 64.2598 426.958 L 64.7598 426.098 L 65.2598 425.238 L 65.7798 424.378 L 66.2798 423.498 L 66.7998 422.638 L 67.3198 421.778 L 67.8398 420.918 L 68.3598 420.058 L 68.8998 419.178 L 69.4398 418.318 L 69.9798 417.458 L 70.5198 416.598 L 71.0598 415.738 L 71.6198 414.858 L 72.1798 413.998 L 72.7398 413.138 L 73.2998 412.278 L 73.8798 411.418 L 74.4398 410.558 L 75.0198 409.698 L 75.6198 408.818 L 76.1998 407.958 L 76.7998 407.098 L 77.3798 406.238 L 77.9798 405.378 L 78.5998 404.518 L 79.1998 403.658 L 79.8198 402.798 L 80.4398 401.958 L 81.0598 401.098 L 81.6798 400.238 L 82.2998 399.378 L 82.9398 398.518 L 83.5798 397.658 L 84.2198 396.798 L 84.8598 395.938 L 85.4998 395.078 L 86.1598 394.218 L 86.7998 393.358 L 87.4398 392.498 L 88.0998 391.638 L 88.7598 390.778 L 89.3998 389.898 L 90.0598 389.038 L 90.7198 388.158 L 91.3798 387.298 L 92.0398 386.418 L 92.6998 385.538 L 93.3598 384.678 L 94.0398 383.798 L 94.6998 382.918 L 95.3798 382.038 L 96.0398 381.158 L 96.7198 380.278 L 97.3798 379.398 L 98.0598 378.518 L 98.7398 377.638 L 99.4198 376.738 L 100.0998 375.858 L 100.7798 374.958 L 101.4598 374.078 L 102.1398 373.178 L 102.8198 372.278 L 103.4798 371.378 L 104.1598 370.478 L 104.8398 369.578 L 105.5198 368.658 L 106.1998 367.758 L 106.8598 366.838 L 107.5198 365.918 L 108.1798 364.978 L 108.8398 364.058 L 109.4998 363.118 L 110.1598 362.178 L 110.8198 361.238 L 111.4598 360.298 L 112.1198 359.358 L 112.7798 358.418 L 113.4198 357.458 L 114.0798 356.518 L 114.7398 355.558 L 115.3998 354.618 L 116.0598 353.658 L 116.7198 352.698 L 117.3798 351.758 L 118.0198 350.778 L 118.6798 349.818 L 119.3198 348.838 L 119.9398 347.858 L 120.5798 346.878 L 121.2198 345.898 L 121.8398 344.898 L 122.4598 343.918 L 123.0798 342.918 L 123.6998 341.918 L 124.3198 340.918 L 124.9198 339.898 L 125.5198 338.898 L 126.1198 337.878 L 126.7198 336.858 L 127.3198 335.838 L 127.8998 334.818 L 128.4798 333.778 L 129.0598 332.758 L 129.6198 331.718 L 130.1598 330.678 L 130.6998 329.618 L 131.2198 328.578 L 131.7398 327.518 L 132.2398 326.458 L 132.7198 325.378 L 133.1998 324.318 L 133.6798 323.278 L 134.1398 322.238 L 134.6198 321.198 L 135.0798 320.178 L 135.5398 319.178 L 135.9998 318.178 L 136.4398 317.198 L 136.8798 316.238 L 137.3198 315.278 L 137.7398 314.338 L 138.1598 313.418 L 138.5598 312.498 L 138.9798 311.618 L 139.3798 310.738 L 139.7598 309.878 L 140.1398 309.018 L 140.5198 308.198 L 140.8998 307.378 L 141.2598 306.578 L 141.6198 305.798 L 141.9798 305.038 L 142.3398 304.278 L 142.6998 303.518 L 143.0798 302.778 L 143.4398 302.058 L 143.7998 301.338 L 144.1798 300.638 L 144.5398 299.938 L 144.9198 299.238 L 145.3198 298.558 L 145.6998 297.898 L 146.0998 297.238 L 146.4998 296.578 L 146.8998 295.938 L 147.3198 295.318 L 147.7398 294.698 L 148.1798 294.098 L 148.6198 293.498 L 149.0598 292.918 L 149.5198 292.338 L 149.9998 291.758 L 150.4598 291.198 L 150.9598 290.658 L 151.4398 290.118 L 151.9398 289.578 L 152.4398 289.058 L 152.9598 288.558 L 153.4598 288.058 L 153.9998 287.558 L 154.5198 287.078 L 155.0598 286.618 L 155.5998 286.158 L 156.1598 285.718 L 156.6998 285.278 L 157.2798 284.858 L 157.8398 284.458 L 158.4198 284.038 L 158.9998 283.658 L 159.5798 283.258 L 160.1598 282.858 L 160.7398 282.478 L 161.3198 282.098 L 161.9198 281.698 L 162.4998 281.318 L 163.0798 280.938 L 163.6798 280.558 L 164.2798 280.178 L 164.8798 279.798 L 165.4798 279.418 L 166.0998 279.058 L 166.6998 278.698 L 167.3398 278.358 L 167.9598 278.018 L 168.5798 277.678 L 169.2198 277.338 L 169.8598 276.998 L 170.4998 276.678 L 171.1598 276.358 L 171.7998 276.038 L 172.4598 275.738 L 173.1198 275.418 L 173.7798 275.118 L 174.4598 274.818 L 175.1198 274.518 L 175.7998 274.238 L 176.4798 273.938 L 177.1598 273.638 L 177.8198 273.338 L 178.4998 273.038 L 179.1798 272.738 L 179.8598 272.418 L 180.5198 272.078 L 181.1998 271.758 L 181.8598 271.418 L 182.5198 271.058 L 183.1798 270.698 L 183.8398 270.338 L 184.4798 269.958 L 185.1198 269.578 L 185.7598 269.178 L 186.3998 268.778 L 187.0398 268.358 L 187.6598 267.938 L 188.2798 267.498 L 188.8798 267.058 L 189.4798 266.618 L 190.0798 266.138 L 190.6798 265.678 L 191.2598 265.198 L 191.8198 264.698 L 192.3998 264.198 L 192.9598 263.698 L 193.5198 263.178 L 194.0598 262.658 L 194.5998 262.118 L 195.1198 261.578 L 195.6398 261.018 L 196.1598 260.458 L 196.6798 259.898 L 197.1998 259.338 L 197.6998 258.758 L 198.2198 258.178 L 198.7198 257.598 L 199.2398 257.018 L 199.7798 256.458 L 200.2998 255.878 L 200.8398 255.318 L 201.3798 254.738 L 201.9198 254.178 L 202.4798 253.618 L 203.0198 253.038 L 203.5798 252.478 L 204.1398 251.918 L 204.6998 251.338 L 205.2598 250.778 L 205.8398 250.198 L 206.3998 249.638 L 206.9598 249.058 L 207.5398 248.478 L 208.1198 247.918 L 208.6998 247.338 L 209.2798 246.758 L 209.8598 246.198 L 210.4398 245.618 L 211.0198 245.038 L 211.6198 244.458 L 212.1998 243.858 L 212.7798 243.278 L 213.3598 242.678 L 213.9398 242.078 L 214.5198 241.478 L 215.0998 240.858 L 215.6798 240.258 L 216.2598 239.658 L 216.8398 239.038 L 217.4398 238.418 L 218.0198 237.818 L 218.6198 237.198 L 219.1998 236.578 L 219.7998 235.958 L 220.3798 235.338 L 220.9798 234.718 L 221.5798 234.078 L 222.1798 233.458 L 222.7798 232.838 L 223.3798 232.198 L 223.9798 231.578 L 224.5798 230.938 L 225.1998 230.318 L 225.7998 229.678 L 226.4198 229.038 L 227.0198 228.398 L 227.6398 227.758 L 228.2398 227.118 L 228.8598 226.478 L 229.4798 225.838 L 230.0998 225.198 L 230.7198 224.538 L 231.3598 223.898 L 231.9798 223.258 L 232.6198 222.618 L 233.2398 221.978 L 233.8798 221.318 L 234.5198 220.678 L 235.1598 220.018 L 235.7998 219.378 L 236.4398 218.718 L 237.0798 218.058 L 237.7198 217.398 L 238.3598 216.758 L 239.0198 216.098 L 239.6598 215.438 L 240.3198 214.778 L 240.9598 214.118 L 241.6198 213.458 L 242.2798 212.778 L 242.9398 212.118 L 243.5998 211.458 L 244.2598 210.798 L 244.9198 210.118 L 245.5798 209.458 L 246.2598 208.778 L 246.9198 208.118 L 247.5998 207.438 L 248.2598 206.778 L 248.9398 206.098 L 249.6198 205.418 L 250.2798 204.758 L 250.9598 204.078 L 251.6398 203.398 L 252.3198 202.718 L 253.0198 202.038 L 253.6998 201.358 L 254.3798 200.678 L 255.0798 199.998 L 255.7798 199.338 L 256.4598 198.658 L 257.1598 197.978 L 257.8798 197.298 L 258.5798 196.618 L 259.2798 195.938 L 259.9998 195.258 L 260.6998 194.598 L 261.4198 193.918 L 262.1398 193.238 L 262.8398 192.578 L 263.5798 191.898 L 264.2998 191.218 L 265.0198 190.558 L 265.7398 189.878 L 266.4798 189.218 L 267.2198 188.538 L 267.9398 187.878 L 268.6798 187.218 L 269.4198 186.538 L 270.1798 185.878 L 270.9198 185.218 L 271.6798 184.558 L 272.4198 183.898 L 273.1798 183.238 L 273.9398 182.578 L 274.7198 181.938 L 275.4798 181.278 L 276.2398 180.618 L 277.0198 179.978 L 277.7998 179.338 L 278.5798 178.678 L 279.3598 178.038 L 280.1598 177.398 L 280.9398 176.758 L 281.7398 176.118 L 282.5398 175.478 L 283.3398 174.838 L 284.1398 174.218 L 284.9398 173.578 L 285.7598 172.958 L 286.5598 172.318 L 287.3798 171.698 L 288.1998 171.078 L 289.0398 170.458 L 289.8598 169.858 L 290.6998 169.238 L 291.5198 168.618 L 292.3598 168.018 L 293.1998 167.418 L 294.0598 166.818 L 294.8998 166.218 L 295.7598 165.618 L 296.6198 165.038 L 297.4798 164.438 L 298.3398 163.858 L 299.1998 163.278 L 300.0798 162.698 L 300.9598 162.118 L 301.8398 161.558 L 302.7198 160.978 L 303.5998 160.418 L 304.4998 159.858 L 305.3998 159.298 L 306.2798 158.738 L 307.1998 158.198 L 308.0998 157.658 L 308.9998 157.098 L 309.9198 156.558 L 310.8398 156.018 L 311.7398 155.498 L 312.6798 154.958 L 313.5998 154.438 L 314.5198 153.898 L 315.4598 153.378 L 316.3798 152.858 L 317.3198 152.338 L 318.2598 151.818 L 319.1798 151.278 L 320.1198 150.758 L 321.0598 150.238 L 321.9998 149.718 L 322.9598 149.198 L 323.8998 148.678 L 324.8398 148.158 L 325.7798 147.618 L 326.7398 147.098 L 327.6798 146.578 L 328.6198 146.058 L 329.5798 145.518 L 330.5198 144.998 L 331.4798 144.458 L 332.4198 143.938 L 333.3798 143.398 L 334.3398 142.858 L 335.2998 142.338 L 336.2398 141.798 L 337.1998 141.258 L 338.1598 140.738 L 339.1198 140.198 L 340.0798 139.658 L 341.0398 139.118 L 341.9998 138.598 L 342.9598 138.058 L 343.9198 137.518 L 344.8998 136.978 L 345.8598 136.438 L 346.8198 135.898 L 347.7998 135.358 L 348.7598 134.818 L 349.7198 134.278 L 350.6998 133.738 L 351.6598 133.198 L 352.6398 132.658 L 353.6198 132.118 L 354.5798 131.578 L 355.5598 131.018 L 356.5398 130.478 L 357.5198 129.938 L 358.4998 129.398 L 359.4598 128.838 L 360.4398 128.298 L 361.4198 127.738 L 362.3998 127.198 L 363.3798 126.638 L 364.3598 126.078 L 365.3398 125.538 L 366.3198 124.978 L 367.2998 124.418 L 368.2998 123.858 L 369.2798 123.298 L 370.2598 122.738 L 371.2398 122.178 L 372.2198 121.618 L 373.1998 121.038 L 374.1798 120.478 L 375.1598 119.898 L 376.1398 119.338 L 377.1398 118.758 L 378.1198 118.178 L 379.0998 117.618 L 380.0798 117.038 L 381.0798 116.458 L 382.0598 115.878 L 383.0398 115.298 L 384.0198 114.718 L 385.0198 114.138 L 385.9998 113.558 L 386.9798 112.958 L 387.9798 112.378 L 388.9598 111.778 L 389.9398 111.198 L 390.9198 110.598 L 391.9198 110.018 L 392.8998 109.418 L 393.8998 108.818 L 394.8798 108.238 L 395.8798 107.638 L 396.8598 107.038 L 397.8598 106.438 L 398.8398 105.838 L 399.8398 105.238 L 400.8198 104.638 L 401.7998 104.018 L 402.7998 103.418 L 403.7798 102.818 L 404.7798 102.198 L 405.7798 101.598 L 406.7598 100.978 L 407.7598 100.378 L 408.7398 99.778 L 409.7398 99.158 L 410.7398 98.558 L 411.7198 97.938 L 412.7198 97.338 L 413.7198 96.738 L 414.6998 96.118 L 415.6998 95.518 L 416.6998 94.898 L 417.6998 94.298 L 418.6998 93.698 L 419.6998 93.078 L 420.6998 92.478 L 421.6998 91.878 L 422.6998 91.258 L 423.6998 90.658 L 424.6998 90.058 L 425.6998 89.458 L 426.6998 88.838 L 427.7198 88.238 L 428.7198 87.638 L 429.7198 87.018 L 430.7198 86.418 L 431.7398 85.818 L 432.7398 85.198 L 433.7398 84.598 L 434.7598 83.998 L 435.7598 83.378 L 436.7798 82.778 L 437.7798 82.158 L 438.7998 81.558 L 439.7998 80.938 L 440.8198 80.338 L 441.8198 79.718 L 442.8398 79.118 L 443.8598 78.498 L 444.8598 77.898 L 445.8798 77.278 L 446.8998 76.678 L 447.8998 76.058 L 448.9198 75.458 L 449.9398 74.838 L 450.9598 74.238 L 451.9798 73.618 L 452.9998 73.018 L 454.0198 72.398 L 455.0398 71.798 L 456.0598 71.178 L 457.0798 70.578 L 458.0998 69.958 L 459.1198 69.338 L 460.1398 68.738 L 461.1598 68.118 L 462.1798 67.518 L 463.1998 66.898 L 464.2198 66.278 L 465.2598 65.678 L 466.2798 65.058 L 467.2998 64.438 L 468.3398 63.838 L 469.3598 63.218 L 470.3798 62.618 L 471.4198 61.998 L 472.4398 61.398 L 473.4798 60.778 L 474.4998 60.158 L 475.5398 59.558 L 476.5598 58.938 L 477.5998 58.318 L 478.6198 57.718 L 479.6598 57.098 L 480.6798 56.478 L 481.7198 55.878 L 482.7598 55.258 L 483.7798 54.638 L 484.8198 54.018 L 485.8598 53.418 L 486.8798 52.798 L 487.9198 52.178 L 488.9598 51.558 L 489.9998 50.938 L 491.0398 50.318 L 492.0598 49.718 L 493.0998 49.098 L 494.1198 48.498 L 495.1198 47.898 L 496.1198 47.298 L 497.0998 46.718 L 498.0598 46.138 L 499.0198 45.578 L 499.9598 45.018 L 500.8798 44.478 L 501.7998 43.938 L 502.6998 43.398 L 503.5998 42.858 L 504.4798 42.338 L 505.3398 41.838 L 506.1998 41.338 L 507.0398 40.838 L 507.8798 40.338 L 508.6998 39.858 L 509.4998 39.398 L 510.2998 38.918 L 511.0798 38.458 L 511.8598 37.998 L 512.6198 37.558 L 513.3598 37.118 L 514.0998 36.698 L 514.8198 36.278 L 515.5398 35.858 L 516.2398 35.438 L 516.9398 35.038 L 517.6198 34.638 L 518.2998 34.258 L 518.9598 33.858 L 519.6198 33.478 L 520.2798 33.098 L 520.9198 32.738 L 521.5598 32.358 L 522.1998 31.998 L 522.8398 31.638 L 523.4598 31.278 L 524.0798 30.918 L 524.6798 30.578 L 525.2998 30.238 L 525.8998 29.898 L 526.4798 29.578 L 527.0798 29.238 L 527.6398 28.938 L 528.1998 28.618 L 528.7598 28.318 L 529.3198 28.038 L 529.8398 27.758 L 530.3798 27.498 L 530.8998 27.238 L 531.4198 26.978 L 531.9398 26.738 L 532.4598 26.498 L 532.9598 26.278 L 533.4598 26.078 L 533.9598 25.858 L 534.4598 25.678 L 534.9398 25.478 L 535.4398 25.318 L 535.9398 25.158 L 536.4398 24.998 L 536.9398 24.858 L 537.4398 24.718 L 537.9398 24.598 L 538.4398 24.498 L 538.9598 24.398 L 539.4598 24.298 L 539.9598 24.238 L 540.4798 24.158 L 540.9798 24.118 L 541.4998 24.078 L 541.9998 24.038 H 542.5198 L 543.0198 24.018 L 543.5398 24.038 L 544.0398 24.058 L 544.5598 24.078 L 545.0598 24.118 L 545.5598 24.178 L 546.0598 24.238 L 546.5598 24.318 L 547.0598 24.418 L 547.5598 24.518 L 548.0598 24.638 L 548.5398 24.758 L 549.0398 24.898 L 549.5198 25.038 L 549.9998 25.178 L 550.4798 25.338 L 550.9598 25.518 L 551.4198 25.678 L 551.8998 25.858 L 552.3798 26.038 L 552.8398 26.218 L 553.3198 26.418 L 553.7798 26.598 L 554.2398 26.798 L 554.7198 27.018 L 555.1798 27.218 L 555.6198 27.438 L 556.0798 27.678 L 556.5398 27.898 L 556.9798 28.138 L 557.4398 28.398 L 557.8798 28.638 L 558.3198 28.898 L 558.7598 29.178 L 559.1998 29.438 L 559.6198 29.718 L 560.0598 30.018 L 560.4998 30.298 L 560.9198 30.598 L 561.3598 30.878 L 561.7998 31.158 L 562.2598 31.438 L 562.6998 31.698 L 563.1598 31.958 L 563.6198 32.198 L 564.0998 32.438 L 564.5798 32.658 L 565.0598 32.878 L 565.5398 33.078 L 566.0198 33.278 L 566.5198 33.478 L 566.9998 33.658 L 567.4998 33.838 L 568.0198 33.998 L 568.5198 34.158 L 569.0198 34.318 L 569.5398 34.478 L 570.0398 34.618 L 570.5598 34.778 L 571.0598 34.918 L 571.5798 35.058 L 572.0998 35.178 L 572.6198 35.298 L 573.1398 35.418 L 573.6598 35.518 L 574.1998 35.618 L 574.7198 35.698 L 575.2398 35.758 L 575.7798 35.818 L 576.2998 35.858 L 576.8398 35.898 L 577.3798 35.918 H 577.9198 H 578.4398 H 578.9798 L 579.5198 35.878 L 580.0398 35.838 L 580.5798 35.798 L 581.1198 35.738 L 581.6598 35.658 L 582.1998 35.578 L 582.7398 35.498 L 583.2798 35.398 L 583.8198 35.298 L 584.3798 35.178 L 584.9198 35.058 L 585.4598 34.918 L 586.0198 34.778 L 586.5798 34.638 L 587.1198 34.478 L 587.6798 34.318 L 588.2198 34.138 L 588.7798 33.958 L 589.3398 33.758 L 589.8798 33.558 L 590.4398 33.338 L 590.9998 33.118 L 591.5598 32.898 L 592.1198 32.678 L 592.6598 32.438 L 593.2198 32.178 L 593.7798 31.938 L 594.3398 31.678 L 594.8998 31.398 L 595.4598 31.118 L 596.0198 30.838 L 596.5798 30.538 L 597.1398 30.238 L 597.6798 29.918 L 598.2398 29.598 L 598.7998 29.278 L 599.3398 28.938 L 599.8998 28.578 L 600.4398 28.238 L 600.9798 27.858 L 601.5398 27.498 L 602.0798 27.118 L 602.6198 26.738 L 603.1598 26.338 L 603.7198 25.958 L 604.2598 25.558 L 604.8198 25.158 L 605.3798 24.778 L 605.9598 24.378 L 606.5198 23.998 L 607.0998 23.618 L 607.6998 23.258 L 608.2998 22.878 L 608.8998 22.538 L 609.5198 22.198 L 610.1198 21.858 L 610.7398 21.558 L 611.3598 21.238 L 611.9798 20.958 L 612.6198 20.678 L 613.2398 20.418 L 613.8598 20.158 L 614.4998 19.918 L 615.1198 19.698 L 615.7598 19.478 L 616.3798 19.278 L 617.0198 19.098 L 617.6598 18.918 L 618.2798 18.758 L 618.9198 18.618 L 619.5398 18.478 L 620.1798 18.358 L 620.7998 18.258 L 621.4398 18.178 L 622.0598 18.098 L 622.6798 18.038 L 623.3198 17.998 L 623.9398 17.978 L 624.5598 17.958 H 625.1798 H 625.7798 L 626.3998 17.978 L 626.9998 18.018 L 627.5998 18.078 L 628.1998 18.138 L 628.7998 18.218 L 629.3798 18.298 L 629.9798 18.398 L 630.5398 18.518 L 631.1198 18.638 L 631.6798 18.778 L 632.2398 18.938 L 632.7998 19.098 L 633.3598 19.278 L 633.8998 19.458 L 634.4398 19.678 L 634.9798 19.878 L 635.4998 20.1182 L 636.0198 20.3582 L 636.5398 20.6182 L 637.0398 20.878 L 637.5398 21.1582 L 638.0598 21.438 L 638.5598 21.7382 L 639.0598 22.0382 L 639.5598 22.3382 L 640.0798 22.638 L 640.5798 22.938 L 641.0998 23.258 L 641.6198 23.558 L 642.1398 23.878 L 642.6598 24.198 L 643.1998 24.498 L 643.7198 24.818 L 644.2598 25.138 L 644.7998 25.4782 L 645.3398 25.7982 L 645.8798 26.1182 L 646.4198 26.4582 L 646.9798 26.7982 L 647.5198 27.1582 L 648.0598 27.498 L 648.5998 27.878 L 649.1398 28.2382 L 649.6998 28.6182 L 650.2398 28.998 L 650.7798 29.3982 L 651.3198 29.7782 L 651.8598 30.198 L 652.3998 30.5982 L 652.9398 31.0382 L 653.4798 31.458 L 654.0198 31.898 L 654.5598 32.338 L 655.0998 32.778 L 655.6398 33.238 L 656.1798 33.678 L 656.7198 34.138 L 657.2598 34.618 L 657.7998 35.078 L 658.3598 35.538 L 658.8998 36.018 L 659.4598 36.498 L 660.0198 36.978 L 660.5798 37.458 L 661.1398 37.938 L 661.6998 38.438 L 662.2598 38.918 L 662.8198 39.418 L 663.3998 39.918 L 663.9598 40.418 L 664.5398 40.938 L 665.0998 41.438 L 665.6798 41.958 L 666.2598 42.478 L 666.8398 42.998 L 667.4198 43.518 L 667.9998 44.038 L 668.5798 44.578 L 669.1798 45.098 L 669.7598 45.638 L 670.3398 46.178 L 670.9398 46.718 L 671.5398 47.258 L 672.1198 47.818 L 672.7198 48.358 L 673.3198 48.918 L 673.9198 49.458 L 674.5198 50.018 L 675.1198 50.578 L 675.7398 51.118 L 676.3398 51.678 L 676.9598 52.238 L 677.5598 52.818 L 678.1798 53.378 L 678.7998 53.938 L 679.4198 54.518 L 680.0398 55.078 L 680.6598 55.658 L 681.2798 56.218 L 681.9198 56.798 L 682.5598 57.358 L 683.1998 57.938 L 683.8598 58.498 L 684.4998 59.078 L 685.1598 59.638 L 685.8198 60.198 L 686.4798 60.778 L 687.1398 61.358 L 687.8198 61.918 L 688.4798 62.498 L 689.1398 63.078 L 689.8198 63.658 L 690.4998 64.238 L 691.1798 64.818 L 691.8598 65.398 L 692.5398 65.998 L 693.2198 66.578 L 693.8998 67.158 L 694.5998 67.758 L 695.2998 68.358 L 695.9798 68.938 L 696.6798 69.538 L 697.3798 70.138 L 698.0798 70.738 L 698.7798 71.338 L 699.4998 71.938 L 700.1998 72.538 L 700.9198 73.138 L 701.6398 73.758 L 702.3598 74.358 L 703.0798 74.958 L 703.7998 75.558 L 704.5198 76.178 L 705.2598 76.778 L 705.9798 77.398 L 706.7198 78.018 L 707.4398 78.618 L 708.1598 79.218 L 708.8798 79.818 L 709.5998 80.418 L 710.2798 81.018 L 710.9798 81.598 L 711.6598 82.158 L 712.3198 82.718 L 712.9798 83.278 L 713.6198 83.838 L 714.2598 84.378 L 714.8798 84.898 L 715.4998 85.438 L 716.1198 85.958 L 716.7198 86.458 L 717.2998 86.978 L 717.8798 87.478 L 718.4398 87.978 L 718.9998 88.458 L 719.5198 88.958 L 720.0598 89.458 L 720.5798 89.938 L 721.0798 90.438 L 721.5598 90.938 L 722.0398 91.438 L 722.4998 91.918 L 722.9598 92.418 L 723.3998 92.918 L 723.8198 93.438 L 724.2398 93.938 L 724.6398 94.458 L 725.0198 94.958 L 725.3998 95.478 L 725.7598 95.998 L 726.1198 96.518 L 726.4598 97.058 L 726.7798 97.578 L 727.0798 98.118 L 727.3798 98.658 L 727.6598 99.198 L 727.9398 99.738 L 728.1998 100.278 L 728.4398 100.818 L 728.6798 101.378 L 728.8998 101.918 L 729.1198 102.478 L 729.2998 103.018 L 729.4798 103.578 L 729.6398 104.138 L 729.7998 104.678 L 729.9398 105.238 L 730.0598 105.778 L 730.1798 106.338 L 730.2798 106.898 L 730.3598 107.438 L 730.4398 107.978 L 730.4998 108.538 L 730.5398 109.078 L 730.5798 109.618 L 730.5998 110.158 V 110.718 L 730.5798 111.238 L 730.5598 111.778 L 730.5198 112.318 L 730.4798 112.838 L 730.4198 113.378 L 730.3398 113.898 L 730.2398 114.418 L 730.1398 114.918 L 730.0198 115.438 L 729.8798 115.938 L 729.7398 116.438 L 729.5998 116.918 L 729.4198 117.398 L 729.2398 117.878 L 729.0598 118.358 L 728.8598 118.818 L 728.6398 119.258 L 728.4198 119.718 L 728.1798 120.158 L 727.9198 120.578 L 727.6598 120.998 L 727.3998 121.398 L 727.1198 121.798 L 726.8398 122.198 L 726.5398 122.578 L 726.2398 122.938 L 725.9198 123.298 L 725.5998 123.658 L 725.2598 123.998 L 724.9198 124.318 L 724.5598 124.638 L 724.2198 124.938 L 723.8398 125.238 L 723.4798 125.518 L 723.0998 125.798 L 722.7198 126.058 L 722.3198 126.298 L 721.9198 126.538 L 721.5198 126.758 L 721.1198 126.978 L 720.6998 127.178 L 720.2798 127.378 L 719.8598 127.558 L 719.4398 127.738 L 719.0198 127.898 L 718.5798 128.038 L 718.1398 128.178 L 717.6998 128.318 L 717.2598 128.438 L 716.8198 128.538 L 716.3798 128.618 L 715.9198 128.698 L 715.4798 128.778 L 715.0198 128.838 L 714.5798 128.878 L 714.1198 128.918 L 713.6798 128.938 H 713.2198 H 712.7798 L 712.3198 128.918 L 711.8798 128.898 L 711.4198 128.858 L 710.9798 128.818 L 710.5398 128.758 L 710.0998 128.698 L 709.6398 128.598 L 709.1998 128.518 L 708.7798 128.418 L 708.3398 128.298 L 707.8998 128.178 L 707.4598 128.058 L 707.0198 127.918 L 706.5998 127.778 L 706.1598 127.638 L 705.7198 127.478 L 705.2998 127.338 L 704.8598 127.178 L 704.4198 126.998 L 703.9798 126.838 L 703.5398 126.658 L 703.1198 126.478 L 702.6798 126.278 L 702.2398 126.078 L 701.7998 125.878 L 701.3598 125.678 L 700.9398 125.458 L 700.4998 125.238 L 700.0598 124.998 L 699.6198 124.758 L 699.1998 124.518 L 698.7598 124.258 L 698.3398 123.998 L 697.8998 123.718 L 697.4798 123.438 L 697.0598 123.158 L 696.6198 122.838 L 696.1998 122.538 L 695.7798 122.218 L 695.3598 121.898 L 694.9598 121.558 L 694.5398 121.218 L 694.1198 120.878 L 693.6998 120.538 L 693.2798 120.178 L 692.8598 119.818 L 692.4398 119.438 L 692.0198 119.058 L 691.5998 118.678 L 691.1998 118.278 L 690.7798 117.858 L 690.3798 117.438 L 689.9798 117.018 L 689.5798 116.578 L 689.1798 116.138 L 688.7798 115.678 L 688.3798 115.218 L 687.9998 114.758 L 687.5998 114.278 L 687.2198 113.798 L 686.8198 113.318 L 686.4198 112.818 L 686.0398 112.318 L 685.6398 111.818 L 685.2398 111.298 L 684.8598 110.798 L 684.4598 110.278 L 684.0598 109.738 L 683.6798 109.218 L 683.2798 108.678 L 682.8998 108.138 L 682.4998 107.618 L 682.1198 107.078 L 681.7398 106.538 L 681.3398 105.998 L 680.9198 105.458 L 680.5198 104.938 L 680.0998 104.398 L 679.6598 103.878 L 679.2198 103.358 L 678.7798 102.818 L 678.3198 102.298 L 677.8598 101.778 L 677.3798 101.258 L 676.8998 100.738 L 676.4198 100.218 L 675.9398 99.698 L 675.4598 99.178 L 674.9798 98.658 L 674.4998 98.158 L 674.0198 97.658 L 673.5598 97.178 L 673.0998 96.698 L 672.6198 96.238 L 672.1598 95.778 L 671.6998 95.338 L 671.2598 94.898 L 670.7998 94.478 L 670.3398 94.078 L 669.8998 93.678 L 669.4398 93.298 L 668.9998 92.918 L 668.5598 92.558 L 668.1198 92.218 L 667.6598 91.878 L 667.2198 91.558 L 666.7798 91.238 L 666.3198 90.938 L 665.8798 90.638 L 665.4198 90.358 L 664.9798 90.098 L 664.5198 89.838 L 664.0598 89.598 L 663.5998 89.378 L 663.1398 89.158 L 662.6798 88.958 L 662.1998 88.758 L 661.7398 88.578 L 661.2798 88.418 L 660.7998 88.258 L 660.3398 88.118 L 659.8598 87.998 L 659.3998 87.878 L 658.9198 87.778 L 658.4598 87.698 L 657.9798 87.618 L 657.5198 87.558 L 657.0598 87.498 L 656.5798 87.458 L 656.1198 87.438 L 655.6598 87.418 H 655.1798 H 654.7198 L 654.2598 87.438 L 653.7998 87.458 L 653.3398 87.498 L 652.8798 87.538 L 652.4198 87.578 L 651.9598 87.618 L 651.4998 87.658 L 651.0398 87.698 L 650.5798 87.758 L 650.1198 87.798 L 649.6598 87.858 L 649.1998 87.918 L 648.7398 87.978 L 648.2798 88.058 L 647.7998 88.138 L 647.3398 88.218 L 646.8798 88.318 L 646.4198 88.398 L 645.9598 88.498 L 645.4998 88.598 L 645.0398 88.718 L 644.5798 88.818 L 644.1198 88.938 L 643.6398 89.058 L 643.1798 89.198 L 642.7198 89.318 L 642.2598 89.458 L 641.7798 89.598 L 641.3198 89.758 L 640.8598 89.898 L 640.3798 90.058 L 639.9198 90.218 L 639.4398 90.398 L 638.9798 90.578 L 638.4998 90.758 L 638.0198 90.938 L 637.5398 91.118 L 637.0598 91.318 L 636.5798 91.518 L 636.0998 91.738 L 635.6198 91.938 L 635.1398 92.158 L 634.6598 92.398 L 634.1598 92.618 L 633.6798 92.858 L 633.1798 93.118 L 632.6798 93.358 L 632.1998 93.638 L 631.6998 93.898 L 631.1998 94.178 L 630.6798 94.458 L 630.1798 94.738 L 629.6798 95.038 L 629.1598 95.338 L 628.6598 95.658 L 628.1398 95.978 L 627.6398 96.298 L 627.1198 96.638 L 626.5998 96.978 L 626.0798 97.318 L 625.5598 97.678 L 625.0398 98.038 L 624.5198 98.398 L 623.9798 98.758 L 623.4398 99.118 L 622.8998 99.478 L 622.3598 99.838 L 621.7998 100.218 L 621.2598 100.598 L 620.6998 100.958 L 620.1598 101.338 L 619.5998 101.718 L 619.0398 102.078 L 618.4798 102.458 L 617.9198 102.838 L 617.3598 103.218 L 616.7998 103.598 L 616.2398 103.978 L 615.6598 104.378 L 615.0798 104.758 L 614.4998 105.158 L 613.9198 105.538 L 613.3398 105.938 L 612.7398 106.318 L 612.1398 106.718 L 611.5398 107.118 L 610.9398 107.518 L 610.3198 107.898 L 609.6998 108.298 L 609.0998 108.698 L 608.4798 109.098 L 607.8398 109.518 L 607.2198 109.918 L 606.5798 110.318 L 605.9398 110.718 L 605.2998 111.138 L 604.6398 111.538 L 603.9998 111.938 L 603.3398 112.338 L 602.6798 112.758 L 602.0198 113.158 L 601.3398 113.558 L 600.6598 113.958 L 599.9798 114.358 L 599.2998 114.758 L 598.5998 115.158 L 597.8998 115.558 L 597.1998 115.958 L 596.4998 116.358 L 595.7998 116.758 L 595.0998 117.138 L 594.3798 117.538 L 593.6798 117.938 L 592.9598 118.318 L 592.2398 118.718 L 591.5198 119.118 L 590.7798 119.518 L 590.0598 119.898 L 589.3198 120.298 L 588.5798 120.698 L 587.8398 121.078 L 587.0798 121.478 L 586.3398 121.858 L 585.5798 122.258 L 584.8198 122.638 L 584.0598 123.038 L 583.2798 123.418 L 582.5198 123.798 L 581.7398 124.198 L 580.9598 124.578 L 580.1798 124.958 L 579.3798 125.338 L 578.5998 125.718 L 577.7998 126.098 L 576.9998 126.478 L 576.1998 126.838 L 575.3798 127.218 L 574.5798 127.598 L 573.7598 127.958 L 572.9398 128.338 L 572.0998 128.698 L 571.2798 129.078 L 570.4398 129.438 L 569.6198 129.818 L 568.7798 130.178 L 567.9398 130.558 L 567.0998 130.938 L 566.2598 131.298 L 565.3998 131.678 L 564.5598 132.058 L 563.6998 132.438 L 562.8398 132.818 L 561.9798 133.198 L 561.1198 133.578 L 560.2598 133.978 L 559.3998 134.358 L 558.5198 134.738 L 557.6598 135.138 L 556.7798 135.518 L 555.8998 135.898 L 555.0198 136.298 L 554.1398 136.678 L 553.2598 137.058 L 552.3598 137.438 L 551.4598 137.838 L 550.5798 138.218 L 549.6798 138.598 L 548.7798 138.998 L 547.8598 139.378 L 546.9598 139.778 L 546.0598 140.178 L 545.1398 140.558 L 544.2398 140.958 L 543.3198 141.338 L 542.4198 141.738 L 541.4998 142.138 L 540.5798 142.538 L 539.6598 142.938 L 538.7398 143.338 L 537.8198 143.738 L 536.8798 144.138 L 535.9598 144.538 L 535.0198 144.938 L 534.0998 145.338 L 533.1598 145.738 L 532.2198 146.138 L 531.2798 146.538 L 530.3398 146.958 L 529.3998 147.358 L 528.4398 147.778 L 527.4998 148.178 L 526.5598 148.598 L 525.5998 148.998 L 524.6398 149.418 L 523.6798 149.818 L 522.7398 150.238 L 521.7798 150.658 L 520.7998 151.078 L 519.8398 151.498 L 518.8798 151.918 L 517.9198 152.338 L 516.9398 152.758 L 515.9798 153.198 L 515.0198 153.618 L 514.0398 154.058 L 513.0798 154.498 L 512.1198 154.918 L 511.1798 155.358 L 510.2398 155.798 L 509.3198 156.238 L 508.3998 156.698 L 507.4798 157.138 L 506.5998 157.578 L 505.7198 158.038 L 504.8398 158.478 L 503.9798 158.918 L 503.1198 159.378 L 502.2798 159.818 L 501.4598 160.238 L 500.6398 160.678 L 499.8398 161.098 L 499.0398 161.518 L 498.2598 161.938 L 497.4798 162.338 L 496.7198 162.758 L 495.9598 163.138 L 495.2198 163.538 L 494.4798 163.918 L 493.7798 164.318 L 493.0598 164.698 L 492.3598 165.078 L 491.6798 165.458 L 491.0198 165.858 L 490.3598 166.238 L 489.7198 166.638 L 489.0798 167.018 L 488.4598 167.418 L 487.8598 167.798 L 487.2798 168.198 L 486.6998 168.598 L 486.1198 168.998 L 485.5598 169.418 L 485.0198 169.838 L 484.4798 170.258 L 483.9598 170.698 L 483.4398 171.138 L 482.9398 171.578 L 482.4398 172.038 L 481.9598 172.498 L 481.4798 172.958 L 481.0198 173.438 L 480.5598 173.918 L 480.1198 174.418 L 479.6798 174.918 L 479.2598 175.438 L 478.8598 175.938 L 478.4598 176.458 L 478.0798 176.998 L 477.6998 177.538 L 477.3398 178.078 L 476.9798 178.618 L 476.6398 179.178 L 476.2998 179.738 L 475.9998 180.318 L 475.6798 180.878 L 475.3998 181.458 L 475.1198 182.058 L 474.8398 182.638 L 474.5798 183.238 L 474.3398 183.838 L 474.1198 184.438 L 473.8998 185.038 L 473.6798 185.638 L 473.4798 186.258 L 473.2998 186.878 L 473.1398 187.498 L 472.9798 188.118 L 472.8198 188.738 L 472.6798 189.378 L 472.5398 189.998 L 472.4198 190.638 L 472.2798 191.278 L 472.1598 191.898 L 472.0198 192.538 L 471.8998 193.178 L 471.7798 193.818 L 471.6398 194.458 L 471.5198 195.098 L 471.3998 195.738 L 471.2798 196.398 L 471.1798 197.038 L 471.0598 197.698 L 470.9598 198.338 L 470.8398 198.998 L 470.7398 199.658 L 470.6398 200.318 L 470.5598 200.978 L 470.4598 201.638 L 470.3798 202.298 L 470.3198 202.958 L 470.2598 203.638 L 470.1998 204.298 L 470.1398 204.978 L 470.0998 205.658 L 470.0798 206.318 L 470.0598 206.998 L 470.0398 207.678 L 470.0198 208.358 V 209.038 L 470.0398 209.738 L 470.0598 210.418 L 470.0798 211.098 L 470.1198 211.798 L 470.1598 212.478 L 470.1998 213.158 L 470.2598 213.858 L 470.3198 214.538 L 470.3998 215.238 L 470.4798 215.918 L 470.5798 216.618 L 470.6598 217.318 L 470.7798 217.998 L 470.8798 218.698 L 471.0198 219.398 L 471.1398 220.078 L 471.2798 220.778 L 471.4198 221.478 L 471.5798 222.158 L 471.7398 222.858 L 471.9198 223.538 L 472.0998 224.238 L 472.2798 224.918 L 472.4798 225.618 L 472.6798 226.298 L 472.8998 226.998 L 473.1198 227.678 L 473.3398 228.378 L 473.5798 229.058 L 473.8398 229.738 L 474.0798 230.418 L 474.3398 231.118 L 474.6198 231.798 L 474.8998 232.478 L 475.1798 233.158 L 475.4598 233.838 L 475.7598 234.518 L 476.0598 235.198 L 476.3598 235.878 L 476.6798 236.558 L 476.9998 237.238 L 477.3198 237.918 L 477.6598 238.598 L 477.9798 239.278 L 478.3398 239.958 L 478.6798 240.618 L 479.0398 241.298 L 479.4198 241.978 L 479.7998 242.638 L 480.1998 243.298 L 480.5998 243.958 L 480.9998 244.618 L 481.4198 245.258 L 481.8598 245.918 L 482.2998 246.558 L 482.7398 247.198 L 483.1998 247.838 L 483.6598 248.458 L 484.1398 249.098 L 484.6198 249.718 L 485.1198 250.338 L 485.6198 250.938 L 486.1398 251.558 L 486.6598 252.158 L 487.1798 252.738 L 487.7198 253.338 L 488.2798 253.918 L 488.8198 254.498 L 489.3798 255.078 L 489.9598 255.638 L 490.5398 256.198 L 491.1198 256.758 L 491.7198 257.318 L 492.3198 257.858 L 492.9398 258.398 L 493.5598 258.918 L 494.1798 259.438 L 494.8198 259.958 L 495.4598 260.478 L 496.1198 260.978 L 496.7798 261.458 L 497.4398 261.958 L 498.0998 262.438 L 498.7798 262.898 L 499.4798 263.358 L 500.1598 263.818 L 500.8598 264.278 L 501.5798 264.718 L 502.2998 265.158 L 503.0198 265.578 L 503.7398 265.998 L 504.4798 266.418 L 505.2198 266.818 L 505.9598 267.218 L 506.7198 267.618 L 507.4798 267.998 L 508.2598 268.358 L 509.0398 268.738 L 509.8198 269.098 L 510.5998 269.438 L 511.3998 269.778 L 512.1998 270.118 L 512.9998 270.438 L 513.8198 270.758 L 514.6398 271.078 L 515.4598 271.378 L 516.2998 271.678 L 517.1198 271.978 L 517.9598 272.278 L 518.7998 272.558 L 519.6598 272.838 L 520.4998 273.098 L 521.3598 273.378 L 522.2198 273.638 L 523.0998 273.898 L 523.9598 274.158 L 524.8398 274.398 L 525.7198 274.638 L 526.5998 274.878 L 527.4798 275.098 L 528.3798 275.318 L 529.2598 275.538 L 530.1598 275.738 L 531.0798 275.938 L 531.9798 276.138 L 532.8998 276.338 L 533.7998 276.518 L 534.7198 276.698 L 535.6398 276.858 L 536.5798 277.018 L 537.4998 277.178 L 538.4398 277.338 L 539.3798 277.478 L 540.3198 277.618 L 541.2598 277.758 L 542.1998 277.878 L 543.1598 277.998 L 544.0998 278.118 L 545.0598 278.218 L 546.0198 278.318 L 546.9798 278.418 L 547.9398 278.498 L 548.9198 278.598 L 549.8798 278.678 L 550.8598 278.758 L 551.8398 278.838 L 552.7998 278.898 L 553.7798 278.978 L 554.7598 279.038 L 555.7598 279.118 L 556.7398 279.178 L 557.7398 279.238 L 558.7198 279.318 L 559.7198 279.378 L 560.6998 279.438 L 561.6998 279.518 L 562.6998 279.578 L 563.6798 279.638 L 564.6798 279.718 L 565.6798 279.778 L 566.6798 279.838 L 567.6598 279.918 L 568.6598 279.978 L 569.6598 280.058 L 570.6598 280.138 L 571.6798 280.198 L 572.6798 280.278 L 573.6798 280.358 L 574.6798 280.438 L 575.6998 280.518 L 576.6998 280.598 L 577.7198 280.698 L 578.7398 280.818 L 579.7398 280.918 L 580.7598 281.038 L 581.7798 281.178 L 582.7798 281.318 L 583.7998 281.458 L 584.8198 281.618 L 585.8198 281.798 L 586.8398 281.978 L 587.8598 282.158 L 588.8798 282.338 L 589.8998 282.538 L 590.9198 282.718 L 591.9398 282.898 L 592.9598 283.078 L 593.9798 283.238 L 595.0198 283.418 L 596.0398 283.578 L 597.0798 283.738 L 598.1198 283.898 L 599.1598 284.0578 L 600.1998 284.1978 L 601.2398 284.3578 L 602.2798 284.5178 L 603.3198 284.6778 L 604.3598 284.8378 L 605.4198 284.9978 L 606.4598 285.1578 L 607.4998 285.3178 L 608.5598 285.4778 L 609.6198 285.6378 L 610.6598 285.7978 L 611.6998 285.9578 L 612.7198 286.1178 L 613.7398 286.2778 L 614.7198 286.4378 L 615.7198 286.5778 L 616.6998 286.7378 L 617.6598 286.8978 L 618.5998 287.0778 L 619.5398 287.2378 L 620.4598 287.4178 L 621.3798 287.5778 L 622.2798 287.7578 L 623.1798 287.9178 L 624.0598 288.0778 L 624.9198 288.2578 L 625.7598 288.4178 L 626.5998 288.5778 L 627.4198 288.7578 L 628.2198 288.9178 L 629.0198 289.0778 L 629.7998 289.2378 L 630.5798 289.3978 L 631.3198 289.5578 L 632.0598 289.7178 L 632.7998 289.8578 L 633.5198 290.0178 L 634.2198 290.1778 L 634.8998 290.3178 L 635.5798 290.4778 L 636.2398 290.6378 L 636.8998 290.8178 L 637.5398 290.9778 L 638.1798 291.1578 L 638.7998 291.358 L 639.3998 291.558 L 639.9998 291.758 L 640.5798 291.978 L 641.1598 292.198 L 641.7198 292.438 L 642.2798 292.678 L 642.8398 292.938 L 643.3798 293.198 L 643.9198 293.478 L 644.4398 293.758 L 644.9798 294.058 L 645.4798 294.358 L 645.9998 294.678 L 646.4998 294.998 L 647.0198 295.298 L 647.5198 295.618 L 648.0198 295.958 L 648.4998 296.278 L 648.9998 296.618 L 649.4798 296.938 L 649.9598 297.278 L 650.4398 297.638 L 650.9198 297.998 L 651.3798 298.358 L 651.8398 298.718 L 652.2798 299.078 L 652.7398 299.458 L 653.1598 299.858 L 653.5798 300.238 L 653.9998 300.638 L 654.3998 301.058 L 654.7998 301.458 L 655.1798 301.878 L 655.5398 302.298 L 655.8998 302.738 L 656.2398 303.178 L 656.5798 303.618 L 656.8998 304.078 L 657.2198 304.518 L 657.5198 304.978 L 657.7998 305.458 L 658.0798 305.918 L 658.3398 306.398 L 658.5798 306.878 L 658.8198 307.358 L 659.0598 307.838 L 659.2598 308.338 L 659.4598 308.838 L 659.6598 309.338 L 659.8398 309.838 L 659.9998 310.338 L 660.1598 310.858 L 660.2998 311.358 L 660.4398 311.878 L 660.5598 312.398 L 660.6598 312.918 L 660.7798 313.458 L 660.8798 313.978 L 660.9798 314.518 L 661.0798 315.038 L 661.1598 315.578 L 661.2598 316.118 L 661.3398 316.658 L 661.3998 317.198 L 661.4798 317.758 L 661.5198 318.298 L 661.5798 318.858 L 661.6198 319.418 L 661.6398 319.978 L 661.6598 320.538 L 661.6798 321.098 L 661.6598 321.658 V 322.218 L 661.6398 322.798 L 661.5998 323.358 L 661.5598 323.918 L 661.5198 324.478 L 661.4598 325.038 L 661.3798 325.618 L 661.2998 326.178 L 661.1998 326.738 L 661.0998 327.298 L 660.9798 327.858 L 660.8598 328.418 L 660.7398 328.978 L 660.6198 329.538 L 660.4798 330.098 L 660.3398 330.658 L 660.1998 331.218 L 660.0598 331.778 L 659.9198 332.358 L 659.7798 332.918 L 659.6398 333.498 L 659.4998 334.078 L 659.3598 334.638 L 659.2198 335.218 L 659.0798 335.798 L 658.9398 336.398 L 658.8198 336.958 L 658.6998 337.538 L 658.5798 338.118 L 658.4598 338.698 L 658.3798 339.258 L 658.2798 339.818 L 658.2198 340.378 L 658.1598 340.938 L 658.0998 341.498 L 658.0598 342.038 L 658.0198 342.598 L 657.9998 343.138 L 657.9798 343.678 V 344.218 V 344.738 V 345.278 V 345.798 V 346.318 V 346.838 V 347.358 V 347.858 V 348.358 L 657.9998 348.858 V 349.358 L 658.0398 349.858 L 658.0598 350.338 L 658.0998 350.818 L 658.1398 351.298 L 658.1998 351.778 L 658.2398 352.258 L 658.2998 352.718 L 658.3798 353.198 L 658.4398 353.658 L 658.4998 354.118 L 658.5798 354.578 L 658.6598 355.018 L 658.7598 355.478 L 658.8398 355.918 L 658.9398 356.358 L 659.0398 356.798 L 659.1398 357.238 L 659.2398 357.678 L 659.3598 358.098 L 659.4798 358.518 L 659.6198 358.938 L 659.7398 359.358 L 659.8798 359.778 L 660.0198 360.198 L 660.1798 360.598 L 660.3198 360.998 L 660.4798 361.418 L 660.6598 361.798 L 660.8198 362.198 L 660.9998 362.598 L 661.1598 362.978 L 661.3398 363.378 L 661.5398 363.758 L 661.7198 364.138 L 661.9198 364.518 L 662.1198 364.898 L 662.3198 365.278 L 662.5398 365.638 L 662.7598 366.018 L 662.9798 366.378 L 663.1998 366.738 L 663.4398 367.118 L 663.6598 367.478 L 663.9198 367.838 L 664.1598 368.198 L 664.4198 368.538 L 664.6798 368.898 L 664.9598 369.238 L 665.2398 369.578 L 665.5198 369.918 L 665.8198 370.258 L 666.1198 370.578 L 666.4198 370.898 L 666.7398 371.218 L 667.0598 371.538 L 667.3998 371.838 L 667.7198 372.138 L 668.0598 372.438 L 668.3998 372.738 L 668.7598 373.038 L 669.1198 373.318 L 669.4798 373.598 L 669.8398 373.878 L 670.2198 374.158 L 670.5798 374.438 L 670.9598 374.718 L 671.3398 374.998 L 671.7198 375.258 L 672.0998 375.538 L 672.4998 375.798 L 672.8798 376.078 L 673.2798 376.338 L 673.6798 376.598 L 674.0798 376.878 L 674.4798 377.138 L 674.8798 377.398 L 675.2798 377.638 L 675.6998 377.898 L 676.1198 378.158 L 676.5398 378.398 L 676.9598 378.658 L 677.3798 378.898 L 677.7998 379.158 L 678.2198 379.418 L 678.6598 379.658 L 679.0798 379.898 L 679.5198 380.158 L 679.9598 380.398 L 680.3998 380.638 L 680.8398 380.878 L 681.2798 381.118 L 681.7398 381.358 L 682.1998 381.578 L 682.6598 381.798 L 683.1198 382.018 L 683.5798 382.218 L 684.0598 382.438 L 684.5198 382.6382 L 684.9998 382.8382 L 685.4798 383.0382 L 685.9798 383.2182 L 686.4598 383.3982 L 686.9398 383.5982 L 687.4398 383.7782 L 687.9398 383.9582 L 688.4398 384.1382 L 688.9398 384.3182 L 689.4398 384.4982 L 689.9598 384.6582 L 690.4598 384.8182 L 690.9798 384.9782 L 691.4998 385.1382 L 692.0198 385.2982 L 692.5598 385.4382 L 693.0798 385.5982 L 693.6198 385.7582 L 694.1598 385.9182 L 694.6998 386.0782 L 695.2598 386.2382 L 695.7998 386.3982 L 696.3598 386.5782 L 696.9398 386.7382 L 697.4998 386.8982 L 698.0798 387.0782 L 698.6398 387.2382 L 699.2398 387.4182 L 699.8198 387.5782 L 700.3998 387.7582 L 700.9998 387.9382 L 701.5998 388.1182 L 702.1998 388.2982 L 702.8198 388.4782 L 703.4398 388.6582 L 704.0398 388.8382 L 704.6598 389.0182 L 705.2998 389.1982 L 705.9198 389.3782 L 706.5598 389.5782 L 707.1998 389.7582 L 707.8398 389.9382 L 708.4798 390.1382 L 709.1198 390.3182 L 709.7598 390.5182 L 710.3998 390.6982 L 711.0598 390.8782 L 711.6998 391.0782 L 712.3598 391.2782 L 712.9998 391.4582 L 713.6598 391.6582 L 714.3198 391.8584 L 714.9798 392.0384 L 715.6598 392.2384 L 716.3398 392.4384 L 716.9998 392.6384 L 717.6798 392.8384 L 718.3798 393.0384 L 719.0598 393.2386 L 719.7398 393.4386 L 720.4398 393.6386 L 721.1398 393.8586 L 721.8398 394.0586 L 722.5398 394.2786 L 723.2598 394.4786 L 723.9598 394.6986 L 724.6798 394.9186 L 725.3998 395.1386 L 726.0998 395.3586 L 726.7998 395.5586 L 727.4998 395.7786 L 728.1798 395.9986 L 728.8598 396.2186 L 729.5198 396.4186 L 730.1598 396.6388 L 730.8198 396.8586 L 731.4398 397.0586 L 732.0598 397.2786 L 732.6798 397.4788 L 733.2598 397.6788 L 733.8598 397.8788 L 734.4198 398.0788 L 734.9798 398.2788 L 735.5398 398.479 L 736.0598 398.679 L 736.5798 398.879 L 737.0998 399.079 L 737.5998 399.279 L 738.0998 399.479 L 738.5798 399.699 L 739.0598 399.919 L 739.5198 400.139 L 739.9798 400.379 L 740.4198 400.619 L 740.8598 400.879 L 741.2998 401.139 L 741.7198 401.3992 L 742.1198 401.679 L 742.5398 401.959 L 742.9398 402.239 L 743.3198 402.5192 L 743.7198 402.819 L 744.0998 403.119 L 744.4798 403.419 L 744.8798 403.719 L 745.2598 404.0192 L 745.6198 404.319 L 745.9998 404.619 L 746.3598 404.919 L 746.7198 405.219 L 747.0798 405.5192 L 747.4198 405.839 L 747.7598 406.139 L 748.0798 406.459 L 748.3998 406.759 L 748.7198 407.079 L 748.9998 407.3992 L 749.2998 407.739 L 749.5798 408.079 L 749.8598 408.3992 L 750.1198 408.739 L 750.3998 409.099 L 750.6598 409.439 L 750.8998 409.779 L 751.1398 410.139 L 751.3798 410.499 L 751.6198 410.859 L 751.8398 411.219 L 752.0398 411.599 L 752.2398 411.959 L 752.4398 412.339 L 752.6198 412.719 L 752.7998 413.119 L 752.9798 413.499 L 753.1398 413.8992 L 753.2998 414.299 L 753.4398 414.699 L 753.5798 415.099 L 753.6998 415.499 L 753.8198 415.919 L 753.9198 416.339 L 754.0198 416.759 L 754.1198 417.179 L 754.2198 417.599 L 754.2798 418.039 L 754.3598 418.459 L 754.4198 418.8992 L 754.4798 419.339 L 754.5198 419.779 L 754.5598 420.239 L 754.5998 420.679 L 754.6398 421.139 L 754.6598 421.599 L 754.6798 422.059 V 422.5192 L 754.6998 422.999 V 423.479 V 423.979 V 424.459 L 754.6798 424.959 L 754.6598 425.479 L 754.6398 425.979 L 754.6198 426.499 L 754.5798 427.0192 L 754.5398 427.539 L 754.4998 428.059 L 754.4398 428.579 L 754.3798 429.119 L 754.2998 429.639 L 754.2198 430.179 L 754.1198 430.719 L 754.0198 431.259 L 753.8998 431.799 L 753.7798 432.359 L 753.6398 432.8992 L 753.4998 433.439 L 753.3598 433.999 L 753.1998 434.559 L 753.0198 435.099 L 752.8598 435.659 L 752.6598 436.219 L 752.4798 436.799 L 752.2798 437.359 L 752.0798 437.919 L 751.8798 438.499 L 751.6798 439.079 L 751.4598 439.659 L 751.2598 440.239 L 751.0398 440.839 L 750.7998 441.419 L 750.5598 442.0192 L 750.3198 442.619 L 750.0598 443.199 L 749.8198 443.799 L 749.5598 444.3992 L 749.2798 444.979 L 749.0198 445.579 L 748.7398 446.179 L 748.4598 446.779 L 748.1798 447.3992 L 747.8998 447.999 L 747.5998 448.619 L 747.3198 449.239 L 747.0198 449.859 L 746.7398 450.479 L 746.4398 451.099 L 746.1398 451.719 L 745.8398 452.359 L 745.5198 452.999 L 745.2198 453.619 L 744.9198 454.259 L 744.5998 454.919 L 744.2798 455.559 L 743.9598 456.199 L 743.6398 456.859 L 743.3198 457.5192 L 742.9998 458.159 L 742.6598 458.819 L 742.3198 459.479 L 741.9798 460.139 L 741.6198 460.799 L 741.2598 461.459 L 740.8998 462.119 L 740.5198 462.779 L 740.1198 463.419 L 739.7198 464.079 L 739.3198 464.739 L 738.9198 465.379 L 738.4998 466.039 L 738.0798 466.699 L 737.6398 467.339 L 737.1998 467.999 L 736.7598 468.639 L 736.2998 469.299 L 735.8598 469.939 L 735.3798 470.599 L 734.9198 471.239 L 734.4398 471.879 L 733.9798 472.499 L 733.4998 473.119 L 733.0198 473.719 L 732.5398 474.319 L 732.0398 474.8992 L 731.5398 475.479 L 731.0598 476.039 L 730.5598 476.579 L 730.0798 477.119 L 729.5798 477.639 L 729.0798 478.139 L 728.5798 478.639 L 728.0598 479.119 L 727.5398 479.599 L 727.0398 480.079 L 726.4998 480.539 L 725.9798 480.999 L 725.4598 481.439 L 724.9198 481.879 L 724.3798 482.319 L 723.8398 482.739 L 723.2998 483.159 L 722.7598 483.579 L 722.2198 483.979 L 721.6598 484.379 L 721.0998 484.779 L 720.5398 485.159 L 719.9798 485.5192 L 719.4198 485.8992 L 718.8398 486.259 L 718.2398 486.599 L 717.6598 486.959 L 717.0598 487.299 L 716.4598 487.619 L 715.8598 487.939 L 715.2398 488.259 L 714.6198 488.579 L 713.9798 488.879 L 713.3598 489.159 L 712.7198 489.439 L 712.0598 489.719 L 711.3998 489.979 L 710.7398 490.239 L 710.0798 490.479 L 709.3998 490.719 L 708.7198 490.939 L 708.0198 491.159 L 707.3398 491.359 L 706.6398 491.559 L 705.9398 491.739 L 705.2398 491.899 L 704.5398 492.0588 L 703.8398 492.1988 L 703.1198 492.3388 L 702.4198 492.4388 L 701.6998 492.5588 L 700.9798 492.6588 L 700.2598 492.7388 L 699.5398 492.7988 L 698.7998 492.8588 L 698.0798 492.9188 L 697.3398 492.9388 L 696.5998 492.9788 H 695.8598 H 695.1198 L 694.3798 492.9588 L 693.6398 492.9388 L 692.8998 492.9188 L 692.1398 492.8788 L 691.3998 492.8188 L 690.6398 492.7588 L 689.8798 492.6988 L 689.1198 492.6188 L 688.3798 492.5388 L 687.6198 492.4388 L 686.8398 492.3388 L 686.0798 492.2388 L 685.3198 492.1188 L 684.5598 491.9988 L 683.7798 491.8588 L 683.0198 491.7188 L 682.2398 491.5788 L 681.4798 491.4188 L 680.6998 491.2588 L 679.9198 491.0788 L 679.1598 490.9188 L 678.3798 490.7388 L 677.5998 490.5388 L 676.8198 490.3588 L 676.0598 490.1588 L 675.2798 489.9588 L 674.4998 489.7388 L 673.7398 489.5386 L 672.9598 489.3188 L 672.1798 489.1188 L 671.4198 488.8988 L 670.6398 488.6786 L 669.8598 488.4586 L 669.0998 488.2388 L 668.3198 488.0188 L 667.5398 487.7986 L 666.7598 487.5586 L 665.9798 487.338 L 665.1798 487.118 L 664.3998 486.878 L 663.6198 486.638 L 662.8198 486.398 L 662.0398 486.158 L 661.2398 485.898 L 660.4598 485.658 L 659.6598 485.398 L 658.8598 485.138 L 658.0598 484.878 L 657.2798 484.618 L 656.4798 484.358 L 655.6798 484.078 L 654.8798 483.798 L 654.0798 483.518 L 653.2798 483.218 L 652.4798 482.918 L 651.6798 482.618 L 650.8798 482.318 L 650.0798 481.998 L 649.2798 481.678 L 648.4798 481.338 L 647.6798 480.998 L 646.8798 480.658 L 646.0798 480.318 L 645.2798 479.958 L 644.4798 479.598 L 643.6798 479.218 L 642.8798 478.838 L 642.0998 478.458 L 641.2998 478.078 L 640.4998 477.678 L 639.7198 477.278 L 638.9198 476.858 L 638.1398 476.458 L 637.3398 476.038 L 636.5598 475.598 L 635.7598 475.178 L 634.9798 474.738 L 634.1798 474.298 L 633.3998 473.838 L 632.6198 473.398 L 631.8198 472.938 L 631.0398 472.478 L 630.2598 472.018 L 629.4598 471.558 L 628.6598 471.078 L 627.8798 470.618 L 627.0798 470.138 L 626.2798 469.678 L 625.4798 469.198 L 624.6798 468.718 L 623.8798 468.258 L 623.0798 467.778 L 622.2798 467.298 L 621.4798 466.818 L 620.6598 466.338 L 619.8598 465.858 L 619.0398 465.378 L 618.2398 464.898 L 617.4198 464.418 L 616.5998 463.938 L 615.7798 463.458 L 614.9598 462.958 L 614.1398 462.478 L 613.3198 461.998 L 612.4798 461.498 L 611.6598 461.018 L 610.8398 460.518 L 609.9998 460.038 L 609.1798 459.538 L 608.3398 459.038 L 607.4998 458.558 L 606.6598 458.058 L 605.8398 457.558 L 604.9998 457.058 L 604.1598 456.558 L 603.3198 456.058 L 602.4798 455.538 L 601.6398 455.038 L 600.7998 454.518 L 599.9598 454.018 L 599.1198 453.498 L 598.2798 452.978 L 597.4398 452.458 L 596.5998 451.918 L 595.7798 451.398 L 594.9398 450.858 L 594.1198 450.298 L 593.2798 449.758 L 592.4598 449.198 L 591.6398 448.638 L 590.7998 448.078 L 589.9798 447.518 L 589.1798 446.938 L 588.3598 446.338 L 587.5398 445.758 L 586.7398 445.158 L 585.9398 444.538 L 585.1398 443.938 L 584.3398 443.318 L 583.5398 442.698 L 582.7398 442.078 L 581.9598 441.438 L 581.1798 440.798 L 580.3998 440.138 L 579.6198 439.498 L 578.8398 438.838 L 578.0798 438.158 L 577.2998 437.498 L 576.5398 436.818 L 575.7798 436.118 L 575.0198 435.438 L 574.2598 434.738 L 573.5198 434.038 L 572.7598 433.338 L 572.0198 432.618 L 571.2798 431.898 L 570.5398 431.178 L 569.8198 430.438 L 569.0798 429.698 L 568.3598 428.958 L 567.6398 428.218 L 566.9198 427.458 L 566.2198 426.698 L 565.4998 425.938 L 564.7998 425.158 L 564.0998 424.398 L 563.3998 423.618 L 562.7198 422.818 L 562.0198 422.038 L 561.3398 421.238 L 560.6598 420.438 L 559.9798 419.638 L 559.2998 418.818 L 558.6398 417.998 L 557.9598 417.178 L 557.2998 416.358 L 556.6398 415.538 L 555.9798 414.698 L 555.3198 413.858 L 554.6598 413.038 L 553.9998 412.198 L 553.3398 411.358 L 552.6598 410.518 L 551.9998 409.678 L 551.3398 408.838 L 550.6798 407.998 L 549.9998 407.158 L 549.3398 406.318 L 548.6598 405.478 L 547.9998 404.618 L 547.3198 403.778 L 546.6598 402.938 L 545.9798 402.078 L 545.3198 401.238 L 544.6398 400.378 L 543.9598 399.538 L 543.2798 398.678 L 542.5998 397.818 L 541.9198 396.978 L 541.2398 396.118 L 540.5598 395.258 L 539.8798 394.418 L 539.1798 393.558 L 538.4998 392.718 L 537.7998 391.858 L 537.0798 391.018 L 536.3798 390.178 L 535.6798 389.318 L 534.9598 388.478 L 534.2398 387.638 L 533.5198 386.818 L 532.7998 385.978 L 532.0598 385.138 L 531.3198 384.298 L 530.5798 383.478 L 529.8398 382.658 L 529.0798 381.838 L 528.3398 381.018 L 527.5798 380.198 L 526.7998 379.378 L 526.0398 378.578 L 525.2598 377.758 L 524.4798 376.958 L 523.6798 376.178 L 522.8798 375.378 L 522.0798 374.598 L 521.2798 373.818 L 520.4598 373.038 L 519.6398 372.278 L 518.7998 371.498 L 517.9598 370.758 L 517.1198 369.998 L 516.2798 369.258 L 515.4198 368.518 L 514.5398 367.778 L 513.6798 367.058 L 512.7998 366.338 L 511.9198 365.618 L 511.0398 364.918 L 510.1398 364.218 L 509.2398 363.518 L 508.3398 362.818 L 507.4198 362.138 L 506.4998 361.478 L 505.5798 360.798 L 504.6398 360.138 L 503.6998 359.478 L 502.7598 358.838 L 501.8198 358.198 L 500.8598 357.558 L 499.8998 356.938 L 498.9398 356.318 L 497.9598 355.718 L 496.9798 355.118 L 495.9998 354.518 L 494.9998 353.938 L 493.9998 353.358 L 492.9998 352.798 L 491.9998 352.238 L 490.9798 351.698 L 489.9598 351.158 L 488.9198 350.638 L 487.8998 350.118 L 486.8598 349.598 L 485.8198 349.098 L 484.7798 348.598 L 483.7198 348.118 L 482.6598 347.638 L 481.6198 347.178 L 480.5398 346.718 L 479.4798 346.278 L 478.3998 345.838 L 477.3198 345.418 L 476.2398 344.998 L 475.1598 344.598 L 474.0798 344.198 L 472.9798 343.818 L 471.8798 343.418 L 470.7998 343.058 L 469.6998 342.678 L 468.5798 342.318 L 467.4798 341.958 L 466.3798 341.618 L 465.2598 341.258 L 464.1398 340.918 L 463.0398 340.578 L 461.9198 340.258 L 460.7998 339.918 L 459.6798 339.598 L 458.5598 339.278 L 457.4398 338.958 L 456.2998 338.638 L 455.1798 338.338 L 454.0398 338.038 L 452.9198 337.738 L 451.7798 337.438 L 450.6598 337.138 L 449.5198 336.838 L 448.3798 336.538 L 447.2398 336.238 L 446.0998 335.938 L 444.9798 335.658 L 443.8398 335.358 L 442.6998 335.058 L 441.5598 334.758 L 440.4198 334.478 L 439.2798 334.198 L 438.1198 333.918 L 436.9798 333.638 L 435.8198 333.378 L 434.6798 333.118 L 433.5198 332.878 L 432.3598 332.618 L 431.1998 332.398 L 430.0398 332.158 L 428.8798 331.938 L 427.7198 331.738 L 426.5398 331.538 L 425.3798 331.358 L 424.1998 331.1578 L 423.0398 330.9978 L 421.8598 330.8178 L 420.6798 330.6578 L 419.4998 330.518 L 418.3198 330.378 L 417.1398 330.238 L 415.9598 330.118 L 414.7798 329.998 L 413.5998 329.898 L 412.3998 329.818 L 411.2198 329.738 L 410.0198 329.678 L 408.8398 329.618 L 407.6598 329.578 L 406.4598 329.558 H 405.2798 L 404.0798 329.578 L 402.8998 329.598 L 401.6998 329.618 L 400.5198 329.678 L 399.3198 329.738 L 398.1398 329.818 L 396.9598 329.898 L 395.7798 330.018 L 394.5998 330.138 L 393.4198 330.258 L 392.2398 330.418 L 391.0798 330.578 L 389.9198 330.758 L 388.7598 330.938 L 387.5998 331.158 L 386.4398 331.378 L 385.2998 331.598 L 384.1398 331.858 L 382.9998 332.118 L 381.8598 332.3982 L 380.7198 332.698 L 379.5798 332.998 L 378.4598 333.318 L 377.3198 333.638 L 376.1998 333.978 L 375.0798 334.338 L 373.9598 334.698 L 372.8398 335.058 L 371.7198 335.438 L 370.6198 335.838 L 369.5198 336.258 L 368.4198 336.678 L 367.3398 337.098 L 366.2398 337.538 L 365.1598 337.978 L 364.0798 338.418 L 362.9998 338.878 L 361.9198 339.358 L 360.8598 339.818 L 359.7998 340.318 L 358.7598 340.818 L 357.6998 341.318 L 356.6598 341.838 L 355.6398 342.378 L 354.6198 342.918 L 353.5998 343.458 L 352.5998 344.0182 L 351.5998 344.578 L 350.5998 345.158 L 349.6198 345.738 L 348.6598 346.338 L 347.6798 346.938 L 346.7198 347.558 L 345.7598 348.158 L 344.8198 348.798 L 343.8798 349.418 L 342.9598 350.078 L 342.0398 350.718 L 341.1398 351.378 L 340.2398 352.058 L 339.3398 352.738 L 338.4598 353.418 L 337.5798 354.098 L 336.6998 354.798 L 335.8198 355.478 L 334.9398 356.178 L 334.0598 356.858 L 333.1998 357.538 L 332.3198 358.238 L 331.4398 358.918 L 330.5798 359.598 L 329.6998 360.298 L 328.8198 360.978 L 327.9598 361.678 L 327.0998 362.378 L 326.2198 363.078 L 325.3598 363.778 L 324.4798 364.478 L 323.6198 365.178 L 322.7398 365.878 L 321.8798 366.578 L 320.9998 367.278 L 320.1198 367.978 L 319.2398 368.698 L 318.3798 369.3982 L 317.4798 370.078 L 316.5998 370.778 L 315.7198 371.478 L 314.8198 372.158 L 313.9198 372.838 L 313.0198 373.498 L 312.0998 374.158 L 311.1998 374.818 L 310.2798 375.478 L 309.3598 376.138 L 308.4198 376.798 L 307.4998 377.438 L 306.5598 378.078 L 305.6198 378.718 L 304.6798 379.338 L 303.7398 379.958 L 302.7798 380.578 L 301.8398 381.198 L 300.8598 381.798 L 299.8998 382.3982 L 298.9198 382.978 L 297.9398 383.558 L 296.9598 384.118 L 295.9598 384.678 L 294.9798 385.218 L 293.9598 385.758 L 292.9598 386.278 L 291.9598 386.818 L 290.9398 387.318 L 289.9198 387.838 L 288.8998 388.338 L 287.8598 388.838 L 286.8398 389.338 L 285.7998 389.818 L 284.7598 390.278 L 283.7198 390.738 L 282.6598 391.198 L 281.6198 391.638 L 280.5598 392.078 L 279.4998 392.5182 L 278.4398 392.938 L 277.3598 393.338 L 276.2998 393.758 L 275.2198 394.158 L 274.1598 394.558 L 273.0798 394.958 L 271.9998 395.358 L 270.9198 395.758 L 269.8598 396.158 L 268.7798 396.558 L 267.6998 396.958 L 266.6198 397.358 L 265.5398 397.758 L 264.4598 398.158 L 263.3798 398.578 L 262.2998 398.978 L 261.2198 399.358 L 260.1598 399.758 L 259.0998 400.158 L 258.0598 400.538 L 257.0398 400.918 L 256.0198 401.298 L 255.0198 401.678 L 254.0198 402.038 L 253.0598 402.3982 L 252.0998 402.758 L 251.1398 403.118 L 250.1998 403.458 L 249.2798 403.798 L 248.3798 404.138 L 247.4798 404.478 L 246.5798 404.798 L 245.6998 405.138 L 244.8398 405.458 L 243.9998 405.758 L 243.1598 406.078 L 242.3198 406.378 L 241.4998 406.698 L 240.6998 406.998 L 239.8998 407.298 L 239.0998 407.578 L 238.3198 407.878 L 237.5398 408.178 L 236.7598 408.458 L 235.9798 408.738 L 235.2198 409.038 L 234.4598 409.318 L 233.6998 409.598 L 232.9598 409.878 L 232.2198 410.158 L 231.4798 410.418 L 230.7398 410.698 L 229.9998 410.978 L 229.2798 411.238 L 228.5598 411.5182 L 227.8398 411.778 L 227.1198 412.038 L 226.4198 412.318 L 225.7398 412.558 L 225.0598 412.818 L 224.3798 413.078 L 223.7198 413.318 L 223.0598 413.558 L 222.4398 413.798 L 221.7998 414.038 L 221.1998 414.258 L 220.5998 414.498 L 219.9998 414.718 L 219.4198 414.938 L 218.8398 415.138 L 218.2798 415.358 L 217.7398 415.558 L 217.1998 415.7582 L 216.6798 415.9582 L 216.1798 416.1382 L 215.6798 416.3182 L 215.1798 416.4982 L 214.7198 416.6782 L 214.2398 416.8382 L 213.7798 417.0182 L 213.3398 417.158 L 212.8998 417.318 L 212.4798 417.458 L 212.0398 417.598 L 211.6198 417.718 L 211.1998 417.838 L 210.7998 417.938 L 210.3798 418.038 L 209.9798 418.118 L 209.5798 418.178 L 209.1798 418.238 L 208.7798 418.278 L 208.3998 418.318 L 208.0198 418.338 H 207.6398 L 206.8798 418.298 L 206.1598 418.218 L 205.4598 418.078 L 204.7798 417.918 L 204.0998 417.698 L 203.4598 417.458 L 202.8198 417.178 L 202.1998 416.878 L 201.6198 416.538 L 201.0598 416.138 L 200.5198 415.738 L 200.0198 415.298 L 199.5598 414.838 L 199.1198 414.358 L 198.7198 413.858 L 198.3598 413.338 L 198.0198 412.778 L 197.7398 412.218 L 197.4998 411.618 L 197.2798 410.998 L 197.0598 410.358 L 196.8598 409.698 L 196.6598 409.018 L 196.4598 408.318 L 196.2398 407.618 L 195.9998 406.918 L 195.7198 406.218 L 195.3998 405.538 L 195.0398 404.878 L 194.6398 404.278 L 194.1798 403.698 L 193.6998 403.178 L 193.1598 402.698 L 192.6198 402.258 L 192.0798 401.858 L 191.5198 401.498 L 190.9398 401.198 L 190.3798 400.938 L 189.7998 400.698 L 189.2198 400.478 L 188.6398 400.338 L 188.0598 400.278 L 187.4598 400.238 L 186.8598 400.258 L 186.2598 400.318 L 185.6398 400.398 L 185.0198 400.518 L 184.3798 400.6578 L 183.7198 400.8378 L 183.0398 401.0578 L 182.3798 401.2978 L 181.6998 401.5778 L 181.0198 401.8978 L 180.6798 402.0778 L 180.3398 402.2578 L 179.9998 402.4578 L 179.6598 402.6578 L 179.3198 402.858 L 178.9798 403.078 L 178.6398 403.298 L 178.2998 403.538 L 177.9798 403.7778 L 177.6398 404.038 L 177.2998 404.298 L 176.9598 404.558 L 176.6398 404.838 L 176.2998 405.118 L 175.9798 405.418 L 175.6598 405.718 L 175.3198 406.038 L 174.9998 406.358 L 174.6598 406.678 L 174.3198 406.998 L 173.9798 407.338 L 173.6398 407.678 L 173.2998 408.018 L 172.9598 408.378 L 172.6198 408.738 L 172.2598 409.098 L 171.9198 409.458 L 171.5798 409.838 L 171.2198 410.218 L 170.8798 410.618 L 170.5198 410.998 L 170.1798 411.398 L 169.8198 411.7778 L 169.4798 412.178 L 169.1398 412.558 L 168.7798 412.958 L 168.4398 413.358 L 168.0798 413.758 L 167.7198 414.1578 L 167.3598 414.558 L 166.9998 414.978 L 166.6398 415.378 L 166.2598 415.798 L 165.8998 416.218 L 165.5198 416.638 L 165.1398 417.058 L 164.7598 417.498 L 164.3798 417.918 L 163.9998 418.358 L 163.5998 418.798 L 163.2198 419.238 L 162.8198 419.678 L 162.4198 420.118 L 162.0198 420.578 L 161.6198 421.038 L 161.1998 421.498 L 160.7998 421.958 L 160.3798 422.418 L 159.9598 422.878 L 159.5398 423.358 L 159.1198 423.818 L 158.6998 424.298 L 158.2798 424.7778 L 157.8398 425.258 L 157.3998 425.758 L 156.9798 426.238 L 156.5398 426.738 L 156.0998 427.218 L 155.6598 427.718 L 155.2198 428.218 L 154.7798 428.698 L 154.3198 429.218 L 153.8798 429.718 L 153.4198 430.218 L 152.9798 430.718 L 152.5198 431.238 L 152.0598 431.758 L 151.5998 432.258 L 151.1198 432.7778 L 150.6598 433.298 L 150.1998 433.818 L 149.7198 434.338 L 149.2398 434.858 L 148.7598 435.378 L 148.2598 435.898 L 147.7598 436.4178 L 147.2598 436.938 L 146.7598 437.458 L 146.2398 437.978 L 145.7198 438.498 L 145.1998 439.018 L 144.6798 439.5378 L 144.1598 440.0578 L 143.6398 440.598 L 143.0998 441.118 L 142.5798 441.6578 L 142.0398 442.198 L 141.5198 442.738 L 140.9798 443.2778 L 140.4398 443.838 L 139.8998 444.378 L 139.3598 444.9178 L 138.8198 445.478"
       style="fill:none;stroke:#000000;stroke-width:0.5;stroke-linecap:round;stroke-linejoin:round;stroke-miterlimit:10;stroke-dasharray:none;stroke-opacity:1" />
  </g>
</svg>
