<?xml version="1.0" encoding="UTF-8" standalone="no"?>
<!-- Created with Inkscape (http://www.inkscape.org/) -->

<svg
   inkscape:version="1.3.2 (091e20e, 2023-11-25, custom)"
   sodipodi:docname="track_brand_hatch.svg"
   xmlns:inkscape="http://www.inkscape.org/namespaces/inkscape"
   xmlns:sodipodi="http://sodipodi.sourceforge.net/DTD/sodipodi-0.dtd"
   xmlns="http://www.w3.org/2000/svg"
   xmlns:svg="http://www.w3.org/2000/svg">
  <g>
    <path
       id="track"
       d="M 216.3144 210.512 H 217.9344 H 219.9344 L 221.9344 210.532 H 223.9344 H 225.9544 H 227.9544 L 229.9744 210.552 H 232.0144 H 234.0344 H 236.0744 L 238.1344 210.572 H 240.1744 H 242.2344 H 244.2944 L 246.3344 210.592 H 248.3944 H 250.4544 H 252.5344 L 254.5944 210.612 H 256.6744 H 258.7544 H 260.8344 L 262.9344 210.632 H 265.0344 H 267.1344 H 269.2344 L 271.3544 210.652 H 273.4744 H 275.5944 H 277.7144 L 279.8344 210.672 H 281.9744 H 284.1144 H 286.2744 L 288.4144 210.692 H 290.5744 H 292.7344 H 294.8944 L 297.0544 210.712 H 299.2344 H 301.4144 H 303.5944 L 305.7744 210.732 H 307.9744 H 310.1744 H 312.3744 L 314.5744 210.752 H 316.7744 H 318.9944 H 321.2144 L 323.4344 210.772 H 325.6744 H 327.8944 H 330.1344 L 332.3744 210.792 H 334.6144 H 336.8744 H 339.1344 L 341.3944 210.812 H 343.6544 H 345.9144 H 348.1944 H 350.4544 L 352.7344 210.832 H 355.0344 H 357.3144 H 359.6144 L 361.8944 210.852 H 364.1944 H 366.5144 H 368.8144 L 371.1344 210.872 H 373.4544 H 375.7744 H 378.0944 L 380.4344 210.892 H 382.7544 H 385.0944 H 387.4344 L 389.7944 210.912 H 392.1344 H 394.4944 H 396.8544 L 399.2144 210.932 H 401.5744 H 403.9344 H 406.3144 L 408.6944 210.952 H 411.0744 H 413.4544 H 415.8544 L 418.2344 210.972 H 420.6344 H 423.0344 H 425.4344 L 427.8344 210.992 H 430.2544 H 432.6744 H 435.0744 L 437.5144 211.012 H 439.9344 H 442.3544 H 444.7944 L 447.2344 211.032 H 449.6544 H 452.1144 H 454.5544 L 456.9944 211.052 H 459.4544 L 461.9144 211.072 H 464.3744 L 466.8344 211.092 L 469.2944 211.112 H 471.7544 L 474.2344 211.132 L 476.7144 211.152 L 479.1944 211.192 L 481.6544 211.212 L 484.1544 211.232 L 486.6344 211.252 L 489.1144 211.292 L 491.6144 211.312 L 494.0944 211.332 L 496.5944 211.372 L 499.0744 211.392 L 501.5744 211.412 L 504.0544 211.452 L 506.5544 211.472 L 509.0544 211.512 L 511.5544 211.532 L 514.0544 211.552 L 516.5544 211.592 L 519.0544 211.612 L 521.5344 211.652 L 524.0344 211.672 L 526.4944 211.712 L 528.9344 211.752 L 531.3744 211.772 L 533.7744 211.812 L 536.1544 211.852 L 538.5144 211.892 L 540.8544 211.932 L 543.1544 211.972 L 545.4344 212.012 L 547.6944 212.072 L 549.9344 212.112 L 552.1544 212.152 L 554.3344 212.212 L 556.5144 212.252 L 558.6544 212.312 L 560.7944 212.372 L 562.8944 212.412 L 564.9944 212.472 L 567.0544 212.532 L 569.1144 212.612 L 571.1544 212.672 L 573.1544 212.732 L 575.1744 212.812 L 577.1544 212.892 L 579.1344 212.992 L 581.0944 213.092 L 583.0344 213.192 L 584.9544 213.292 L 586.8344 213.412 L 588.7144 213.552 L 590.5744 213.692 L 592.3944 213.852 L 594.2144 214.032 L 595.9944 214.212 L 597.7744 214.412 L 599.5344 214.632 L 601.2544 214.852 L 602.9544 215.112 L 604.6544 215.352 L 606.3144 215.632 L 607.9544 215.912 L 609.5744 216.192 L 611.1744 216.472 L 612.7344 216.772 L 614.2744 217.072 L 615.7944 217.352 L 617.2944 217.652 L 618.7544 217.932 L 620.1944 218.232 L 621.6144 218.512 L 623.0144 218.792 L 624.3944 219.052 L 625.7544 219.332 L 627.0944 219.592 L 628.4144 219.852 L 629.7344 220.092 L 631.0344 220.352 L 632.3144 220.592 L 633.5944 220.832 L 634.8544 221.052 L 636.1144 221.292 L 637.3344 221.512 L 638.5744 221.732 L 639.7744 221.952 L 640.9744 222.172 L 642.1744 222.392 L 643.3344 222.612 L 644.4944 222.832 L 645.6344 223.052 L 646.7544 223.252 L 647.8544 223.4721 L 648.9544 223.692 L 650.0344 223.9121 L 651.0744 224.132 L 652.1144 224.372 L 653.1544 224.592 L 654.1544 224.812 L 655.1344 225.0521 L 656.1144 225.272 L 657.0744 225.512 L 658.0144 225.752 L 658.9344 226.012 L 659.8144 226.252 L 660.6944 226.532 L 661.5544 226.7921 L 662.3944 227.092 L 663.2144 227.372 L 663.9944 227.6721 L 664.7744 227.992 L 665.5144 228.312 L 666.2344 228.652 L 666.9544 228.992 L 667.6344 229.332 L 668.8944 230.072 L 670.0744 230.812 L 671.1744 231.592 L 672.1744 232.372 L 673.0944 233.1721 L 673.9344 233.992 L 674.6944 234.832 L 675.3944 235.692 L 676.0144 236.592 L 676.5744 237.532 L 677.0544 238.492 L 677.4744 239.4721 L 677.7944 240.492 L 678.0544 241.512 L 678.2344 242.572 L 678.3344 243.632 L 678.3544 244.712 L 678.2944 245.7921 L 678.1544 246.892 L 677.9343 247.992 L 677.6143 249.072 L 677.2343 250.1721 L 676.7744 251.2321 L 676.2343 252.272 L 675.6143 253.312 L 674.9544 254.332 L 674.2144 255.332 L 673.4144 256.332 L 672.5543 257.312 L 671.6344 258.272 L 670.6344 259.192 L 669.5744 260.132 L 668.4344 261.032 L 667.8544 261.492 L 667.2544 261.932 L 666.6344 262.392 L 665.9944 262.832 L 665.3344 263.272 L 664.6544 263.712 L 663.9544 264.152 L 663.2544 264.592 L 662.5344 265.012 L 661.7744 265.452 L 661.0144 265.872 L 660.2344 266.292 L 659.4344 266.712 L 658.6144 267.112 L 657.7744 267.532 L 656.9344 267.932 L 656.0544 268.332 L 655.1744 268.732 L 654.2744 269.112 L 653.3744 269.512 L 652.4344 269.892 L 651.4944 270.272 L 650.5344 270.652 L 649.5544 271.012 L 648.5544 271.372 L 647.5344 271.732 L 646.5144 272.072 L 645.4544 272.412 L 644.3944 272.732 L 643.3344 273.052 L 642.2344 273.352 L 641.1344 273.652 L 639.9944 273.952 L 638.8744 274.232 L 637.7144 274.512 L 636.5544 274.792 L 635.3744 275.052 L 634.1744 275.312 L 632.9744 275.572 L 631.7544 275.832 L 630.5344 276.072 L 629.2944 276.312 L 628.0344 276.532 L 626.7944 276.752 L 625.5344 276.952 L 624.2544 277.152 L 622.9944 277.332 L 621.7344 277.512 L 620.4744 277.692 L 619.2144 277.852 L 617.9744 277.992 L 616.7344 278.132 L 615.5144 278.292 L 614.2944 278.432 L 613.0944 278.572 L 611.8944 278.712 L 610.7344 278.872 L 609.5744 279.052 L 608.4344 279.252 L 607.3144 279.452 L 606.2144 279.672 L 605.1344 279.912 L 604.0544 280.172 L 603.0144 280.452 L 601.9744 280.752 L 600.9744 281.072 L 599.9744 281.392 L 599.0144 281.752 L 598.0544 282.132 L 597.1144 282.512 L 596.1944 282.932 L 595.2944 283.372 L 594.4144 283.812 L 593.5544 284.292 L 592.6944 284.792 L 591.8344 285.312 L 590.9944 285.852 L 590.1744 286.412 L 589.3544 286.992 L 588.5344 287.572 L 587.7344 288.192 L 586.9344 288.812 L 586.1544 289.432 L 585.3744 290.092 L 584.5944 290.752 L 583.8344 291.412 L 583.0744 292.112 L 582.3344 292.812 L 581.6144 293.512 L 580.8944 294.252 L 580.2144 294.992 L 579.5344 295.752 L 578.8744 296.512 L 578.2344 297.292 L 577.6144 298.092 L 577.0144 298.892 L 576.4344 299.732 L 575.8744 300.552 L 575.3344 301.412 L 574.8344 302.272 L 574.3344 303.132 L 573.8544 304.032 L 573.4144 304.912 L 572.9744 305.812 L 572.5544 306.732 L 572.1744 307.652 L 571.8144 308.592 L 571.4544 309.512 L 571.1344 310.472 L 570.8344 311.412 L 570.5544 312.372 L 570.2944 313.352 L 570.0544 314.312 L 569.8344 315.292 L 569.6544 316.292 L 569.4744 317.272 L 569.3144 318.272 L 569.1744 319.272 L 569.0544 320.292 L 568.9544 321.312 L 568.8744 322.332 L 568.7944 323.352 L 568.7544 324.392 L 568.7144 325.412 L 568.6944 326.452 V 327.492 L 568.7144 328.552 L 568.7544 329.592 L 568.8144 330.652 L 568.8944 331.712 L 568.9944 332.772 L 569.1344 333.832 L 569.2744 334.892 L 569.4344 335.952 L 569.6344 337.012 L 569.8344 338.092 L 570.0744 339.152 L 570.3344 340.192 L 570.6144 341.252 L 570.9144 342.292 L 571.2544 343.312 L 571.6144 344.352 L 571.9944 345.372 L 572.3944 346.372 L 572.8344 347.372 L 573.2944 348.372 L 573.7744 349.352 L 574.2744 350.332 L 574.7944 351.312 L 575.3344 352.272 L 575.8944 353.212 L 576.4944 354.172 L 577.0944 355.112 L 577.7344 356.032 L 578.3744 356.952 L 579.0544 357.872 L 579.7344 358.772 L 580.4344 359.672 L 581.1744 360.552 L 581.9144 361.432 L 582.6744 362.292 L 583.4544 363.152 L 584.2544 364.012 L 585.0744 364.852 L 585.9144 365.692 L 586.7744 366.532 L 587.6544 367.352 L 588.5344 368.172 L 589.4544 368.992 L 590.3744 369.792 L 591.3144 370.592 L 592.2744 371.392 L 593.2344 372.192 L 594.2344 372.972 L 595.2344 373.772 L 596.2544 374.552 L 597.2944 375.332 L 598.3344 376.112 L 599.3944 376.892 L 600.4744 377.672 L 601.5544 378.472 L 602.6544 379.252 L 603.7544 380.052 L 604.8744 380.832 L 606.0144 381.632 L 607.1544 382.432 L 608.3144 383.232 L 609.4744 384.032 L 610.6544 384.852 L 611.8344 385.652 L 613.0344 386.472 L 614.2344 387.292 L 615.4744 388.112 L 616.6944 388.932 L 617.9344 389.752 L 619.1944 390.592 L 620.4544 391.412 L 621.7344 392.252 L 623.0144 393.092 L 624.3144 393.932 L 625.6144 394.792 L 626.9144 395.632 L 628.2344 396.492 L 629.5544 397.332 L 630.8544 398.172 L 632.1544 399.012 L 633.4544 399.832 L 634.7544 400.632 L 636.0344 401.412 L 637.3144 402.192 L 638.5744 402.932 L 639.8344 403.652 L 641.0944 404.352 L 642.3344 405.032 L 643.5744 405.692 L 644.8144 406.312 L 646.0544 406.912 L 647.2744 407.492 L 648.4944 408.032 L 649.6944 408.552 L 650.9144 409.052 L 652.1144 409.512 L 653.2944 409.972 L 654.4944 410.392 L 655.6744 410.772 L 656.8344 411.152 L 657.9944 411.492 L 659.1544 411.792 L 660.2944 412.092 L 661.4344 412.352 L 662.5744 412.592 L 663.6944 412.792 L 664.8144 412.972 L 665.9344 413.132 L 667.0344 413.272 L 668.1544 413.372 L 669.2344 413.452 L 670.3344 413.492 L 671.4144 413.532 H 672.5144 L 673.5944 413.512 L 674.6544 413.472 L 675.7144 413.412 L 676.7744 413.332 L 677.8344 413.232 L 678.8744 413.092 L 679.9144 412.952 L 680.9344 412.772 L 681.9544 412.592 L 682.9344 412.372 L 683.9144 412.132 L 684.8544 411.872 L 685.7944 411.612 L 686.6944 411.312 L 687.5944 411.012 L 688.4544 410.672 L 689.2944 410.312 L 690.1144 409.952 L 690.9144 409.572 L 691.6944 409.152 L 692.4544 408.732 L 693.1744 408.292 L 693.8944 407.852 L 694.5744 407.392 L 695.2144 406.912 L 695.8544 406.432 L 696.4544 405.932 L 697.0344 405.432 L 697.5744 404.912 L 698.1144 404.392 L 699.0744 403.272 L 699.9344 402.112 L 700.7144 400.892 L 701.3944 399.612 L 701.9744 398.312 L 702.4544 396.992 L 702.8344 395.632 L 703.1344 394.232 L 703.3144 392.832 L 703.4144 391.392 V 389.952 L 703.3344 388.492 L 703.2744 387.752 L 703.1944 387.012 L 703.0944 386.272 L 702.9544 385.532 L 702.8144 384.792 L 702.6544 384.052 L 702.4744 383.312 L 702.2744 382.572 L 702.0544 381.812 L 701.8144 381.072 L 701.5544 380.332 L 701.2544 379.592 L 700.9544 378.872 L 700.6344 378.132 L 700.2744 377.412 L 699.9144 376.692 L 699.5144 375.972 L 699.1144 375.272 L 698.6744 374.572 L 698.2344 373.872 L 697.7544 373.172 L 697.2544 372.492 L 696.7544 371.812 L 696.2344 371.132 L 695.6744 370.472 L 695.1144 369.812 L 694.5544 369.132 L 693.9544 368.472 L 693.3544 367.812 L 692.7344 367.152 L 692.0944 366.492 L 691.4544 365.832 L 690.7944 365.172 L 690.1344 364.512 L 689.4544 363.852 L 688.7744 363.172 L 688.0944 362.512 L 687.4144 361.832 L 686.7144 361.132 L 686.0344 360.452 L 685.3544 359.752 L 684.6744 359.032 L 684.0144 358.312 L 683.3544 357.592 L 682.6944 356.852 L 682.0544 356.092 L 681.4144 355.332 L 680.7944 354.552 L 680.1944 353.772 L 679.6144 352.992 L 679.0544 352.212 L 678.5144 351.412 L 678.0144 350.612 L 677.5344 349.812 L 677.0744 349.032 L 676.6544 348.232 L 676.2544 347.432 L 675.8944 346.632 L 675.5544 345.832 L 675.2544 345.032 L 674.9744 344.252 L 674.7144 343.472 L 674.4944 342.672 L 674.3144 341.912 L 674.1544 341.132 L 674.0144 340.372 L 673.8944 339.612 L 673.8144 338.852 L 673.7544 338.112 L 673.7344 337.372 L 673.7744 335.912 L 673.9144 334.472 L 674.1344 333.052 L 674.4544 331.632 L 674.8544 330.232 L 675.3544 328.852 L 675.6143 328.152 L 675.9144 327.472 L 676.2144 326.792 L 676.5344 326.112 L 676.8944 325.432 L 677.2544 324.752 L 677.6544 324.072 L 678.0543 323.392 L 678.4744 322.712 L 678.9343 322.032 L 679.3944 321.352 L 679.8743 320.672 L 680.3944 319.992 L 680.9144 319.312 L 681.4544 318.612 L 682.0144 317.932 L 682.5944 317.252 L 683.1944 316.552 L 683.7943 315.872 L 684.4343 315.172 L 685.0944 314.492 L 685.7544 313.792 L 686.4544 313.112 L 687.1743 312.412 L 687.8944 311.732 L 688.6544 311.032 L 689.4144 310.352 L 690.2144 309.652 L 691.0144 308.972 L 691.8344 308.272 L 692.6743 307.592 L 693.5144 306.892 L 694.3743 306.192 L 695.2744 305.492 L 696.1544 304.792 L 697.0744 304.072 L 697.9943 303.372 L 698.9144 302.652 L 699.8544 301.912 L 700.8144 301.172 L 701.7744 300.432 L 702.7544 299.692 L 703.7343 298.932 L 704.7144 298.152 L 705.7144 297.392 L 706.7144 296.612 L 707.7343 295.832 L 708.7343 295.032 L 709.7744 294.252 L 710.7943 293.452 L 711.8344 292.652 L 712.8743 291.852 L 713.9343 291.032 L 715.0144 290.212 L 716.0944 289.412 L 717.1743 288.592 L 718.2744 287.752 L 719.3743 286.932 L 720.4943 286.112 L 721.6143 285.272 L 722.7544 284.432 L 723.9144 283.592 L 725.0543 282.752 L 726.2343 281.912 L 727.4144 281.072 L 728.5944 280.212 L 729.7943 279.352 L 730.9943 278.492 L 732.1944 277.632 L 733.4144 276.752 L 734.6544 275.872 L 735.8743 274.992 L 737.1143 274.112 L 738.3743 273.212 L 739.6143 272.312 L 740.8944 271.392 L 742.1544 270.492 L 743.4343 269.572 L 744.7343 268.652 L 746.0344 267.732 L 747.3344 266.812 L 748.6544 265.892 L 749.9744 264.952 L 751.3144 264.032 L 752.6544 263.092 L 754.0144 262.152 L 755.3743 261.212 L 756.7343 260.272 L 758.1143 259.332 L 759.4943 258.392 L 760.8743 257.452 L 762.2744 256.512 L 763.6544 255.552 L 765.0744 254.612 L 766.4943 253.672 L 767.9144 252.732 L 769.3344 251.772 L 770.7744 250.832 L 772.2144 249.872 L 773.6743 248.932 L 775.1344 247.972 L 776.6143 247.012 L 778.0944 246.052 L 779.5744 245.092 L 781.0744 244.152 L 782.5744 243.192 L 784.0744 242.232 L 785.5944 241.252 L 787.1344 240.292 L 788.6743 239.332 L 790.2144 238.372 L 791.7544 237.412 L 793.3144 236.432 L 794.8944 235.472 L 796.4744 234.512 L 798.0543 233.552 L 799.6544 232.592 L 801.2544 231.652 L 802.8743 230.692 L 804.5144 229.752 L 806.1344 228.812 L 807.7943 227.872 L 809.4343 226.932 L 811.1143 226.012 L 812.7744 225.092 L 814.4544 224.172 L 816.1544 223.252 L 817.8344 222.352 L 819.5543 221.432 L 821.2544 220.532 L 822.9744 219.652 L 824.6944 218.772 L 826.4343 217.892 L 828.1544 217.012 L 829.8944 216.152 L 831.6544 215.292 L 833.3944 214.432 L 835.1544 213.572 L 836.9144 212.732 L 838.6743 211.892 L 840.4544 211.052 L 842.2343 210.232 L 844.0144 209.392 L 845.7943 208.552 L 847.5744 207.712 L 849.3743 206.852 L 851.1544 206.012 L 852.9544 205.172 L 854.7544 204.332 L 856.5543 203.472 L 858.3544 202.632 L 860.1743 201.772 L 861.9744 200.912 L 863.7943 200.052 L 865.6143 199.212 L 867.4144 198.352 L 869.2144 197.512 L 871.0144 196.652 L 872.7943 195.812 L 874.5744 194.992 L 876.3344 194.152 L 878.0744 193.332 L 879.8144 192.512 L 881.5144 191.712 L 883.2144 190.912 L 884.8944 190.112 L 886.5543 189.332 L 888.2144 188.572 L 889.8344 187.812 L 891.4343 187.072 L 893.0344 186.332 L 894.5944 185.612 L 896.1344 184.912 L 897.6544 184.232 L 899.1743 183.552 L 900.6544 182.872 L 902.1143 182.232 L 903.5543 181.592 L 904.9744 180.972 L 906.3743 180.372 L 907.7343 179.792 L 909.0944 179.212 L 910.4343 178.652 L 911.7343 178.092 L 913.0143 177.552 L 914.2743 177.012 L 915.5143 176.492 L 916.7344 175.972 L 917.9343 175.452 L 919.1144 174.932 L 920.2743 174.412 L 921.4143 173.912 L 922.5143 173.392 L 923.6144 172.892 L 924.6944 172.392 L 925.7544 171.872 L 926.8143 171.372 L 927.8344 170.852 L 928.8544 170.352 L 929.8544 169.852 L 930.8344 169.352 L 931.7943 168.832 L 932.7544 168.332 L 933.6944 167.812 L 934.6344 167.312 L 935.5744 166.792 L 936.4944 166.252 L 937.4143 165.732 L 938.3344 165.192 L 939.2344 164.632 L 940.1344 164.072 L 941.0343 163.492 L 941.9143 162.912 L 942.7943 162.312 L 943.6743 161.692 L 944.5543 161.072 L 945.3943 160.432 L 946.2544 159.792 L 947.0944 159.132 L 947.9143 158.432 L 948.7344 157.752 L 949.5343 157.032 L 950.3144 156.292 L 951.0944 155.552 L 951.8544 154.792 L 952.5944 153.992 L 953.3344 153.212 L 954.0543 152.392 L 954.7544 151.552 L 955.4544 150.712 L 956.1144 149.852 L 956.7943 148.992 L 957.4343 148.092 L 958.0744 147.192 L 958.6944 146.272 L 959.2944 145.352 L 959.8943 144.412 L 960.4744 143.472 L 961.0344 142.512 L 961.5944 141.532 L 962.1345 140.532 L 962.6544 139.532 L 963.1544 138.532 L 963.6544 137.492 L 964.1144 136.472 L 964.5744 135.412 L 965.0143 134.352 L 965.4344 133.292 L 965.8544 132.212 L 966.2344 131.132 L 966.5944 130.032 L 966.9344 128.932 L 967.2545 127.812 L 967.5544 126.692 L 967.8344 125.572 L 968.0744 124.452 L 968.2944 123.312 L 968.4944 122.172 L 968.6744 121.032 L 968.8144 119.872 L 968.9344 118.732 L 969.0344 117.572 L 969.0944 116.412 L 969.1544 115.252 L 969.1744 114.072 V 112.912 L 969.1544 111.732 L 969.1144 110.552 L 969.0344 109.372 L 968.9344 108.192 L 968.8144 107.012 L 968.6744 105.852 L 968.4944 104.672 L 968.3144 103.492 L 968.0945 102.312 L 967.8545 101.132 L 967.5945 99.952 L 967.3344 98.772 L 967.0344 97.592 L 966.7145 96.432 L 966.3944 95.252 L 966.0544 94.072 L 965.6744 92.912 L 965.2944 91.732 L 964.8944 90.572 L 964.4944 89.392 L 964.0744 88.232 L 963.6345 87.072 L 963.1944 85.892 L 962.7545 84.732 L 962.2944 83.552 L 961.8344 82.372 L 961.3744 81.192 L 960.9144 80.012 L 960.4544 78.852 L 960.0143 77.672 L 959.5544 76.512 L 959.1144 75.372 L 958.6744 74.232 L 958.2344 73.092 L 957.8144 71.992 L 957.3943 70.892 L 956.9744 69.812 L 956.5744 68.752 L 956.1944 67.692 L 955.8144 66.652 L 955.4344 65.632 L 955.0744 64.612 L 954.7344 63.612 L 954.3943 62.612 L 954.0744 61.632 L 953.7545 60.652 L 953.4544 59.692 L 953.1744 58.732 L 952.8943 57.772 L 952.6345 56.832 L 952.3943 55.892 L 952.1544 54.952 L 951.9344 54.032 L 951.7344 53.112 L 951.5343 52.192 L 951.3543 51.272 L 951.1943 50.352 L 951.0343 49.452 L 950.8943 48.532 L 950.7743 47.632 L 950.6743 46.712 L 950.5943 45.812 L 950.5343 44.892 L 950.4943 43.992 L 950.4543 43.092 V 42.172 L 950.4743 41.272 L 950.4943 40.372 L 950.5543 39.492 L 950.6343 38.592 L 950.7343 37.692 L 950.8543 36.812 L 950.9943 35.932 L 951.1743 35.052 L 951.3744 34.192 L 951.5943 33.332 L 951.8343 32.472 L 952.1144 31.632 L 952.4143 30.792 L 952.7344 29.972 L 953.0743 29.152 L 953.4543 28.352 L 953.8343 27.552 L 954.2544 26.772 L 954.6943 25.992 L 955.1543 25.232 L 955.6344 24.492 L 956.1344 23.752 L 956.6543 23.032 L 957.1943 22.332 L 957.7544 21.632 L 958.3343 20.972 L 958.9343 20.312 L 959.5543 19.672 L 960.1943 19.052 L 960.8343 18.452 L 961.4944 17.872 L 962.1943 17.312 L 962.8744 16.772 L 963.5943 16.252 L 964.3343 15.772 L 965.0743 15.292 L 965.8143 14.852 L 966.5943 14.412 L 967.3744 14.012 L 968.1543 13.632 L 968.9743 13.272 L 969.7743 12.932 L 970.6144 12.632 L 971.4343 12.332 L 972.2943 12.072 L 973.1344 11.832 L 973.9944 11.612 L 974.8744 11.412 L 975.7544 11.252 L 976.6543 11.092 L 977.5343 10.952 L 978.4543 10.852 L 979.3543 10.752 L 980.2743 10.672 L 981.1943 10.632 L 982.1144 10.592 L 983.0543 10.572 L 983.9944 10.552 L 984.9543 10.572 L 985.8943 10.592 L 986.8543 10.652 L 987.8343 10.712 L 988.7943 10.792 L 989.7743 10.892 L 990.7743 10.992 L 991.7743 11.132 L 992.7743 11.272 L 993.7743 11.432 L 994.8143 11.612 L 995.8343 11.792 L 996.8744 12.012 L 997.9143 12.232 L 998.9743 12.472 L 1000.0543 12.732 L 1001.1144 13.012 L 1002.1943 13.312 L 1003.2943 13.612 L 1004.3943 13.952 L 1005.4944 14.312 L 1006.6144 14.672 L 1007.7544 15.052 L 1008.8744 15.452 L 1010.0343 15.852 L 1011.1743 16.272 L 1012.3543 16.692 L 1013.5343 17.132 L 1014.7143 17.572 L 1015.9143 18.032 L 1017.1144 18.472 L 1018.3143 18.932 L 1019.5343 19.392 L 1020.7743 19.852 L 1021.9944 20.332 L 1023.2544 20.792 L 1024.4944 21.292 L 1025.7743 21.772 L 1027.0343 22.272 L 1028.3143 22.772 L 1029.6144 23.272 L 1030.9143 23.792 L 1032.2344 24.312 L 1033.5543 24.832 L 1034.8744 25.352 L 1036.2344 25.892 L 1037.5743 26.412 L 1038.9343 26.952 L 1040.3143 27.492 L 1041.6943 28.012 L 1043.0943 28.552 L 1044.5143 29.092 L 1045.9343 29.632 L 1047.3543 30.152 L 1048.7943 30.692 L 1050.2544 31.232 L 1051.7143 31.752 L 1053.1943 32.292 L 1054.6743 32.812 L 1056.1743 33.332 L 1057.6943 33.872 L 1059.2143 34.392 L 1060.7344 34.912 L 1062.2943 35.432 L 1063.8343 35.932 L 1065.4143 36.432 L 1066.9944 36.932 L 1068.5743 37.432 L 1070.1743 37.912 L 1071.7743 38.392 L 1073.3744 38.872 L 1074.9944 39.332 L 1076.6344 39.792 L 1078.2743 40.252 L 1079.9143 40.712 L 1081.5743 41.172 L 1083.2344 41.612 L 1084.9143 42.052 L 1086.5943 42.492 L 1088.2943 42.952 L 1089.9944 43.392 L 1091.7143 43.812 L 1093.4343 44.252 L 1095.1543 44.672 L 1096.8943 45.112 L 1098.6344 45.532 L 1100.3943 45.952 L 1102.1543 46.372 L 1103.9343 46.772 L 1105.7143 47.192 L 1107.5143 47.592 L 1109.3143 47.992 L 1111.1344 48.372 L 1112.9543 48.752 L 1114.7743 49.132 L 1116.6144 49.512 L 1118.4743 49.872 L 1120.3143 50.232 L 1122.1943 50.572 L 1124.0743 50.912 L 1125.9543 51.232 L 1127.8343 51.532 L 1129.7544 51.852 L 1131.6543 52.152 L 1133.5743 52.432 L 1135.5143 52.712 L 1137.4343 52.992 L 1139.3943 53.272 L 1141.3343 53.532 L 1143.2943 53.772 L 1145.2743 54.032 L 1147.2544 54.272 L 1149.2344 54.492 L 1151.2143 54.712 L 1153.2143 54.932 L 1155.2344 55.152 L 1157.2344 55.352 L 1159.2743 55.532 L 1161.2943 55.712 L 1163.3343 55.892 L 1165.3744 56.052 L 1167.4343 56.192 L 1169.4743 56.332 L 1171.5343 56.452 L 1173.5743 56.572 L 1175.6543 56.672 L 1177.7143 56.752 L 1179.7943 56.812 L 1181.8744 56.872 L 1183.9543 56.892 L 1186.0543 56.912 H 1188.1543 H 1190.2544 L 1192.3543 56.872 L 1194.4743 56.832 L 1196.5943 56.792 L 1198.7143 56.732 L 1200.8343 56.652 L 1202.9743 56.572 L 1205.1144 56.492 L 1207.2544 56.392 L 1209.4143 56.292 L 1211.5543 56.172 L 1213.7143 56.052 L 1215.8744 55.932 L 1218.0543 55.792 L 1220.2344 55.652 L 1222.4143 55.492 L 1224.5943 55.332 L 1226.7743 55.172 L 1228.9743 55.012 L 1231.1743 54.832 L 1233.3744 54.652 L 1235.5943 54.472 L 1237.7943 54.292 L 1240.0143 54.112 L 1242.2544 53.912 L 1244.4743 53.712 L 1246.7143 53.532 L 1248.9543 53.312 L 1251.1943 53.112 L 1253.4343 52.892 L 1255.6943 52.652 L 1257.9343 52.412 L 1260.1943 52.172 L 1262.4543 51.912 L 1264.7344 51.632 L 1266.9944 51.352 L 1269.2743 51.072 L 1271.5543 50.772 L 1273.8343 50.472 L 1276.1144 50.152 L 1278.3943 49.832 L 1280.6743 49.492 L 1282.9543 49.152 L 1285.2143 48.792 L 1287.4543 48.432 L 1289.6943 48.072 L 1291.9143 47.692 L 1294.0943 47.312 L 1296.2743 46.912 L 1298.4143 46.512 L 1300.5143 46.092 L 1302.5943 45.672 L 1304.6344 45.252 L 1306.6543 44.792 L 1308.6344 44.352 L 1310.5743 43.892 L 1312.4944 43.432 L 1314.3744 42.972 L 1316.2143 42.532 L 1318.0343 42.072 L 1319.8143 41.652 L 1321.5543 41.212 L 1323.2743 40.812 L 1324.9743 40.412 L 1326.6543 40.052 L 1328.2943 39.692 L 1329.9143 39.352 L 1331.5143 39.032 L 1333.0743 38.752 L 1334.6344 38.472 L 1336.1543 38.212 L 1337.6543 37.972 L 1339.1344 37.772 L 1340.5943 37.572 L 1342.0343 37.412 L 1343.4343 37.252 L 1344.8343 37.132 L 1346.2143 37.012 L 1347.5743 36.932 L 1348.9143 36.852 L 1350.2143 36.792 L 1351.5143 36.752 H 1352.7943 H 1354.0543 L 1355.2743 36.792 L 1356.4944 36.852 L 1357.6943 36.932 L 1358.8543 37.032 L 1359.9944 37.152 L 1361.1144 37.312 L 1362.2143 37.472 L 1363.2943 37.672 L 1364.3543 37.892 L 1365.3744 38.132 L 1366.3943 38.372 L 1367.3744 38.652 L 1368.3143 38.932 L 1369.2544 39.232 L 1370.1543 39.552 L 1371.0343 39.892 L 1371.8943 40.252 L 1372.7344 40.632 L 1373.5543 41.032 L 1374.3343 41.452 L 1375.0943 41.872 L 1375.8543 42.332 L 1376.5743 42.812 L 1377.2743 43.292 L 1377.9543 43.812 L 1378.5943 44.352 L 1379.2344 44.912 L 1379.8543 45.472 L 1380.4343 46.072 L 1380.9944 46.692 L 1381.5543 47.312 L 1382.0743 47.952 L 1382.5743 48.632 L 1383.0543 49.312 L 1383.5143 50.012 L 1383.9343 50.712 L 1384.3543 51.452 L 1384.7344 52.192 L 1385.1144 52.952 L 1385.4543 53.732 L 1385.7743 54.512 L 1386.0744 55.312 L 1386.3344 56.132 L 1386.5744 56.952 L 1386.7944 57.792 L 1386.9944 58.652 L 1387.1744 59.512 L 1387.3144 60.372 L 1387.4144 61.252 L 1387.5144 62.132 L 1387.5744 63.032 L 1387.5944 63.932 V 64.832 L 1387.5744 65.732 L 1387.5344 66.652 L 1387.4544 67.572 L 1387.3344 68.472 L 1387.2144 69.392 L 1387.0344 70.312 L 1386.8544 71.232 L 1386.6345 72.152 L 1386.3745 73.052 L 1386.1145 73.972 L 1385.8144 74.872 L 1385.4744 75.772 L 1385.1145 76.672 L 1384.7345 77.552 L 1384.3144 78.432 L 1383.8745 79.292 L 1383.3944 80.132 L 1382.8944 80.972 L 1382.3745 81.812 L 1381.8144 82.632 L 1381.2345 83.412 L 1380.6345 84.212 L 1380.0144 84.972 L 1379.3544 85.732 L 1378.6944 86.472 L 1377.9945 87.172 L 1377.2744 87.872 L 1376.5344 88.552 L 1375.7744 89.212 L 1374.9744 89.832 L 1374.1744 90.452 L 1373.3544 91.032 L 1372.5144 91.592 L 1371.6744 92.132 L 1370.7944 92.652 L 1369.9144 93.132 L 1369.0144 93.592 L 1368.0944 94.032 L 1367.1744 94.452 L 1366.2345 94.832 L 1365.2545 95.192 L 1364.2944 95.532 L 1363.2944 95.852 L 1362.2944 96.152 L 1361.2744 96.412 L 1360.2345 96.652 L 1359.1944 96.872 L 1358.1345 97.072 L 1357.0544 97.232 L 1355.9744 97.372 L 1354.8745 97.492 L 1353.7545 97.592 L 1352.6345 97.672 L 1351.4945 97.732 L 1350.3544 97.752 H 1349.1944 H 1348.0344 L 1346.8544 97.712 L 1345.6544 97.652 L 1344.4744 97.592 L 1343.2545 97.512 L 1342.0344 97.432 L 1340.7944 97.332 L 1339.5544 97.252 L 1338.2944 97.152 L 1337.0344 97.052 L 1335.7545 96.972 L 1334.4945 96.872 L 1333.2144 96.792 L 1331.9144 96.712 L 1330.6145 96.612 L 1329.2944 96.532 L 1327.9744 96.452 L 1326.6345 96.372 L 1325.2944 96.292 L 1323.9344 96.232 L 1322.5744 96.152 L 1321.2144 96.072 L 1319.8344 96.012 L 1318.4344 95.952 L 1317.0344 95.892 L 1315.6145 95.812 L 1314.1944 95.752 L 1312.7744 95.712 L 1311.3344 95.652 L 1309.8745 95.592 L 1308.4344 95.532 L 1306.9544 95.472 L 1305.4744 95.412 L 1303.9945 95.352 L 1302.4945 95.292 L 1300.9945 95.232 L 1299.4945 95.172 L 1297.9744 95.112 L 1296.4344 95.052 L 1294.8944 94.992 L 1293.3544 94.932 L 1291.7944 94.872 L 1290.2345 94.812 L 1288.6544 94.752 L 1287.0744 94.692 L 1285.4744 94.612 L 1283.8745 94.552 L 1282.2744 94.492 L 1280.6544 94.432 L 1279.0344 94.372 L 1277.4144 94.292 L 1275.7744 94.232 L 1274.1145 94.172 L 1272.4744 94.092 L 1270.8344 94.032 L 1269.1744 93.972 L 1267.5144 93.892 L 1265.8544 93.832 L 1264.1744 93.772 L 1262.4945 93.692 L 1260.8144 93.632 L 1259.1145 93.572 L 1257.4144 93.492 L 1255.7144 93.432 L 1253.9945 93.352 L 1252.2744 93.292 L 1250.5544 93.212 L 1248.8144 93.152 L 1247.0744 93.072 L 1245.3344 93.012 L 1243.5944 92.932 L 1241.8344 92.872 L 1240.0744 92.792 L 1238.2944 92.712 L 1236.5144 92.632 L 1234.7345 92.552 L 1232.9544 92.452 L 1231.1544 92.372 L 1229.3544 92.272 L 1227.5544 92.172 L 1225.7545 92.092 L 1223.9344 91.992 L 1222.1145 91.892 L 1220.2744 91.812 L 1218.4344 91.712 L 1216.5944 91.612 L 1214.7545 91.512 L 1212.8944 91.412 L 1211.0544 91.332 L 1209.1944 91.232 L 1207.3344 91.132 L 1205.4945 91.032 L 1203.6544 90.932 L 1201.8344 90.852 L 1200.0144 90.752 L 1198.2144 90.652 L 1196.4344 90.572 L 1194.6744 90.472 L 1192.9144 90.372 L 1191.1744 90.292 L 1189.4544 90.192 L 1187.7545 90.092 L 1186.0544 89.992 L 1184.3944 89.892 L 1182.7345 89.812 L 1181.0944 89.712 L 1179.4744 89.612 L 1177.8544 89.512 L 1176.2545 89.432 L 1174.6744 89.332 L 1173.0944 89.252 L 1171.5344 89.192 L 1169.9945 89.132 L 1168.4544 89.072 L 1166.9344 89.052 L 1165.4344 89.032 H 1163.9344 H 1162.4544 L 1160.9744 89.072 L 1159.5144 89.132 L 1158.0544 89.212 L 1156.6145 89.312 L 1155.1744 89.452 L 1153.7545 89.612 L 1152.3544 89.792 L 1150.9544 89.992 L 1149.5744 90.232 L 1148.1944 90.492 L 1146.8344 90.772 L 1145.4744 91.072 L 1144.1345 91.412 L 1142.7944 91.772 L 1141.4544 92.152 L 1140.1345 92.572 L 1138.8144 92.992 L 1137.4945 93.432 L 1136.1744 93.892 L 1134.8745 94.392 L 1133.5744 94.892 L 1132.2744 95.412 L 1130.9744 95.952 L 1129.6944 96.512 L 1128.4144 97.092 L 1127.1345 97.692 L 1125.8745 98.312 L 1124.6145 98.952 L 1123.3544 99.612 L 1122.1145 100.292 L 1120.8745 100.992 L 1119.6544 101.712 L 1118.4544 102.452 L 1117.2545 103.212 L 1116.0544 104.012 L 1114.8745 104.812 L 1113.7144 105.632 L 1112.5544 106.472 L 1111.4144 107.352 L 1110.2944 108.232 L 1109.1744 109.132 L 1108.0944 110.072 L 1107.0144 111.012 L 1105.9544 111.972 L 1104.9144 112.952 L 1103.8944 113.952 L 1102.8745 114.972 L 1101.8944 116.012 L 1100.9344 117.072 L 1099.9744 118.132 L 1099.0544 119.212 L 1098.1544 120.332 L 1097.2545 121.432 L 1096.3944 122.572 L 1095.5544 123.732 L 1094.7144 124.892 L 1093.9144 126.072 L 1093.1345 127.252 L 1092.3544 128.452 L 1091.6145 129.672 L 1090.8745 130.892 L 1090.1544 132.132 L 1089.4344 133.372 L 1088.7345 134.612 L 1088.0344 135.872 L 1087.3144 137.112 L 1086.6145 138.372 L 1085.8944 139.612 L 1085.1744 140.852 L 1084.4544 142.092 L 1083.7144 143.332 L 1082.9544 144.552 L 1082.1944 145.772 L 1081.3944 146.992 L 1080.6145 148.192 L 1079.7944 149.392 L 1078.9744 150.572 L 1078.1345 151.752 L 1077.2744 152.912 L 1076.3944 154.072 L 1075.4945 155.212 L 1074.5944 156.332 L 1073.6544 157.452 L 1072.7144 158.552 L 1071.7345 159.632 L 1070.7545 160.712 L 1069.7545 161.772 L 1068.7345 162.812 L 1067.6944 163.832 L 1066.6345 164.852 L 1065.5544 165.852 L 1064.4544 166.852 L 1063.3544 167.832 L 1062.2144 168.792 L 1061.0744 169.732 L 1059.9144 170.672 L 1058.7345 171.592 L 1057.5344 172.492 L 1056.3144 173.392 L 1055.0744 174.272 L 1053.8344 175.152 L 1052.5744 176.012 L 1051.3144 176.872 L 1050.0144 177.712 L 1048.7144 178.552 L 1047.4144 179.372 L 1046.0744 180.192 L 1044.7545 181.012 L 1043.3944 181.812 L 1042.0344 182.592 L 1040.6544 183.372 L 1039.2545 184.152 L 1037.8745 184.912 L 1036.4544 185.692 L 1035.0344 186.432 L 1033.6145 187.192 L 1032.1744 187.952 L 1030.7144 188.692 L 1029.2744 189.452 L 1027.8144 190.212 L 1026.3344 190.952 L 1024.8745 191.712 L 1023.3944 192.472 L 1021.9144 193.232 L 1020.4144 193.992 L 1018.9144 194.752 L 1017.4144 195.532 L 1015.8944 196.292 L 1014.3745 197.072 L 1012.8544 197.832 L 1011.3344 198.612 L 1009.7944 199.372 L 1008.2345 200.152 L 1006.6944 200.932 L 1005.1345 201.692 L 1003.5744 202.472 L 1001.9945 203.252 L 1000.4144 204.032 L 998.8344 204.812 L 997.2345 205.592 L 995.6345 206.372 L 994.0344 207.152 L 992.4144 207.932 L 990.7944 208.712 L 989.1744 209.492 L 987.5544 210.292 L 985.9144 211.072 L 984.2744 211.852 L 982.6145 212.632 L 980.9544 213.432 L 979.2944 214.212 L 977.6145 214.992 L 975.9344 215.792 L 974.2545 216.572 L 972.5744 217.352 L 970.8745 218.152 L 969.1744 218.932 L 967.4544 219.732 L 965.7345 220.512 L 964.0144 221.312 L 962.2944 222.112 L 960.5544 222.892 L 958.8144 223.692 L 957.0744 224.472 L 955.3144 225.272 L 953.5544 226.072 L 951.7944 226.872 L 950.0144 227.652 L 948.2345 228.452 L 946.4544 229.252 L 944.6744 230.052 L 942.8745 230.852 L 941.0744 231.652 L 939.2744 232.452 L 937.4744 233.272 L 935.6544 234.072 L 933.8344 234.892 L 932.0144 235.712 L 930.1744 236.512 L 928.3544 237.332 L 926.5144 238.152 L 924.6744 238.972 L 922.8144 239.812 L 920.9744 240.632 L 919.1145 241.472 L 917.2545 242.292 L 915.3944 243.132 L 913.5144 243.952 L 911.6544 244.792 L 909.7944 245.632 L 907.9144 246.452 L 906.0344 247.292 L 904.1544 248.132 L 902.2744 248.972 L 900.3944 249.812 L 898.5144 250.652 L 896.6144 251.512 L 894.7144 252.352 L 892.8144 253.212 L 890.9144 254.052 L 888.9944 254.912 L 887.0944 255.752 L 885.1744 256.612 L 883.2544 257.472 L 881.3344 258.312 L 879.4144 259.172 L 877.4944 260.032 L 875.5744 260.912 L 873.6344 261.772 L 871.6944 262.632 L 869.7544 263.512 L 867.8144 264.372 L 865.8944 265.252 L 863.9744 266.132 L 862.0544 266.992 L 860.1544 267.852 L 858.2744 268.712 L 856.4344 269.572 L 854.5944 270.412 L 852.7744 271.252 L 850.9744 272.092 L 849.1944 272.892 L 847.4544 273.712 L 845.7344 274.512 L 844.0144 275.292 L 842.3544 276.072 L 840.6944 276.832 L 839.0544 277.572 L 837.4544 278.312 L 835.8544 279.052 L 834.2944 279.752 L 832.7544 280.472 L 831.2344 281.152 L 829.7344 281.832 L 828.2744 282.512 L 826.8144 283.172 L 825.3744 283.812 L 823.9744 284.452 L 822.5744 285.072 L 821.2144 285.692 L 819.8544 286.312 L 818.5344 286.912 L 817.2144 287.512 L 815.9344 288.112 L 814.6544 288.692 L 813.4144 289.292 L 812.1744 289.872 L 810.9544 290.472 L 809.7744 291.072 L 808.5944 291.652 L 807.4544 292.252 L 806.3144 292.852 L 805.2144 293.472 L 804.1544 294.072 L 803.1144 294.692 L 802.0944 295.312 L 801.0944 295.952 L 800.1344 296.592 L 799.1944 297.232 L 798.2744 297.892 L 797.3944 298.552 L 796.5344 299.232 L 795.6944 299.912 L 794.8944 300.612 L 794.1144 301.332 L 793.3744 302.052 L 792.6544 302.792 L 791.9544 303.552 L 791.2744 304.312 L 790.6144 305.112 L 789.9944 305.912 L 789.3744 306.752 L 788.7744 307.592 L 788.2144 308.452 L 787.6544 309.312 L 787.1144 310.192 L 786.5944 311.092 L 786.0744 311.992 L 785.5944 312.912 L 785.1144 313.832 L 784.6344 314.772 L 784.1944 315.712 L 783.7744 316.672 L 783.3744 317.632 L 782.9744 318.612 L 782.6144 319.612 L 782.2744 320.592 L 781.9544 321.612 L 781.6744 322.612 L 781.3944 323.652 L 781.1344 324.672 L 780.9144 325.712 L 780.7144 326.752 L 780.5544 327.792 L 780.4144 328.852 L 780.2944 329.912 L 780.2144 330.972 L 780.1544 332.032 L 780.1344 333.092 V 334.152 L 780.1544 335.212 L 780.2144 336.272 L 780.2944 337.312 L 780.4144 338.372 L 780.5544 339.432 L 780.7144 340.472 L 780.8944 341.512 L 781.1144 342.552 L 781.3545 343.592 L 781.6144 344.632 L 781.8944 345.672 L 782.2145 346.712 L 782.5544 347.732 L 782.8944 348.772 L 783.2745 349.812 L 783.6744 350.832 L 784.0744 351.872 L 784.4944 352.912 L 784.9344 353.952 L 785.3944 355.012 L 785.8545 356.052 L 786.3344 357.112 L 786.8144 358.192 L 787.3144 359.252 L 787.7944 360.352 L 788.2944 361.432 L 788.7944 362.552 L 789.2944 363.652 L 789.8144 364.792 L 790.3144 365.912 L 790.8144 367.072 L 791.3144 368.232 L 791.8144 369.392 L 792.3344 370.572 L 792.8344 371.772 L 793.3344 372.972 L 793.8344 374.192 L 794.3344 375.412 L 794.8344 376.652 L 795.3344 377.892 L 795.8344 379.132 L 796.3344 380.392 L 796.8344 381.632 L 797.3144 382.892 L 797.7944 384.152 L 798.2944 385.412 L 798.7745 386.672 L 799.2344 387.932 L 799.7145 389.192 L 800.1744 390.472 L 800.6344 391.732 L 801.0744 392.992 L 801.5144 394.272 L 801.9544 395.532 L 802.3744 396.772 L 802.7745 398.032 L 803.1944 399.272 L 803.5744 400.492 L 803.9544 401.712 L 804.3344 402.912 L 804.6944 404.092 L 805.0544 405.252 L 805.4145 406.392 L 805.7544 407.512 L 806.0945 408.612 L 806.4344 409.712 L 806.7544 410.772 L 807.0945 411.832 L 807.4145 412.852 L 807.7344 413.892 L 808.0544 414.892 L 808.3545 415.892 L 808.6545 416.872 L 808.9544 417.872 L 809.2344 418.852 L 809.4944 419.812 L 809.7544 420.792 L 810.0144 421.772 L 810.2344 422.752 L 810.4544 423.732 L 810.6545 424.712 L 810.8545 425.692 L 811.0145 426.692 L 811.1745 427.672 L 811.2945 428.672 L 811.4145 429.672 L 811.4945 430.672 L 811.5745 431.672 L 811.6145 432.672 L 811.6345 433.692 V 434.692 L 811.6145 435.712 L 811.5745 436.732 L 811.5145 437.752 L 811.4545 438.772 L 811.3545 439.792 L 811.2345 440.812 L 811.0945 441.852 L 810.9145 442.872 L 810.7345 443.892 L 810.5345 444.932 L 810.3144 445.972 L 810.0744 446.992 L 809.7944 448.032 L 809.5144 449.072 L 809.1944 450.112 L 808.8744 451.152 L 808.5144 452.172 L 808.1545 453.212 L 807.7544 454.252 L 807.3344 455.272 L 806.8944 456.292 L 806.4344 457.312 L 805.9544 458.332 L 805.4544 459.332 L 804.9344 460.332 L 804.3944 461.332 L 803.8144 462.312 L 803.2344 463.272 L 802.6144 464.232 L 801.9944 465.172 L 801.3344 466.112 L 800.6744 467.032 L 799.9745 467.952 L 799.2745 468.852 L 798.5345 469.732 L 797.7745 470.612 L 796.9944 471.452 L 796.1944 472.292 L 795.3944 473.132 L 794.5544 473.932 L 793.7145 474.732 L 792.8344 475.512 L 791.9544 476.272 L 791.0345 477.012 L 790.1144 477.732 L 789.1744 478.432 L 788.2145 479.132 L 787.2344 479.812 L 786.2344 480.452 L 785.2344 481.092 L 784.1944 481.712 L 783.1545 482.312 L 782.0945 482.912 L 781.0144 483.472 L 779.9145 484.012 L 778.7944 484.552 L 777.6744 485.052 L 776.5144 485.552 L 775.3545 486.012 L 774.1744 486.452 L 772.9944 486.892 L 771.7745 487.292 L 770.5544 487.672 L 769.3144 488.052 L 768.0744 488.392 L 766.8144 488.712 L 765.5345 489.012 L 764.2544 489.292 L 762.9544 489.552 L 761.6545 489.792 L 760.3344 490.012 L 758.9944 490.232 L 757.6545 490.412 L 756.3144 490.572 L 754.9544 490.712 L 753.5744 490.852 L 752.1944 490.972 L 750.7944 491.092 L 749.3944 491.192 L 747.9745 491.292 L 746.5345 491.372 L 745.0945 491.472 L 743.6545 491.552 L 742.1944 491.632 L 740.7145 491.712 L 739.2344 491.812 L 737.7344 491.892 L 736.2344 491.972 L 734.7344 492.072 L 733.1944 492.152 L 731.6744 492.252 L 730.1144 492.332 L 728.5744 492.432 L 726.9944 492.512 L 725.4145 492.612 L 723.8344 492.692 L 722.2344 492.792 L 720.6344 492.872 L 719.0144 492.972 L 717.3944 493.072 L 715.7544 493.172 L 714.1144 493.272 L 712.4544 493.372 L 710.8144 493.492 L 709.1545 493.592 L 707.4944 493.712 L 705.8144 493.832 L 704.1344 493.952 L 702.4344 494.072 L 700.7544 494.192 L 699.0345 494.332 L 697.3344 494.452 L 695.6144 494.572 L 693.8744 494.712 L 692.1344 494.832 L 690.3944 494.972 L 688.6344 495.092 L 686.8744 495.232 L 685.1144 495.352 L 683.3344 495.492 L 681.5544 495.632 L 679.7544 495.752 L 677.9544 495.892 L 676.1344 496.032 L 674.3144 496.152 L 672.4944 496.292 L 670.6744 496.432 L 668.8344 496.572 L 666.9745 496.692 L 665.1144 496.832 L 663.2544 496.972 L 661.3944 497.112 L 659.5144 497.252 L 657.6344 497.392 L 655.7344 497.532 L 653.8344 497.672 L 651.9344 497.812 L 650.0144 497.952 L 648.0945 498.092 L 646.1545 498.232 L 644.2344 498.372 L 642.2944 498.532 L 640.3344 498.672 L 638.3744 498.832 L 636.4145 498.972 L 634.4544 499.132 L 632.4745 499.272 L 630.4944 499.432 L 628.4944 499.592 L 626.5144 499.752 L 624.4944 499.892 L 622.4944 500.052 L 620.4745 500.212 L 618.4544 500.372 L 616.4344 500.532 L 614.3944 500.692 L 612.3545 500.852 L 610.3144 501.012 L 608.2944 501.152 L 606.2344 501.312 L 604.1944 501.472 L 602.1344 501.632 L 600.0744 501.792 L 598.0345 501.952 L 595.9745 502.112 L 593.9145 502.272 L 591.8545 502.432 L 589.8144 502.592 L 587.7544 502.752 L 585.7145 502.912 L 583.6944 503.072 L 581.6744 503.232 L 579.6744 503.392 L 577.6744 503.552 L 575.6944 503.692 L 573.7344 503.852 L 571.7745 504.012 L 569.8344 504.152 L 567.8944 504.312 L 565.9544 504.452 L 564.0345 504.612 L 562.1144 504.752 L 560.2145 504.912 L 558.3344 505.052 L 556.4344 505.192 L 554.5544 505.352 L 552.6545 505.492 L 550.7745 505.632 L 548.8944 505.772 L 546.9944 505.912 L 545.1144 506.032 L 543.2145 506.132 L 541.3144 506.232 L 539.4145 506.332 L 537.5144 506.392 L 535.6144 506.452 L 533.7145 506.492 L 531.7944 506.512 H 529.8744 L 527.9544 506.492 L 526.0345 506.452 L 524.1144 506.412 L 522.1744 506.332 L 520.2544 506.232 L 518.3144 506.112 L 516.3744 505.992 L 514.4344 505.832 L 512.4745 505.652 L 510.5345 505.452 L 508.5744 505.2321 L 506.6344 504.992 L 504.6744 504.7321 L 502.7344 504.432 L 500.7745 504.092 L 498.8344 503.752 L 496.8744 503.372 L 494.9344 502.9721 L 492.9944 502.532 L 491.0544 502.072 L 489.1144 501.572 L 487.1744 501.072 L 485.2344 500.532 L 483.3144 499.9721 L 481.3944 499.372 L 479.4745 498.752 L 477.5544 498.1121 L 475.6344 497.452 L 473.7144 496.772 L 471.8144 496.052 L 469.9144 495.332 L 468.0144 494.572 L 466.1344 493.792 L 464.2344 493.012 L 462.3544 492.192 L 460.4744 491.352 L 458.5944 490.512 L 456.7144 489.632 L 454.8544 488.752 L 452.9944 487.832 L 451.1344 486.912 L 449.2944 485.952 L 447.4344 484.992 L 445.6144 483.992 L 443.7744 482.972 L 441.9544 481.952 L 440.1344 480.892 L 438.3344 479.832 L 436.5144 478.732 L 434.7344 477.632 L 432.9344 476.492 L 431.1544 475.352 L 429.3744 474.192 L 427.6144 473.012 L 425.8544 471.812 L 424.0944 470.612 L 422.3144 469.412 L 420.5744 468.172 L 418.8144 466.952 L 417.0544 465.712 L 415.2944 464.472 L 413.5144 463.232 L 411.7544 461.972 L 409.9744 460.732 L 408.2144 459.472 L 406.4344 458.232 L 404.6344 456.972 L 402.8544 455.712 L 401.0544 454.472 L 399.2544 453.212 L 397.4544 451.972 L 395.6344 450.712 L 393.8344 449.452 L 392.0144 448.212 L 390.1944 446.952 L 388.3544 445.712 L 386.5344 444.452 L 384.6944 443.192 L 382.8344 441.952 L 380.9944 440.712 L 379.1344 439.472 L 377.2744 438.232 L 375.3944 437.012 L 373.5144 435.772 L 371.6344 434.572 L 369.7344 433.352 L 367.8344 432.152 L 365.9144 430.932 L 363.9944 429.732 L 362.0744 428.552 L 360.1544 427.352 L 358.2144 426.172 L 356.2744 424.972 L 354.3344 423.792 L 352.3744 422.592 L 350.4344 421.412 L 348.4744 420.212 L 346.5144 419.032 L 344.5544 417.832 L 342.5944 416.652 L 340.6344 415.452 L 338.6544 414.252 L 336.6744 413.052 L 334.7144 411.872 L 332.7344 410.672 L 330.7344 409.472 L 328.7544 408.272 L 326.7744 407.072 L 324.7744 405.892 L 322.7744 404.692 L 320.7744 403.492 L 318.7744 402.292 L 316.7744 401.092 L 314.7544 399.892 L 312.7544 398.692 L 310.7344 397.492 L 308.7144 396.272 L 306.7144 395.072 L 304.6944 393.852 L 302.6744 392.632 L 300.6544 391.412 L 298.6344 390.192 L 296.6144 388.972 L 294.5744 387.752 L 292.5544 386.512 L 290.5344 385.272 L 288.5144 384.052 L 286.4744 382.812 L 284.4544 381.572 L 282.4144 380.312 L 280.3944 379.072 L 278.3944 377.832 L 276.3944 376.592 L 274.3944 375.372 L 272.4344 374.152 L 270.4744 372.932 L 268.5344 371.712 L 266.6144 370.512 L 264.7144 369.332 L 262.8344 368.152 L 260.9944 366.972 L 259.1744 365.812 L 257.3544 364.652 L 255.5744 363.512 L 253.8344 362.392 L 252.0944 361.252 L 250.3944 360.152 L 248.7144 359.032 L 247.0344 357.952 L 245.3944 356.852 L 243.7944 355.772 L 242.1944 354.712 L 240.6144 353.672 L 239.0544 352.632 L 237.5144 351.612 L 235.9744 350.612 L 234.4744 349.632 L 232.9744 348.652 L 231.4944 347.712 L 230.0344 346.792 L 228.5744 345.892 L 227.1544 345.012 L 225.7144 344.152 L 224.3144 343.292 L 222.9144 342.472 L 221.5544 341.652 L 220.1944 340.872 L 218.8544 340.092 L 217.5344 339.332 L 216.2344 338.592 L 214.9344 337.872 L 213.6744 337.172 L 212.4144 336.492 L 211.1744 335.832 L 209.9544 335.192 L 208.7544 334.592 L 207.5544 333.992 L 206.3744 333.432 L 205.1944 332.892 L 204.0344 332.372 L 202.8744 331.872 L 201.7344 331.412 L 200.6144 330.972 L 199.4944 330.552 L 198.3944 330.192 L 197.2944 329.832 L 196.2144 329.512 L 195.1344 329.192 L 194.0544 328.912 L 193.0144 328.652 L 191.9744 328.412 L 190.9344 328.212 L 189.9144 328.052 L 188.9144 327.892 L 187.9344 327.792 L 186.9544 327.692 L 185.9944 327.632 L 185.0344 327.592 H 184.0944 L 183.1544 327.612 L 182.2344 327.672 L 181.3144 327.752 L 180.3944 327.852 L 179.4744 327.972 L 178.5544 328.132 L 177.6544 328.312 L 176.7544 328.532 L 175.8544 328.752 L 174.9544 328.992 L 174.0544 329.252 L 173.1544 329.532 L 172.2744 329.812 L 171.3744 330.112 L 170.4744 330.412 L 169.5544 330.712 L 168.6544 331.012 L 167.7344 331.332 L 166.7944 331.632 L 165.8544 331.932 L 164.9144 332.232 L 163.9544 332.512 L 162.9944 332.792 L 162.0144 333.072 L 161.0344 333.332 L 160.0344 333.552 L 159.0344 333.792 L 158.0144 333.992 L 156.9944 334.192 L 155.9744 334.372 L 154.9344 334.552 L 153.8944 334.692 L 152.8344 334.812 L 151.7744 334.912 L 150.7144 335.012 L 149.6344 335.072 L 148.5544 335.112 L 147.4744 335.152 L 146.3944 335.172 L 145.2944 335.152 L 144.1944 335.112 L 143.0944 335.072 L 141.9744 334.992 L 140.8544 334.912 L 139.7344 334.792 L 138.6144 334.672 L 137.4744 334.512 L 136.3344 334.352 L 135.1744 334.172 L 134.0344 333.992 L 132.8744 333.7721 L 131.6944 333.5521 L 130.5344 333.312 L 129.3544 333.0521 L 128.1744 332.7721 L 126.9744 332.4721 L 125.7944 332.1521 L 124.5944 331.8321 L 123.3944 331.4721 L 122.1944 331.0921 L 120.9944 330.692 L 119.7944 330.2721 L 118.5944 329.8321 L 117.3944 329.3521 L 116.1944 328.872 L 114.9944 328.3521 L 113.7944 327.812 L 112.5944 327.252 L 111.3944 326.6521 L 110.1944 326.072 L 108.9944 325.4521 L 107.7744 324.812 L 106.5744 324.1721 L 105.3544 323.5321 L 104.1344 322.872 L 102.8944 322.2121 L 101.6544 321.5321 L 100.4144 320.8521 L 99.1544 320.1721 L 97.9144 319.4721 L 96.6344 318.7721 L 95.3744 318.072 L 94.0944 317.372 L 92.7944 316.6521 L 91.5144 315.932 L 90.2144 315.2121 L 88.8944 314.4721 L 87.5744 313.752 L 86.2544 313.012 L 84.9344 312.252 L 83.5944 311.512 L 82.2344 310.752 L 80.8944 309.992 L 79.5144 309.232 L 78.1544 308.472 L 76.7744 307.712 L 75.3944 306.932 L 74.0144 306.152 L 72.6144 305.372 L 71.2144 304.592 L 69.8144 303.812 L 68.4144 303.012 L 66.9944 302.232 L 65.5944 301.432 L 64.2144 300.652 L 62.8144 299.852 L 61.4344 299.052 L 60.0544 298.272 L 58.6944 297.472 L 57.3544 296.692 L 56.0144 295.892 L 54.6944 295.112 L 53.3944 294.332 L 52.1144 293.552 L 50.8344 292.792 L 49.5944 292.012 L 48.3544 291.252 L 47.1344 290.472 L 45.9344 289.712 L 44.7544 288.952 L 43.5944 288.192 L 42.4344 287.432 L 41.3144 286.672 L 40.2144 285.912 L 39.1344 285.152 L 38.0744 284.392 L 37.0344 283.612 L 36.0144 282.852 L 35.0344 282.072 L 34.0544 281.292 L 33.1144 280.492 L 32.2144 279.712 L 31.3144 278.912 L 30.4544 278.112 L 29.6144 277.312 L 28.7944 276.492 L 27.9944 275.672 L 27.2344 274.852 L 26.4944 274.032 L 25.7944 273.192 L 25.1144 272.352 L 24.4544 271.512 L 23.8144 270.652 L 23.1944 269.792 L 22.5944 268.932 L 22.0344 268.032 L 21.4744 267.132 L 20.9544 266.232 L 20.4344 265.312 L 19.9344 264.372 L 19.4744 263.432 L 19.0144 262.472 L 18.5744 261.512 L 18.1544 260.532 L 17.7544 259.552 L 17.3944 258.552 L 17.0344 257.552 L 16.7144 256.532 L 16.4144 255.512 L 16.1344 254.492 L 15.8744 253.452 L 15.6544 252.392 L 15.4544 251.352 L 15.2744 250.292 L 15.1344 249.232 L 15.0144 248.172 L 14.9144 247.112 L 14.8544 246.032 L 14.8144 244.972 L 14.7944 243.912 L 14.8144 242.852 L 14.8544 241.792 L 14.9344 240.752 L 15.0344 239.732 L 15.1544 238.712 L 15.2944 237.712 L 15.4744 236.732 L 15.6744 235.752 L 15.8944 234.812 L 16.1544 233.872 L 16.4144 232.952 L 16.7144 232.032 L 17.0344 231.152 L 17.3744 230.272 L 17.7344 229.412 L 18.1344 228.552 L 18.5544 227.732 L 18.9944 226.912 L 19.4544 226.112 L 19.9544 225.312 L 20.4544 224.552 L 20.9944 223.792 L 21.5344 223.032 L 22.1144 222.312 L 22.6944 221.592 L 23.3144 220.912 L 23.9344 220.232 L 24.5744 219.552 L 25.2544 218.912 L 25.9344 218.272 L 26.6344 217.672 L 27.3344 217.072 L 28.0744 216.472 L 28.8144 215.912 L 29.5744 215.352 L 30.3544 214.832 L 31.1544 214.312 L 31.9544 213.792 L 32.7744 213.312 L 33.6144 212.852 L 34.4744 212.412 L 35.3344 211.972 L 36.2144 211.572 L 37.0944 211.172 L 37.9944 210.812 L 38.9144 210.472 L 39.8344 210.132 L 40.7744 209.832 L 41.7344 209.532 L 42.6944 209.252 L 43.6544 208.992 L 44.6344 208.732 L 45.6344 208.492 L 46.6344 208.272 L 47.6544 208.072 L 48.6744 207.872 L 49.7144 207.692 L 50.7544 207.512 L 51.8144 207.352 L 52.8744 207.212 L 53.9544 207.072 L 55.0344 206.972 L 56.1344 206.852 L 57.2344 206.772 L 58.3344 206.712 L 59.4544 206.652 L 60.5944 206.592 L 61.7344 206.572 L 62.8944 206.552 H 64.0544 L 65.2144 206.572 L 66.3944 206.592 L 67.5744 206.632 L 68.7744 206.672 L 69.9944 206.732 L 71.2144 206.792 L 72.4344 206.872 L 73.6744 206.952 L 74.9144 207.032 L 76.1744 207.112 L 77.4544 207.212 L 78.7344 207.292 L 80.0144 207.372 L 81.3144 207.452 L 82.6344 207.532 L 83.9544 207.612 L 85.2744 207.672 L 86.6344 207.752 L 87.9744 207.812 L 89.3344 207.872 L 90.7144 207.912 L 92.1144 207.972 L 93.4944 208.012 L 94.9144 208.052 L 96.3144 208.092 L 97.7544 208.132 L 99.1944 208.172 L 100.6344 208.192 L 102.0944 208.232 L 103.5544 208.252 L 105.0344 208.292 L 106.5144 208.312 L 108.0144 208.352 L 109.5144 208.372 L 111.0344 208.392 L 112.5544 208.432 L 114.0944 208.452 L 115.6344 208.492 L 117.1944 208.512 L 118.7544 208.552 L 120.3344 208.592 L 121.9144 208.632 L 123.4944 208.672 L 125.0944 208.712 L 126.7144 208.752 L 128.3344 208.792 L 129.9544 208.832 L 131.5944 208.872 L 133.2344 208.892 L 134.8944 208.932 L 136.5544 208.972 L 138.2144 209.012 L 139.8944 209.052 L 141.5544 209.092 L 143.2344 209.132 L 144.9344 209.172 L 146.6144 209.212 L 148.3144 209.272 L 150.0344 209.312 L 151.7544 209.352 L 153.4744 209.392 L 155.1944 209.432 L 156.9344 209.472 L 158.6944 209.512 L 160.4344 209.552 L 162.1944 209.592 L 163.9744 209.632 L 165.7344 209.672 L 167.5344 209.712 L 169.3144 209.752 L 171.1144 209.812 L 172.9144 209.852 L 174.7344 209.892 L 176.5344 209.932 L 178.3744 209.972 L 180.1944 210.012 L 182.0344 210.072 L 183.8944 210.112 L 185.7344 210.152 L 187.5944 210.192 L 189.4744 210.232 L 191.3344 210.272 L 193.2144 210.292 L 195.1144 210.332 L 197.0144 210.372 L 198.9144 210.392 L 200.8144 210.412 L 202.7344 210.432 L 204.6544 210.452 L 206.5744 210.472 L 208.5144 210.492 H 210.4544 H 212.3944 L 214.3544 210.512 H 216.3144"
       style="fill:none;stroke:#000000;stroke-width:0.5;stroke-linecap:round;stroke-linejoin:round;stroke-miterlimit:10;stroke-dasharray:none;stroke-opacity:1" />
  </g>
</svg>
