<?xml version="1.0" encoding="UTF-8" standalone="no"?>
<!-- Created with Inkscape (http://www.inkscape.org/) -->

<svg
   inkscape:version="1.3.2 (091e20e, 2023-11-25, custom)"
   sodipodi:docname="track_brand_hatch.svg"
   xmlns:inkscape="http://www.inkscape.org/namespaces/inkscape"
   xmlns:sodipodi="http://sodipodi.sourceforge.net/DTD/sodipodi-0.dtd"
   xmlns="http://www.w3.org/2000/svg"
   xmlns:svg="http://www.w3.org/2000/svg">
  <g>
    <path
       id="track"
       d="M 230.9329 14.345 L 231.6829 14.355 L 232.7329 14.365 L 233.7729 14.385 L 234.8229 14.395 L 235.8729 14.415 L 236.9129 14.435 L 237.9729 14.455 L 239.0229 14.475 L 240.0729 14.495 L 241.1329 14.515 L 242.1829 14.535 L 243.2429 14.555 L 244.3029 14.575 L 245.3629 14.595 L 246.4229 14.615 L 247.4929 14.625 L 248.5529 14.645 L 249.6229 14.665 L 250.6929 14.675 L 251.7629 14.695 L 252.8329 14.715 L 253.9129 14.725 L 254.9829 14.745 L 256.0629 14.765 L 257.1329 14.775 L 258.2129 14.795 L 259.2929 14.815 L 260.3829 14.835 L 261.4629 14.845 L 262.5429 14.865 L 263.6329 14.885 L 264.7229 14.895 L 265.8129 14.915 L 266.9029 14.935 L 267.9929 14.945 L 269.0829 14.955 L 270.1829 14.975 L 271.2829 14.985 L 272.3729 14.995 L 273.4729 15.005 L 274.5729 15.015 L 275.6729 15.025 L 276.7829 15.035 L 277.8829 15.055 L 278.9929 15.065 L 280.0929 15.075 L 281.2029 15.085 L 282.3129 15.095 L 283.4229 15.105 L 284.5429 15.115 L 285.6529 15.125 L 286.7729 15.135 L 287.8829 15.155 L 289.0029 15.165 L 290.1229 15.175 L 291.2429 15.185 L 292.3629 15.205 L 293.4829 15.225 L 294.6129 15.255 L 295.7329 15.285 L 296.8629 15.325 L 297.9829 15.365 L 299.1129 15.405 L 300.2429 15.445 L 301.3729 15.485 L 302.5029 15.515 L 303.6329 15.555 L 304.7729 15.585 L 305.8929 15.625 L 307.0029 15.665 L 308.0929 15.705 L 309.1729 15.735 L 310.2329 15.775 L 311.2829 15.815 L 312.3129 15.855 L 313.3329 15.885 L 314.3329 15.925 L 315.3229 15.965 L 316.2929 16.005 L 317.2629 16.045 L 318.2029 16.075 L 319.1329 16.115 L 320.0529 16.155 L 320.9629 16.195 L 321.8529 16.225 L 322.7229 16.265 L 323.5929 16.295 L 324.4429 16.335 L 325.2729 16.365 L 326.0929 16.405 L 326.9029 16.445 L 327.7029 16.495 L 328.4829 16.545 L 329.2529 16.595 L 330.0129 16.655 L 330.7529 16.725 L 331.4829 16.805 L 332.2029 16.885 L 332.9129 16.985 L 333.6129 17.085 L 334.2929 17.195 L 334.9729 17.315 L 335.6529 17.455 L 336.3229 17.605 L 336.9829 17.775 L 337.6429 17.945 L 338.2929 18.135 L 338.9429 18.335 L 339.5829 18.545 L 340.2229 18.775 L 340.8529 19.005 L 341.4729 19.255 L 342.0829 19.505 L 342.6929 19.775 L 343.2929 20.055 L 343.8829 20.345 L 344.4729 20.645 L 345.0529 20.955 L 345.6229 21.275 L 346.1829 21.605 L 346.7329 21.945 L 347.2829 22.295 L 347.8229 22.655 L 348.3529 23.025 L 348.8729 23.405 L 349.3929 23.795 L 349.9029 24.185 L 350.4029 24.595 L 350.8929 25.005 L 351.3929 25.415 L 351.8729 25.835 L 352.3629 26.255 L 352.8429 26.685 L 353.3129 27.125 L 353.7829 27.565 L 354.2529 28.005 L 354.7129 28.465 L 355.1629 28.925 L 355.6129 29.385 L 356.0529 29.865 L 356.4829 30.345 L 356.9129 30.845 L 357.3329 31.345 L 357.7429 31.855 L 358.1529 32.365 L 358.5529 32.895 L 358.9429 33.425 L 359.3229 33.975 L 359.7029 34.525 L 360.0729 35.085 L 360.4429 35.655 L 360.8029 36.225 L 361.1429 36.815 L 361.4929 37.405 L 361.8229 38.005 L 362.1529 38.605 L 362.4729 39.225 L 362.7929 39.845 L 363.1029 40.475 L 363.4029 41.105 L 363.7029 41.745 L 364.0029 42.395 L 364.2929 43.045 L 364.5829 43.705 L 364.8629 44.365 L 365.1429 45.035 L 365.4229 45.705 L 365.6929 46.385 L 365.9629 47.075 L 366.2329 47.765 L 366.4929 48.455 L 366.7529 49.155 L 367.0129 49.855 L 367.2629 50.565 L 367.5129 51.285 L 367.7629 52.005 L 368.0029 52.725 L 368.2429 53.455 L 368.4729 54.195 L 368.7029 54.935 L 368.9329 55.675 L 369.1529 56.425 L 369.3729 57.175 L 369.5929 57.935 L 369.8029 58.695 L 370.0129 59.465 L 370.2129 60.235 L 370.4129 61.015 L 370.6129 61.795 L 370.8029 62.585 L 370.9929 63.375 L 371.1829 64.165 L 371.3629 64.965 L 371.5429 65.765 L 371.7129 66.575 L 371.8829 67.385 L 372.0529 68.205 L 372.2129 69.025 L 372.3729 69.845 L 372.5329 70.675 L 372.6829 71.505 L 372.8229 72.335 L 372.9729 73.175 L 373.1029 74.015 L 373.2429 74.855 L 373.3729 75.705 L 373.4929 76.555 L 373.6129 77.405 L 373.7229 78.255 L 373.8329 79.115 L 373.9329 79.975 L 374.0329 80.835 L 374.1229 81.705 L 374.2029 82.565 L 374.2829 83.445 L 374.3529 84.315 L 374.4229 85.195 L 374.4729 86.065 L 374.5329 86.955 L 374.5729 87.835 L 374.6029 88.725 L 374.6329 89.615 L 374.6529 90.505 L 374.6629 91.395 V 92.295 L 374.6729 93.195 V 94.095 L 374.6629 94.995 V 95.895 V 96.805 L 374.6529 97.715 L 374.6429 98.625 V 99.545 L 374.6329 100.465 V 101.385 L 374.6229 102.305 V 103.225 L 374.6129 104.155 L 374.6029 105.085 V 106.015 L 374.5929 106.945 L 374.5829 107.885 L 374.5629 108.815 L 374.5429 109.755 L 374.5229 110.705 L 374.5029 111.645 L 374.4729 112.595 L 374.4429 113.535 L 374.4129 114.495 L 374.3929 115.445 L 374.3629 116.395 L 374.3329 117.355 L 374.3029 118.315 L 374.2829 119.275 L 374.2529 120.235 L 374.2229 121.205 L 374.1929 122.175 L 374.1529 123.145 L 374.1129 124.115 L 374.0729 125.085 L 374.0329 126.065 L 373.9829 127.035 L 373.9429 128.015 L 373.9029 128.995 L 373.8529 129.985 L 373.8129 130.965 L 373.7729 131.955 L 373.7229 132.945 L 373.6729 133.935 L 373.6229 134.925 L 373.5629 135.925 L 373.5029 136.915 L 373.4429 137.905 L 373.3729 138.905 L 373.3129 139.905 L 373.2529 140.905 L 373.1829 141.895 L 373.1229 142.905 L 373.0529 143.905 L 372.9929 144.905 L 372.9229 145.915 L 372.8629 146.925 L 372.7929 147.935 L 372.7329 148.945 L 372.6629 149.955 L 372.5929 150.965 L 372.5329 151.985 L 372.4629 152.995 L 372.4029 154.015 L 372.3329 155.035 L 372.2629 156.055 L 372.1929 157.075 L 372.1229 158.105 L 372.0429 159.125 L 371.9729 160.155 L 371.8929 161.185 L 371.8029 162.215 L 371.7229 163.245 L 371.6429 164.275 L 371.5629 165.315 L 371.4829 166.345 L 371.4129 167.385 L 371.3429 168.425 L 371.2829 169.465 L 371.2329 170.515 L 371.2029 171.555 L 371.1729 172.605 L 371.1529 173.655 L 371.1429 174.705 V 175.755 L 371.1629 176.815 L 371.2029 177.865 L 371.2429 178.915 L 371.2929 179.975 L 371.3629 181.035 L 371.4429 182.085 L 371.5329 183.145 L 371.6429 184.195 L 371.7529 185.255 L 371.8829 186.315 L 372.0229 187.365 L 372.1729 188.425 L 372.3429 189.475 L 372.5229 190.525 L 372.7029 191.575 L 372.9029 192.635 L 373.1129 193.685 L 373.3229 194.735 L 373.5529 195.785 L 373.7829 196.835 L 374.0129 197.885 L 374.2629 198.935 L 374.5229 199.985 L 374.7829 201.035 L 375.0529 202.085 L 375.3329 203.135 L 375.6229 204.175 L 375.9229 205.225 L 376.2229 206.245 L 376.5229 207.265 L 376.8129 208.265 L 377.1029 209.245 L 377.3829 210.215 L 377.6629 211.175 L 377.9329 212.115 L 378.1929 213.045 L 378.4429 213.955 L 378.6929 214.855 L 378.9429 215.735 L 379.1729 216.615 L 379.4029 217.475 L 379.6329 218.325 L 379.8429 219.175 L 380.0329 220.005 L 380.2229 220.825 L 380.3929 221.655 L 380.5429 222.475 L 380.6929 223.305 L 380.8229 224.125 L 380.9429 224.955 L 381.0529 225.775 L 381.1429 226.605 L 381.2229 227.425 L 381.2829 228.245 L 381.3329 229.065 L 381.3629 229.875 L 381.3829 230.695 L 381.3929 231.505 L 381.3829 232.315 L 381.3629 233.115 L 381.3229 233.925 L 381.2729 234.725 L 381.2029 235.515 L 381.1229 236.305 L 381.0229 237.095 L 380.9229 237.875 L 380.7929 238.655 L 380.6629 239.425 L 380.5129 240.205 L 380.3429 240.965 L 380.1729 241.735 L 379.9829 242.495 L 379.7929 243.255 L 379.5829 244.015 L 379.3529 244.765 L 379.1129 245.505 L 378.8629 246.255 L 378.5929 246.995 L 378.3229 247.735 L 378.0329 248.465 L 377.7229 249.195 L 377.4129 249.925 L 377.0829 250.645 L 376.7429 251.365 L 376.3929 252.085 L 376.0329 252.805 L 375.6629 253.515 L 375.2829 254.235 L 374.9029 254.945 L 374.5129 255.665 L 374.1129 256.375 L 373.7229 257.095 L 373.3229 257.825 L 372.9329 258.545 L 372.5329 259.275 L 372.1429 260.015 L 371.7629 260.755 L 371.3929 261.495 L 371.0229 262.255 L 370.6729 263.015 L 370.3329 263.775 L 370.0029 264.545 L 369.6729 265.325 L 369.3729 266.115 L 369.0729 266.905 L 368.7829 267.695 L 368.5129 268.495 L 368.2429 269.305 L 367.9929 270.115 L 367.7429 270.935 L 367.5129 271.765 L 367.2929 272.585 L 367.0829 273.415 L 366.8829 274.235 L 366.7029 275.065 L 366.5329 275.895 L 366.3829 276.725 L 366.2429 277.545 L 366.1229 278.375 L 366.0029 279.205 L 365.9129 280.025 L 365.8329 280.855 L 365.7629 281.675 L 365.7129 282.495 L 365.6829 283.315 L 365.6529 284.135 L 365.6429 284.945 L 365.6529 285.765 L 365.6729 286.575 L 365.7029 287.375 L 365.7429 288.185 L 365.8029 288.985 L 365.8729 289.785 L 365.9529 290.575 L 366.0429 291.365 L 366.1529 292.145 L 366.2729 292.925 L 366.4029 293.705 L 366.5429 294.485 L 366.6929 295.255 L 366.8629 296.015 L 367.0429 296.775 L 367.2329 297.525 L 367.4329 298.265 L 367.6529 299.015 L 367.8829 299.745 L 368.1229 300.465 L 368.3729 301.185 L 368.6429 301.895 L 368.9129 302.605 L 369.1929 303.295 L 369.4829 303.965 L 369.7729 304.635 L 370.0829 305.275 L 370.3929 305.915 L 370.7029 306.535 L 371.0229 307.145 L 371.3429 307.745 L 371.6729 308.325 L 372.0129 308.895 L 372.3429 309.455 L 372.6729 309.995 L 373.0029 310.525 L 373.3229 311.055 L 373.6429 311.565 L 373.9329 312.085 L 374.2229 312.595 L 374.5029 313.105 L 374.7729 313.615 L 375.0229 314.125 L 375.2629 314.645 L 375.4929 315.165 L 375.7129 315.685 L 375.9129 316.215 L 376.1129 316.745 L 376.3029 317.275 L 376.4729 317.805 L 376.6329 318.345 L 376.7729 318.885 L 376.9129 319.425 L 377.0329 319.965 L 377.1429 320.505 L 377.2329 321.045 L 377.3129 321.585 L 377.3729 322.125 L 377.4329 322.675 L 377.4729 323.215 L 377.5029 323.755 L 377.5129 324.285 V 324.825 L 377.4929 325.355 L 377.4629 325.885 L 377.4229 326.405 L 377.3729 326.935 L 377.3029 327.455 L 377.2229 327.965 L 377.1329 328.475 L 377.0229 328.995 L 376.9029 329.505 L 376.7629 330.005 L 376.6229 330.515 L 376.4629 331.015 L 376.2929 331.525 L 376.1029 332.025 L 375.9129 332.525 L 375.7029 333.025 L 375.4929 333.525 L 375.2629 334.015 L 375.0229 334.515 L 374.7729 335.005 L 374.5129 335.485 L 374.2329 335.975 L 373.9529 336.445 L 373.6529 336.925 L 373.3429 337.395 L 373.0229 337.855 L 372.6829 338.315 L 372.3329 338.765 L 371.9829 339.215 L 371.6129 339.665 L 371.2429 340.105 L 370.8529 340.535 L 370.4629 340.965 L 370.0529 341.385 L 369.6329 341.795 L 369.2029 342.205 L 368.7629 342.605 L 368.3129 343.005 L 367.8629 343.395 L 367.3929 343.775 L 366.9229 344.155 L 366.4329 344.525 L 365.9429 344.895 L 365.4429 345.255 L 364.9429 345.605 L 364.4229 345.965 L 363.9029 346.305 L 363.3729 346.645 L 362.8329 346.975 L 362.2829 347.305 L 361.7329 347.625 L 361.1729 347.935 L 360.6029 348.235 L 360.0229 348.535 L 359.4429 348.835 L 358.8529 349.125 L 358.2629 349.405 L 357.6629 349.685 L 357.0529 349.965 L 356.4329 350.235 L 355.8229 350.495 L 355.1929 350.765 L 354.5729 351.035 L 353.9429 351.315 L 353.3029 351.585 L 352.6729 351.865 L 352.0329 352.145 L 351.3929 352.435 L 350.7529 352.725 L 350.1129 353.025 L 349.4729 353.335 L 348.8229 353.645 L 348.1829 353.965 L 347.5429 354.295 L 346.8929 354.635 L 346.2529 354.985 L 345.6129 355.345 L 344.9729 355.705 L 344.3429 356.085 L 343.7029 356.475 L 343.0729 356.875 L 342.4429 357.275 L 341.8129 357.695 L 341.1829 358.115 L 340.5529 358.545 L 339.9329 358.985 L 339.3129 359.435 L 338.6929 359.895 L 338.0729 360.365 L 337.4629 360.835 L 336.8529 361.325 L 336.2429 361.815 L 335.6329 362.315 L 335.0329 362.825 L 334.4329 363.345 L 333.8329 363.875 L 333.2329 364.405 L 332.6329 364.945 L 332.0429 365.485 L 331.4529 366.035 L 330.8529 366.595 L 330.2729 367.165 L 329.6829 367.735 L 329.1029 368.325 L 328.5329 368.905 L 327.9529 369.505 L 327.3729 370.105 L 326.8029 370.705 L 326.2329 371.315 L 325.6629 371.935 L 325.0929 372.555 L 324.5329 373.185 L 323.9629 373.825 L 323.4029 374.465 L 322.8529 375.115 L 322.2929 375.765 L 321.7429 376.425 L 321.1829 377.085 L 320.6329 377.755 L 320.0829 378.425 L 319.5229 379.095 L 318.9729 379.765 L 318.4129 380.435 L 317.8529 381.115 L 317.2929 381.795 L 316.7329 382.475 L 316.1729 383.155 L 315.6129 383.835 L 315.0529 384.525 L 314.4829 385.215 L 313.9229 385.905 L 313.3529 386.595 L 312.7929 387.285 L 312.2229 387.975 L 311.6529 388.675 L 311.0829 389.375 L 310.5129 390.075 L 309.9429 390.785 L 309.3729 391.495 L 308.8029 392.195 L 308.2329 392.915 L 307.6629 393.625 L 307.1029 394.355 L 306.5329 395.075 L 305.9729 395.805 L 305.4129 396.545 L 304.8629 397.285 L 304.3129 398.035 L 303.7629 398.785 L 303.2229 399.545 L 302.6729 400.305 L 302.1329 401.075 L 301.5929 401.845 L 301.0429 402.605 L 300.5029 403.385 L 299.9529 404.155 L 299.4029 404.925 L 298.8529 405.705 L 298.3029 406.485 L 297.7429 407.255 L 297.1929 408.045 L 296.6329 408.825 L 296.0829 409.605 L 295.5229 410.395 L 294.9629 411.185 L 294.4029 411.975 L 293.8329 412.765 L 293.2729 413.555 L 292.7129 414.355 L 292.1429 415.155 L 291.5729 415.955 L 291.0029 416.755 L 290.4329 417.555 L 289.8629 418.355 L 289.2929 419.165 L 288.7229 419.965 L 288.1429 420.775 L 287.5729 421.585 L 286.9929 422.395 L 286.4129 423.215 L 285.8329 424.025 L 285.2529 424.845 L 284.6729 425.665 L 284.0929 426.485 L 283.5129 427.305 L 282.9229 428.125 L 282.3429 428.955 L 281.7529 429.775 L 281.1629 430.605 L 280.5729 431.435 L 279.9829 432.265 L 279.3929 433.095 L 278.8029 433.925 L 278.2129 434.755 L 277.6229 435.585 L 277.0329 436.425 L 276.4329 437.255 L 275.8429 438.095 L 275.2429 438.935 L 274.6529 439.765 L 274.0529 440.605 L 273.4529 441.455 L 272.8529 442.295 L 272.2529 443.135 L 271.6529 443.985 L 271.0529 444.825 L 270.4529 445.675 L 269.8529 446.525 L 269.2429 447.375 L 268.6429 448.225 L 268.0329 449.075 L 267.4329 449.925 L 266.8229 450.785 L 266.2129 451.645 L 265.6029 452.495 L 265.0029 453.355 L 264.3929 454.215 L 263.7729 455.085 L 263.1629 455.945 L 262.5529 456.805 L 261.9429 457.675 L 261.3229 458.535 L 260.7129 459.405 L 260.0929 460.275 L 259.4829 461.155 L 258.8729 462.025 L 258.2629 462.905 L 257.6529 463.785 L 257.0429 464.665 L 256.4329 465.555 L 255.8229 466.445 L 255.2229 467.335 L 254.6129 468.225 L 254.0129 469.125 L 253.4129 470.025 L 252.8129 470.925 L 252.2129 471.825 L 251.6129 472.735 L 251.0129 473.645 L 250.4129 474.555 L 249.8129 475.465 L 249.2129 476.375 L 248.6129 477.285 L 248.0029 478.195 L 247.4029 479.115 L 246.8029 480.035 L 246.1929 480.945 L 245.5929 481.865 L 244.9829 482.785 L 244.3729 483.705 L 243.7729 484.625 L 243.1629 485.545 L 242.5529 486.475 L 241.9429 487.395 L 241.3329 488.325 L 240.7229 489.255 L 240.1129 490.175 L 239.4929 491.105 L 238.8829 492.035 L 238.2629 492.965 L 237.6429 493.895 L 237.0229 494.825 L 236.3929 495.745 L 235.7529 496.665 L 235.1029 497.585 L 234.4429 498.495 L 233.7829 499.405 L 233.1229 500.305 L 232.4629 501.215 L 231.7929 502.125 L 231.1329 503.035 L 230.4629 503.955 L 229.8029 504.865 L 229.1329 505.775 L 228.4629 506.695 L 227.7929 507.615 L 227.1329 508.525 L 226.4629 509.445 L 225.7929 510.365 L 225.1229 511.285 L 224.4429 512.205 L 223.7729 513.125 L 223.1029 514.055 L 222.4329 514.975 L 221.7629 515.895 L 221.0829 516.825 L 220.4129 517.745 L 219.7429 518.665 L 219.0629 519.595 L 218.3929 520.515 L 217.7229 521.445 L 217.0429 522.375 L 216.3629 523.295 L 215.6929 524.225 L 215.0129 525.155 L 214.3429 526.085 L 213.6629 527.015 L 212.9829 527.935 L 212.3029 528.865 L 211.6129 529.795 L 210.9229 530.715 L 210.2229 531.625 L 209.5129 532.545 L 208.8029 533.445 L 208.0829 534.355 L 207.3629 535.255 L 206.6329 536.145 L 205.8929 537.035 L 205.1529 537.925 L 204.4129 538.815 L 203.6729 539.705 L 202.9329 540.595 L 202.1929 541.495 L 201.4529 542.385 L 200.7129 543.275 L 199.9629 544.165 L 199.2129 545.045 L 198.4729 545.905 L 197.7429 546.765 L 197.0129 547.605 L 196.3029 548.435 L 195.5929 549.245 L 194.9029 550.045 L 194.2229 550.835 L 193.5429 551.625 L 192.8829 552.395 L 192.2229 553.155 L 191.5829 553.905 L 190.9429 554.635 L 190.3129 555.365 L 189.6929 556.075 L 189.0829 556.785 L 188.4829 557.485 L 187.8929 558.165 L 187.3129 558.835 L 186.7329 559.495 L 186.1729 560.145 L 185.6129 560.785 L 185.0629 561.415 L 184.5229 562.025 L 183.9829 562.635 L 183.4629 563.225 L 182.9429 563.805 L 182.4229 564.375 L 181.9129 564.925 L 181.4129 565.465 L 180.9129 565.995 L 180.4129 566.505 L 179.9329 567.015 L 179.4429 567.505 L 178.9529 567.975 L 178.4729 568.445 L 177.9729 568.905 L 177.4829 569.355 L 176.9829 569.785 L 176.4829 570.205 L 175.9829 570.625 L 175.4629 571.025 L 174.9529 571.425 L 174.4329 571.805 L 173.9029 572.175 L 173.3729 572.535 L 172.8329 572.875 L 172.2829 573.215 L 171.7329 573.535 L 171.1829 573.845 L 170.6229 574.135 L 170.0629 574.425 L 169.4929 574.695 L 168.9229 574.955 L 168.3529 575.195 L 167.7829 575.435 L 167.2029 575.655 L 166.6229 575.875 L 166.0429 576.065 L 165.4629 576.255 L 164.8729 576.435 L 164.2929 576.595 L 163.7029 576.745 L 163.1129 576.875 L 162.5129 576.995 L 161.9229 577.115 L 161.3229 577.215 L 160.7329 577.305 L 160.1329 577.385 L 159.5329 577.455 L 158.9329 577.515 L 158.3329 577.565 L 157.7329 577.595 L 157.1329 577.625 L 156.5329 577.645 L 155.9329 577.665 H 155.3329 H 154.7329 L 154.1329 577.655 L 153.5329 577.645 L 152.9329 577.625 L 152.3329 577.605 L 151.7329 577.575 L 151.1329 577.545 L 150.5329 577.505 L 149.9329 577.455 L 149.3329 577.395 L 148.7329 577.335 L 148.1329 577.265 L 147.5329 577.175 L 146.9329 577.085 L 146.3429 576.985 L 145.7429 576.865 L 145.1529 576.745 L 144.5629 576.605 L 143.9729 576.455 L 143.3929 576.295 L 142.8029 576.135 L 142.2229 575.955 L 141.6429 575.755 L 141.0629 575.555 L 140.4829 575.345 L 139.9129 575.115 L 139.3529 574.875 L 138.7829 574.625 L 138.2229 574.365 L 137.6629 574.095 L 137.1029 573.825 L 136.5529 573.525 L 136.0029 573.225 L 135.4629 572.915 L 134.9229 572.585 L 134.3929 572.255 L 133.8629 571.905 L 133.3429 571.545 L 132.8229 571.185 L 132.3129 570.805 L 131.8029 570.415 L 131.3029 570.015 L 130.8029 569.615 L 130.3029 569.195 L 129.8129 568.765 L 129.3329 568.325 L 128.8529 567.875 L 128.3829 567.415 L 127.9129 566.935 L 127.4529 566.455 L 127.0029 565.965 L 126.5529 565.465 L 126.1229 564.955 L 125.6929 564.445 L 125.2829 563.915 L 124.8829 563.395 L 124.4829 562.855 L 124.1029 562.315 L 123.7329 561.765 L 123.3829 561.215 L 123.0329 560.655 L 122.7029 560.085 L 122.3829 559.515 L 122.0729 558.935 L 121.7729 558.345 L 121.4829 557.745 L 121.2029 557.145 L 120.9229 556.525 L 120.6629 555.905 L 120.4029 555.285 L 120.1429 554.655 L 119.8929 554.015 L 119.6629 553.375 L 119.4329 552.725 L 119.2129 552.075 L 118.9929 551.415 L 118.7929 550.745 L 118.6029 550.075 L 118.4129 549.395 L 118.2329 548.715 L 118.0529 548.035 L 117.8729 547.345 L 117.6929 546.645 L 117.5129 545.955 L 117.3329 545.255 L 117.1429 544.555 L 116.9429 543.845 L 116.7429 543.145 L 116.5329 542.435 L 116.3129 541.725 L 116.1029 541.015 L 115.8829 540.305 L 115.6529 539.585 L 115.4329 538.865 L 115.2129 538.135 L 114.9829 537.405 L 114.7529 536.675 L 114.5129 535.945 L 114.2729 535.205 L 114.0329 534.475 L 113.7829 533.735 L 113.5229 532.995 L 113.2529 532.245 L 112.9829 531.505 L 112.7129 530.765 L 112.4229 530.015 L 112.1329 529.265 L 111.8329 528.525 L 111.5229 527.775 L 111.2129 527.025 L 110.8929 526.275 L 110.5629 525.525 L 110.2329 524.775 L 109.8829 524.025 L 109.5429 523.275 L 109.1829 522.525 L 108.8229 521.765 L 108.4529 521.015 L 108.0829 520.265 L 107.6929 519.515 L 107.3029 518.765 L 106.9129 518.015 L 106.5029 517.265 L 106.0929 516.515 L 105.6829 515.765 L 105.2529 515.015 L 104.8329 514.275 L 104.3929 513.525 L 103.9629 512.785 L 103.5229 512.035 L 103.0829 511.285 L 102.6529 510.535 L 102.2129 509.775 L 101.7629 509.025 L 101.3229 508.265 L 100.8829 507.505 L 100.4329 506.745 L 99.9829 505.985 L 99.5329 505.215 L 99.0729 504.455 L 98.6229 503.685 L 98.1529 502.925 L 97.6929 502.165 L 97.2129 501.395 L 96.7429 500.625 L 96.2629 499.865 L 95.7829 499.095 L 95.3029 498.335 L 94.8129 497.565 L 94.3129 496.795 L 93.8129 496.035 L 93.3129 495.265 L 92.8029 494.495 L 92.2929 493.735 L 91.7729 492.965 L 91.2529 492.205 L 90.7129 491.445 L 90.1729 490.695 L 89.6329 489.935 L 89.0829 489.175 L 88.5329 488.425 L 87.9829 487.665 L 87.4329 486.895 L 86.8929 486.125 L 86.3429 485.355 L 85.8029 484.575 L 85.2729 483.805 L 84.7429 483.045 L 84.2229 482.295 L 83.7129 481.555 L 83.2129 480.835 L 82.7129 480.115 L 82.2229 479.405 L 81.7429 478.705 L 81.2729 478.025 L 80.8029 477.355 L 80.3429 476.695 L 79.8929 476.045 L 79.4529 475.405 L 79.0129 474.775 L 78.5829 474.155 L 78.1629 473.555 L 77.7529 472.955 L 77.3429 472.375 L 76.9429 471.795 L 76.5529 471.235 L 76.1729 470.675 L 75.7929 470.135 L 75.4329 469.605 L 75.0729 469.085 L 74.7129 468.575 L 74.3729 468.075 L 74.0329 467.595 L 73.7029 467.115 L 73.3729 466.645 L 73.0529 466.185 L 72.7429 465.745 L 72.4329 465.305 L 72.1229 464.885 L 71.8229 464.475 L 71.5229 464.085 L 71.2329 463.695 L 70.9429 463.325 L 70.6529 462.965 L 70.3629 462.605 L 70.0829 462.265 L 69.7929 461.935 L 69.5129 461.615 L 69.2329 461.305 L 68.9529 461.015 L 68.6829 460.725 L 68.4029 460.455 L 68.1229 460.195 L 67.8429 459.945 L 67.5529 459.705 L 67.2729 459.465 L 66.9729 459.235 L 66.6729 459.025 L 66.3729 458.815 L 66.0629 458.625 L 65.7529 458.435 L 65.4329 458.265 L 65.1029 458.105 L 64.7829 457.965 L 64.4529 457.825 L 64.1229 457.705 L 63.7829 457.595 L 63.4529 457.505 L 63.1129 457.415 L 62.7729 457.355 L 62.4329 457.295 L 62.0929 457.255 L 61.7529 457.225 L 61.4129 457.205 L 61.0829 457.195 L 60.7429 457.205 L 60.4129 457.225 L 60.0729 457.255 L 59.7429 457.295 L 59.4129 457.355 L 59.0829 457.415 L 58.7529 457.495 L 58.4229 457.585 L 58.0929 457.695 L 57.7729 457.805 L 57.4429 457.925 L 57.1229 458.065 L 56.8029 458.205 L 56.4829 458.365 L 56.1629 458.535 L 55.8429 458.705 L 55.5329 458.895 L 55.2129 459.085 L 54.9029 459.295 L 54.5829 459.505 L 54.2529 459.715 L 53.9229 459.935 L 53.5929 460.155 L 53.2529 460.385 L 52.9029 460.605 L 52.5429 460.835 L 52.1729 461.055 L 51.8029 461.275 L 51.4229 461.485 L 51.0329 461.695 L 50.6329 461.895 L 50.2229 462.095 L 49.8029 462.285 L 49.3829 462.465 L 48.9529 462.635 L 48.5129 462.805 L 48.0729 462.975 L 47.6229 463.125 L 47.1629 463.265 L 46.7129 463.395 L 46.2629 463.505 L 45.8029 463.615 L 45.3529 463.705 L 44.8929 463.785 L 44.4429 463.845 L 43.9929 463.905 L 43.5329 463.935 L 43.0829 463.965 L 42.6429 463.975 H 42.1929 L 41.7529 463.955 L 41.3129 463.925 L 40.8729 463.885 L 40.4429 463.825 L 40.0129 463.755 L 39.5829 463.675 L 39.1529 463.575 L 38.7229 463.465 L 38.3029 463.345 L 37.8729 463.215 L 37.4429 463.075 L 37.0229 462.915 L 36.6029 462.745 L 36.1729 462.565 L 35.7529 462.375 L 35.3329 462.165 L 34.9129 461.955 L 34.4929 461.725 L 34.0829 461.485 L 33.6629 461.235 L 33.2529 460.975 L 32.8429 460.705 L 32.4329 460.415 L 32.0229 460.125 L 31.6229 459.815 L 31.2229 459.495 L 30.8329 459.165 L 30.4329 458.825 L 30.0529 458.475 L 29.6729 458.125 L 29.2929 457.755 L 28.9229 457.375 L 28.5629 456.985 L 28.2029 456.585 L 27.8429 456.185 L 27.4829 455.765 L 27.1329 455.345 L 26.7829 454.925 L 26.4229 454.485 L 26.0729 454.045 L 25.7229 453.595 L 25.3729 453.145 L 25.0229 452.675 L 24.6829 452.205 L 24.3429 451.725 L 24.0129 451.235 L 23.6829 450.735 L 23.3629 450.235 L 23.0529 449.715 L 22.7429 449.195 L 22.4429 448.665 L 22.1529 448.125 L 21.8629 447.575 L 21.5829 447.015 L 21.3129 446.445 L 21.0529 445.875 L 20.7929 445.295 L 20.5429 444.705 L 20.2929 444.105 L 20.0529 443.505 L 19.8229 442.895 L 19.6029 442.275 L 19.3829 441.645 L 19.1629 441.015 L 18.9529 440.375 L 18.7629 439.725 L 18.5629 439.075 L 18.3829 438.415 L 18.2029 437.755 L 18.0329 437.085 L 17.8629 436.405 L 17.7129 435.725 L 17.5629 435.035 L 17.4229 434.345 L 17.2929 433.655 L 17.1729 432.955 L 17.0629 432.245 L 16.9629 431.545 L 16.8629 430.825 L 16.7829 430.115 L 16.7029 429.385 L 16.6429 428.665 L 16.5829 427.935 L 16.5429 427.205 L 16.5229 426.465 L 16.5029 425.735 V 424.985 V 424.245 L 16.5329 423.505 L 16.5629 422.755 L 16.6029 422.005 L 16.6629 421.255 L 16.7329 420.505 L 16.8229 419.755 L 16.9129 419.005 L 17.0229 418.255 L 17.1429 417.515 L 17.2729 416.775 L 17.4229 416.045 L 17.5729 415.315 L 17.7429 414.585 L 17.9229 413.865 L 18.1229 413.155 L 18.3229 412.445 L 18.5429 411.745 L 18.7729 411.045 L 19.0129 410.365 L 19.2629 409.685 L 19.5329 409.015 L 19.8129 408.355 L 20.1029 407.695 L 20.4029 407.055 L 20.7129 406.415 L 21.0429 405.785 L 21.3829 405.165 L 21.7229 404.545 L 22.0829 403.945 L 22.4529 403.345 L 22.8329 402.755 L 23.2229 402.165 L 23.6329 401.585 L 24.0429 401.015 L 24.4629 400.445 L 24.9029 399.875 L 25.3429 399.315 L 25.8029 398.755 L 26.2629 398.205 L 26.7429 397.655 L 27.2229 397.115 L 27.7229 396.575 L 28.2229 396.045 L 28.7429 395.515 L 29.2529 394.995 L 29.7829 394.465 L 30.3129 393.935 L 30.8429 393.415 L 31.3829 392.885 L 31.9229 392.355 L 32.4729 391.835 L 33.0329 391.305 L 33.6029 390.795 L 34.1729 390.275 L 34.7529 389.765 L 35.3429 389.255 L 35.9329 388.745 L 36.5329 388.235 L 37.1329 387.715 L 37.7329 387.205 L 38.3329 386.685 L 38.9429 386.165 L 39.5529 385.645 L 40.1629 385.115 L 40.7729 384.585 L 41.3829 384.055 L 42.0029 383.515 L 42.6129 382.965 L 43.2329 382.425 L 43.8429 381.875 L 44.4629 381.315 L 45.0829 380.755 L 45.7029 380.195 L 46.3229 379.635 L 46.9429 379.065 L 47.5629 378.495 L 48.1929 377.925 L 48.8129 377.355 L 49.4429 376.775 L 50.0729 376.205 L 50.6929 375.625 L 51.3329 375.045 L 51.9629 374.465 L 52.6029 373.885 L 53.2329 373.295 L 53.8729 372.715 L 54.5129 372.125 L 55.1529 371.535 L 55.7829 370.935 L 56.4229 370.335 L 57.0529 369.725 L 57.6829 369.105 L 58.3129 368.485 L 58.9329 367.855 L 59.5629 367.225 L 60.1829 366.595 L 60.8029 365.955 L 61.4329 365.315 L 62.0529 364.675 L 62.6829 364.025 L 63.3129 363.385 L 63.9429 362.735 L 64.5829 362.085 L 65.2129 361.435 L 65.8529 360.785 L 66.4829 360.125 L 67.1229 359.465 L 67.7629 358.805 L 68.4029 358.145 L 69.0429 357.485 L 69.6929 356.825 L 70.3329 356.155 L 70.9829 355.485 L 71.6229 354.815 L 72.2729 354.135 L 72.9129 353.455 L 73.5629 352.775 L 74.2029 352.085 L 74.8429 351.395 L 75.4929 350.695 L 76.1329 350.005 L 76.7729 349.305 L 77.4229 348.605 L 78.0729 347.895 L 78.7229 347.195 L 79.3729 346.495 L 80.0229 345.785 L 80.6729 345.075 L 81.3229 344.365 L 81.9829 343.645 L 82.6329 342.935 L 83.2829 342.215 L 83.9329 341.495 L 84.5929 340.765 L 85.2429 340.035 L 85.9029 339.305 L 86.5529 338.575 L 87.2029 337.835 L 87.8629 337.105 L 88.5129 336.365 L 89.1729 335.625 L 89.8229 334.875 L 90.4829 334.125 L 91.1329 333.375 L 91.7829 332.615 L 92.4329 331.855 L 93.0829 331.095 L 93.7229 330.325 L 94.3729 329.555 L 95.0129 328.785 L 95.6629 328.015 L 96.3129 327.245 L 96.9629 326.465 L 97.6129 325.695 L 98.2629 324.915 L 98.9229 324.135 L 99.5729 323.355 L 100.2329 322.575 L 100.8829 321.785 L 101.5429 321.005 L 102.2029 320.225 L 102.8529 319.435 L 103.5129 318.655 L 104.1829 317.875 L 104.8429 317.095 L 105.5129 316.315 L 106.1929 315.535 L 106.8729 314.755 L 107.5429 313.975 L 108.2229 313.195 L 108.9029 312.415 L 109.5829 311.635 L 110.2629 310.845 L 110.9429 310.055 L 111.6329 309.275 L 112.3229 308.495 L 113.0129 307.725 L 113.7129 306.955 L 114.4229 306.205 L 115.1329 305.465 L 115.8529 304.735 L 116.5729 304.015 L 117.2929 303.305 L 118.0229 302.605 L 118.7529 301.925 L 119.4829 301.255 L 120.2229 300.595 L 120.9729 299.945 L 121.7229 299.295 L 122.4729 298.665 L 123.2429 298.035 L 124.0029 297.425 L 124.7729 296.815 L 125.5529 296.225 L 126.3429 295.655 L 127.1329 295.095 L 127.9429 294.555 L 128.7429 294.025 L 129.5629 293.505 L 130.3729 293.005 L 131.1929 292.515 L 132.0229 292.035 L 132.8529 291.575 L 133.6929 291.125 L 134.5329 290.685 L 135.3729 290.255 L 136.2229 289.845 L 137.0729 289.445 L 137.9229 289.055 L 138.7829 288.685 L 139.6429 288.325 L 140.5029 287.985 L 141.3729 287.665 L 142.2429 287.355 L 143.1229 287.065 L 143.9929 286.795 L 144.8729 286.535 L 145.7529 286.295 L 146.6429 286.075 L 147.5229 285.865 L 148.4129 285.665 L 149.3029 285.485 L 150.1929 285.315 L 151.0829 285.165 L 151.9729 285.025 L 152.8629 284.905 L 153.7429 284.805 L 154.6329 284.705 L 155.5129 284.625 L 156.3929 284.565 L 157.2629 284.515 L 158.1429 284.475 L 159.0129 284.465 L 159.8729 284.455 L 160.7429 284.465 L 161.6029 284.475 L 162.4629 284.515 L 163.3229 284.565 L 164.1829 284.625 L 165.0529 284.705 L 165.9129 284.795 L 166.7729 284.895 L 167.6429 285.015 L 168.5029 285.135 L 169.3629 285.275 L 170.2329 285.425 L 171.0929 285.595 L 171.9529 285.765 L 172.8129 285.955 L 173.6729 286.145 L 174.5329 286.355 L 175.3929 286.575 L 176.2429 286.805 L 177.1029 287.045 L 177.9629 287.285 L 178.8229 287.535 L 179.6729 287.795 L 180.5329 288.055 L 181.3929 288.325 L 182.2429 288.605 L 183.1029 288.885 L 183.9629 289.165 L 184.8229 289.465 L 185.6729 289.765 L 186.5329 290.065 L 187.3829 290.365 L 188.2429 290.655 L 189.0929 290.935 L 189.9529 291.205 L 190.8129 291.465 L 191.6629 291.715 L 192.5229 291.955 L 193.3829 292.185 L 194.2429 292.405 L 195.1029 292.615 L 195.9729 292.815 L 196.8329 293.005 L 197.6929 293.185 L 198.5529 293.345 L 199.4229 293.485 L 200.2829 293.615 L 201.1429 293.725 L 202.0029 293.825 L 202.8729 293.895 L 203.7329 293.965 L 204.5929 294.015 L 205.4529 294.055 L 206.3129 294.075 L 207.1729 294.085 L 208.0229 294.075 L 208.8829 294.045 L 209.7329 294.015 L 210.5829 293.965 L 211.4429 293.905 L 212.2929 293.835 L 213.1329 293.745 L 213.9829 293.645 L 214.8229 293.535 L 215.6629 293.405 L 216.5029 293.265 L 217.3329 293.105 L 218.1629 292.935 L 218.9929 292.755 L 219.8129 292.555 L 220.6429 292.345 L 221.4629 292.115 L 222.2829 291.885 L 223.0929 291.635 L 223.9129 291.375 L 224.7229 291.105 L 225.5329 290.815 L 226.3429 290.515 L 227.1429 290.205 L 227.9429 289.875 L 228.7429 289.545 L 229.5329 289.195 L 230.3229 288.825 L 231.1129 288.455 L 231.8929 288.065 L 232.6629 287.665 L 233.4329 287.255 L 234.2029 286.825 L 234.9629 286.395 L 235.7129 285.945 L 236.4729 285.495 L 237.2129 285.025 L 237.9529 284.545 L 238.6929 284.055 L 239.4229 283.555 L 240.1529 283.045 L 240.8829 282.525 L 241.6029 281.995 L 242.3129 281.465 L 243.0329 280.915 L 243.7429 280.365 L 244.4429 279.805 L 245.1529 279.235 L 245.8529 278.665 L 246.5629 278.095 L 247.2729 277.515 L 247.9829 276.945 L 248.7029 276.375 L 249.4329 275.815 L 250.1629 275.255 L 250.9029 274.705 L 251.6429 274.145 L 252.3829 273.595 L 253.1329 273.035 L 253.8829 272.475 L 254.6329 271.915 L 255.3829 271.355 L 256.1329 270.795 L 256.8929 270.235 L 257.6629 269.685 L 258.4329 269.145 L 259.2229 268.605 L 260.0029 268.075 L 260.7829 267.555 L 261.5529 267.045 L 262.3129 266.545 L 263.0529 266.055 L 263.7829 265.565 L 264.5029 265.085 L 265.2129 264.615 L 265.9129 264.155 L 266.5929 263.695 L 267.2629 263.245 L 267.9329 262.805 L 268.5829 262.375 L 269.2129 261.955 L 269.8429 261.535 L 270.4629 261.125 L 271.0729 260.715 L 271.6729 260.325 L 272.2629 259.935 L 272.8429 259.555 L 273.4229 259.185 L 273.9829 258.825 L 274.5329 258.465 L 275.0829 258.125 L 275.6229 257.795 L 276.1529 257.475 L 276.6829 257.165 L 277.2029 256.875 L 277.7229 256.595 L 278.2329 256.325 L 278.7429 256.075 L 279.2529 255.835 L 279.7529 255.605 L 280.2529 255.395 L 280.7529 255.195 L 281.2429 255.005 L 281.7329 254.835 L 282.2129 254.675 L 282.6829 254.525 L 283.1529 254.395 L 283.6229 254.265 L 284.0829 254.165 L 284.5429 254.065 L 284.9929 253.975 L 285.4329 253.905 L 285.8629 253.835 L 286.2929 253.785 L 286.7229 253.745 L 287.1329 253.715 L 287.5429 253.705 L 287.9429 253.695 L 288.3329 253.705 L 288.7229 253.725 L 289.0929 253.745 L 289.4629 253.785 L 289.8229 253.825 L 290.1729 253.875 L 290.5229 253.935 L 290.8629 254.005 L 291.5229 254.185 L 292.1629 254.395 L 292.7829 254.635 L 293.3929 254.9149 L 293.9729 255.215 L 294.5229 255.5449 L 295.0529 255.905 L 295.5529 256.285 L 296.0329 256.685 L 296.4829 257.1149 L 296.9129 257.565 L 297.3229 258.0449 L 297.7029 258.5449 L 298.0529 259.085 L 298.3729 259.645 L 298.6729 260.2349 L 298.9329 260.845 L 299.1629 261.4849 L 299.2829 261.815 L 299.3829 262.155 L 299.4829 262.495 L 299.5729 262.845 L 299.6629 263.195 L 299.7429 263.555 L 299.8229 263.9249 L 299.8929 264.2949 L 299.9529 264.6749 L 300.0229 265.065 L 300.0729 265.455 L 300.1229 265.8549 L 300.1729 266.255 L 300.2129 266.6749 L 300.2429 267.095 L 300.2729 267.515 L 300.2929 267.945 L 300.3029 268.385 V 268.825 V 269.275 L 300.2929 269.725 L 300.2729 270.185 L 300.2529 270.655 L 300.2229 271.135 L 300.2029 271.6149 L 300.1729 272.1049 L 300.1429 272.595 L 300.1129 273.095 L 300.0829 273.6049 L 300.0529 274.125 L 300.0229 274.645 L 300.0029 275.1749 L 299.9829 275.715 L 299.9729 276.255 L 299.9529 276.7949 L 299.9429 277.345 L 299.9329 277.895 V 278.455 V 279.015 V 279.585 L 299.9429 280.155 L 299.9629 280.725 L 299.9829 281.2949 L 300.0129 281.8649 L 300.0529 282.435 L 300.1029 282.9849 L 300.1529 283.535 L 300.2029 284.075 L 300.2729 284.6149 L 300.3429 285.135 L 300.4129 285.645 L 300.5029 286.155 L 300.5929 286.655 L 300.6829 287.155 L 300.7929 287.645 L 300.9029 288.125 L 301.0129 288.595 L 301.1429 289.055 L 301.2629 289.505 L 301.4029 289.955 L 301.5429 290.385 L 301.6829 290.8049 L 301.8329 291.215 L 302.0029 291.6149 L 302.1629 292.005 L 302.3429 292.395 L 302.5229 292.765 L 302.7129 293.125 L 302.9129 293.475 L 303.1129 293.815 L 303.3329 294.145 L 303.5429 294.455 L 303.7729 294.765 L 304.0129 295.055 L 304.2529 295.335 L 304.4929 295.6049 L 304.7529 295.8649 L 305.0229 296.1049 L 305.2929 296.345 L 305.5729 296.565 L 305.8529 296.775 L 306.1429 296.975 L 306.4429 297.155 L 307.0529 297.465 L 307.6729 297.7349 L 308.3029 297.945 L 308.9329 298.1149 L 309.5729 298.265 L 310.2029 298.395 L 310.8429 298.495 L 311.4929 298.565 L 312.1529 298.585 L 312.8029 298.565 L 313.4529 298.495 L 314.1129 298.395 L 314.7629 298.245 L 315.4129 298.055 L 315.7429 297.955 L 316.0829 297.845 L 316.4129 297.715 L 316.7329 297.585 L 317.0629 297.4349 L 317.3929 297.285 L 317.7129 297.1149 L 318.0429 296.9349 L 318.3629 296.7549 L 318.6829 296.5549 L 319.0029 296.3549 L 319.3129 296.1349 L 319.6329 295.905 L 319.9429 295.6749 L 320.2529 295.4249 L 320.5629 295.1749 L 320.8729 294.9149 L 321.1729 294.6349 L 321.4729 294.3549 L 321.7729 294.0549 L 322.0629 293.7549 L 322.3529 293.4449 L 322.6429 293.1249 L 322.9229 292.785 L 323.2029 292.4449 L 323.4829 292.1049 L 323.7429 291.7449 L 324.0129 291.3849 L 324.2729 291.0049 L 324.5229 290.6249 L 324.7629 290.2349 L 325.0029 289.835 L 325.2429 289.4249 L 325.4729 289.0049 L 325.7029 288.585 L 325.9329 288.145 L 326.1629 287.6949 L 326.3829 287.2449 L 326.6129 286.785 L 326.8329 286.3149 L 327.0629 285.845 L 327.2929 285.3649 L 327.5229 284.8849 L 327.7429 284.395 L 327.9729 283.905 L 328.1929 283.405 L 328.4129 282.895 L 328.6329 282.3849 L 328.8429 281.8749 L 329.0529 281.345 L 329.2629 280.8149 L 329.4629 280.285 L 329.6729 279.7449 L 329.8729 279.1949 L 330.0729 278.645 L 330.2629 278.085 L 330.4529 277.525 L 330.6329 276.9449 L 330.8229 276.3749 L 331.0029 275.785 L 331.1729 275.1949 L 331.3429 274.6049 L 331.5129 274.0049 L 331.6729 273.395 L 331.8329 272.785 L 331.9929 272.1649 L 332.1429 271.5449 L 332.2829 270.9149 L 332.4229 270.275 L 332.5629 269.6349 L 332.6929 268.9949 L 332.8229 268.335 L 332.9529 267.6849 L 333.0729 267.025 L 333.1929 266.3549 L 333.3129 265.6849 L 333.4329 265.0049 L 333.5429 264.3249 L 333.6529 263.645 L 333.7529 262.965 L 333.8529 262.275 L 333.9529 261.5749 L 334.0429 260.8849 L 334.1229 260.1849 L 334.2029 259.475 L 334.2729 258.775 L 334.3329 258.0549 L 334.3929 257.345 L 334.4429 256.6249 L 334.4829 255.895 L 334.5229 255.1749 L 334.5529 254.4449 L 334.5629 253.705 L 334.5729 252.975 V 252.2349 L 334.5529 251.4949 L 334.5229 250.7549 L 334.4829 250.0049 L 334.4329 249.2549 L 334.3629 248.515 L 334.2929 247.765 L 334.2029 247.0049 L 334.1029 246.2549 L 333.9929 245.5049 L 333.8629 244.7549 L 333.7229 243.9949 L 333.5729 243.2449 L 333.4129 242.4949 L 333.2329 241.7349 L 333.0429 240.9849 L 332.8429 240.2349 L 332.6329 239.475 L 332.4029 238.725 L 332.1629 237.985 L 331.9129 237.235 L 331.6429 236.4949 L 331.3729 235.7449 L 331.0829 235.005 L 330.7829 234.275 L 330.4729 233.545 L 330.1529 232.825 L 329.8229 232.105 L 329.4829 231.405 L 329.1329 230.705 L 328.7629 230.015 L 328.3929 229.345 L 328.0029 228.675 L 327.6129 228.015 L 327.2129 227.365 L 326.7929 226.725 L 326.3729 226.085 L 325.9329 225.455 L 325.4929 224.835 L 325.0329 224.215 L 324.5729 223.595 L 324.0929 222.985 L 323.6129 222.375 L 323.1229 221.775 L 322.6229 221.175 L 322.1029 220.585 L 321.5829 219.995 L 321.0429 219.415 L 320.5029 218.845 L 319.9429 218.275 L 319.3829 217.705 L 318.8129 217.145 L 318.2429 216.585 L 317.6629 216.025 L 317.0829 215.455 L 316.5029 214.885 L 315.9229 214.305 L 315.3529 213.725 L 314.7729 213.135 L 314.1929 212.545 L 313.6129 211.955 L 313.0329 211.365 L 312.4529 210.765 L 311.8729 210.165 L 311.2829 209.555 L 310.6929 208.955 L 310.1029 208.345 L 309.5029 207.745 L 308.9129 207.125 L 308.3129 206.515 L 307.7229 205.905 L 307.1229 205.295 L 306.5229 204.675 L 305.9229 204.065 L 305.3129 203.445 L 304.7129 202.825 L 304.1029 202.195 L 303.5029 201.575 L 302.8929 200.945 L 302.2829 200.315 L 301.6729 199.685 L 301.0629 199.055 L 300.4529 198.415 L 299.8329 197.785 L 299.2229 197.145 L 298.6029 196.505 L 297.9829 195.855 L 297.3629 195.215 L 296.7429 194.565 L 296.1229 193.915 L 295.5129 193.255 L 294.8929 192.595 L 294.2729 191.935 L 293.6529 191.265 L 293.0329 190.605 L 292.4029 189.935 L 291.7829 189.265 L 291.1529 188.595 L 290.5329 187.915 L 289.9029 187.245 L 289.2729 186.565 L 288.6429 185.885 L 288.0029 185.205 L 287.3729 184.515 L 286.7329 183.835 L 286.1029 183.145 L 285.4629 182.455 L 284.8229 181.765 L 284.1829 181.075 L 283.5429 180.375 L 282.9029 179.675 L 282.2629 178.975 L 281.6329 178.265 L 280.9929 177.555 L 280.3529 176.845 L 279.7129 176.125 L 279.0729 175.405 L 278.4429 174.685 L 277.8029 173.965 L 277.1529 173.235 L 276.5129 172.515 L 275.8729 171.785 L 275.2229 171.055 L 274.5729 170.325 L 273.9229 169.595 L 273.2729 168.855 L 272.6229 168.125 L 271.9729 167.385 L 271.3229 166.645 L 270.6729 165.905 L 270.0229 165.155 L 269.3729 164.405 L 268.7129 163.655 L 268.0629 162.905 L 267.4029 162.155 L 266.7529 161.405 L 266.0929 160.645 L 265.4329 159.885 L 264.7829 159.125 L 264.1229 158.365 L 263.4629 157.605 L 262.8029 156.835 L 262.1429 156.075 L 261.4829 155.305 L 260.8229 154.535 L 260.1629 153.775 L 259.5029 153.005 L 258.8329 152.235 L 258.1729 151.455 L 257.5129 150.685 L 256.8429 149.915 L 256.1829 149.135 L 255.5229 148.355 L 254.8629 147.565 L 254.2029 146.775 L 253.5529 145.985 L 252.8929 145.195 L 252.2329 144.405 L 251.5729 143.605 L 250.9129 142.815 L 250.2529 142.015 L 249.5829 141.225 L 248.9229 140.425 L 248.2529 139.625 L 247.5929 138.825 L 246.9229 138.025 L 246.2529 137.215 L 245.5829 136.415 L 244.9129 135.605 L 244.2429 134.805 L 243.5729 133.995 L 242.8929 133.185 L 242.2229 132.375 L 241.5429 131.565 L 240.8729 130.755 L 240.1929 129.945 L 239.5129 129.125 L 238.8329 128.315 L 238.1529 127.495 L 237.4629 126.685 L 236.7729 125.875 L 236.0729 125.065 L 235.3729 124.255 L 234.6729 123.445 L 233.9729 122.635 L 233.2629 121.835 L 232.5629 121.015 L 231.8529 120.205 L 231.1429 119.395 L 230.4429 118.575 L 229.7329 117.765 L 229.0129 116.945 L 228.3029 116.135 L 227.5729 115.325 L 226.8529 114.515 L 226.1229 113.715 L 225.3929 112.905 L 224.6629 112.095 L 223.9229 111.285 L 223.1929 110.475 L 222.4629 109.665 L 221.7329 108.845 L 220.9929 108.025 L 220.2629 107.215 L 219.5329 106.395 L 218.7929 105.575 L 218.0529 104.755 L 217.3229 103.925 L 216.5829 103.105 L 215.8529 102.275 L 215.1229 101.445 L 214.3829 100.605 L 213.6529 99.775 L 212.9129 98.935 L 212.1829 98.105 L 211.4629 97.285 L 210.7429 96.475 L 210.0429 95.675 L 209.3529 94.885 L 208.6629 94.115 L 207.9929 93.355 L 207.3329 92.605 L 206.6729 91.865 L 206.0329 91.135 L 205.4029 90.415 L 204.7729 89.705 L 204.1529 89.015 L 203.5429 88.335 L 202.9429 87.665 L 202.3529 87.015 L 201.7629 86.365 L 201.1729 85.735 L 200.5929 85.125 L 200.0229 84.525 L 199.4529 83.935 L 198.8829 83.365 L 198.3229 82.805 L 197.7529 82.265 L 197.1929 81.745 L 196.6429 81.235 L 196.0929 80.735 L 195.5429 80.255 L 194.9929 79.785 L 194.4529 79.335 L 193.9129 78.895 L 193.3729 78.465 L 192.8429 78.055 L 192.3129 77.655 L 191.7829 77.265 L 191.2629 76.895 L 190.7529 76.535 L 190.2329 76.195 L 189.7229 75.855 L 189.2129 75.535 L 188.7029 75.225 L 188.1929 74.935 L 187.6829 74.645 L 187.1629 74.375 L 186.6429 74.115 L 186.1229 73.865 L 185.5929 73.635 L 185.0629 73.415 L 184.5329 73.205 L 183.9929 73.015 L 183.4529 72.835 L 182.9129 72.665 L 182.3729 72.505 L 181.8329 72.365 L 181.2829 72.235 L 180.7329 72.115 L 180.1929 72.015 L 179.6429 71.915 L 179.0929 71.835 L 178.5529 71.755 L 178.0029 71.685 L 177.4629 71.615 L 176.9229 71.555 L 176.3829 71.505 L 175.8529 71.465 L 175.3229 71.435 L 174.8029 71.415 L 174.2829 71.405 H 173.7729 H 173.2629 L 172.7529 71.435 L 172.2429 71.465 L 171.7429 71.505 L 171.2429 71.565 L 170.7329 71.635 L 170.2329 71.715 L 169.7329 71.805 L 169.2429 71.905 L 168.7429 72.025 L 168.2529 72.145 L 167.7529 72.285 L 167.2629 72.435 L 166.7829 72.585 L 166.3029 72.755 L 165.8229 72.935 L 165.3529 73.125 L 164.8929 73.335 L 164.4429 73.545 L 163.9929 73.775 L 163.5629 74.005 L 163.1329 74.245 L 162.7229 74.505 L 162.3229 74.765 L 161.9329 75.035 L 161.5429 75.315 L 161.1729 75.605 L 160.8129 75.905 L 160.4629 76.215 L 160.1129 76.535 L 159.7829 76.855 L 159.4629 77.195 L 159.1429 77.545 L 158.8429 77.895 L 158.5429 78.265 L 158.2629 78.635 L 157.9829 79.015 L 157.7229 79.405 L 157.4629 79.805 L 157.2129 80.215 L 156.9729 80.625 L 156.7329 81.055 L 156.5029 81.485 L 156.2929 81.915 L 156.0829 82.365 L 155.8829 82.815 L 155.6929 83.275 L 155.5129 83.745 L 155.3529 84.215 L 155.1929 84.695 L 155.0429 85.175 L 154.9129 85.665 L 154.7829 86.165 L 154.6629 86.665 L 154.5529 87.175 L 154.4329 87.685 L 154.3329 88.205 L 154.2229 88.735 L 154.1129 89.265 L 154.0129 89.805 L 153.9129 90.345 L 153.8129 90.885 L 153.7129 91.445 L 153.6129 91.995 L 153.5129 92.565 L 153.4129 93.125 L 153.3129 93.695 L 153.2129 94.275 L 153.1129 94.855 L 153.0129 95.445 L 152.9129 96.035 L 152.8029 96.625 L 152.7029 97.225 L 152.6029 97.815 L 152.5029 98.395 L 152.4029 98.955 L 152.3129 99.505 L 152.2128 100.045 L 152.1328 100.565 L 152.0428 101.085 L 151.9528 101.585 L 151.8728 102.075 L 151.7828 102.555 L 151.7028 103.025 L 151.6228 103.495 L 151.5428 103.945 L 151.4628 104.385 L 151.3728 104.815 L 151.2728 105.245 L 151.1728 105.655 L 151.0728 106.065 L 150.9528 106.465 L 150.8328 106.855 L 150.7028 107.245 L 150.5528 107.625 L 150.4028 108.005 L 150.2428 108.375 L 150.0828 108.745 L 149.9028 109.105 L 149.7228 109.455 L 149.5328 109.805 L 149.3428 110.145 L 149.1328 110.485 L 148.9228 110.815 L 148.7028 111.135 L 148.4728 111.455 L 148.2428 111.765 L 148.0028 112.075 L 147.7528 112.365 L 147.4928 112.655 L 147.2228 112.935 L 146.9528 113.205 L 146.6728 113.465 L 146.3828 113.715 L 146.0828 113.955 L 145.7728 114.195 L 145.4628 114.415 L 145.1428 114.635 L 144.8228 114.835 L 144.4928 115.035 L 144.1528 115.225 L 143.8028 115.405 L 143.4528 115.575 L 143.0928 115.735 L 142.7328 115.895 L 142.3728 116.045 L 142.0028 116.185 L 141.6228 116.325 L 141.2428 116.455 L 140.8528 116.575 L 140.4628 116.685 L 140.0628 116.785 L 139.6628 116.885 L 139.2628 116.965 L 138.8528 117.045 L 138.4428 117.105 L 138.0328 117.165 L 137.6128 117.205 L 137.2028 117.235 L 136.7728 117.255 L 136.3528 117.265 H 135.9228 L 135.4928 117.255 L 135.0628 117.225 L 134.6328 117.195 L 134.2028 117.155 L 133.7628 117.105 L 133.3228 117.035 L 132.8828 116.965 L 132.4428 116.875 L 132.0028 116.785 L 131.5628 116.675 L 131.1228 116.565 L 130.6828 116.435 L 130.2428 116.295 L 129.8028 116.155 L 129.3728 115.995 L 128.9328 115.825 L 128.4928 115.645 L 128.0629 115.445 L 127.6329 115.245 L 127.2029 115.035 L 126.7829 114.815 L 126.3629 114.585 L 125.9429 114.345 L 125.5329 114.095 L 125.1229 113.835 L 124.7229 113.565 L 124.3329 113.285 L 123.9529 112.995 L 123.5829 112.695 L 123.2229 112.385 L 122.8629 112.065 L 122.5229 111.735 L 122.1829 111.395 L 121.8629 111.055 L 121.5529 110.695 L 121.2529 110.335 L 120.9629 109.975 L 120.6929 109.595 L 120.4229 109.215 L 120.1629 108.815 L 119.9229 108.425 L 119.6829 108.015 L 119.4529 107.605 L 119.2429 107.185 L 119.0429 106.765 L 118.8429 106.335 L 118.6629 105.895 L 118.4929 105.455 L 118.3329 105.015 L 118.1929 104.565 L 118.0529 104.105 L 117.9329 103.655 L 117.8229 103.185 L 117.7229 102.715 L 117.6329 102.245 L 117.5529 101.765 L 117.4929 101.285 L 117.4329 100.795 L 117.3929 100.305 L 117.3529 99.805 L 117.3329 99.305 V 98.805 V 98.295 L 117.3529 97.785 L 117.3729 97.265 L 117.4129 96.755 L 117.4729 96.235 L 117.5329 95.715 L 117.6129 95.205 L 117.7029 94.685 L 117.8129 94.165 L 117.9329 93.645 L 118.0629 93.125 L 118.2129 92.605 L 118.3629 92.085 L 118.5229 91.565 L 118.6929 91.035 L 118.8729 90.505 L 119.0629 89.975 L 119.2629 89.445 L 119.4629 88.915 L 119.6729 88.375 L 119.8929 87.835 L 120.1129 87.295 L 120.3529 86.755 L 120.5929 86.205 L 120.8429 85.655 L 121.0929 85.105 L 121.3529 84.555 L 121.6229 84.005 L 121.9029 83.445 L 122.1829 82.895 L 122.4729 82.335 L 122.7729 81.775 L 123.0729 81.215 L 123.3829 80.645 L 123.6929 80.075 L 124.0129 79.505 L 124.3329 78.935 L 124.6629 78.355 L 124.9829 77.775 L 125.3229 77.185 L 125.6529 76.595 L 125.9929 76.005 L 126.3429 75.415 L 126.6829 74.825 L 127.0429 74.225 L 127.3929 73.625 L 127.7629 73.025 L 128.1229 72.415 L 128.4929 71.815 L 128.8629 71.215 L 129.2429 70.605 L 129.6329 70.005 L 130.0129 69.405 L 130.4129 68.795 L 130.8129 68.185 L 131.2129 67.575 L 131.6129 66.965 L 132.0229 66.355 L 132.4429 65.745 L 132.8629 65.135 L 133.2829 64.525 L 133.7129 63.905 L 134.1529 63.295 L 134.5929 62.675 L 135.0329 62.055 L 135.4829 61.445 L 135.9329 60.825 L 136.3929 60.205 L 136.8529 59.585 L 137.3129 58.955 L 137.7829 58.335 L 138.2629 57.715 L 138.7429 57.085 L 139.2229 56.465 L 139.7129 55.835 L 140.2129 55.215 L 140.7029 54.585 L 141.2129 53.955 L 141.7129 53.335 L 142.2329 52.705 L 142.7529 52.075 L 143.2729 51.445 L 143.8029 50.825 L 144.3529 50.205 L 144.8929 49.585 L 145.4529 48.965 L 146.0129 48.355 L 146.5829 47.745 L 147.1629 47.135 L 147.7429 46.525 L 148.3329 45.925 L 148.9329 45.325 L 149.5329 44.725 L 150.1429 44.125 L 150.7629 43.535 L 151.3829 42.935 L 152.0129 42.345 L 152.6429 41.755 L 153.2829 41.175 L 153.9329 40.585 L 154.5829 40.005 L 155.2329 39.425 L 155.8929 38.845 L 156.5529 38.275 L 157.2229 37.695 L 157.8929 37.135 L 158.5729 36.565 L 159.2629 36.005 L 159.9529 35.455 L 160.6529 34.905 L 161.3529 34.355 L 162.0629 33.815 L 162.7829 33.275 L 163.5029 32.745 L 164.2329 32.215 L 164.9729 31.695 L 165.7229 31.185 L 166.4729 30.675 L 167.2329 30.175 L 167.9929 29.685 L 168.7729 29.195 L 169.5529 28.715 L 170.3329 28.245 L 171.1329 27.785 L 171.9329 27.335 L 172.7429 26.885 L 173.5629 26.445 L 174.3829 26.025 L 175.2129 25.595 L 176.0429 25.185 L 176.8829 24.775 L 177.7329 24.385 L 178.5929 23.995 L 179.4529 23.615 L 180.3129 23.235 L 181.1929 22.875 L 182.0629 22.525 L 182.9529 22.175 L 183.8429 21.845 L 184.7329 21.515 L 185.6429 21.195 L 186.5429 20.895 L 187.4529 20.595 L 188.3729 20.295 L 189.2929 20.015 L 190.2229 19.735 L 191.1429 19.455 L 192.0829 19.195 L 193.0129 18.925 L 193.9529 18.675 L 194.9029 18.425 L 195.8529 18.175 L 196.8029 17.945 L 197.7529 17.715 L 198.7129 17.485 L 199.6829 17.275 L 200.6429 17.065 L 201.6129 16.865 L 202.5929 16.665 L 203.5629 16.475 L 204.5529 16.305 L 205.5329 16.125 L 206.5229 15.965 L 207.5129 15.805 L 208.5029 15.655 L 209.5029 15.515 L 210.4929 15.385 L 211.5029 15.255 L 212.5029 15.145 L 213.5129 15.035 L 214.5229 14.925 L 215.5329 14.835 L 216.5529 14.745 L 217.5629 14.675 L 218.5829 14.605 L 219.6029 14.545 L 220.6329 14.485 L 221.6529 14.445 L 222.6829 14.405 L 223.7129 14.375 L 224.7329 14.355 L 225.7629 14.345 L 226.7929 14.335 H 227.8329 H 228.8629 H 229.8929 L 230.9329 14.345"
       style="fill:none;stroke:#000000;stroke-width:0.5;stroke-linecap:round;stroke-linejoin:round;stroke-miterlimit:10;stroke-dasharray:none;stroke-opacity:1" />
  </g>
</svg>
