<?xml version="1.0" encoding="UTF-8" standalone="no"?>
<!-- Created with Inkscape (http://www.inkscape.org/) -->

<svg
   inkscape:version="1.3.2 (091e20e, 2023-11-25, custom)"
   sodipodi:docname="track_brand_hatch.svg"
   xmlns:inkscape="http://www.inkscape.org/namespaces/inkscape"
   xmlns:sodipodi="http://sodipodi.sourceforge.net/DTD/sodipodi-0.dtd"
   xmlns="http://www.w3.org/2000/svg"
   xmlns:svg="http://www.w3.org/2000/svg">
  <g>
    <path
       id="track"
       d="M 304.6608 210.434 L 304.2208 209.994 L 303.2008 208.974 L 302.1808 207.9541 L 301.1408 206.934 L 300.1208 205.914 L 299.1008 204.874 L 298.0808 203.854 L 297.0408 202.814 L 296.0208 201.774 L 295.0008 200.7139 L 293.9608 199.674 L 292.9408 198.614 L 291.9008 197.554 L 290.8808 196.494 L 289.8408 195.414 L 288.8008 194.354 L 287.7808 193.274 L 286.7408 192.194 L 285.7008 191.114 L 284.6608 190.034 L 283.6208 188.9541 L 282.5608 187.874 L 281.5208 186.794 L 280.4608 185.694 L 279.4008 184.614 L 278.3408 183.534 L 277.2808 182.434 L 276.2008 181.354 L 275.1208 180.254 L 274.0608 179.174 L 272.9808 178.074 L 271.8808 176.994 L 270.8008 175.894 L 269.7008 174.794 L 268.6208 173.694 L 267.5208 172.614 L 266.4208 171.494 L 265.3208 170.394 L 264.2208 169.294 L 263.1008 168.194 L 262.0008 167.0939 L 260.8808 165.974 L 259.7808 164.874 L 258.6808 163.774 L 257.5808 162.694 L 256.4808 161.614 L 255.4208 160.554 L 254.3408 159.494 L 253.3008 158.434 L 252.2408 157.414 L 251.2208 156.394 L 250.1808 155.374 L 249.1808 154.394 L 248.1808 153.414 L 247.2008 152.4541 L 246.2408 151.514 L 245.2808 150.574 L 244.3408 149.674 L 243.4208 148.754 L 242.5008 147.874 L 241.6008 146.994 L 240.7208 146.134 L 239.8408 145.294 L 238.9808 144.4541 L 238.1408 143.634 L 237.3208 142.834 L 236.5008 142.034 L 235.7008 141.254 L 234.9008 140.474 L 234.1208 139.734 L 233.3608 138.994 L 232.6208 138.254 L 231.8808 137.554 L 231.1408 136.854 L 230.4408 136.174 L 229.7408 135.494 L 229.0408 134.834 L 228.3408 134.194 L 227.6608 133.554 L 226.9808 132.914 L 226.3008 132.294 L 225.6408 131.674 L 224.9608 131.074 L 224.3008 130.474 L 223.6408 129.874 L 223.0008 129.294 L 222.3608 128.714 L 221.7208 128.154 L 221.0808 127.594 L 220.4408 127.034 L 219.8208 126.494 L 219.2008 125.954 L 218.5808 125.414 L 217.9608 124.894 L 217.3408 124.394 L 216.7408 123.894 L 216.1208 123.414 L 215.5208 122.934 L 214.9008 122.474 L 214.2808 122.034 L 213.6808 121.594 L 213.0608 121.174 L 212.4408 120.754 L 211.8208 120.354 L 211.2208 119.974 L 210.6008 119.574 L 210.0008 119.194 L 209.4008 118.814 L 208.8008 118.454 L 208.2208 118.074 L 207.6408 117.714 L 207.0408 117.354 L 206.4408 117.014 L 205.8608 116.674 L 205.2408 116.334 L 204.6408 116.014 L 204.0208 115.694 L 203.3808 115.394 L 202.7408 115.094 L 202.1008 114.814 L 201.4408 114.554 L 200.7808 114.294 L 200.1008 114.034 L 199.4008 113.814 L 198.7208 113.574 L 198.0008 113.374 L 197.3008 113.174 L 196.6008 113.014 L 195.8808 112.834 L 195.1608 112.694 L 194.4408 112.554 L 193.7208 112.454 L 193.0008 112.334 L 192.2808 112.254 L 191.5608 112.174 L 190.8408 112.114 L 190.1208 112.074 L 189.4008 112.034 L 188.6808 112.014 L 187.9608 111.994 H 187.2408 L 186.5208 112.014 L 185.8008 112.034 L 185.0808 112.074 L 184.3808 112.134 L 183.6608 112.214 L 182.9408 112.294 L 182.2208 112.394 L 181.5008 112.514 L 180.7808 112.634 L 180.0608 112.774 L 179.3408 112.934 L 178.6208 113.114 L 177.9008 113.314 L 177.1608 113.514 L 176.4408 113.754 L 175.7008 113.994 L 174.9608 114.274 L 174.2408 114.554 L 173.5208 114.854 L 172.7808 115.174 L 172.0608 115.514 L 171.3608 115.874 L 170.6408 116.234 L 169.9408 116.634 L 169.2408 117.034 L 168.5408 117.454 L 167.8608 117.894 L 167.2008 118.354 L 166.5408 118.834 L 165.8808 119.314 L 165.2408 119.814 L 164.6008 120.334 L 163.9808 120.854 L 163.3808 121.394 L 162.7808 121.934 L 162.2008 122.474 L 161.6408 123.034 L 161.0808 123.614 L 160.5208 124.194 L 159.9808 124.794 L 159.4608 125.414 L 158.9008 126.014 L 158.3408 126.634 L 157.7808 127.234 L 157.2008 127.834 L 156.6008 128.414 L 155.9808 129.014 L 155.3608 129.594 L 154.7208 130.174 L 154.0608 130.774 L 153.4008 131.354 L 152.7608 131.974 L 152.1008 132.574 L 151.4408 133.214 L 150.8008 133.854 L 150.1408 134.514 L 149.5008 135.174 L 148.8408 135.854 L 148.2008 136.534 L 147.5608 137.234 L 146.9008 137.954 L 146.2608 138.654 L 145.6008 139.374 L 144.9408 140.114 L 144.2808 140.834 L 143.6208 141.574 L 142.9408 142.314 L 142.2608 143.074 L 141.5808 143.814 L 140.9008 144.574 L 140.2008 145.3341 L 139.5008 146.114 L 138.8008 146.874 L 138.1008 147.654 L 137.3808 148.434 L 136.6808 149.2139 L 135.9608 150.014 L 135.2408 150.794 L 134.5208 151.5939 L 133.8008 152.394 L 133.0608 153.194 L 132.3408 154.014 L 131.6008 154.8341 L 130.8608 155.654 L 130.1008 156.474 L 129.3608 157.294 L 128.6008 158.134 L 127.8408 158.9541 L 127.0808 159.794 L 126.3208 160.654 L 125.5408 161.494 L 124.7808 162.354 L 124.0008 163.2139 L 123.2208 164.074 L 122.4408 164.934 L 121.6408 165.794 L 120.8408 166.674 L 120.0608 167.554 L 119.2608 168.434 L 118.4608 169.314 L 117.6408 170.2139 L 116.8408 171.0939 L 116.0408 171.974 L 115.2408 172.854 L 114.4608 173.734 L 113.6608 174.5939 L 112.8808 175.4541 L 112.1208 176.294 L 111.3608 177.134 L 110.6208 177.9541 L 109.8808 178.754 L 109.1608 179.554 L 108.4608 180.3341 L 107.7608 181.114 L 107.0608 181.874 L 106.4008 182.614 L 105.7208 183.354 L 105.0808 184.074 L 104.4408 184.774 L 103.8008 185.474 L 103.1808 186.154 L 102.5608 186.8341 L 101.9408 187.514 L 101.3408 188.174 L 100.7408 188.8341 L 100.1408 189.474 L 99.5608 190.114 L 98.9608 190.754 L 98.3808 191.374 L 97.8008 191.994 L 97.2208 192.5939 L 96.6408 193.194 L 96.0808 193.794 L 95.5008 194.374 L 94.9208 194.934 L 94.3608 195.494 L 93.7808 196.034 L 93.2008 196.554 L 92.6208 197.074 L 92.0208 197.574 L 91.4408 198.074 L 90.8408 198.554 L 90.2408 199.014 L 89.6208 199.4541 L 89.0008 199.894 L 88.3808 200.314 L 87.7408 200.734 L 87.1008 201.134 L 86.4608 201.514 L 85.8008 201.894 L 85.1408 202.234 L 84.4608 202.5939 L 83.7808 202.934 L 83.0808 203.254 L 82.3808 203.574 L 81.6808 203.874 L 80.9608 204.154 L 80.2408 204.434 L 79.5208 204.7139 L 78.7808 204.9541 L 78.0408 205.2139 L 77.3008 205.434 L 76.5408 205.674 L 75.7808 205.874 L 75.0208 206.094 L 74.2608 206.274 L 73.4808 206.454 L 72.7008 206.634 L 71.9208 206.794 L 71.1208 206.934 L 70.3408 207.074 L 69.5408 207.2138 L 68.7408 207.314 L 67.9608 207.414 L 67.1608 207.494 L 66.3608 207.574 L 65.5808 207.614 L 64.7808 207.654 H 64.0008 H 63.2008 L 62.4208 207.634 L 61.6408 207.594 L 60.8608 207.534 L 60.0808 207.474 L 59.3208 207.374 L 58.5408 207.254 L 57.8008 207.114 L 57.0408 206.954 L 56.2808 206.794 L 55.5408 206.5939 L 54.8008 206.3939 L 54.0608 206.1739 L 53.3208 205.9339 L 52.5808 205.6739 L 51.8608 205.394 L 51.1208 205.114 L 50.4008 204.794 L 49.6808 204.474 L 48.9808 204.114 L 48.2608 203.754 L 47.5608 203.374 L 46.8608 202.974 L 46.1608 202.534 L 45.4608 202.114 L 44.7608 201.654 L 44.0608 201.194 L 43.3808 200.7139 L 42.6808 200.234 L 42.0008 199.7139 L 41.3208 199.194 L 40.6408 198.674 L 39.9608 198.114 L 39.3008 197.554 L 38.6408 196.974 L 37.9808 196.374 L 37.3208 195.774 L 36.6808 195.154 L 36.0408 194.514 L 35.4008 193.874 L 34.7808 193.194 L 34.1608 192.514 L 33.5608 191.8341 L 32.9608 191.114 L 32.3608 190.394 L 31.7808 189.654 L 31.2008 188.894 L 30.6408 188.134 L 30.0808 187.354 L 29.5408 186.554 L 29.0208 185.734 L 28.4808 184.914 L 27.9808 184.074 L 27.4808 183.234 L 26.9808 182.354 L 26.5008 181.494 L 26.0208 180.5939 L 25.5608 179.694 L 25.1208 178.794 L 24.6808 177.854 L 24.2608 176.914 L 23.8408 175.974 L 23.4408 175.014 L 23.0408 174.034 L 22.6808 173.054 L 22.3208 172.074 L 21.9608 171.074 L 21.6408 170.074 L 21.3008 169.054 L 21.0008 168.014 L 20.7008 166.994 L 20.4208 165.934 L 20.1608 164.874 L 19.9208 163.814 L 19.6808 162.754 L 19.4608 161.654 L 19.2608 160.574 L 19.0608 159.474 L 18.8808 158.374 L 18.7008 157.254 L 18.5408 156.134 L 18.4008 155.014 L 18.2608 153.874 L 18.1208 152.734 L 18.0008 151.5939 L 17.9008 150.434 L 17.8008 149.274 L 17.7208 148.114 L 17.6408 146.934 L 17.5608 145.754 L 17.5208 144.574 L 17.4608 143.394 L 17.4408 142.194 L 17.4208 140.994 L 17.4008 139.794 L 17.4208 138.594 L 17.4408 137.374 L 17.4808 136.154 L 17.5208 134.934 L 17.5808 133.714 L 17.6608 132.494 L 17.7608 131.254 L 17.8808 130.014 L 18.0208 128.794 L 18.1608 127.554 L 18.3208 126.314 L 18.5008 125.074 L 18.7008 123.834 L 18.9208 122.594 L 19.1408 121.354 L 19.4008 120.114 L 19.6608 118.894 L 19.9608 117.674 L 20.2608 116.454 L 20.5808 115.234 L 20.9208 114.034 L 21.2808 112.834 L 21.6608 111.654 L 22.0608 110.454 L 22.4808 109.294 L 22.9208 108.134 L 23.3808 106.974 L 23.8608 105.834 L 24.3608 104.714 L 24.8808 103.594 L 25.4208 102.474 L 25.9808 101.394 L 26.5608 100.294 L 27.1808 99.214 L 27.8008 98.134 L 28.4408 97.074 L 29.1008 96.014 L 29.7608 94.974 L 30.4608 93.934 L 31.1808 92.914 L 31.9208 91.894 L 32.6608 90.874 L 33.4208 89.874 L 34.2008 88.874 L 35.0008 87.874 L 35.8208 86.894 L 36.6608 85.934 L 37.5008 84.974 L 38.3608 84.014 L 39.2408 83.054 L 40.1208 82.114 L 41.0208 81.174 L 41.9208 80.234 L 42.8408 79.294 L 43.7608 78.354 L 44.7008 77.434 L 45.6208 76.494 L 46.5608 75.574 L 47.5008 74.654 L 48.4608 73.714 L 49.4008 72.774 L 50.3608 71.854 L 51.3208 70.914 L 52.2808 69.974 L 53.2408 69.034 L 54.2208 68.074 L 55.1808 67.134 L 56.1608 66.174 L 57.1408 65.234 L 58.1408 64.294 L 59.1408 63.334 L 60.1208 62.394 L 61.1408 61.454 L 62.1408 60.514 L 63.1608 59.554 L 64.1808 58.614 L 65.2208 57.674 L 66.2608 56.734 L 67.3008 55.794 L 68.3408 54.854 L 69.3808 53.914 L 70.4408 52.954 L 71.4808 52.014 L 72.5408 51.054 L 73.6008 50.114 L 74.6408 49.174 L 75.6808 48.254 L 76.7008 47.334 L 77.7008 46.414 L 78.7008 45.534 L 79.6808 44.634 L 80.6408 43.774 L 81.6008 42.914 L 82.5408 42.074 L 83.4608 41.234 L 84.3808 40.414 L 85.2808 39.614 L 86.1608 38.834 L 87.0208 38.054 L 87.8808 37.294 L 88.7208 36.554 L 89.5608 35.834 L 90.3808 35.114 L 91.1808 34.414 L 91.9808 33.734 L 92.7608 33.054 L 93.5408 32.414 L 94.3008 31.774 L 95.0608 31.174 L 95.8208 30.574 L 96.5608 29.994 L 97.3208 29.414 L 98.0808 28.874 L 98.8408 28.334 L 99.5808 27.794 L 100.3408 27.294 L 101.1008 26.794 L 101.8608 26.314 L 102.6208 25.834 L 103.3808 25.374 L 104.1608 24.934 L 104.9208 24.494 L 105.7008 24.054 L 106.4808 23.654 L 107.2608 23.234 L 108.0408 22.854 L 108.8208 22.454 L 109.6208 22.094 L 110.4408 21.734 L 111.2408 21.374 L 112.0608 21.034 L 112.9008 20.714 L 113.7408 20.394 L 114.5808 20.094 L 115.4408 19.794 L 116.2808 19.514 L 117.1608 19.254 L 118.0208 19.014 L 118.9008 18.774 L 119.7608 18.554 L 120.6408 18.374 L 121.5208 18.194 L 122.4008 18.014 L 123.3008 17.874 L 124.1808 17.754 L 125.0808 17.654 L 125.9808 17.554 L 126.8808 17.494 L 127.7808 17.434 L 128.7008 17.394 H 129.6208 H 130.5208 L 131.4408 17.414 L 132.3608 17.454 L 133.3008 17.494 L 134.2208 17.574 L 135.1608 17.654 L 136.1008 17.774 L 137.0208 17.894 L 137.9608 18.034 L 138.9008 18.194 L 139.8408 18.374 L 140.7608 18.574 L 141.7008 18.7941 L 142.6408 19.034 L 143.5808 19.274 L 144.5208 19.5541 L 145.4408 19.8541 L 146.3808 20.154 L 147.3208 20.494 L 148.2408 20.834 L 149.1808 21.194 L 150.1008 21.574 L 151.0408 21.9741 L 151.9608 22.374 L 152.8808 22.814 L 153.7808 23.274 L 154.7008 23.754 L 155.6208 24.2341 L 156.5208 24.754 L 157.4208 25.274 L 158.3208 25.814 L 159.2008 26.374 L 160.1008 26.934 L 160.9808 27.534 L 161.8808 28.134 L 162.7608 28.7341 L 163.6408 29.3541 L 164.5208 29.994 L 165.4008 30.634 L 166.2808 31.2941 L 167.1608 31.954 L 168.0408 32.634 L 168.9208 33.334 L 169.7808 34.034 L 170.6608 34.7341 L 171.5208 35.4741 L 172.3808 36.194 L 173.2408 36.954 L 174.1008 37.714 L 174.9608 38.4741 L 175.8008 39.254 L 176.6608 40.034 L 177.5208 40.814 L 178.4008 41.6141 L 179.2608 42.4141 L 180.1208 43.214 L 181.0008 44.014 L 181.8808 44.814 L 182.7608 45.6141 L 183.6408 46.434 L 184.5408 47.254 L 185.4408 48.074 L 186.3208 48.894 L 187.2208 49.714 L 188.1408 50.5541 L 189.0408 51.374 L 189.9408 52.214 L 190.8608 53.0541 L 191.7808 53.894 L 192.7008 54.7341 L 193.6208 55.574 L 194.5608 56.434 L 195.4808 57.2941 L 196.4208 58.154 L 197.3608 59.014 L 198.3008 59.874 L 199.2208 60.754 L 200.1608 61.634 L 201.1008 62.534 L 202.0208 63.4141 L 202.9608 64.314 L 203.9008 65.214 L 204.8208 66.134 L 205.7608 67.034 L 206.7008 67.954 L 207.6408 68.874 L 208.5808 69.7941 L 209.5208 70.714 L 210.4608 71.654 L 211.4208 72.574 L 212.3608 73.514 L 213.3208 74.454 L 214.2608 75.4141 L 215.2208 76.3541 L 216.1808 77.2941 L 217.1408 78.254 L 218.1008 79.214 L 219.0608 80.1741 L 220.0408 81.134 L 221.0008 82.094 L 221.9808 83.0541 L 222.9608 84.034 L 223.9408 84.994 L 224.9208 85.9741 L 225.9008 86.954 L 226.9008 87.9141 L 227.8808 88.894 L 228.8808 89.874 L 229.9008 90.8541 L 230.9008 91.834 L 231.9208 92.814 L 232.9208 93.7941 L 233.9408 94.774 L 234.9608 95.754 L 235.9808 96.754 L 237.0008 97.7341 L 238.0408 98.7341 L 239.0608 99.7341 L 240.1008 100.714 L 241.1408 101.714 L 242.1808 102.7341 L 243.2208 103.7341 L 244.2608 104.7341 L 245.3008 105.754 L 246.3408 106.754 L 247.4008 107.774 L 248.4408 108.7941 L 249.5008 109.814 L 250.5608 110.834 L 251.6208 111.8541 L 252.6808 112.874 L 253.7408 113.9141 L 254.8008 114.934 L 255.8608 115.9741 L 256.9408 116.994 L 258.0208 118.034 L 259.0808 119.074 L 260.1608 120.1141 L 261.2408 121.154 L 262.3208 122.194 L 263.4208 123.2341 L 264.5008 124.274 L 265.5808 125.314 L 266.6808 126.3541 L 267.7808 127.394 L 268.8808 128.434 L 269.9808 129.4741 L 271.0808 130.534 L 272.1808 131.574 L 273.3008 132.6141 L 274.4008 133.6741 L 275.5208 134.7341 L 276.6208 135.7941 L 277.7408 136.834 L 278.8608 137.894 L 279.9808 138.9741 L 281.1008 140.034 L 282.2208 141.094 L 283.3408 142.154 L 284.4808 143.2341 L 285.6008 144.2941 L 286.7208 145.374 L 287.8608 146.4541 L 289.0008 147.534 L 290.1408 148.614 L 291.2808 149.6941 L 292.4208 150.774 L 293.5608 151.854 L 294.7008 152.9341 L 295.8608 154.014 L 297.0008 155.094 L 298.1608 156.1941 L 299.3208 157.274 L 300.4808 158.354 L 301.6408 159.4541 L 302.8008 160.5541 L 303.9608 161.634 L 305.1208 162.734 L 306.3008 163.8341 L 307.4608 164.9341 L 308.6208 166.034 L 309.8008 167.134 L 310.9808 168.254 L 312.1608 169.354 L 313.3208 170.4541 L 314.5008 171.5741 L 315.6808 172.6941 L 316.8408 173.7941 L 317.9808 174.894 L 319.1208 175.974 L 320.2408 177.054 L 321.3608 178.114 L 322.4608 179.154 L 323.5408 180.194 L 324.6208 181.194 L 325.7008 182.194 L 326.7608 183.194 L 327.8008 184.154 L 328.8408 185.114 L 329.8608 186.054 L 330.8808 186.994 L 331.8808 187.894 L 332.8808 188.794 L 333.8608 189.694 L 334.8408 190.574 L 335.8008 191.434 L 336.7608 192.294 L 337.7208 193.154 L 338.6608 193.994 L 339.6008 194.8341 L 340.5208 195.674 L 341.4408 196.494 L 342.3408 197.314 L 343.2608 198.154 L 344.1608 198.974 L 345.0408 199.794 L 345.9208 200.614 L 346.8008 201.434 L 347.6608 202.254 L 348.5208 203.074 L 349.3608 203.874 L 350.2008 204.694 L 351.0408 205.494 L 351.8608 206.274 L 352.6808 207.074 L 353.4808 207.854 L 354.2808 208.614 L 355.0808 209.374 L 355.8408 210.134 L 356.6208 210.874 L 357.3608 211.5939 L 358.1008 212.314 L 358.8208 213.014 L 359.5408 213.694 L 360.2608 214.354 L 360.9408 215.014 L 361.6408 215.654 L 362.3008 216.254 L 362.9808 216.854 L 363.6408 217.434 L 364.3008 217.994 L 364.9608 218.534 L 365.6008 219.054 L 366.2408 219.554 L 366.9008 220.034 L 367.5408 220.514 L 368.1808 220.9541 L 368.8208 221.374 L 369.4608 221.794 L 370.1008 222.174 L 370.7408 222.534 L 371.3808 222.894 L 372.0208 223.2139 L 372.6608 223.514 L 373.2808 223.814 L 373.9208 224.074 L 374.5608 224.3341 L 375.2008 224.574 L 375.8208 224.794 L 376.4608 224.994 L 377.0808 225.154 L 377.7008 225.314 L 378.3008 225.454 L 378.9008 225.554 L 379.5008 225.654 L 380.1008 225.734 L 380.6808 225.8342 L 381.2608 225.9142 L 381.8408 225.9942 L 382.4008 226.0542 L 382.9608 226.1142 L 383.5208 226.1542 L 384.0808 226.1742 H 384.6408 H 385.1808 L 385.7208 226.1342 L 386.2808 226.0942 L 386.8208 226.0542 L 387.3608 225.9742 L 387.9008 225.8942 L 388.4608 225.8142 L 389.0208 225.714 L 389.5808 225.634 L 390.1408 225.574 L 390.7208 225.534 L 391.3008 225.494 L 391.8808 225.454 L 392.4608 225.434 H 393.0608 H 393.6608 H 394.2608 H 394.8608 L 395.4808 225.454 L 396.1008 225.494 L 396.7208 225.534 L 397.3608 225.554 L 397.9808 225.594 L 398.6208 225.654 L 399.2808 225.694 L 399.9208 225.734 L 400.5808 225.774 L 401.2408 225.834 L 401.9208 225.894 L 402.5808 225.954 L 403.2608 226.034 L 403.9408 226.114 L 404.6408 226.194 L 405.3208 226.294 L 406.0208 226.394 L 406.7208 226.514 L 407.4408 226.634 L 408.1408 226.754 L 408.8608 226.894 L 409.5808 227.034 L 410.3008 227.194 L 411.0408 227.374 L 411.7808 227.534 L 412.5208 227.714 L 413.2608 227.9141 L 414.0008 228.0941 L 414.7608 228.2942 L 415.5208 228.5142 L 416.2808 228.7341 L 417.0408 228.9542 L 417.8208 229.1742 L 418.6008 229.3942 L 419.3808 229.6141 L 420.1808 229.8541 L 420.9608 230.0742 L 421.7808 230.3142 L 422.5808 230.5542 L 423.4008 230.7742 L 424.2208 231.0141 L 425.0408 231.2742 L 425.8808 231.5142 L 426.7008 231.7742 L 427.5408 232.0542 L 428.3808 232.3142 L 429.2408 232.5941 L 430.1008 232.8741 L 430.9608 233.1542 L 431.8208 233.4342 L 432.6808 233.7141 L 433.5608 233.9941 L 434.4408 234.2942 L 435.3408 234.5742 L 436.2408 234.8741 L 437.1408 235.1742 L 438.0408 235.4741 L 438.9408 235.7742 L 439.8608 236.0742 L 440.7808 236.3741 L 441.7208 236.6742 L 442.6408 236.9741 L 443.5808 237.2942 L 444.5208 237.5941 L 445.4808 237.9142 L 446.4208 238.2341 L 447.3808 238.5342 L 448.3408 238.8541 L 449.3208 239.1742 L 450.2808 239.4941 L 451.2608 239.8142 L 452.2408 240.1341 L 453.2408 240.4542 L 454.2208 240.7942 L 455.2208 241.1141 L 456.2208 241.4342 L 457.2408 241.7742 L 458.2408 242.0941 L 459.2608 242.4342 L 460.2808 242.7742 L 461.3008 243.1141 L 462.3408 243.4342 L 463.3608 243.7742 L 464.4008 244.1141 L 465.4608 244.4542 L 466.5008 244.7942 L 467.5608 245.1341 L 468.6208 245.4741 L 469.6808 245.8142 L 470.7608 246.1542 L 471.8408 246.4941 L 472.9208 246.8342 L 474.0008 247.1742 L 475.1008 247.5142 L 476.1808 247.8541 L 477.3008 248.1942 L 478.4008 248.5342 L 479.5208 248.8741 L 480.6408 249.2141 L 481.7608 249.5742 L 482.9008 249.9142 L 484.0208 250.2541 L 485.1608 250.5941 L 486.3208 250.9342 L 487.4808 251.2742 L 488.6208 251.6141 L 489.8008 251.9542 L 490.9608 252.2942 L 492.1408 252.6141 L 493.3208 252.9342 L 494.5208 253.2742 L 495.7208 253.5941 L 496.9208 253.9142 L 498.1408 254.2141 L 499.3408 254.5342 L 500.5608 254.8342 L 501.8008 255.1341 L 503.0408 255.4342 L 504.2808 255.7141 L 505.5208 255.9941 L 506.7808 256.2742 L 508.0408 256.5542 L 509.3208 256.8142 L 510.6008 257.0742 L 511.8808 257.3342 L 513.1608 257.5742 L 514.4608 257.8342 L 515.7608 258.0542 L 517.0808 258.2942 L 518.3808 258.5142 L 519.7008 258.7341 L 521.0408 258.9542 L 522.3608 259.1542 L 523.7008 259.3542 L 525.0608 259.5543 L 526.4008 259.7343 L 527.7608 259.8943 L 529.1208 260.0543 L 530.5008 260.2143 L 531.8808 260.3543 L 533.2608 260.4943 L 534.6408 260.6143 L 536.0208 260.7343 L 537.4208 260.8345 L 538.8008 260.9345 L 540.1808 261.0345 L 541.5608 261.1145 L 542.9608 261.1745 L 544.3408 261.2345 L 545.7208 261.2745 L 547.0808 261.3145 L 548.4608 261.3345 L 549.8208 261.3545 L 551.1808 261.3345 L 552.5408 261.3145 L 553.9008 261.2545 L 555.2608 261.1945 L 556.6008 261.0945 L 557.9408 260.9945 L 559.2608 260.8745 L 560.5808 260.7145 L 561.9008 260.5545 L 563.2008 260.3745 L 564.4808 260.1745 L 565.7608 259.9545 L 567.0408 259.6945 L 568.3008 259.4345 L 569.5808 259.1344 L 570.8208 258.8345 L 572.0808 258.4944 L 573.3208 258.1344 L 574.5608 257.7745 L 575.7808 257.3744 L 577.0008 256.9545 L 578.2208 256.5145 L 579.4408 256.0545 L 580.6608 255.5545 L 581.8608 255.0745 L 583.0608 254.5545 L 584.2608 254.0345 L 585.4808 253.4944 L 586.6808 252.9345 L 587.8808 252.3945 L 589.0808 251.8145 L 590.3008 251.2544 L 591.5008 250.6745 L 592.7008 250.0944 L 593.9208 249.4944 L 595.1208 248.8945 L 596.3408 248.2945 L 597.5408 247.6745 L 598.7608 247.0545 L 599.9808 246.4345 L 601.2008 245.8145 L 602.4008 245.1745 L 603.6208 244.5345 L 604.8208 243.8744 L 606.0408 243.2144 L 607.2208 242.5545 L 608.4208 241.8945 L 609.6008 241.2344 L 610.7808 240.5745 L 611.9608 239.9145 L 613.1208 239.2544 L 614.2608 238.6144 L 615.4208 237.9545 L 616.5408 237.3145 L 617.6608 236.6745 L 618.7608 236.0345 L 619.8408 235.4145 L 620.9008 234.7945 L 621.9608 234.1745 L 622.9808 233.5545 L 624.0008 232.9545 L 625.0008 232.3544 L 625.9608 231.7544 L 626.9208 231.1745 L 627.8608 230.5944 L 628.8008 230.0345 L 629.7008 229.4944 L 630.5808 228.9545 L 631.4608 228.4145 L 632.3208 227.8945 L 633.1408 227.3945 L 633.9608 226.8945 L 634.7808 226.4145 L 635.5608 225.9345 L 636.3208 225.4545 L 637.0808 224.9944 L 637.8208 224.5545 L 638.5608 224.1144 L 639.2608 223.6745 L 639.9608 223.2544 L 640.6408 222.8544 L 641.3008 222.4545 L 641.9608 222.0745 L 642.6008 221.6945 L 643.2408 221.3345 L 643.8608 220.9944 L 644.4608 220.6745 L 645.0808 220.3744 L 645.6808 220.0745 L 646.2808 219.8145 L 646.8608 219.5745 L 647.4408 219.3345 L 648.0008 219.1144 L 648.5808 218.9144 L 649.1208 218.7344 L 649.6808 218.5744 L 650.2208 218.4344 L 650.7808 218.3344 L 651.3208 218.2342 L 651.8608 218.1542 L 652.4008 218.1142 L 652.9208 218.0742 L 653.4608 218.0542 L 654.0008 218.0742 L 654.5208 218.0942 L 655.0408 218.1342 L 656.0608 218.2742 L 657.0608 218.5142 L 658.0208 218.7942 L 658.9408 219.1142 L 659.8408 219.5142 L 660.6808 219.9343 L 661.5008 220.3942 L 662.3008 220.8343 L 663.1008 221.2542 L 663.9008 221.6342 L 664.7208 221.9343 L 665.5408 222.1943 L 666.3808 222.3743 L 667.2208 222.5143 L 668.1008 222.6143 L 669.0208 222.7143 L 669.9408 222.7543 H 670.8808 L 671.8208 222.7143 L 672.7408 222.6143 L 673.6608 222.4743 L 674.5808 222.2543 L 675.5008 221.9743 L 676.4208 221.6343 L 677.3408 221.2343 L 678.2408 220.7743 L 679.1608 220.2743 L 679.6408 220.0143 L 680.1008 219.7543 L 680.6008 219.4943 L 681.1008 219.2343 L 681.6208 218.9943 L 682.1408 218.7543 L 682.6808 218.5143 L 683.2208 218.2943 L 683.7808 218.0942 L 684.3408 217.8942 L 684.9208 217.7142 L 685.5008 217.5342 L 686.0808 217.3742 L 686.6808 217.2342 L 687.2608 217.1142 L 687.8608 216.9942 L 688.4408 216.8742 L 689.0408 216.7742 L 689.6208 216.6742 L 690.2008 216.5742 L 690.7808 216.4942 L 691.3608 216.4342 L 691.9408 216.3742 L 692.5208 216.3342 L 693.1008 216.3142 H 693.6808 H 694.2608 L 694.8208 216.3342 L 695.4008 216.3742 L 695.9608 216.4342 L 696.5408 216.4942 L 697.1208 216.5742 L 697.7008 216.6742 L 698.3008 216.7742 L 698.8808 216.8942 L 699.4808 217.0342 L 700.0808 217.1942 L 700.6808 217.3542 L 701.2808 217.5543 L 701.9008 217.7543 L 702.5008 217.9743 L 703.1208 218.2143 L 703.7208 218.4544 L 704.3408 218.7343 L 704.9408 219.0143 L 705.5608 219.3144 L 706.1808 219.6343 L 706.7808 219.9743 L 707.4008 220.3344 L 708.0208 220.6944 L 708.6608 221.0543 L 709.2808 221.4544 L 709.9208 221.8344 L 710.5608 222.2343 L 711.2208 222.6343 L 711.8608 223.0543 L 712.5208 223.4743 L 713.1808 223.8943 L 713.8408 224.3144 L 714.5008 224.7743 L 715.1608 225.2343 L 715.8208 225.6944 L 716.5008 226.1944 L 717.1608 226.6944 L 717.8208 227.1944 L 718.5008 227.7143 L 719.1808 228.2343 L 719.8608 228.7743 L 720.5408 229.3144 L 721.2208 229.8543 L 721.9208 230.4143 L 722.6208 230.9743 L 723.3208 231.5343 L 724.0208 232.1143 L 724.7208 232.7143 L 725.4208 233.3144 L 726.1408 233.9143 L 726.8408 234.5343 L 727.5408 235.1743 L 728.2408 235.8144 L 728.9608 236.4743 L 729.6408 237.1343 L 730.3408 237.8344 L 731.0408 238.5343 L 731.7208 239.2343 L 732.4008 239.9544 L 733.0608 240.7143 L 733.7208 241.4544 L 734.3808 242.2343 L 735.0408 243.0143 L 735.6608 243.8144 L 736.3008 244.6343 L 736.9208 245.4743 L 737.5208 246.3144 L 738.1008 247.1743 L 738.6808 248.0343 L 739.2408 248.9344 L 739.7808 249.8344 L 740.3208 250.7543 L 740.8208 251.6944 L 741.3208 252.6343 L 741.8008 253.5943 L 742.2608 254.5744 L 742.7008 255.5543 L 743.1208 256.5744 L 743.5208 257.5744 L 743.9008 258.6143 L 744.2808 259.6343 L 744.6208 260.6944 L 744.9608 261.7543 L 745.2608 262.8144 L 745.5408 263.8943 L 745.8208 264.9544 L 746.0608 266.0543 L 746.2808 267.1343 L 746.4808 268.2143 L 746.6608 269.3144 L 746.8208 270.3943 L 746.9408 271.4943 L 747.0408 272.5943 L 747.1208 273.6944 L 747.1608 274.7743 L 747.2008 275.8743 V 276.9743 L 747.1808 278.0744 L 747.1408 279.1543 L 747.0608 280.2343 L 746.9808 281.3344 L 746.8608 282.4143 L 746.7208 283.4743 L 746.5608 284.5543 L 746.3808 285.6143 L 746.1608 286.6944 L 745.9408 287.7543 L 745.6808 288.8144 L 745.4208 289.8743 L 745.1208 290.9143 L 744.8208 291.9743 L 744.4808 293.0143 L 744.1208 294.0744 L 743.7408 295.1143 L 743.3408 296.1543 L 742.9408 297.1944 L 742.5008 298.2143 L 742.0408 299.2543 L 741.5608 300.2743 L 741.0808 301.2943 L 740.5608 302.2943 L 740.0208 303.3144 L 739.4808 304.3144 L 738.9008 305.3144 L 738.3208 306.3144 L 737.7208 307.3144 L 737.1208 308.2943 L 736.5008 309.2943 L 735.8808 310.2943 L 735.2808 311.2943 L 734.6608 312.3144 L 734.0408 313.3344 L 733.4208 314.3543 L 732.8208 315.3943 L 732.2008 316.4143 L 731.6008 317.4743 L 731.0008 318.5143 L 730.3808 319.5744 L 729.7608 320.6343 L 729.1408 321.6944 L 728.5208 322.7543 L 727.9008 323.8144 L 727.2808 324.8943 L 726.6408 325.9743 L 726.0008 327.0543 L 725.3808 328.1343 L 724.7408 329.2143 L 724.1008 330.3144 L 723.4408 331.4143 L 722.8008 332.4943 L 722.1608 333.5943 L 721.5208 334.6743 L 720.9008 335.7543 L 720.2608 336.8144 L 719.6408 337.8743 L 719.0408 338.9344 L 718.4208 339.9743 L 717.8408 341.0143 L 717.2408 342.0543 L 716.6808 343.0943 L 716.1408 344.1343 L 715.6008 345.1543 L 715.0808 346.1944 L 714.6008 347.2343 L 714.1208 348.2943 L 713.6608 349.3344 L 713.2008 350.3943 L 712.7808 351.4544 L 712.3408 352.5343 L 711.9208 353.5943 L 711.5208 354.6743 L 711.1008 355.7743 L 710.7008 356.8543 L 710.3008 357.9544 L 709.9008 359.0543 L 709.5008 360.1543 L 709.1008 361.2743 L 708.7208 362.3943 L 708.3408 363.5343 L 707.9808 364.6743 L 707.6008 365.8144 L 707.2408 366.9743 L 706.8808 368.1343 L 706.5208 369.2943 L 706.1808 370.4743 L 705.8208 371.6543 L 705.4608 372.8344 L 705.1008 374.0343 L 704.7408 375.2143 L 704.3808 376.4143 L 704.0208 377.6143 L 703.6608 378.8344 L 703.3008 380.0543 L 702.9408 381.2743 L 702.5808 382.4943 L 702.2208 383.7143 L 701.8608 384.9344 L 701.5208 386.1743 L 701.1808 387.4344 L 700.8608 388.6743 L 700.5408 389.9344 L 700.2408 391.2143 L 699.9208 392.4743 L 699.6208 393.7543 L 699.3208 395.0543 L 699.0408 396.3344 L 698.7608 397.6343 L 698.4808 398.9344 L 698.2208 400.2543 L 697.9408 401.5543 L 697.6808 402.8743 L 697.4408 404.2143 L 697.1808 405.5343 L 696.9408 406.8743 L 696.7008 408.2143 L 696.4608 409.5543 L 696.2208 410.8943 L 696.0008 412.2543 L 695.7608 413.5943 L 695.5408 414.9544 L 695.3008 416.3144 L 695.0808 417.6944 L 694.8408 419.0543 L 694.6208 420.4344 L 694.3808 421.8144 L 694.1408 423.1944 L 693.9008 424.5744 L 693.6608 425.9743 L 693.4208 427.3543 L 693.1808 428.7543 L 692.9408 430.1543 L 692.6808 431.5543 L 692.4408 432.9344 L 692.2008 434.3144 L 691.9808 435.6743 L 691.7408 437.0343 L 691.5008 438.3943 L 691.2808 439.7143 L 691.0408 441.0343 L 690.8208 442.3344 L 690.6008 443.6343 L 690.3808 444.9143 L 690.1608 446.1743 L 689.9408 447.4143 L 689.7208 448.6543 L 689.5208 449.8543 L 689.3008 451.0543 L 689.1008 452.2343 L 688.9008 453.4143 L 688.7008 454.5543 L 688.5008 455.6944 L 688.3007 456.8144 L 688.1207 457.9143 L 687.9207 458.9943 L 687.7407 460.0543 L 687.5607 461.1143 L 687.3807 462.1543 L 687.2007 463.1543 L 687.0407 464.1743 L 686.8607 465.1543 L 686.7007 466.1143 L 686.5207 467.0744 L 686.3607 468.0143 L 686.2007 468.9344 L 686.0407 469.8543 L 685.9007 470.7343 L 685.7407 471.6143 L 685.5807 472.4743 L 685.4407 473.3344 L 685.3007 474.1543 L 685.1607 474.9743 L 685.0207 475.7743 L 684.8807 476.5543 L 684.7407 477.3344 L 684.6207 478.0744 L 684.5007 478.8144 L 684.3607 479.5343 L 684.2407 480.2343 L 684.1207 480.9143 L 684.0007 481.5943 L 683.8807 482.2343 L 683.7607 482.8743 L 683.6607 483.5143 L 683.5407 484.1343 L 683.4207 484.7343 L 683.2807 485.3543 L 683.1607 485.9544 L 683.0407 486.5543 L 682.9007 487.1543 L 682.7807 487.7543 L 682.6407 488.3344 L 682.5207 488.9143 L 682.3807 489.4743 L 682.2207 490.0343 L 682.0607 490.5943 L 681.9007 491.1343 L 681.7407 491.6543 L 681.5607 492.1944 L 681.3807 492.6944 L 681.1807 493.1944 L 680.9807 493.6944 L 680.7607 494.1743 L 680.5207 494.6543 L 680.0007 495.5543 L 679.4207 496.3943 L 678.7807 497.1944 L 678.1007 497.9143 L 677.3807 498.5744 L 676.6007 499.1743 L 675.8207 499.6944 L 674.9807 500.1543 L 674.1207 500.5343 L 673.2207 500.8344 L 672.3007 501.0744 L 671.3607 501.2544 L 670.4007 501.3544 L 669.4207 501.3944 L 668.4407 501.3744 L 667.4407 501.2744 L 666.4207 501.0944 L 665.4207 500.8544 L 664.9207 500.7144 L 664.4007 500.5746 L 663.9007 500.3946 L 663.3807 500.2146 L 662.8807 500.0146 L 662.3607 499.7946 L 661.8607 499.5746 L 661.3407 499.3347 L 660.8207 499.0746 L 660.3207 498.7946 L 659.8007 498.5146 L 659.2807 498.2145 L 658.7607 497.8946 L 658.2407 497.5746 L 657.7207 497.2346 L 657.2007 496.8946 L 656.6807 496.5146 L 656.1607 496.1346 L 655.6407 495.7346 L 655.1407 495.3347 L 654.6207 494.8946 L 654.1207 494.4547 L 653.6007 494.0146 L 653.1007 493.5346 L 652.5807 493.0546 L 652.0607 492.5746 L 651.5607 492.0746 L 651.0207 491.5546 L 650.5008 491.034 L 649.9808 490.514 L 649.4408 489.974 L 648.9008 489.414 L 648.3608 488.874 L 647.8208 488.314 L 647.2808 487.754 L 646.7208 487.174 L 646.1608 486.5939 L 645.6008 486.014 L 645.0408 485.414 L 644.4608 484.814 L 643.8808 484.234 L 643.2808 483.634 L 642.6808 483.034 L 642.0608 482.4541 L 641.4208 481.854 L 640.7808 481.274 L 640.1208 480.694 L 639.4408 480.114 L 638.7608 479.554 L 638.0608 478.994 L 637.3408 478.434 L 636.6008 477.894 L 635.8608 477.354 L 635.1008 476.814 L 634.3208 476.274 L 633.5408 475.754 L 632.7608 475.234 L 631.9608 474.7139 L 631.1408 474.174 L 630.3408 473.654 L 629.5208 473.114 L 628.6808 472.574 L 627.8608 472.034 L 627.0208 471.494 L 626.1808 470.934 L 625.3408 470.394 L 624.4808 469.8341 L 623.6208 469.294 L 622.7408 468.734 L 621.8808 468.154 L 621.0008 467.574 L 620.1408 466.994 L 619.2808 466.394 L 618.4008 465.794 L 617.5408 465.174 L 616.6608 464.554 L 615.8008 463.934 L 614.9208 463.294 L 614.0408 462.674 L 613.1608 462.014 L 612.2808 461.374 L 611.3808 460.734 L 610.5008 460.074 L 609.6008 459.414 L 608.7008 458.734 L 607.8008 458.074 L 606.9008 457.394 L 605.9808 456.7139 L 605.0808 456.014 L 604.1608 455.3341 L 603.2408 454.634 L 602.3208 453.934 L 601.3808 453.234 L 600.4608 452.534 L 599.5208 451.814 L 598.6008 451.0939 L 597.6608 450.374 L 596.7208 449.654 L 595.7808 448.914 L 594.8208 448.174 L 593.8808 447.434 L 592.9208 446.694 L 591.9808 445.934 L 591.0208 445.174 L 590.0608 444.414 L 589.1008 443.654 L 588.1408 442.874 L 587.2008 442.074 L 586.2408 441.294 L 585.2808 440.494 L 584.3208 439.674 L 583.3608 438.874 L 582.4008 438.054 L 581.4408 437.2139 L 580.4808 436.374 L 579.5208 435.534 L 578.5808 434.694 L 577.6208 433.8341 L 576.6608 432.9541 L 575.7008 432.0939 L 574.7608 431.2139 L 573.8008 430.314 L 572.8408 429.434 L 571.9008 428.534 L 570.9408 427.634 L 570.0008 426.734 L 569.0608 425.814 L 568.1008 424.894 L 567.1608 423.9541 L 566.2208 423.034 L 565.2608 422.0939 L 564.3208 421.154 L 563.3608 420.194 L 562.4208 419.254 L 561.4608 418.294 L 560.5008 417.3341 L 559.5408 416.374 L 558.5808 415.414 L 557.6208 414.4541 L 556.6408 413.474 L 555.6808 412.514 L 554.7008 411.534 L 553.7208 410.554 L 552.7408 409.5939 L 551.7608 408.614 L 550.7808 407.614 L 549.8008 406.634 L 548.8008 405.654 L 547.8208 404.654 L 546.8208 403.654 L 545.8208 402.654 L 544.8208 401.654 L 543.8208 400.654 L 542.8208 399.654 L 541.8008 398.654 L 540.8008 397.634 L 539.7808 396.634 L 538.7808 395.614 L 537.7608 394.5939 L 536.7408 393.574 L 535.7208 392.554 L 534.7008 391.514 L 533.6608 390.494 L 532.6408 389.4541 L 531.6008 388.414 L 530.5808 387.394 L 529.5408 386.354 L 528.5008 385.294 L 527.4808 384.254 L 526.4408 383.2139 L 525.3808 382.154 L 524.3408 381.114 L 523.3008 380.054 L 522.2408 378.994 L 521.2008 377.934 L 520.1408 376.874 L 519.0808 375.814 L 518.0408 374.754 L 516.9808 373.674 L 515.9008 372.614 L 514.8408 371.534 L 513.7808 370.4541 L 512.7008 369.374 L 511.6408 368.294 L 510.5608 367.2139 L 509.4808 366.134 L 508.4208 365.054 L 507.3408 363.9541 L 506.2608 362.874 L 505.1608 361.794 L 504.0808 360.694 L 502.9808 359.614 L 501.8808 358.514 L 500.7808 357.434 L 499.6608 356.354 L 498.5408 355.274 L 497.4208 354.194 L 496.3008 353.114 L 495.1608 352.034 L 494.0408 350.974 L 492.9208 349.914 L 491.8008 348.874 L 490.7008 347.8341 L 489.6208 346.814 L 488.5408 345.814 L 487.4808 344.8341 L 486.4408 343.854 L 485.4208 342.894 L 484.4008 341.9541 L 483.4208 341.014 L 482.4408 340.114 L 481.4808 339.2139 L 480.5208 338.3341 L 479.6008 337.4541 L 478.6808 336.5939 L 477.7808 335.754 L 476.9008 334.934 L 476.0208 334.114 L 475.1808 333.3341 L 474.3408 332.534 L 473.5008 331.774 L 472.7008 331.014 L 471.9008 330.274 L 471.1208 329.554 L 470.3608 328.8341 L 469.6208 328.154 L 468.8808 327.4541 L 468.1808 326.794 L 467.4808 326.134 L 466.7808 325.494 L 466.1208 324.874 L 465.4408 324.254 L 464.8008 323.654 L 464.1808 323.054 L 463.5608 322.494 L 462.9608 321.934 L 462.3608 321.374 L 461.7608 320.814 L 461.1808 320.274 L 460.6208 319.754 L 460.0408 319.2139 L 459.4808 318.694 L 458.9408 318.194 L 458.3808 317.694 L 457.8408 317.2139 L 457.2808 316.734 L 456.7408 316.274 L 456.2008 315.8341 L 455.6608 315.414 L 455.1008 314.994 L 454.5608 314.5939 L 454.0008 314.2139 L 453.4208 313.854 L 452.8408 313.494 L 452.2608 313.174 L 451.6808 312.854 L 451.0808 312.574 L 450.4808 312.314 L 449.8808 312.054 L 449.2608 311.8341 L 448.6408 311.634 L 448.0408 311.454 L 447.4208 311.294 L 446.8008 311.174 L 446.1808 311.054 L 445.5608 310.974 L 444.9408 310.914 L 444.3208 310.874 L 443.7008 310.854 H 443.1008 L 442.4808 310.874 L 441.8808 310.914 L 441.2808 310.974 L 440.7008 311.054 L 440.1208 311.154 L 439.5408 311.274 L 438.9808 311.394 L 438.4208 311.554 L 437.8808 311.714 L 437.3408 311.894 L 436.8008 312.094 L 436.2808 312.2941 L 435.7608 312.514 L 435.2608 312.734 L 434.7608 312.974 L 434.2808 313.234 L 433.8008 313.494 L 433.3408 313.754 L 432.8808 314.034 L 432.4208 314.3141 L 431.9808 314.594 L 431.5408 314.894 L 430.6808 315.494 L 429.8408 316.0741 L 429.0008 316.654 L 428.1408 317.1741 L 427.2808 317.6741 L 426.4008 318.114 L 425.5208 318.494 L 424.6008 318.854 L 423.6808 319.134 L 422.7208 319.394 L 421.7608 319.594 L 420.7608 319.754 L 419.7608 319.874 L 418.7608 319.894 L 417.7408 319.874 L 416.7208 319.794 L 415.7208 319.654 L 414.7208 319.394 L 413.7208 319.094 L 412.7608 318.754 L 411.8008 318.3141 L 410.9008 317.8341 L 410.0008 317.2941 L 409.1608 316.6941 L 408.7408 316.394 L 408.3408 316.0541 L 407.9408 315.714 L 407.5408 315.374 L 407.1608 315.014 L 406.7608 314.634 L 406.3608 314.254 L 405.9608 313.874 L 405.5608 313.474 L 405.1408 313.0741 L 404.7008 312.6941 L 404.2608 312.2941 L 403.8008 311.894 L 403.3408 311.514 L 402.8608 311.114 L 402.3608 310.734 L 401.8608 310.3341 L 401.3408 309.9341 L 400.8208 309.534 L 400.2808 309.114 L 399.7608 308.6941 L 399.2208 308.254 L 398.7008 307.7941 L 398.1608 307.3341 L 397.6208 306.854 L 397.0808 306.374 L 396.5408 305.874 L 396.0008 305.354 L 395.4608 304.854 L 394.9008 304.3141 L 394.3608 303.7941 L 393.8008 303.274 L 393.2208 302.734 L 392.6408 302.214 L 392.0608 301.6741 L 391.4808 301.134 L 390.8808 300.5741 L 390.2808 300.034 L 389.6608 299.474 L 389.0408 298.9141 L 388.4208 298.354 L 387.8008 297.774 L 387.1608 297.1941 L 386.5208 296.614 L 385.8808 296.014 L 385.2408 295.4141 L 384.5808 294.8141 L 383.9208 294.214 L 383.2608 293.614 L 382.6008 292.994 L 381.9208 292.374 L 381.2408 291.734 L 380.5608 291.114 L 379.8808 290.474 L 379.1808 289.8341 L 378.4808 289.1741 L 377.8008 288.514 L 377.1008 287.8341 L 376.4208 287.154 L 375.7408 286.4541 L 375.0608 285.734 L 374.4008 285.014 L 373.7408 284.274 L 373.0808 283.514 L 372.4208 282.754 L 371.7608 281.994 L 371.0808 281.2139 L 370.4208 280.434 L 369.7408 279.654 L 369.0408 278.874 L 368.3608 278.0939 L 367.6608 277.314 L 366.9608 276.514 L 366.2408 275.7139 L 365.5208 274.934 L 364.8208 274.134 L 364.0808 273.3341 L 363.3608 272.534 L 362.6208 271.734 L 361.8808 270.914 L 361.1408 270.114 L 360.4008 269.294 L 359.6608 268.474 L 358.9008 267.654 L 358.1408 266.814 L 357.3808 265.994 L 356.6208 265.154 L 355.8408 264.314 L 355.0808 263.474 L 354.3008 262.614 L 353.5208 261.754 L 352.7408 260.914 L 351.9408 260.054 L 351.1608 259.174 L 350.3608 258.314 L 349.5608 257.434 L 348.7608 256.574 L 347.9408 255.694 L 347.1408 254.814 L 346.3208 253.934 L 345.5008 253.034 L 344.6808 252.154 L 343.8608 251.254 L 343.0208 250.354 L 342.2008 249.4541 L 341.3608 248.534 L 340.5208 247.634 L 339.6808 246.7139 L 338.8408 245.794 L 337.9808 244.874 L 337.1208 243.9541 L 336.2608 243.034 L 335.3808 242.114 L 334.5008 241.194 L 333.6208 240.274 L 332.7408 239.354 L 331.8408 238.434 L 330.9408 237.494 L 330.0408 236.574 L 329.1408 235.634 L 328.2408 234.694 L 327.3408 233.754 L 326.4208 232.814 L 325.5208 231.874 L 324.6008 230.934 L 323.6808 229.974 L 322.7608 229.034 L 321.8408 228.074 L 320.9008 227.114 L 319.9808 226.154 L 319.0408 225.194 L 318.1208 224.2139 L 317.1808 223.254 L 316.2408 222.274 L 315.3008 221.294 L 314.3408 220.314 L 313.4008 219.3341 L 312.4408 218.354 L 311.4808 217.374 L 310.5208 216.374 L 309.5608 215.394 L 308.6008 214.394 L 307.6208 213.394 L 306.6408 212.414 L 305.6608 211.414 L 304.6608 210.434"
       style="fill:none;stroke:#000000;stroke-width:0.5;stroke-linecap:round;stroke-linejoin:round;stroke-miterlimit:10;stroke-dasharray:none;stroke-opacity:1" />
  </g>
</svg>
