<?xml version="1.0" encoding="UTF-8" standalone="no"?>
<!-- Created with Inkscape (http://www.inkscape.org/) -->

<svg
   inkscape:version="1.3.2 (091e20e, 2023-11-25, custom)"
   sodipodi:docname="track_brand_hatch.svg"
   xmlns:inkscape="http://www.inkscape.org/namespaces/inkscape"
   xmlns:sodipodi="http://sodipodi.sourceforge.net/DTD/sodipodi-0.dtd"
   xmlns="http://www.w3.org/2000/svg"
   xmlns:svg="http://www.w3.org/2000/svg">
  <g>
    <path
       id="track"
       d="M 38.235 349.083 H 38.405 H 38.695 H 38.985 H 39.275 L 39.565 349.073 H 39.855 H 40.155 H 40.455 H 40.755 L 41.055 349.083 H 41.355 H 41.665 L 41.965 349.093 H 42.275 L 42.595 349.103 H 42.905 L 43.215 349.113 L 43.535 349.123 L 43.855 349.133 L 44.175 349.143 L 44.495 349.163 L 44.825 349.173 L 45.145 349.183 L 45.475 349.193 L 45.805 349.213 L 46.135 349.223 L 46.475 349.243 L 46.805 349.253 L 47.145 349.263 L 47.485 349.283 L 47.825 349.303 L 48.175 349.313 L 48.515 349.333 L 48.865 349.343 L 49.215 349.363 L 49.565 349.383 L 49.915 349.393 L 50.265 349.413 L 50.625 349.433 L 50.985 349.443 L 51.345 349.463 L 51.705 349.473 L 52.065 349.483 L 52.425 349.503 L 52.795 349.513 L 53.165 349.523 H 53.535 L 53.905 349.533 L 54.275 349.543 H 54.655 L 55.025 349.553 H 55.405 L 55.775 349.563 H 56.155 L 56.535 349.573 H 56.915 L 57.295 349.583 L 57.685 349.593 H 58.065 L 58.455 349.603 H 58.845 L 59.225 349.613 H 59.625 L 60.015 349.623 H 60.405 L 60.805 349.633 H 61.195 L 61.595 349.643 H 61.995 H 62.395 L 62.805 349.653 H 63.205 H 63.605 H 64.015 H 64.425 H 64.835 H 65.245 H 65.655 H 66.065 H 66.485 H 66.895 H 67.315 H 67.735 H 68.155 L 68.575 349.643 H 68.995 H 69.425 H 69.845 L 70.275 349.633 H 70.695 H 71.125 L 71.555 349.623 H 71.985 H 72.425 L 72.855 349.613 H 73.285 H 73.725 L 74.165 349.603 H 74.595 H 75.035 H 75.475 L 75.915 349.593 H 76.365 H 76.805 H 77.245 H 77.695 H 78.135 H 78.585 H 79.035 H 79.475 H 79.925 H 80.365 H 80.805 L 81.245 349.603 H 81.675 H 82.105 L 82.535 349.613 H 82.965 L 83.385 349.623 H 83.805 L 84.215 349.633 H 84.625 L 85.035 349.643 H 85.435 L 85.835 349.653 L 86.225 349.663 L 86.605 349.673 L 86.985 349.683 H 87.365 L 87.735 349.693 L 88.095 349.703 L 88.455 349.713 L 88.805 349.723 L 89.155 349.733 H 89.495 L 89.835 349.743 H 90.165 L 90.495 349.753 H 90.815 H 91.135 H 91.455 H 91.765 L 92.075 349.743 L 92.375 349.733 L 92.675 349.723 L 92.975 349.713 L 93.265 349.693 L 93.545 349.673 L 93.835 349.653 L 94.105 349.623 L 94.385 349.593 L 94.655 349.563 L 94.925 349.523 L 95.185 349.483 L 95.435 349.433 L 95.685 349.383 L 95.935 349.323 L 96.175 349.263 L 96.415 349.193 L 96.655 349.123 L 96.875 349.053 L 97.105 348.973 L 97.325 348.893 L 97.545 348.803 L 97.755 348.713 L 97.955 348.623 L 98.165 348.523 L 98.365 348.413 L 98.555 348.303 L 98.745 348.193 L 98.935 348.073 L 99.115 347.943 L 99.285 347.813 L 99.465 347.673 L 99.625 347.533 L 99.785 347.383 L 99.945 347.233 L 100.095 347.073 L 100.245 346.913 L 100.385 346.743 L 100.515 346.573 L 100.645 346.403 L 100.775 346.223 L 100.885 346.043 L 100.995 345.853 L 101.105 345.663 L 101.205 345.473 L 101.305 345.273 L 101.395 345.073 L 101.485 344.873 L 101.555 344.673 L 101.635 344.463 L 101.705 344.253 L 101.765 344.043 L 101.825 343.823 L 101.875 343.613 L 101.935 343.393 L 101.975 343.163 L 102.025 342.943 L 102.065 342.713 L 102.115 342.483 L 102.155 342.253 L 102.195 342.023 L 102.235 341.793 L 102.275 341.553 L 102.305 341.313 L 102.345 341.073 L 102.385 340.833 L 102.415 340.583 L 102.455 340.343 L 102.485 340.093 L 102.525 339.843 L 102.555 339.583 L 102.585 339.333 L 102.605 339.073 L 102.635 338.813 L 102.665 338.543 L 102.685 338.283 L 102.705 338.013 L 102.725 337.743 L 102.745 337.473 L 102.765 337.203 L 102.785 336.933 L 102.805 336.653 L 102.815 336.373 L 102.835 336.093 L 102.845 335.803 L 102.865 335.523 L 102.885 335.233 L 102.895 334.943 L 102.915 334.653 L 102.925 334.353 L 102.935 334.063 L 102.955 333.763 L 102.965 333.463 L 102.985 333.163 L 102.995 332.863 L 103.005 332.553 L 103.015 332.243 L 103.025 331.933 L 103.035 331.623 V 331.313 L 103.045 330.993 V 330.683 V 330.363 V 330.043 L 103.035 329.713 V 329.393 L 103.025 329.063 L 103.015 328.743 L 103.005 328.413 L 102.995 328.073 L 102.985 327.743 L 102.975 327.413 L 102.955 327.073 L 102.945 326.733 L 102.925 326.393 L 102.915 326.053 L 102.905 325.713 L 102.885 325.363 L 102.875 325.013 L 102.865 324.663 L 102.845 324.313 L 102.835 323.963 L 102.825 323.613 L 102.805 323.253 L 102.795 322.893 L 102.785 322.543 L 102.775 322.183 L 102.765 321.813 L 102.755 321.453 L 102.745 321.083 L 102.735 320.723 V 320.353 L 102.725 319.983 V 319.613 V 319.243 V 318.873 V 318.503 V 318.133 L 102.735 317.753 L 102.745 317.383 V 317.003 L 102.755 316.623 L 102.765 316.243 L 102.775 315.863 L 102.785 315.483 V 315.103 L 102.795 314.713 L 102.805 314.333 V 313.943 L 102.815 313.553 V 313.163 L 102.825 312.773 V 312.383 L 102.835 311.993 V 311.593 V 311.203 L 102.845 310.803 V 310.403 L 102.855 310.003 L 102.865 309.603 V 309.203 L 102.875 308.803 L 102.885 308.393 V 307.993 L 102.895 307.583 L 102.905 307.183 L 102.915 306.773 V 306.363 L 102.925 305.953 L 102.935 305.533 L 102.945 305.123 V 304.713 L 102.955 304.293 L 102.965 303.873 V 303.463 L 102.975 303.043 L 102.985 302.623 L 102.995 302.203 L 103.005 301.783 L 103.015 301.353 L 103.025 300.933 L 103.035 300.503 V 300.083 L 103.045 299.653 L 103.055 299.223 L 103.065 298.793 L 103.075 298.363 L 103.085 297.933 L 103.095 297.503 L 103.105 297.073 V 296.633 L 103.115 296.203 L 103.125 295.763 L 103.135 295.323 L 103.145 294.893 V 294.453 L 103.155 294.013 L 103.165 293.573 L 103.175 293.123 L 103.185 292.683 L 103.195 292.243 L 103.205 291.793 L 103.215 291.353 L 103.225 290.903 L 103.235 290.463 L 103.245 290.013 L 103.255 289.573 L 103.265 289.123 L 103.275 288.673 L 103.285 288.223 L 103.295 287.773 L 103.305 287.323 L 103.315 286.873 L 103.325 286.423 L 103.335 285.973 L 103.345 285.523 L 103.355 285.063 L 103.365 284.613 L 103.375 284.153 L 103.385 283.703 L 103.395 283.243 L 103.405 282.793 L 103.415 282.333 L 103.425 281.873 L 103.435 281.413 V 280.953 L 103.445 280.493 L 103.455 280.033 V 279.573 V 279.103 L 103.465 278.643 V 278.183 V 277.713 V 277.243 L 103.475 276.783 V 276.313 V 275.843 V 275.383 V 274.913 V 274.443 V 273.973 V 273.493 V 273.023 V 272.553 L 103.465 272.083 V 271.603 V 271.133 V 270.653 L 103.455 270.183 V 269.703 V 269.223 L 103.445 268.753 V 268.273 L 103.435 267.793 V 267.313 L 103.425 266.833 V 266.353 L 103.415 265.863 L 103.405 265.383 V 264.903 L 103.395 264.423 V 263.933 L 103.385 263.453 L 103.375 262.963 V 262.473 L 103.365 261.993 V 261.503 L 103.355 261.013 L 103.345 260.523 V 260.033 L 103.335 259.543 L 103.325 259.053 V 258.563 L 103.315 258.073 L 103.305 257.583 V 257.083 L 103.295 256.593 V 256.103 L 103.285 255.603 L 103.275 255.113 V 254.613 L 103.265 254.113 V 253.623 L 103.255 253.123 V 252.623 V 252.123 V 251.623 V 251.123 V 250.623 V 250.123 V 249.623 L 103.265 249.123 V 248.623 L 103.275 248.113 L 103.285 247.613 L 103.295 247.103 V 246.603 L 103.305 246.093 L 103.315 245.593 L 103.325 245.083 L 103.335 244.583 L 103.345 244.073 L 103.355 243.563 L 103.365 243.053 L 103.375 242.553 V 242.043 L 103.385 241.533 L 103.395 241.023 V 240.513 L 103.405 240.003 V 239.493 V 238.983 L 103.415 238.463 V 237.953 V 237.443 V 236.933 V 236.413 L 103.425 235.903 V 235.383 V 234.873 V 234.353 V 233.843 V 233.323 L 103.435 232.803 V 232.293 V 231.773 V 231.253 V 230.733 V 230.213 V 229.693 L 103.445 229.173 V 228.653 V 228.133 V 227.613 V 227.093 V 226.563 L 103.455 226.043 V 225.513 V 224.993 V 224.463 V 223.933 V 223.413 L 103.465 222.883 V 222.353 V 221.823 V 221.293 V 220.763 L 103.475 220.233 V 219.703 V 219.163 V 218.633 V 218.103 V 217.563 L 103.485 217.033 V 216.493 V 215.953 V 215.423 V 214.883 L 103.495 214.343 V 213.803 V 213.263 L 103.505 212.733 V 212.193 V 211.653 L 103.515 211.103 V 210.563 L 103.525 210.023 L 103.535 209.483 V 208.943 L 103.545 208.393 V 207.853 L 103.555 207.313 V 206.763 L 103.565 206.223 V 205.673 L 103.575 205.133 V 204.583 V 204.043 V 203.493 L 103.585 202.953 V 202.403 V 201.853 V 201.313 L 103.595 200.763 V 200.213 L 103.605 199.673 V 199.123 V 198.573 L 103.615 198.033 V 197.483 L 103.625 196.933 V 196.383 L 103.635 195.843 V 195.293 V 194.743 L 103.645 194.203 V 193.653 V 193.103 L 103.655 192.563 V 192.013 V 191.463 V 190.923 V 190.373 L 103.665 189.833 V 189.293 V 188.753 V 188.223 L 103.675 187.703 V 187.183 V 186.673 L 103.685 186.163 V 185.663 V 185.173 L 103.695 184.693 V 184.213 L 103.705 183.743 V 183.273 L 103.715 182.823 L 103.725 182.363 L 103.735 181.923 L 103.745 181.483 L 103.755 181.053 L 103.765 180.633 L 103.785 180.213 L 103.795 179.793 L 103.815 179.393 L 103.825 178.983 L 103.845 178.593 L 103.855 178.193 L 103.865 177.803 L 103.875 177.423 L 103.895 177.043 V 176.673 L 103.905 176.303 L 103.915 175.943 L 103.925 175.583 L 103.935 175.233 V 174.893 L 103.945 174.553 L 103.955 174.223 L 103.965 173.893 L 103.975 173.573 L 103.985 173.253 L 103.995 172.943 L 104.015 172.633 L 104.035 172.333 L 104.055 172.033 L 104.075 171.733 L 104.095 171.443 L 104.125 171.153 L 104.155 170.873 L 104.195 170.593 L 104.235 170.313 L 104.285 170.043 L 104.335 169.763 L 104.385 169.493 L 104.445 169.233 L 104.515 168.973 L 104.585 168.713 L 104.655 168.453 L 104.735 168.193 L 104.825 167.943 L 104.915 167.693 L 105.005 167.453 L 105.105 167.203 L 105.215 166.973 L 105.325 166.733 L 105.445 166.503 L 105.565 166.273 L 105.695 166.043 L 105.825 165.823 L 105.965 165.603 L 106.105 165.383 L 106.245 165.173 L 106.395 164.953 L 106.555 164.753 L 106.715 164.543 L 106.875 164.343 L 107.045 164.143 L 107.215 163.943 L 107.385 163.743 L 107.565 163.553 L 107.755 163.353 L 107.935 163.173 L 108.135 162.983 L 108.325 162.803 L 108.525 162.613 L 108.725 162.443 L 108.935 162.263 L 109.145 162.093 L 109.365 161.933 L 109.585 161.763 L 109.815 161.603 L 110.045 161.453 L 110.275 161.303 L 110.515 161.153 L 110.745 161.003 L 110.995 160.873 L 111.235 160.733 L 111.485 160.603 L 111.745 160.483 L 111.995 160.353 L 112.255 160.243 L 112.525 160.133 L 112.785 160.023 L 113.055 159.923 L 113.325 159.833 L 113.605 159.743 L 113.875 159.653 L 114.155 159.583 L 114.435 159.503 L 114.725 159.433 L 115.005 159.373 L 115.295 159.313 L 115.585 159.263 L 115.875 159.213 L 116.165 159.173 L 116.465 159.133 L 116.755 159.093 L 117.055 159.073 L 117.355 159.043 L 117.655 159.023 L 117.955 159.013 L 118.255 159.003 H 118.565 H 118.865 L 119.175 159.013 L 119.485 159.023 L 119.785 159.033 L 120.095 159.053 L 120.405 159.073 L 120.715 159.103 L 121.025 159.133 L 121.345 159.163 L 121.655 159.203 L 121.965 159.243 L 122.285 159.293 L 122.595 159.333 L 122.915 159.383 L 123.225 159.443 L 123.545 159.503 L 123.865 159.563 L 124.185 159.623 L 124.495 159.693 L 124.815 159.763 L 125.135 159.843 L 125.455 159.923 L 125.775 160.003 L 126.095 160.083 L 126.415 160.173 L 126.735 160.273 L 127.055 160.363 L 127.375 160.463 L 127.705 160.563 L 128.025 160.663 L 128.345 160.773 L 128.665 160.883 L 128.985 160.993 L 129.315 161.113 L 129.635 161.233 L 129.955 161.353 L 130.285 161.473 L 130.605 161.603 L 130.925 161.733 L 131.255 161.863 L 131.575 161.993 L 131.905 162.123 L 132.235 162.253 L 132.565 162.383 L 132.895 162.513 L 133.225 162.643 L 133.555 162.773 L 133.895 162.903 L 134.235 163.033 L 134.565 163.163 L 134.905 163.293 L 135.245 163.423 L 135.585 163.553 L 135.925 163.683 L 136.275 163.813 L 136.615 163.943 L 136.965 164.073 L 137.305 164.213 L 137.655 164.343 L 138.005 164.473 L 138.355 164.603 L 138.705 164.743 L 139.055 164.873 L 139.415 165.003 L 139.765 165.133 L 140.125 165.263 L 140.475 165.403 L 140.835 165.533 L 141.195 165.663 L 141.555 165.783 L 141.925 165.913 L 142.285 166.043 L 142.655 166.173 L 143.015 166.303 L 143.385 166.423 L 143.755 166.553 L 144.125 166.683 L 144.495 166.813 L 144.865 166.933 L 145.245 167.063 L 145.615 167.193 L 145.985 167.313 L 146.365 167.443 L 146.745 167.573 L 147.125 167.703 L 147.505 167.823 L 147.885 167.953 L 148.265 168.083 L 148.645 168.203 L 149.025 168.333 L 149.415 168.463 L 149.795 168.583 L 150.185 168.713 L 150.575 168.843 L 150.965 168.963 L 151.355 169.093 L 151.745 169.213 L 152.135 169.343 L 152.525 169.473 L 152.915 169.593 L 153.315 169.723 L 153.705 169.853 L 154.105 169.973 L 154.495 170.103 L 154.895 170.233 L 155.285 170.353 L 155.665 170.473 L 156.055 170.603 L 156.435 170.723 L 156.815 170.843 L 157.195 170.953 L 157.565 171.073 L 157.945 171.193 L 158.305 171.303 L 158.675 171.413 L 159.035 171.523 L 159.395 171.623 L 159.755 171.723 L 160.115 171.823 L 160.465 171.913 L 160.815 171.993 L 161.165 172.073 L 161.515 172.153 L 161.855 172.213 L 162.205 172.273 L 162.555 172.333 L 162.895 172.383 L 163.245 172.423 L 163.585 172.463 L 163.925 172.493 L 164.275 172.523 L 164.615 172.553 L 164.965 172.573 L 165.305 172.593 L 165.645 172.603 L 165.985 172.613 L 166.335 172.623 L 166.675 172.633 H 167.015 L 167.355 172.623 H 167.695 L 168.035 172.613 L 168.365 172.593 L 168.705 172.573 L 169.035 172.553 L 169.365 172.523 L 169.695 172.483 L 170.015 172.443 L 170.345 172.393 L 170.665 172.333 L 170.985 172.273 L 171.305 172.203 L 171.625 172.133 L 171.935 172.053 L 172.245 171.963 L 172.555 171.883 L 172.865 171.783 L 173.175 171.683 L 173.475 171.583 L 173.775 171.483 L 174.075 171.373 L 174.365 171.263 L 174.665 171.143 L 174.945 171.023 L 175.235 170.903 L 175.515 170.783 L 175.795 170.663 L 176.065 170.533 L 176.335 170.403 L 176.605 170.283 L 176.865 170.153 L 177.115 170.023 L 177.365 169.883 L 177.615 169.753 L 177.855 169.623 L 178.085 169.483 L 178.315 169.353 L 178.545 169.213 L 178.765 169.083 L 178.985 168.943 L 179.195 168.803 L 179.395 168.663 L 179.605 168.513 L 179.795 168.373 L 179.985 168.223 L 180.175 168.073 L 180.355 167.923 L 180.535 167.763 L 180.705 167.613 L 180.875 167.453 L 181.035 167.293 L 181.195 167.123 L 181.345 166.963 L 181.485 166.793 L 181.625 166.613 L 181.755 166.443 L 181.875 166.263 L 181.985 166.083 L 182.095 165.903 L 182.195 165.723 L 182.285 165.533 L 182.365 165.353 L 182.435 165.163 L 182.505 164.973 L 182.565 164.783 L 182.615 164.593 L 182.655 164.403 L 182.685 164.213 L 182.715 164.023 L 182.735 163.833 L 182.745 163.633 V 163.443 V 163.253 L 182.735 163.073 L 182.715 162.883 L 182.695 162.693 L 182.665 162.503 L 182.635 162.323 L 182.595 162.143 L 182.555 161.953 L 182.505 161.773 L 182.455 161.593 L 182.405 161.413 L 182.355 161.233 L 182.295 161.053 L 182.225 160.883 L 182.165 160.703 L 182.095 160.533 L 182.015 160.363 L 181.935 160.193 L 181.855 160.023 L 181.765 159.863 L 181.675 159.703 L 181.575 159.543 L 181.475 159.383 L 181.365 159.223 L 181.255 159.073 L 181.145 158.923 L 181.025 158.773 L 180.915 158.623 L 180.785 158.483 L 180.665 158.333 L 180.535 158.193 L 180.405 158.043 L 180.265 157.903 L 180.135 157.763 L 179.995 157.613 L 179.855 157.473 L 179.715 157.323 L 179.565 157.173 L 179.415 157.023 L 179.265 156.883 L 179.115 156.733 L 178.965 156.583 L 178.805 156.433 L 178.645 156.273 L 178.485 156.123 L 178.315 155.973 L 178.145 155.823 L 177.975 155.673 L 177.795 155.523 L 177.615 155.373 L 177.435 155.213 L 177.245 155.063 L 177.065 154.913 L 176.865 154.763 L 176.675 154.613 L 176.475 154.463 L 176.275 154.313 L 176.075 154.153 L 175.875 154.003 L 175.665 153.843 L 175.465 153.693 L 175.255 153.533 L 175.045 153.373 L 174.835 153.203 L 174.625 153.043 L 174.405 152.873 L 174.195 152.703 L 173.985 152.533 L 173.775 152.353 L 173.565 152.183 L 173.355 152.003 L 173.155 151.813 L 172.945 151.633 L 172.745 151.443 L 172.545 151.253 L 172.345 151.063 L 172.155 150.873 L 171.965 150.673 L 171.775 150.473 L 171.585 150.273 L 171.395 150.063 L 171.215 149.853 L 171.035 149.643 L 170.855 149.433 L 170.685 149.213 L 170.515 148.993 L 170.355 148.763 L 170.185 148.543 L 170.035 148.313 L 169.875 148.073 L 169.735 147.843 L 169.585 147.603 L 169.445 147.353 L 169.305 147.113 L 169.175 146.863 L 169.045 146.613 L 168.925 146.363 L 168.805 146.113 L 168.695 145.853 L 168.585 145.603 L 168.475 145.343 L 168.375 145.073 L 168.285 144.813 L 168.195 144.553 L 168.105 144.283 L 168.025 144.013 L 167.945 143.743 L 167.875 143.473 L 167.805 143.203 L 167.735 142.923 L 167.675 142.653 L 167.615 142.373 L 167.555 142.093 L 167.495 141.823 L 167.445 141.533 L 167.385 141.253 L 167.335 140.973 L 167.285 140.683 L 167.235 140.403 L 167.185 140.113 L 167.135 139.823 L 167.085 139.533 L 167.035 139.233 L 166.995 138.943 L 166.955 138.643 L 166.915 138.343 L 166.875 138.043 L 166.835 137.743 L 166.795 137.433 L 166.765 137.123 L 166.735 136.813 L 166.695 136.503 L 166.665 136.193 L 166.635 135.873 L 166.605 135.553 L 166.575 135.243 L 166.545 134.913 L 166.515 134.593 L 166.495 134.273 L 166.465 133.943 L 166.445 133.613 L 166.425 133.283 L 166.405 132.953 L 166.385 132.623 L 166.365 132.293 L 166.355 131.953 L 166.345 131.613 L 166.325 131.283 V 130.943 L 166.315 130.603 V 130.273 L 166.305 129.943 V 129.613 L 166.315 129.283 V 128.953 L 166.325 128.623 V 128.303 L 166.345 127.983 L 166.355 127.663 L 166.375 127.343 L 166.395 127.033 L 166.415 126.713 L 166.435 126.413 L 166.465 126.103 L 166.495 125.793 L 166.525 125.493 L 166.565 125.193 L 166.595 124.893 L 166.635 124.593 L 166.685 124.293 L 166.725 124.003 L 166.775 123.703 L 166.835 123.413 L 166.885 123.123 L 166.955 122.833 L 167.025 122.543 L 167.095 122.263 L 167.175 121.973 L 167.255 121.693 L 167.345 121.413 L 167.435 121.123 L 167.535 120.843 L 167.635 120.563 L 167.735 120.283 L 167.845 120.013 L 167.965 119.733 L 168.085 119.453 L 168.205 119.183 L 168.335 118.913 L 168.475 118.643 L 168.605 118.373 L 168.755 118.103 L 168.905 117.833 L 169.065 117.573 L 169.225 117.313 L 169.395 117.053 L 169.565 116.803 L 169.735 116.543 L 169.925 116.293 L 170.105 116.043 L 170.295 115.803 L 170.495 115.553 L 170.695 115.313 L 170.905 115.073 L 171.115 114.843 L 171.325 114.603 L 171.545 114.373 L 171.765 114.143 L 171.985 113.913 L 172.215 113.683 L 172.445 113.453 L 172.685 113.233 L 172.925 113.013 L 173.165 112.793 L 173.405 112.573 L 173.655 112.363 L 173.915 112.143 L 174.165 111.933 L 174.425 111.723 L 174.685 111.523 L 174.945 111.313 L 175.215 111.113 L 175.485 110.903 L 175.755 110.703 L 176.025 110.493 L 176.295 110.293 L 176.565 110.083 L 176.835 109.883 L 177.105 109.673 L 177.385 109.463 L 177.655 109.243 L 177.925 109.033 L 178.195 108.813 L 178.465 108.583 L 178.735 108.363 L 178.995 108.123 L 179.255 107.893 L 179.525 107.653 L 179.775 107.403 L 180.035 107.163 L 180.295 106.913 L 180.555 106.653 L 180.805 106.403 L 181.065 106.143 L 181.315 105.883 L 181.565 105.613 L 181.825 105.353 L 182.075 105.083 L 182.325 104.803 L 182.565 104.533 L 182.815 104.253 L 183.055 103.973 L 183.295 103.693 L 183.535 103.413 L 183.775 103.123 L 184.015 102.833 L 184.255 102.533 L 184.485 102.243 L 184.715 101.943 L 184.945 101.643 L 185.175 101.333 L 185.405 101.033 L 185.625 100.723 L 185.855 100.403 L 186.075 100.093 L 186.295 99.773 L 186.515 99.453 L 186.735 99.133 L 186.955 98.813 L 187.175 98.483 L 187.395 98.163 L 187.615 97.833 L 187.825 97.503 L 188.045 97.163 L 188.265 96.833 L 188.475 96.493 L 188.695 96.153 L 188.905 95.813 L 189.125 95.473 L 189.335 95.133 L 189.555 94.783 L 189.765 94.443 L 189.975 94.093 L 190.185 93.743 L 190.395 93.393 L 190.605 93.033 L 190.805 92.683 L 190.995 92.323 L 191.195 91.963 L 191.385 91.603 L 191.565 91.243 L 191.755 90.873 L 191.935 90.513 L 192.105 90.143 L 192.285 89.773 L 192.455 89.403 L 192.625 89.033 L 192.785 88.663 L 192.945 88.283 L 193.105 87.913 L 193.255 87.533 L 193.395 87.153 L 193.535 86.773 L 193.675 86.393 L 193.815 86.013 L 193.945 85.623 L 194.065 85.243 L 194.195 84.853 L 194.315 84.463 L 194.435 84.083 L 194.555 83.693 L 194.675 83.303 L 194.785 82.913 L 194.905 82.513 L 195.015 82.123 L 195.125 81.733 L 195.235 81.343 L 195.345 80.943 L 195.455 80.553 L 195.555 80.153 L 195.665 79.763 L 195.765 79.363 L 195.875 78.973 L 195.975 78.573 L 196.065 78.173 L 196.165 77.783 L 196.255 77.383 L 196.335 76.983 L 196.415 76.593 L 196.495 76.203 L 196.565 75.813 L 196.625 75.423 L 196.685 75.033 L 196.735 74.653 L 196.785 74.273 L 196.815 73.893 L 196.845 73.513 L 196.865 73.143 L 196.875 72.763 V 72.393 V 72.033 L 196.865 71.663 L 196.845 71.303 L 196.815 70.943 L 196.785 70.583 L 196.755 70.223 L 196.715 69.863 L 196.665 69.513 L 196.615 69.163 L 196.565 68.803 L 196.515 68.453 L 196.455 68.103 L 196.395 67.753 L 196.325 67.403 L 196.255 67.053 L 196.175 66.713 L 196.095 66.363 L 196.005 66.023 L 195.915 65.683 L 195.815 65.343 L 195.705 65.013 L 195.595 64.673 L 195.485 64.343 L 195.365 64.013 L 195.235 63.683 L 195.105 63.363 L 194.975 63.043 L 194.825 62.713 L 194.685 62.403 L 194.535 62.083 L 194.375 61.773 L 194.215 61.463 L 194.055 61.153 L 193.885 60.843 L 193.715 60.543 L 193.535 60.233 L 193.355 59.933 L 193.185 59.633 L 192.995 59.333 L 192.815 59.023 L 192.625 58.723 L 192.445 58.423 L 192.245 58.123 L 192.055 57.823 L 191.865 57.523 L 191.665 57.223 L 191.465 56.923 L 191.265 56.623 L 191.055 56.323 L 190.845 56.023 L 190.635 55.723 L 190.415 55.433 L 190.195 55.133 L 189.975 54.843 L 189.745 54.553 L 189.515 54.263 L 189.285 53.973 L 189.045 53.683 L 188.805 53.393 L 188.555 53.103 L 188.315 52.813 L 188.065 52.533 L 187.805 52.243 L 187.545 51.963 L 187.285 51.683 L 187.025 51.403 L 186.755 51.123 L 186.495 50.843 L 186.215 50.563 L 185.945 50.283 L 185.675 50.013 L 185.395 49.733 L 185.115 49.453 L 184.845 49.173 L 184.565 48.883 L 184.285 48.603 L 184.005 48.323 L 183.725 48.033 L 183.435 47.753 L 183.155 47.463 L 182.875 47.173 L 182.595 46.883 L 182.305 46.593 L 182.025 46.303 L 181.745 46.003 L 181.455 45.713 L 181.175 45.423 L 180.895 45.123 L 180.615 44.823 L 180.335 44.533 L 180.055 44.233 L 179.775 43.933 L 179.495 43.643 L 179.215 43.343 L 178.935 43.043 L 178.655 42.743 L 178.375 42.443 L 178.095 42.143 L 177.815 41.853 L 177.535 41.553 L 177.255 41.253 L 176.975 40.963 L 176.695 40.663 L 176.425 40.373 L 176.145 40.083 L 175.865 39.793 L 175.585 39.513 L 175.315 39.223 L 175.025 38.943 L 174.745 38.663 L 174.465 38.383 L 174.185 38.113 L 173.895 37.843 L 173.615 37.573 L 173.325 37.303 L 173.045 37.043 L 172.755 36.793 L 172.465 36.543 L 172.175 36.303 L 171.885 36.073 L 171.585 35.843 L 171.285 35.623 L 170.995 35.413 L 170.685 35.203 L 170.385 35.003 L 170.085 34.813 L 169.785 34.613 L 169.475 34.433 L 169.175 34.243 L 168.875 34.063 L 168.575 33.883 L 168.275 33.703 L 167.975 33.533 L 167.675 33.363 L 167.375 33.193 L 167.065 33.033 L 166.765 32.873 L 166.465 32.723 L 166.155 32.573 L 165.855 32.433 L 165.545 32.293 L 165.235 32.163 L 164.925 32.043 L 164.615 31.923 L 164.305 31.813 L 163.995 31.703 L 163.675 31.603 L 163.355 31.503 L 163.045 31.413 L 162.725 31.323 L 162.405 31.233 L 162.075 31.143 L 161.755 31.063 L 161.435 30.993 L 161.105 30.913 L 160.785 30.853 L 160.455 30.783 L 160.125 30.733 L 159.795 30.673 L 159.465 30.623 L 159.135 30.583 L 158.805 30.543 L 158.465 30.513 L 158.135 30.483 L 157.795 30.463 L 157.465 30.443 L 157.125 30.433 L 156.785 30.423 H 156.445 H 156.105 L 155.765 30.433 L 155.425 30.443 L 155.085 30.453 L 154.735 30.473 L 154.395 30.503 L 154.045 30.523 L 153.695 30.553 L 153.345 30.583 L 152.995 30.613 L 152.645 30.653 L 152.295 30.693 L 151.935 30.733 L 151.585 30.783 L 151.225 30.833 L 150.875 30.883 L 150.515 30.933 L 150.155 30.993 L 149.795 31.053 L 149.435 31.113 L 149.065 31.173 L 148.705 31.233 L 148.335 31.303 L 147.975 31.373 L 147.605 31.433 L 147.235 31.503 L 146.865 31.573 L 146.495 31.653 L 146.115 31.723 L 145.745 31.803 L 145.365 31.883 L 144.995 31.963 L 144.615 32.043 L 144.235 32.133 L 143.855 32.223 L 143.475 32.313 L 143.095 32.413 L 142.715 32.513 L 142.335 32.613 L 141.955 32.713 L 141.575 32.823 L 141.185 32.933 L 140.805 33.043 L 140.415 33.153 L 140.035 33.273 L 139.645 33.393 L 139.255 33.503 L 138.865 33.623 L 138.475 33.733 L 138.085 33.853 L 137.685 33.973 L 137.285 34.083 L 136.895 34.193 L 136.495 34.313 L 136.085 34.423 L 135.685 34.533 L 135.285 34.643 L 134.875 34.753 L 134.465 34.863 L 134.055 34.963 L 133.645 35.073 L 133.235 35.173 L 132.815 35.273 L 132.405 35.373 L 131.985 35.473 L 131.565 35.563 L 131.145 35.663 L 130.725 35.753 L 130.295 35.833 L 129.865 35.923 L 129.445 36.003 L 129.015 36.093 L 128.585 36.173 L 128.155 36.243 L 127.725 36.323 L 127.295 36.393 L 126.865 36.463 L 126.435 36.533 L 126.015 36.593 L 125.595 36.663 L 125.175 36.723 L 124.755 36.773 L 124.345 36.833 L 123.935 36.883 L 123.525 36.933 L 123.125 36.983 L 122.715 37.033 L 122.315 37.083 L 121.915 37.133 L 121.515 37.173 L 121.125 37.213 L 120.735 37.253 L 120.355 37.293 L 119.965 37.333 L 119.585 37.363 L 119.205 37.393 L 118.825 37.413 L 118.445 37.443 L 118.075 37.453 L 117.695 37.473 L 117.325 37.483 L 116.955 37.493 H 116.595 L 116.225 37.483 L 115.865 37.473 L 115.505 37.463 L 115.155 37.433 L 114.795 37.403 L 114.455 37.363 L 114.105 37.323 L 113.765 37.273 L 113.425 37.213 L 113.095 37.153 L 112.765 37.093 L 112.445 37.033 L 112.115 36.963 L 111.795 36.903 L 111.475 36.833 L 111.165 36.773 L 110.855 36.713 L 110.545 36.653 L 110.235 36.593 L 109.925 36.533 L 109.625 36.483 L 109.325 36.423 L 109.025 36.373 L 108.735 36.313 L 108.435 36.263 L 108.145 36.213 L 107.855 36.163 L 107.565 36.113 L 107.275 36.063 L 106.995 36.023 L 106.705 35.983 L 106.415 35.943 L 106.135 35.913 L 105.845 35.873 L 105.555 35.843 L 105.265 35.803 L 104.975 35.773 L 104.685 35.743 L 104.405 35.723 L 104.115 35.703 L 103.825 35.683 L 103.535 35.673 H 103.245 H 102.955 H 102.665 L 102.375 35.683 L 102.085 35.693 L 101.795 35.713 L 101.515 35.733 L 101.225 35.763 L 100.935 35.803 L 100.655 35.843 L 100.375 35.883 L 100.085 35.943 L 99.805 35.993 L 99.525 36.053 L 99.245 36.123 L 98.965 36.183 L 98.695 36.253 L 98.415 36.323 L 98.145 36.393 L 97.875 36.463 L 97.605 36.533 L 97.345 36.593 L 97.075 36.663 L 96.805 36.723 L 96.545 36.783 L 96.285 36.833 L 96.025 36.883 L 95.765 36.923 L 95.495 36.963 L 95.235 36.993 L 94.985 37.013 L 94.725 37.033 L 94.465 37.043 H 94.215 H 93.955 L 93.705 37.033 L 93.455 37.013 L 93.215 36.993 L 92.975 36.963 L 92.735 36.933 L 92.495 36.883 L 92.265 36.843 L 92.035 36.783 L 91.805 36.733 L 91.585 36.663 L 91.365 36.603 L 91.155 36.523 L 90.945 36.443 L 90.735 36.363 L 90.535 36.273 L 90.335 36.183 L 90.135 36.083 L 89.945 35.973 L 89.755 35.863 L 89.565 35.753 L 89.385 35.633 L 89.205 35.503 L 89.035 35.373 L 88.865 35.243 L 88.695 35.103 L 88.525 34.963 L 88.365 34.813 L 88.205 34.673 L 88.055 34.513 L 87.905 34.363 L 87.765 34.203 L 87.625 34.043 L 87.485 33.883 L 87.355 33.723 L 87.235 33.5531 L 87.115 33.393 L 86.995 33.223 L 86.875 33.063 L 86.765 32.893 L 86.665 32.733 L 86.555 32.573 L 86.455 32.4131 L 86.345 32.263 L 86.245 32.113 L 86.135 31.963 L 86.035 31.813 L 85.925 31.673 L 85.815 31.533 L 85.705 31.403 L 85.595 31.2731 L 85.485 31.143 L 85.365 31.0231 L 85.245 30.9131 L 85.125 30.8031 L 85.005 30.703 L 84.735 30.523 L 84.465 30.373 L 84.185 30.233 L 83.895 30.133 L 83.595 30.043 L 83.295 29.993 L 82.985 29.963 L 82.665 29.953 H 82.345 L 82.195 29.963 L 82.035 29.973 L 81.875 29.983 L 81.715 30.003 L 81.545 30.013 L 81.385 30.033 L 81.225 30.043 L 81.055 30.063 L 80.885 30.073 L 80.715 30.093 L 80.545 30.103 L 80.375 30.113 L 80.195 30.123 L 80.025 30.133 L 79.845 30.143 H 79.665 H 79.475 H 79.295 H 79.105 L 78.915 30.133 L 78.725 30.123 L 78.525 30.113 L 78.325 30.093 L 78.125 30.073 L 77.925 30.053 L 77.715 30.033 L 77.515 30.003 L 77.305 29.963 L 77.085 29.923 L 76.875 29.883 L 76.655 29.833 L 76.435 29.783 L 76.215 29.733 L 75.995 29.673 L 75.775 29.603 L 75.555 29.533 L 75.335 29.463 L 75.105 29.383 L 74.885 29.303 L 74.665 29.213 L 74.435 29.123 L 74.215 29.023 L 73.995 28.923 L 73.775 28.813 L 73.555 28.703 L 73.325 28.583 L 73.105 28.463 L 72.885 28.343 L 72.665 28.213 L 72.435 28.083 L 72.215 27.943 L 71.995 27.803 L 71.775 27.663 L 71.555 27.523 L 71.325 27.373 L 71.105 27.223 L 70.885 27.063 L 70.665 26.903 L 70.435 26.753 L 70.215 26.593 L 69.985 26.433 L 69.755 26.263 L 69.525 26.103 L 69.295 25.943 L 69.065 25.783 L 68.825 25.613 L 68.595 25.453 L 68.355 25.293 L 68.115 25.123 L 67.865 24.963 L 67.625 24.803 L 67.375 24.643 L 67.125 24.483 L 66.865 24.333 L 66.605 24.173 L 66.345 24.023 L 66.085 23.873 L 65.815 23.723 L 65.545 23.583 L 65.275 23.433 L 64.995 23.293 L 64.715 23.153 L 64.435 23.013 L 64.145 22.883 L 63.865 22.743 L 63.565 22.613 L 63.275 22.483 L 62.975 22.363 L 62.675 22.233 L 62.375 22.113 L 62.075 21.983 L 61.765 21.863 L 61.455 21.753 L 61.145 21.633 L 60.825 21.513 L 60.515 21.403 L 60.195 21.293 L 59.875 21.183 L 59.545 21.083 L 59.225 20.973 L 58.895 20.873 L 58.565 20.773 L 58.225 20.683 L 57.895 20.583 L 57.565 20.493 L 57.225 20.403 L 56.885 20.303 L 56.555 20.213 L 56.215 20.123 L 55.885 20.023 L 55.545 19.923 L 55.205 19.833 L 54.875 19.723 L 54.535 19.623 L 54.205 19.513 L 53.875 19.403 L 53.545 19.293 L 53.215 19.173 L 52.895 19.053 L 52.575 18.933 L 52.255 18.803 L 51.945 18.673 L 51.635 18.533 L 51.335 18.393 L 51.035 18.253 L 50.745 18.103 L 50.455 17.943 L 50.175 17.783 L 49.895 17.623 L 49.625 17.453 L 49.365 17.283 L 49.095 17.103 L 48.845 16.933 L 48.585 16.743 L 48.335 16.563 L 48.085 16.373 L 47.845 16.183 L 47.605 15.993 L 47.365 15.803 L 47.135 15.603 L 46.905 15.403 L 46.675 15.203 L 46.455 15.003 L 46.235 14.793 L 46.025 14.593 L 45.815 14.383 L 45.605 14.173 L 45.405 13.953 L 45.205 13.743 L 45.005 13.523 L 44.815 13.313 L 44.625 13.093 L 44.445 12.873 L 44.265 12.653 L 44.085 12.433 L 43.915 12.213 L 43.745 11.993 L 43.575 11.773 L 43.415 11.553 L 43.255 11.333 L 43.105 11.113 L 42.955 10.893 L 42.815 10.673 L 42.675 10.453 L 42.535 10.233 L 42.405 10.023 L 42.275 9.803 L 42.155 9.593 L 42.025 9.393 L 41.905 9.183 L 41.785 8.983 L 41.655 8.793 L 41.525 8.603 L 41.395 8.413 L 41.265 8.223 L 41.135 8.043 L 40.995 7.863 L 40.855 7.693 L 40.705 7.523 L 40.555 7.343 L 40.405 7.183 L 40.255 7.013 L 40.105 6.853 L 39.945 6.693 L 39.785 6.543 L 39.615 6.393 L 39.455 6.243 L 39.285 6.103 L 39.115 5.963 L 38.945 5.823 L 38.775 5.693 L 38.605 5.573 L 38.425 5.453 L 38.255 5.333 L 38.085 5.223 L 37.915 5.113 L 37.745 5.013 L 37.565 4.913 L 37.395 4.813 L 37.225 4.723 L 37.055 4.633 L 36.885 4.553 L 36.705 4.473 L 36.535 4.403 L 36.355 4.333 L 36.185 4.263 L 36.005 4.203 L 35.825 4.143 L 35.645 4.093 L 35.465 4.053 L 35.285 4.013 L 35.105 3.983 L 34.915 3.953 L 34.735 3.933 L 34.545 3.923 L 34.365 3.913 H 34.175 H 33.985 L 33.805 3.933 L 33.615 3.943 L 33.425 3.973 L 33.235 4.003 L 33.055 4.043 L 32.865 4.083 L 32.675 4.133 L 32.495 4.193 L 32.315 4.253 L 32.125 4.323 L 31.945 4.403 L 31.775 4.483 L 31.595 4.573 L 31.425 4.663 L 31.255 4.763 L 31.095 4.873 L 30.925 4.983 L 30.775 5.103 L 30.625 5.223 L 30.475 5.353 L 30.335 5.483 L 30.195 5.613 L 30.065 5.753 L 29.935 5.903 L 29.815 6.053 L 29.695 6.203 L 29.585 6.363 L 29.475 6.523 L 29.365 6.693 L 29.265 6.863 L 29.165 7.033 L 29.075 7.203 L 28.975 7.3829 L 28.885 7.563 L 28.795 7.743 L 28.705 7.933 L 28.615 8.123 L 28.515 8.313 L 28.425 8.503 L 28.335 8.703 L 28.245 8.903 L 28.155 9.1029 L 28.065 9.303 L 27.965 9.513 L 27.875 9.723 L 27.785 9.943 L 27.685 10.163 L 27.595 10.3829 L 27.495 10.6029 L 27.395 10.8229 L 27.295 11.053 L 27.195 11.283 L 27.0849 11.523 L 26.9849 11.753 L 26.8749 11.9929 L 26.7649 12.2429 L 26.6549 12.483 L 26.5449 12.733 L 26.4349 12.983 L 26.3249 13.233 L 26.2049 13.483 L 26.0949 13.7429 L 25.9749 13.9929 L 25.8549 14.253 L 25.7349 14.513 L 25.6149 14.773 L 25.4949 15.043 L 25.3749 15.313 L 25.2549 15.583 L 25.1249 15.8529 L 25.0049 16.123 L 24.8849 16.403 L 24.7549 16.683 L 24.6349 16.973 L 24.5149 17.253 L 24.3949 17.543 L 24.2749 17.833 L 24.1449 18.1329 L 24.0249 18.423 L 23.9049 18.723 L 23.7749 19.023 L 23.6549 19.333 L 23.5349 19.6329 L 23.4049 19.943 L 23.2749 20.253 L 23.1549 20.5729 L 23.0249 20.8829 L 22.9049 21.203 L 22.7749 21.523 L 22.6449 21.8529 L 22.5249 22.173 L 22.3949 22.503 L 22.2749 22.833 L 22.1449 23.163 L 22.0249 23.503 L 21.9049 23.843 L 21.7749 24.183 L 21.6549 24.523 L 21.5249 24.863 L 21.4049 25.213 L 21.2849 25.563 L 21.1649 25.913 L 21.0449 26.263 L 20.9249 26.613 L 20.8149 26.973 L 20.6949 27.333 L 20.5849 27.693 L 20.4749 28.053 L 20.3649 28.423 L 20.2549 28.793 L 20.1549 29.163 L 20.0449 29.533 L 19.9449 29.913 L 19.8449 30.293 L 19.7549 30.673 L 19.6549 31.063 L 19.5649 31.443 L 19.4749 31.833 L 19.3949 32.223 L 19.3049 32.623 L 19.2249 33.013 L 19.1449 33.413 L 19.0649 33.813 L 18.9949 34.223 L 18.9249 34.623 L 18.8549 35.033 L 18.7949 35.443 L 18.7349 35.8529 L 18.6749 36.273 L 18.6249 36.683 L 18.5649 37.1029 L 18.5149 37.523 L 18.4749 37.943 L 18.4249 38.373 L 18.3849 38.793 L 18.3449 39.223 L 18.3049 39.653 L 18.2749 40.083 L 18.2349 40.523 L 18.2049 40.953 L 18.1649 41.393 L 18.1349 41.833 L 18.1049 42.273 L 18.0749 42.7129 L 18.0449 43.153 L 18.0149 43.6029 L 17.9949 44.053 L 17.9649 44.4929 L 17.9349 44.943 L 17.9049 45.393 L 17.8849 45.843 L 17.8549 46.293 L 17.8349 46.7429 L 17.8049 47.203 L 17.7749 47.653 L 17.7549 48.113 L 17.7349 48.5729 L 17.7049 49.033 L 17.6849 49.4929 L 17.6649 49.953 L 17.6449 50.413 L 17.6149 50.8829 L 17.5949 51.343 L 17.5849 51.813 L 17.5649 52.283 L 17.5449 52.753 L 17.5249 53.223 L 17.5149 53.693 L 17.5049 54.173 L 17.4849 54.643 L 17.4749 55.123 L 17.4649 55.6029 L 17.4549 56.083 L 17.4449 56.563 V 57.043 L 17.4349 57.523 L 17.4249 58.013 V 58.4929 L 17.4149 58.983 L 17.4049 59.473 V 59.9629 L 17.3949 60.453 V 60.943 L 17.3849 61.433 L 17.3749 61.933 V 62.423 L 17.3649 62.923 L 17.3549 63.423 V 63.923 L 17.3449 64.413 V 64.923 V 65.423 L 17.3349 65.923 V 66.433 V 66.933 V 67.443 L 17.3249 67.943 V 68.453 V 68.9629 V 69.473 V 69.983 L 17.3149 70.503 V 71.013 V 71.523 V 72.043 V 72.563 V 73.0729 L 17.3049 73.593 V 74.113 V 74.6329 V 75.153 V 75.673 L 17.2949 76.193 V 76.723 V 77.243 V 77.773 L 17.2849 78.293 V 78.823 L 17.2749 79.353 V 79.873 L 17.2649 80.403 L 17.2549 80.933 V 81.463 L 17.2449 81.993 L 17.2349 82.533 V 83.063 L 17.2249 83.593 L 17.2149 84.133 V 84.663 L 17.2049 85.203 V 85.743 L 17.1949 86.273 V 86.813 L 17.1849 87.3529 L 17.1749 87.893 V 88.423 L 17.1649 88.9629 V 89.503 L 17.1549 90.043 V 90.583 L 17.1449 91.123 V 91.663 V 92.2129 L 17.1349 92.753 V 93.293 V 93.843 L 17.1249 94.3829 V 94.933 V 95.473 V 96.023 V 96.5729 L 17.1349 97.123 V 97.663 V 98.2129 L 17.1449 98.763 V 99.313 L 17.1549 99.863 V 100.413 L 17.1649 100.9629 L 17.1749 101.523 V 102.0729 L 17.1849 102.623 V 103.173 L 17.1949 103.733 L 17.2049 104.283 V 104.843 L 17.2149 105.393 V 105.953 L 17.2249 106.503 L 17.2349 107.063 V 107.623 L 17.2449 108.173 V 108.733 L 17.2549 109.293 V 109.8529 L 17.2649 110.413 V 110.973 L 17.2749 111.533 V 112.093 V 112.653 L 17.2849 113.2129 V 113.773 V 114.333 V 114.893 V 115.453 V 116.013 L 17.2949 116.583 V 117.143 V 117.703 V 118.263 L 17.2849 118.833 V 119.393 V 119.953 V 120.523 L 17.2749 121.083 V 121.643 L 17.2649 122.2129 L 17.2549 122.773 V 123.333 L 17.2449 123.903 L 17.2349 124.4629 V 125.033 L 17.2249 125.593 L 17.2149 126.153 V 126.723 L 17.2049 127.283 L 17.1949 127.8529 V 128.413 L 17.1849 128.983 L 17.1749 129.543 V 130.113 L 17.1649 130.673 L 17.1549 131.243 V 131.803 L 17.1449 132.373 L 17.1349 132.933 V 133.5029 L 17.1249 134.073 L 17.1149 134.633 V 135.203 L 17.1049 135.773 L 17.0949 136.333 V 136.903 L 17.0849 137.473 L 17.0749 138.043 V 138.603 L 17.0649 139.173 V 139.743 L 17.0549 140.313 L 17.0449 140.883 V 141.453 L 17.0349 142.023 L 17.0249 142.593 V 143.163 L 17.0149 143.733 V 144.303 L 17.0049 144.873 L 16.9949 145.443 V 146.023 L 16.9849 146.593 L 16.9749 147.163 V 147.743 L 16.9649 148.313 L 16.9549 148.883 V 149.463 L 16.9449 150.033 V 150.613 L 16.9349 151.183 L 16.9249 151.763 V 152.343 L 16.9149 152.913 L 16.9049 153.493 V 154.073 L 16.8949 154.643 V 155.223 L 16.8849 155.803 V 156.383 V 156.963 L 16.8749 157.543 V 158.123 V 158.703 V 159.283 L 16.8649 159.863 V 160.453 V 161.033 V 161.613 V 162.193 V 162.783 V 163.363 V 163.953 V 164.533 V 165.123 V 165.703 V 166.293 V 166.883 V 167.463 V 168.053 V 168.643 V 169.233 V 169.823 V 170.403 V 170.993 V 171.583 V 172.173 V 172.763 V 173.363 V 173.953 V 174.543 V 175.133 V 175.7229 L 16.8749 176.323 V 176.9129 V 177.5029 V 178.1029 V 178.6929 V 179.293 V 179.8829 L 16.8849 180.483 V 181.083 V 181.673 V 182.273 V 182.873 V 183.463 V 184.0629 V 184.6629 L 16.8949 185.263 V 185.863 V 186.463 V 187.063 V 187.663 V 188.263 V 188.863 V 189.463 V 190.063 L 16.8849 190.673 V 191.273 L 16.8749 191.873 V 192.483 L 16.8649 193.083 V 193.683 L 16.8549 194.293 V 194.893 L 16.8449 195.493 V 196.103 L 16.8349 196.693 V 197.293 V 197.883 V 198.463 L 16.8249 199.043 V 199.613 V 200.183 V 200.743 L 16.8149 201.303 V 201.863 V 202.413 V 202.963 L 16.8049 203.503 V 204.053 L 16.7949 204.593 L 16.7849 205.133 L 16.7749 205.683 L 16.7549 206.223 L 16.7449 206.763 L 16.7149 207.303 L 16.6949 207.843 L 16.6549 208.373 L 16.6249 208.913 L 16.5849 209.453 L 16.5449 209.983 L 16.4949 210.523 L 16.4449 211.053 L 16.3949 211.593 L 16.3249 212.123 L 16.2649 212.653 L 16.1849 213.183 L 16.1049 213.713 L 16.0249 214.233 L 15.9349 214.763 L 15.8349 215.283 L 15.7349 215.813 L 15.6249 216.333 L 15.5149 216.853 L 15.3949 217.373 L 15.2749 217.903 L 15.1549 218.423 L 15.0249 218.943 L 14.8949 219.463 L 14.7649 219.983 L 14.6349 220.503 L 14.5049 221.023 L 14.3749 221.543 L 14.2449 222.063 L 14.1049 222.593 L 13.9649 223.113 L 13.8349 223.633 L 13.6849 224.153 L 13.5449 224.683 L 13.3949 225.203 L 13.2449 225.7229 L 13.0949 226.243 L 12.9449 226.763 L 12.7849 227.2829 L 12.6149 227.803 L 12.4549 228.323 L 12.2949 228.843 L 12.1249 229.363 L 11.9549 229.883 L 11.7849 230.403 L 11.6149 230.923 L 11.4449 231.443 L 11.2749 231.963 L 11.0949 232.483 L 10.9249 233.013 L 10.7449 233.5329 L 10.5649 234.053 L 10.3849 234.573 L 10.1949 235.093 L 10.0149 235.613 L 9.8249 236.133 L 9.6449 236.643 L 9.4549 237.163 L 9.2649 237.673 L 9.0749 238.173 L 8.8849 238.683 L 8.7049 239.173 L 8.5149 239.673 L 8.3349 240.153 L 8.1449 240.643 L 7.9649 241.113 L 7.7849 241.593 L 7.6049 242.053 L 7.4249 242.513 L 7.2549 242.973 L 7.0849 243.423 L 6.9149 243.863 L 6.7549 244.303 L 6.5949 244.733 L 6.4449 245.1629 L 6.3049 245.583 L 6.1649 246.0029 L 6.0249 246.4129 L 5.8949 246.8129 L 5.7649 247.213 L 5.6349 247.6029 L 5.5149 247.993 L 5.3849 248.373 L 5.2649 248.743 L 5.1449 249.1029 L 5.0349 249.463 L 4.9149 249.8129 L 4.8049 250.1629 L 4.7049 250.5029 L 4.5949 250.843 L 4.5049 251.173 L 4.4049 251.5029 L 4.3149 251.823 L 4.2349 252.143 L 4.1549 252.453 L 4.0849 252.763 L 4.0149 253.073 L 3.9549 253.373 L 3.9049 253.673 L 3.8549 253.9729 L 3.8149 254.263 L 3.7849 254.553 L 3.7549 254.843 L 3.7249 255.123 L 3.7149 255.403 L 3.6949 255.683 V 255.953 V 256.2229 V 256.493 L 3.7149 256.763 L 3.7349 257.023 L 3.7649 257.293 L 3.7949 257.543 L 3.8349 257.803 L 3.8849 258.053 L 3.9449 258.293 L 4.0049 258.543 L 4.0749 258.7829 L 4.1549 259.013 L 4.2449 259.243 L 4.3349 259.4729 L 4.4249 259.6929 L 4.5249 259.923 L 4.6249 260.143 L 4.7249 260.363 L 4.8249 260.583 L 4.9349 260.793 L 5.0549 261.0029 L 5.1749 261.213 L 5.3049 261.4129 L 5.4349 261.613 L 5.5649 261.803 L 5.7049 261.993 L 5.8449 262.183 L 5.9949 262.373 L 6.1449 262.553 L 6.2949 262.733 L 6.4549 262.903 L 6.6249 263.083 L 6.7849 263.2529 L 6.9549 263.423 L 7.1249 263.583 L 7.3049 263.7529 L 7.4849 263.9129 L 7.6649 264.083 L 7.8549 264.243 L 8.0449 264.403 L 8.2349 264.5629 L 8.4249 264.7229 L 8.6249 264.8829 L 8.8249 265.043 L 9.0249 265.213 L 9.2249 265.373 L 9.4249 265.543 L 9.6249 265.713 L 9.8249 265.8829 L 10.0349 266.063 L 10.2349 266.243 L 10.4349 266.423 L 10.6349 266.6029 L 10.8349 266.793 L 11.0349 266.993 L 11.2349 267.1929 L 11.4249 267.393 L 11.6149 267.6029 L 11.8049 267.8129 L 11.9949 268.023 L 12.1849 268.243 L 12.3649 268.4729 L 12.5549 268.703 L 12.7349 268.933 L 12.9049 269.173 L 13.0749 269.4129 L 13.2449 269.6629 L 13.4049 269.9129 L 13.5749 270.173 L 13.7249 270.433 L 13.8749 270.6929 L 14.0249 270.963 L 14.1749 271.243 L 14.3149 271.513 L 14.4449 271.803 L 14.5749 272.083 L 14.7049 272.373 L 14.8349 272.6629 L 14.9549 272.963 L 15.0749 273.263 L 15.1949 273.5629 L 15.3149 273.863 L 15.4249 274.173 L 15.5449 274.483 L 15.6549 274.793 L 15.7649 275.1029 L 15.8649 275.423 L 15.9749 275.743 L 16.0749 276.073 L 16.1649 276.393 L 16.2649 276.7229 L 16.3549 277.053 L 16.4449 277.393 L 16.5249 277.733 L 16.6049 278.073 L 16.6749 278.4129 L 16.7449 278.7529 L 16.8149 279.1029 L 16.8749 279.453 L 16.9349 279.803 L 16.9849 280.1629 L 17.0349 280.513 L 17.0749 280.873 L 17.1149 281.233 L 17.1549 281.6029 L 17.1749 281.963 L 17.2049 282.323 L 17.2149 282.683 L 17.2349 283.053 L 17.2449 283.423 V 283.793 L 17.2549 284.1629 L 17.2449 284.5329 V 284.9129 L 17.2349 285.2829 L 17.2149 285.6629 L 17.2049 286.043 L 17.1849 286.423 L 17.1649 286.803 L 17.1449 287.183 L 17.1249 287.5629 L 17.1049 287.953 L 17.0849 288.343 L 17.0749 288.7229 L 17.0549 289.113 L 17.0449 289.513 L 17.0349 289.903 L 17.0249 290.293 L 17.0149 290.6929 L 17.0049 291.093 V 291.493 V 291.893 V 292.293 V 292.703 V 293.1029 V 293.513 V 293.923 V 294.333 L 17.0149 294.743 V 295.153 V 295.5629 L 17.0249 295.983 V 296.403 V 296.8129 V 297.233 L 17.0349 297.653 V 298.083 V 298.5029 V 298.923 V 299.3529 V 299.7829 V 300.213 V 300.643 V 301.073 V 301.5029 L 17.0249 301.933 V 302.373 L 17.0149 302.803 L 17.0049 303.243 V 303.683 L 16.9949 304.123 L 16.9849 304.5629 L 16.9749 305.013 L 16.9649 305.453 L 16.9549 305.893 L 16.9449 306.343 L 16.9349 306.793 L 16.9149 307.243 L 16.9049 307.6929 L 16.8949 308.143 L 16.8849 308.593 L 16.8749 309.043 L 16.8649 309.493 L 16.8549 309.953 L 16.8449 310.403 V 310.863 L 16.8349 311.313 L 16.8249 311.773 L 16.8149 312.233 V 312.6929 L 16.8049 313.153 V 313.623 L 16.7949 314.083 V 314.543 L 16.7849 315.013 V 315.483 V 315.953 V 316.423 V 316.893 V 317.363 V 317.833 V 318.313 V 318.783 V 319.263 V 319.733 V 320.213 V 320.693 V 321.173 V 321.653 L 16.7749 322.143 V 322.623 V 323.113 V 323.593 V 324.083 L 16.7649 324.573 V 325.053 V 325.543 V 326.023 L 16.7549 326.503 V 326.983 V 327.453 V 327.923 L 16.7649 328.383 V 328.843 V 329.293 V 329.733 V 330.163 L 16.7749 330.593 V 331.023 V 331.443 V 331.853 L 16.7849 332.253 V 332.653 V 333.053 V 333.443 L 16.7949 333.823 V 334.203 V 334.573 V 334.933 V 335.293 V 335.643 L 16.8049 335.993 V 336.333 V 336.663 V 336.993 V 337.323 L 16.8149 337.643 V 337.953 L 16.8249 338.263 V 338.573 L 16.8349 338.873 L 16.8449 339.173 L 16.8549 339.463 L 16.8649 339.753 L 16.8849 340.043 L 16.9049 340.323 L 16.9249 340.593 L 16.9449 340.863 L 16.9749 341.133 L 17.0049 341.393 L 17.0349 341.643 L 17.0749 341.903 L 17.1149 342.153 L 17.1549 342.393 L 17.2049 342.633 L 17.2649 342.873 L 17.3149 343.103 L 17.3749 343.323 L 17.4449 343.553 L 17.5049 343.773 L 17.5849 343.983 L 17.6549 344.193 L 17.7349 344.393 L 17.8249 344.593 L 17.9149 344.793 L 18.0049 344.983 L 18.1149 345.173 L 18.2149 345.353 L 18.3249 345.533 L 18.4449 345.713 L 18.5649 345.883 L 18.6949 346.043 L 18.8249 346.213 L 18.9649 346.363 L 19.1049 346.513 L 19.2449 346.663 L 19.3949 346.803 L 19.5549 346.943 L 19.7049 347.073 L 19.8749 347.203 L 20.0349 347.323 L 20.2049 347.443 L 20.3749 347.553 L 20.5549 347.663 L 20.7349 347.773 L 20.9149 347.873 L 21.0949 347.963 L 21.2849 348.053 L 21.4849 348.133 L 21.6749 348.213 L 21.8749 348.293 L 22.0749 348.363 L 22.2849 348.433 L 22.4849 348.493 L 22.6949 348.543 L 22.9149 348.603 L 23.1249 348.643 L 23.3449 348.683 L 23.5649 348.723 L 23.7849 348.753 L 24.0049 348.783 L 24.2349 348.813 L 24.4649 348.833 L 24.6949 348.863 L 24.9249 348.883 L 25.1649 348.913 L 25.4049 348.933 L 25.6349 348.963 L 25.8849 348.993 L 26.1249 349.023 L 26.3749 349.043 L 26.6149 349.073 L 26.8649 349.093 L 27.1249 349.113 L 27.3749 349.143 L 27.6349 349.163 L 27.8949 349.173 L 28.1549 349.193 L 28.4149 349.203 L 28.6849 349.223 L 28.9449 349.233 H 29.2149 L 29.4849 349.243 L 29.7649 349.253 H 30.0349 H 30.3149 H 30.5949 H 30.8749 L 31.1649 349.243 H 31.4449 L 31.7349 349.233 L 32.0249 349.223 L 32.3149 349.213 L 32.6149 349.203 L 32.9049 349.193 L 33.2049 349.183 L 33.5049 349.173 L 33.8049 349.163 L 34.1149 349.153 L 34.4149 349.143 L 34.7249 349.133 L 35.0349 349.123 L 35.3449 349.113 L 35.6549 349.103 H 35.9749 L 36.2949 349.093 H 36.6149 H 36.9349 L 37.2549 349.083 H 37.5749 H 37.9049 H 38.2349"
       style="fill:none;stroke:#000000;stroke-width:0.5;stroke-linecap:round;stroke-linejoin:round;stroke-miterlimit:10;stroke-dasharray:none;stroke-opacity:1" />
  </g>
</svg>
