<?xml version="1.0" encoding="UTF-8" standalone="no"?>
<!-- Created with Inkscape (http://www.inkscape.org/) -->

<svg
   inkscape:version="1.3.2 (091e20e, 2023-11-25, custom)"
   sodipodi:docname="track_brand_hatch.svg"
   xmlns:inkscape="http://www.inkscape.org/namespaces/inkscape"
   xmlns:sodipodi="http://sodipodi.sourceforge.net/DTD/sodipodi-0.dtd"
   xmlns="http://www.w3.org/2000/svg"
   xmlns:svg="http://www.w3.org/2000/svg">
  <g>
    <path
       id="track"
       d="M 306.6042 287.492 L 307.5442 287.452 L 309.4242 287.432 L 311.3242 287.392 L 313.2042 287.372 L 315.1042 287.332 L 317.0042 287.312 L 318.9242 287.272 L 320.8242 287.252 L 322.7442 287.212 L 324.6642 287.192 L 326.6042 287.152 L 328.5242 287.132 L 330.4642 287.092 L 332.4042 287.072 L 334.3442 287.032 L 336.2842 287.012 L 338.2442 286.972 L 340.2042 286.952 L 342.1642 286.912 L 344.1242 286.892 L 346.0842 286.852 L 348.0642 286.832 L 350.0442 286.792 L 352.0242 286.772 L 354.0242 286.732 L 356.0042 286.712 L 358.0042 286.672 L 360.0042 286.652 L 362.0042 286.612 L 364.0042 286.592 L 366.0242 286.572 L 368.0442 286.552 L 370.0642 286.532 L 372.0842 286.512 L 374.1242 286.492 L 376.1442 286.472 L 378.1842 286.452 L 380.2242 286.432 L 382.2842 286.412 L 384.3242 286.392 L 386.3842 286.372 L 388.4442 286.352 L 390.5042 286.332 L 392.5642 286.312 L 394.6242 286.292 L 396.7042 286.272 L 398.7842 286.252 L 400.8642 286.232 L 402.9442 286.212 L 405.0442 286.172 L 407.1242 286.152 L 409.2242 286.132 L 411.3042 286.112 L 413.3842 286.092 L 415.4642 286.072 L 417.5242 286.052 L 419.5642 286.032 L 421.6042 286.012 L 423.6242 285.992 L 425.6042 285.972 L 427.5842 285.952 L 429.5642 285.932 L 431.5042 285.912 L 433.4242 285.892 L 435.3442 285.872 L 437.2242 285.852 L 439.0842 285.812 L 440.9242 285.792 L 442.7442 285.772 L 444.5442 285.752 L 446.3242 285.732 L 448.0642 285.712 H 449.8042 L 451.5042 285.692 H 453.1842 H 454.8442 L 456.4642 285.712 L 458.0642 285.732 L 459.6442 285.752 L 461.1842 285.792 L 462.7042 285.832 L 464.2042 285.892 L 465.6642 285.952 L 467.1042 286.012 L 468.5242 286.092 L 469.9242 286.172 L 471.2842 286.272 L 472.6042 286.372 L 473.9242 286.472 L 475.2042 286.592 L 476.4642 286.732 L 477.6842 286.872 L 478.8842 287.012 L 480.0842 287.172 L 481.2242 287.352 L 482.3642 287.532 L 483.4642 287.712 L 484.5442 287.9321 L 485.6042 288.152 L 486.6242 288.372 L 487.6442 288.612 L 488.6242 288.872 L 489.5842 289.132 L 490.5242 289.412 L 491.4242 289.712 L 492.3042 290.012 L 493.1642 290.332 L 494.0042 290.652 L 494.8242 290.992 L 495.6042 291.332 L 496.3642 291.6921 L 497.1042 292.0521 L 497.8042 292.412 L 498.4842 292.792 L 499.1442 293.152 L 499.7842 293.5521 L 500.3842 293.9321 L 500.9842 294.332 L 501.5442 294.752 L 502.1042 295.1921 L 502.6242 295.632 L 503.1442 296.0721 L 504.0842 297.092 L 504.9242 298.132 L 505.7042 299.252 L 506.3842 300.412 L 506.9842 301.632 L 507.5242 302.892 L 507.7642 303.532 L 507.9842 304.1921 L 508.2042 304.852 L 508.4042 305.532 L 508.6042 306.212 L 508.7842 306.912 L 508.9442 307.612 L 509.1242 308.332 L 509.3042 309.0721 L 509.4842 309.8121 L 509.6442 310.5521 L 509.8442 311.332 L 510.0242 312.092 L 510.2042 312.892 L 510.4042 313.6921 L 510.5842 314.512 L 510.9642 315.292 L 511.3442 316.092 L 511.7242 316.892 L 512.1242 317.6921 L 512.5042 318.492 L 512.9242 319.3121 L 513.3442 320.132 L 513.7842 320.952 L 514.2242 321.772 L 514.6642 322.592 L 515.1042 323.392 L 515.5442 324.1921 L 515.9842 324.992 L 516.4242 325.792 L 516.8642 326.592 L 517.3242 327.372 L 517.7842 328.152 L 518.2442 328.912 L 518.7042 329.6721 L 519.1642 330.4321 L 519.6442 331.1721 L 520.1042 331.892 L 520.5642 332.612 L 521.0242 333.3121 L 521.4842 334.012 L 521.9242 334.6721 L 522.3642 335.332 L 522.8242 335.972 L 523.2642 336.592 L 523.7042 337.1921 L 524.1442 337.772 L 524.5642 338.3121 L 525.0042 338.852 L 525.9042 339.852 L 526.8042 340.792 L 527.7042 341.652 L 528.5842 342.472 L 529.4242 343.272 L 530.2642 344.032 L 531.0842 344.752 L 531.9242 345.4321 L 532.7642 346.0721 L 533.6442 346.712 L 534.5642 347.3121 L 535.5042 347.892 L 536.4842 348.472 L 537.5042 349.032 L 538.5642 349.5521 L 539.6642 350.0521 L 540.8042 350.532 L 541.9842 350.972 L 543.2042 351.352 L 544.4442 351.6721 L 545.7442 351.9321 L 547.0442 352.1121 L 548.4042 352.2321 L 549.7842 352.2521 L 551.1842 352.1921 L 551.9042 352.1321 L 552.6242 352.0321 L 553.3442 351.9321 L 554.0642 351.7921 L 554.8042 351.6321 L 555.5242 351.4521 L 556.2642 351.2521 L 556.9842 351.0321 L 557.7242 350.8121 L 558.4642 350.5521 L 559.2042 350.2921 L 559.9642 350.0321 L 560.7442 349.7921 L 561.5242 349.5521 L 562.3242 349.332 L 563.1442 349.112 L 563.9642 348.872 L 564.7842 348.6521 L 565.6442 348.3921 L 566.4842 348.1321 L 567.3442 347.852 L 568.2042 347.5521 L 569.0842 347.2521 L 569.9842 346.9321 L 570.8842 346.592 L 571.7842 346.2721 L 572.7042 345.9121 L 573.6442 345.5721 L 574.5842 345.232 L 575.5442 344.872 L 576.5042 344.512 L 577.4842 344.152 L 578.4642 343.792 L 579.4642 343.432 L 580.4642 343.052 L 581.4842 342.672 L 582.5042 342.312 L 583.5242 341.932 L 584.5642 341.552 L 585.6242 341.152 L 586.6842 340.772 L 587.7442 340.392 L 588.8242 339.992 L 589.9042 339.592 L 590.9842 339.1921 L 592.0842 338.792 L 593.2042 338.412 L 594.3242 338.012 L 595.4642 337.632 L 596.6042 337.252 L 597.7642 336.872 L 598.9242 336.492 L 600.1042 336.132 L 601.2842 335.752 L 602.4842 335.372 L 603.6842 334.992 L 604.9042 334.612 L 606.1242 334.252 L 607.3642 333.892 L 608.6042 333.552 L 609.8642 333.232 L 611.1442 332.932 L 612.4442 332.652 L 613.7242 332.392 L 615.0442 332.132 L 616.3442 331.912 L 617.6442 331.6921 L 618.9642 331.5321 L 620.2642 331.3921 L 621.5642 331.2721 L 622.8642 331.1921 L 624.1442 331.1321 L 625.4242 331.1121 H 626.7042 L 627.9842 331.1521 L 629.2442 331.2121 L 630.5042 331.2921 L 631.7642 331.3921 L 633.0042 331.5321 L 634.2442 331.6921 L 635.4642 331.8721 L 636.6842 332.092 L 637.9042 332.332 L 639.0842 332.592 L 640.2642 332.8721 L 641.4242 333.1721 L 642.5842 333.4921 L 643.7042 333.832 L 644.8242 334.1921 L 645.9042 334.5721 L 646.9842 334.952 L 648.0242 335.3721 L 649.0642 335.7921 L 650.0642 336.2321 L 651.0642 336.6921 L 652.0242 337.1521 L 652.9842 337.6521 L 653.9242 338.1721 L 654.8642 338.712 L 655.7642 339.2521 L 656.6642 339.832 L 657.5642 340.4321 L 658.4242 341.0521 L 659.3042 341.6721 L 660.1642 342.3121 L 661.0242 342.972 L 661.8842 343.6321 L 662.7442 344.2921 L 663.6042 344.972 L 664.4842 345.6321 L 665.3642 346.3121 L 666.2442 347.012 L 667.1242 347.6921 L 668.0042 348.392 L 668.8842 349.112 L 669.7642 349.8319 L 670.6642 350.5721 L 671.5442 351.312 L 672.4242 352.0721 L 673.3042 352.8319 L 674.1642 353.632 L 675.0442 354.432 L 675.9042 355.272 L 676.7442 356.112 L 677.5842 356.972 L 678.4042 357.852 L 679.2242 358.752 L 680.0242 359.652 L 680.8042 360.592 L 681.5842 361.552 L 682.3442 362.532 L 683.0842 363.512 L 683.8042 364.532 L 684.5242 365.552 L 685.2242 366.592 L 685.9242 367.652 L 686.6042 368.732 L 687.3042 369.792 L 687.9842 370.892 L 688.6642 371.992 L 689.3442 373.112 L 690.0042 374.232 L 690.6842 375.372 L 691.3242 376.532 L 691.9642 377.6921 L 692.6042 378.892 L 693.2242 380.092 L 693.8442 381.292 L 694.4642 382.532 L 695.0842 383.752 L 695.7042 385.012 L 696.3042 386.252 L 696.9242 387.532 L 697.5242 388.792 L 698.1242 390.0721 L 698.7242 391.352 L 699.3042 392.652 L 699.8842 393.972 L 700.4642 395.292 L 701.0642 396.612 L 701.6442 397.932 L 702.2442 399.272 L 702.8242 400.612 L 703.4242 401.9519 L 704.0242 403.312 L 704.6242 404.672 L 705.2242 406.032 L 705.8442 407.412 L 706.4442 408.792 L 707.0642 410.172 L 707.6842 411.552 L 708.3042 412.9519 L 708.9242 414.372 L 709.5442 415.772 L 710.1642 417.1921 L 710.8042 418.612 L 711.4242 420.032 L 712.0642 421.472 L 712.7042 422.912 L 713.3442 424.372 L 713.9842 425.812 L 714.6242 427.292 L 715.2842 428.752 L 715.9242 430.232 L 716.5842 431.6921 L 717.2442 433.1921 L 717.9042 434.672 L 718.5442 436.132 L 719.1842 437.592 L 719.8242 439.032 L 720.4442 440.4519 L 721.0642 441.8319 L 721.6642 443.212 L 722.2642 444.552 L 722.8442 445.872 L 723.4242 447.152 L 723.9842 448.432 L 724.5442 449.672 L 725.0842 450.892 L 725.6042 452.092 L 726.1242 453.252 L 726.6442 454.412 L 727.1442 455.532 L 727.6442 456.652 L 728.1242 457.732 L 728.6042 458.792 L 729.0642 459.852 L 729.5242 460.892 L 729.9842 461.912 L 730.4242 462.912 L 730.8842 463.912 L 731.3042 464.872 L 731.7442 465.8319 L 732.1642 466.772 L 732.5642 467.6921 L 732.9842 468.612 L 733.3842 469.512 L 733.7642 470.392 L 734.1442 471.252 L 734.5242 472.112 L 734.8842 472.9519 L 735.2242 473.772 L 735.5442 474.592 L 735.8642 475.392 L 736.1642 476.172 L 736.4642 476.9519 L 736.7442 477.712 L 737.0042 478.4519 L 737.2442 479.1921 L 737.4842 479.892 L 737.7042 480.592 L 737.9242 481.272 L 738.1242 481.9519 L 738.4642 483.252 L 738.7642 484.472 L 739.0042 485.652 L 739.2042 486.752 L 739.3442 487.8319 L 739.4442 488.912 L 739.5242 489.992 L 739.6042 491.052 L 739.6842 492.112 L 739.7242 493.172 L 739.7442 494.232 L 739.7042 495.292 L 739.6242 496.352 L 739.5042 497.432 L 739.3242 498.512 L 739.0842 499.552 L 738.8042 500.5721 L 738.4642 501.5721 L 738.0642 502.552 L 737.6042 503.472 L 737.0642 504.3319 L 736.4642 505.152 L 735.8042 505.912 L 735.0842 506.612 L 734.3242 507.232 L 733.5042 507.792 L 732.6442 508.252 L 731.7642 508.652 L 730.8642 508.972 L 729.9442 509.212 L 728.9842 509.392 L 728.0042 509.512 L 727.0042 509.572 H 725.9642 L 724.9242 509.512 L 723.8642 509.432 L 722.7842 509.312 L 721.6842 509.192 L 720.5242 509.052 L 719.3442 508.912 L 718.1242 508.752 L 716.8642 508.612 L 715.5642 508.452 L 714.2242 508.292 L 712.8442 508.132 L 712.1442 508.052 L 711.4242 507.932 L 710.7042 507.832 L 709.9642 507.712 L 709.2242 507.5722 L 708.4642 507.4322 L 707.7242 507.2922 L 706.9642 507.1522 L 706.2242 506.9922 L 705.4642 506.8322 L 704.7242 506.6522 L 704.0042 506.4722 L 703.2642 506.2722 L 702.5242 506.0522 L 701.8242 505.8321 L 701.1242 505.5722 L 700.4242 505.3122 L 699.7442 505.0322 L 699.0842 504.7121 L 698.4242 504.3922 L 697.7842 504.0322 L 697.1642 503.6722 L 696.5242 503.2722 L 695.9042 502.8721 L 695.2842 502.4521 L 694.6642 502.0122 L 694.0442 501.5921 L 693.4042 501.1322 L 692.7642 500.6922 L 692.1442 500.2121 L 691.4842 499.7521 L 690.8442 499.2722 L 690.2042 498.7722 L 689.5642 498.2922 L 688.9042 497.7722 L 688.2642 497.2722 L 687.6042 496.7321 L 686.9642 496.1922 L 686.3242 495.6322 L 685.6842 495.0522 L 685.0442 494.4521 L 684.4242 493.8321 L 683.8042 493.2121 L 683.2042 492.5522 L 682.6042 491.8922 L 682.0242 491.1922 L 681.4642 490.4921 L 680.9042 489.7722 L 680.3642 489.0322 L 679.8242 488.2922 L 679.3242 487.5322 L 678.8442 486.7521 L 678.3642 485.9521 L 677.9042 485.1522 L 677.4842 484.3122 L 677.0642 483.4921 L 676.6642 482.6322 L 676.2642 481.7722 L 675.9042 480.8922 L 675.5642 480.0122 L 675.2242 479.1121 L 674.9242 478.2121 L 674.6242 477.2922 L 674.3442 476.3721 L 674.0842 475.4322 L 673.8442 474.4721 L 673.6242 473.5122 L 673.4042 472.5522 L 673.1842 471.5722 L 672.9842 470.5921 L 672.8042 469.5921 L 672.6042 468.5921 L 672.4242 467.5722 L 672.2242 466.5322 L 672.0442 465.5122 L 671.8442 464.4521 L 671.6442 463.3922 L 671.4442 462.3122 L 671.2442 461.2321 L 671.0442 460.1522 L 670.8442 459.0522 L 670.6442 457.9521 L 670.4441 456.8321 L 670.2241 455.7121 L 670.0241 454.5722 L 669.8041 453.4322 L 669.5841 452.2922 L 669.3441 451.1322 L 669.1041 449.9721 L 668.8441 448.7922 L 668.5841 447.6121 L 668.2841 446.4322 L 667.9841 445.2522 L 667.6441 444.0522 L 667.3041 442.8721 L 666.9441 441.7121 L 666.5441 440.5522 L 666.1241 439.3922 L 665.6841 438.2522 L 665.2241 437.1522 L 664.7241 436.0322 L 664.2241 434.9521 L 663.6841 433.8922 L 663.1241 432.8321 L 662.5641 431.8122 L 661.9641 430.8122 L 661.3441 429.8122 L 660.7041 428.8521 L 660.0441 427.9122 L 659.3641 426.9921 L 658.6441 426.0722 L 657.9241 425.1922 L 657.1841 424.3321 L 656.4241 423.4921 L 655.6441 422.6922 L 654.8441 421.8922 L 654.0441 421.1322 L 653.2041 420.3922 L 652.3641 419.6922 L 651.5241 418.9921 L 650.6641 418.3321 L 649.7841 417.6922 L 648.8841 417.0921 L 648.0041 416.4921 L 647.0841 415.9322 L 646.1841 415.4122 L 645.2441 414.8922 L 644.3241 414.4122 L 643.3841 413.9521 L 642.4241 413.5122 L 641.4641 413.0921 L 640.5041 412.6922 L 639.5241 412.3321 L 638.5241 411.9721 L 637.5241 411.6522 L 636.5241 411.3321 L 635.5042 411.012 L 634.4842 410.712 L 633.4642 410.392 L 632.4442 410.092 L 631.4042 409.772 L 630.3642 409.4519 L 629.3242 409.132 L 628.2642 408.8319 L 627.2042 408.512 L 626.1242 408.212 L 625.0442 407.912 L 623.9642 407.612 L 622.8642 407.3319 L 621.7642 407.052 L 620.6442 406.772 L 619.5242 406.492 L 618.4042 406.232 L 617.2642 405.972 L 616.1242 405.732 L 614.9642 405.492 L 613.8042 405.252 L 612.6442 405.012 L 611.4642 404.792 L 610.2842 404.5721 L 609.0842 404.372 L 607.8842 404.172 L 606.6642 403.9519 L 605.4442 403.7519 L 604.2242 403.5719 L 602.9842 403.3718 L 601.7442 403.1718 L 600.4842 402.9717 L 599.2242 402.7717 L 597.9442 402.5717 L 596.6642 402.3716 L 595.3842 402.1716 L 594.0842 401.9515 L 592.7842 401.7515 L 591.4642 401.5515 L 590.1442 401.3314 L 588.8042 401.0915 L 587.4642 400.8715 L 586.1242 400.6315 L 584.7642 400.3915 L 583.3842 400.1715 L 582.0042 399.9315 L 580.6242 399.6916 L 579.2442 399.4514 L 577.8442 399.2115 L 576.4442 398.9715 L 575.0242 398.7115 L 573.6242 398.4715 L 572.1842 398.2315 L 570.7642 397.9715 L 569.3242 397.7315 L 567.8842 397.4715 L 566.4242 397.2315 L 564.9642 396.9715 L 563.5042 396.7115 L 562.0442 396.4715 L 560.5642 396.2115 L 559.0642 395.9514 L 557.5842 395.6916 L 556.0842 395.4315 L 554.5642 395.1715 L 553.0442 394.9115 L 551.5242 394.6515 L 550.0042 394.3915 L 548.4642 394.1115 L 546.9242 393.8515 L 545.3842 393.5915 L 543.8242 393.3115 L 542.2642 393.0515 L 540.6842 392.7715 L 539.1042 392.5115 L 537.5242 392.2315 L 535.9242 391.9514 L 534.3442 391.6916 L 532.7242 391.4115 L 531.1242 391.1315 L 529.5042 390.8515 L 527.8842 390.5716 L 526.2442 390.2915 L 524.6042 390.0115 L 522.9642 389.7315 L 521.3042 389.4514 L 519.6442 389.1715 L 517.9842 388.8915 L 516.3242 388.5915 L 514.6442 388.3115 L 512.9642 388.0315 L 511.2642 387.7315 L 509.5642 387.4514 L 507.8642 387.1515 L 506.1642 386.8715 L 504.4442 386.5716 L 502.7242 386.2715 L 500.9842 385.9915 L 499.2642 385.6921 L 497.5242 385.392 L 495.7642 385.092 L 494.0242 384.792 L 492.2642 384.492 L 490.5042 384.212 L 488.7242 383.892 L 486.9442 383.592 L 485.1642 383.292 L 483.3842 382.992 L 481.6042 382.6921 L 479.8242 382.392 L 478.0242 382.092 L 476.2242 381.772 L 474.4242 381.472 L 472.6042 381.172 L 470.8042 380.852 L 468.9842 380.552 L 467.1642 380.252 L 465.3242 379.932 L 463.5042 379.632 L 461.6642 379.312 L 459.8242 378.992 L 457.9642 378.6921 L 456.1242 378.392 L 454.2642 378.092 L 452.4042 377.792 L 450.5242 377.492 L 448.6442 377.212 L 446.7642 376.932 L 444.8842 376.672 L 443.0042 376.412 L 441.1042 376.152 L 439.2042 375.892 L 437.2842 375.652 L 435.3842 375.412 L 433.4642 375.172 L 431.5242 374.9519 L 429.6042 374.732 L 427.6642 374.512 L 425.7242 374.312 L 423.7842 374.1119 L 421.8442 373.9119 L 419.8842 373.7319 L 417.9242 373.5519 L 415.9642 373.3719 L 413.9842 373.2119 L 412.0042 373.0519 L 410.0242 372.8919 L 408.0442 372.7319 L 406.0642 372.5919 L 404.0642 372.4519 L 402.0642 372.3319 L 400.0642 372.2119 L 398.0442 372.0919 L 396.0242 371.9919 L 394.0042 371.8719 L 391.9842 371.7719 L 389.9642 371.6719 L 387.9242 371.5719 L 385.8842 371.4717 L 383.8442 371.3717 L 381.8042 371.2717 L 379.7642 371.1717 L 377.7042 371.0717 L 375.6442 370.9515 L 373.5842 370.8515 L 371.5242 370.7515 L 369.4442 370.6515 L 367.3642 370.5515 L 365.2842 370.4513 L 363.2042 370.3513 L 361.1242 370.2313 L 359.0242 370.1313 L 356.9442 370.0313 L 354.8442 369.9313 L 352.7642 369.8313 L 350.6642 369.7113 L 348.5642 369.6113 L 346.4442 369.5113 L 344.3442 369.4113 L 342.2242 369.3113 L 340.1042 369.1913 L 338.0042 369.0913 L 335.8642 368.9913 L 333.7442 368.8913 L 331.6242 368.7713 L 329.4842 368.6713 L 327.3442 368.5713 L 325.2042 368.4711 L 323.0642 368.3511 L 320.9242 368.2511 L 318.7842 368.1511 L 316.6242 368.0711 L 314.4642 367.9911 L 312.3042 367.9111 L 310.1442 367.8311 L 307.9842 367.7511 L 305.8242 367.6911 L 303.6442 367.6111 L 301.4842 367.5311 L 299.3442 367.4711 L 297.2042 367.3911 L 295.1042 367.3111 L 293.0042 367.2511 L 290.9642 367.1711 L 288.9242 367.1111 L 286.9242 367.0311 L 284.9442 366.9711 L 283.0042 366.8911 L 281.0842 366.8311 L 279.2042 366.7511 L 277.3442 366.6911 L 275.5242 366.6311 L 273.7242 366.5511 L 271.9442 366.4911 L 270.2042 366.4311 L 268.4842 366.3711 L 266.7842 366.3111 L 265.1242 366.2311 L 263.4842 366.1711 L 261.8842 366.1111 L 260.3042 366.0511 L 258.7442 365.9911 L 257.2042 365.9311 L 255.7042 365.8711 L 254.2242 365.8111 L 252.7642 365.7511 L 251.3442 365.6911 L 249.9242 365.6311 L 248.5442 365.5911 L 247.1842 365.5311 L 245.8442 365.4711 L 244.5442 365.4311 L 243.2642 365.3711 L 242.0042 365.3311 L 240.7642 365.2911 L 239.5442 365.2511 L 238.3642 365.2111 L 237.2042 365.1911 L 236.0642 365.1711 H 234.9442 H 233.8642 H 232.7842 L 231.7242 365.1911 L 230.7042 365.2111 L 229.6842 365.2511 L 228.6842 365.2911 L 227.7042 365.3511 L 226.7242 365.4311 L 225.7442 365.5111 L 224.7842 365.6111 L 223.8442 365.7111 L 222.9042 365.8311 L 222.0042 365.9511 L 221.0842 366.0713 L 220.2042 366.2313 L 219.3242 366.3713 L 218.4642 366.5513 L 217.6042 366.7113 L 216.7842 366.9114 L 215.9642 367.0914 L 215.1642 367.3115 L 214.3842 367.5315 L 213.6242 367.7514 L 212.8642 367.9914 L 212.1242 368.2514 L 211.4042 368.5114 L 210.7042 368.7714 L 210.0042 369.0515 L 209.3442 369.3514 L 208.6842 369.6515 L 208.0442 369.9514 L 207.4242 370.2714 L 206.2442 370.9714 L 205.1042 371.6915 L 204.0242 372.4514 L 202.9842 373.2514 L 202.0042 374.0914 L 201.0842 374.9714 L 200.2242 375.8914 L 199.4242 376.8314 L 198.6842 377.8115 L 197.9842 378.8514 L 197.3642 379.9115 L 196.8042 381.0114 L 196.3042 382.1314 L 195.8842 383.2915 L 195.5242 384.4714 L 195.2442 385.6915 L 195.0442 386.9315 L 194.9042 388.2114 L 194.8242 389.5114 V 390.8314 L 194.8642 392.1915 L 194.9842 393.5715 L 195.0642 394.2514 L 195.1442 394.9315 L 195.2642 395.6314 L 195.3842 396.3314 L 195.5242 397.0315 L 195.6842 397.7514 L 195.8642 398.4514 L 196.0642 399.1715 L 196.2642 399.9115 L 196.5042 400.6314 L 196.7442 401.3514 L 197.0042 402.0914 L 197.2842 402.8314 L 197.5842 403.5515 L 197.9042 404.3115 L 198.2242 405.0515 L 198.5842 405.7915 L 198.9442 406.5515 L 199.3242 407.2915 L 199.7042 408.0515 L 200.1242 408.8115 L 200.5442 409.5715 L 200.9842 410.3314 L 201.4242 411.0914 L 201.8842 411.8514 L 202.3842 412.6314 L 202.8842 413.3914 L 203.3842 414.1715 L 203.9242 414.9315 L 204.4642 415.7114 L 205.0242 416.4914 L 205.5842 417.2514 L 206.1842 418.0315 L 206.7842 418.7915 L 207.4042 419.5715 L 208.0442 420.3314 L 208.7042 421.1114 L 209.3642 421.8714 L 210.0442 422.6515 L 210.7442 423.4115 L 211.4442 424.1915 L 212.1642 424.9514 L 212.9042 425.7314 L 213.6442 426.5114 L 214.4042 427.2915 L 215.1842 428.0914 L 215.9642 428.8714 L 216.7642 429.6515 L 217.5642 430.4514 L 218.3842 431.2314 L 219.2042 432.0114 L 220.0442 432.7915 L 220.8842 433.5715 L 221.7442 434.3514 L 222.6242 435.1314 L 223.5242 435.9115 L 224.4242 436.6915 L 225.3442 437.4514 L 226.2842 438.2114 L 227.2242 438.9714 L 228.2042 439.7314 L 229.1842 440.4914 L 230.1642 441.2314 L 231.1642 441.9914 L 232.1842 442.7314 L 233.2242 443.4714 L 234.2642 444.2114 L 235.3242 444.9514 L 236.4042 445.6915 L 237.4642 446.4315 L 238.5642 447.1715 L 239.6642 447.9115 L 240.7642 448.6515 L 241.8642 449.4115 L 242.9842 450.1715 L 244.1242 450.9115 L 245.2642 451.6715 L 246.4042 452.4514 L 247.5642 453.2114 L 248.7242 453.9714 L 249.9042 454.7314 L 251.0842 455.4914 L 252.2842 456.2514 L 253.4842 457.0315 L 254.7042 457.7915 L 255.9242 458.5515 L 257.1642 459.3115 L 258.4042 460.0515 L 259.6642 460.8115 L 260.9242 461.5715 L 262.2042 462.3115 L 263.4642 463.0715 L 264.7442 463.8115 L 266.0242 464.5715 L 267.3242 465.3314 L 268.6042 466.0914 L 269.9042 466.8714 L 271.2242 467.6314 L 272.5242 468.4115 L 273.8442 469.1715 L 275.1642 469.9514 L 276.5042 470.7314 L 277.8242 471.5315 L 279.1642 472.3115 L 280.5042 473.1114 L 281.8642 473.9115 L 283.2242 474.7114 L 284.5642 475.5114 L 285.9442 476.3115 L 287.3042 477.1114 L 288.6842 477.9315 L 290.0642 478.7514 L 291.4642 479.5715 L 292.8442 480.3914 L 294.2442 481.2114 L 295.6442 482.0515 L 297.0642 482.8714 L 298.4842 483.7114 L 299.9042 484.5515 L 301.3242 485.3914 L 302.7642 486.2314 L 304.1842 487.0914 L 305.6442 487.9514 L 307.0842 488.7915 L 308.5442 489.6515 L 309.9842 490.5114 L 311.4642 491.3914 L 312.9242 492.2514 L 314.4042 493.1314 L 315.8842 494.0114 L 317.3642 494.8714 L 318.8442 495.7714 L 320.3442 496.6515 L 321.8442 497.5315 L 323.3442 498.4315 L 324.8642 499.3115 L 326.3842 500.2114 L 327.9042 501.1114 L 329.4242 502.0114 L 330.9442 502.9315 L 332.4842 503.8314 L 334.0242 504.7514 L 335.5642 505.6515 L 337.1042 506.5715 L 338.6642 507.4914 L 340.2242 508.4115 L 341.7642 509.3314 L 343.3242 510.2714 L 344.8842 511.1915 L 346.4242 512.0914 L 347.9642 513.012 L 349.4842 513.912 L 351.0042 514.812 L 352.4842 515.732 L 353.9642 516.632 L 355.4242 517.512 L 356.8842 518.412 L 358.2842 519.272 L 359.7042 520.152 L 361.0842 520.992 L 362.4442 521.8319 L 363.7842 522.672 L 365.1042 523.472 L 366.4042 524.292 L 367.6842 525.092 L 368.9442 525.872 L 370.1642 526.652 L 371.3842 527.4519 L 372.5642 528.212 L 373.7242 528.992 L 374.8642 529.772 L 375.9842 530.552 L 377.0842 531.312 L 378.1642 532.092 L 379.2042 532.872 L 380.2442 533.652 L 381.2642 534.432 L 382.2442 535.212 L 383.2242 536.012 L 384.1842 536.792 L 385.1242 537.592 L 386.0242 538.392 L 386.9242 539.1921 L 387.7842 540.012 L 388.6442 540.8319 L 389.4842 541.652 L 390.3042 542.472 L 391.1042 543.312 L 391.8842 544.152 L 392.6642 544.992 L 393.4242 545.8319 L 394.1642 546.672 L 394.9042 547.512 L 395.6242 548.352 L 396.3442 549.172 L 397.0442 550.012 L 397.7442 550.8319 L 398.4442 551.652 L 399.1242 552.472 L 399.7842 553.292 L 400.4442 554.092 L 401.0842 554.912 L 401.7042 555.732 L 402.3242 556.532 L 402.9042 557.352 L 403.4842 558.172 L 404.0642 558.972 L 404.6042 559.792 L 405.1442 560.612 L 405.6642 561.412 L 406.1842 562.212 L 406.6842 563.032 L 407.1842 563.8319 L 407.6642 564.652 L 408.1442 565.4519 L 408.6042 566.252 L 409.0642 567.052 L 409.5242 567.8319 L 409.9642 568.632 L 410.4042 569.412 L 410.8242 570.1921 L 411.2442 570.972 L 411.6442 571.732 L 412.0242 572.492 L 412.4042 573.252 L 412.7642 573.992 L 413.1242 574.712 L 413.4442 575.4519 L 413.7642 576.152 L 414.0642 576.872 L 414.3442 577.5721 L 414.6242 578.252 L 414.8642 578.932 L 415.1042 579.592 L 415.3242 580.232 L 415.7042 581.552 L 416.0042 582.812 L 416.2442 584.052 L 416.4042 585.252 L 416.4842 586.412 L 416.5042 587.5721 L 416.4442 588.6921 L 416.3042 589.812 L 416.1042 590.912 L 415.8442 592.032 L 415.5042 593.152 L 415.0842 594.272 L 414.6042 595.372 L 414.0642 596.492 L 413.4642 597.592 L 412.7842 598.712 L 412.0442 599.792 L 411.2242 600.872 L 410.3242 601.932 L 409.8642 602.4519 L 409.3842 602.9519 L 408.9042 603.4519 L 408.3842 603.9519 L 407.8442 604.432 L 407.3042 604.892 L 406.7442 605.352 L 406.1642 605.792 L 405.5842 606.232 L 404.9842 606.652 L 404.3642 607.032 L 403.7442 607.432 L 403.1042 607.792 L 402.4442 608.132 L 401.7842 608.4519 L 401.1242 608.772 L 400.4242 609.052 L 399.7442 609.3319 L 399.0242 609.5721 L 398.3042 609.812 L 397.5842 610.012 L 396.8442 610.212 L 396.1042 610.372 L 395.3442 610.532 L 394.5842 610.652 L 393.8042 610.772 L 393.0242 610.852 L 392.2442 610.912 L 391.4442 610.972 L 390.6442 610.992 H 389.8442 L 389.0442 610.972 L 388.2242 610.912 L 387.4042 610.852 L 386.5842 610.772 L 385.7642 610.672 L 384.9242 610.532 L 384.1042 610.392 L 383.2642 610.212 L 382.4242 610.032 L 381.5842 609.8121 L 380.7442 609.592 L 379.9042 609.332 L 379.0642 609.0521 L 378.2242 608.772 L 377.3642 608.452 L 376.5242 608.132 L 375.6642 607.792 L 374.8042 607.412 L 373.9442 607.0521 L 373.0842 606.652 L 372.2042 606.232 L 371.3442 605.8121 L 370.4642 605.392 L 369.5842 604.952 L 368.6842 604.512 L 367.7842 604.0521 L 366.8842 603.592 L 365.9642 603.132 L 365.0442 602.6721 L 364.1042 602.1921 L 363.1642 601.712 L 362.2242 601.232 L 361.2642 600.732 L 360.2842 600.232 L 359.3042 599.712 L 358.3242 599.1921 L 357.3442 598.652 L 356.3442 598.112 L 355.3442 597.5521 L 354.3442 596.972 L 353.3442 596.392 L 352.3242 595.8121 L 351.3242 595.212 L 350.3242 594.592 L 349.3242 593.972 L 348.3042 593.352 L 347.3042 592.6921 L 346.2842 592.032 L 345.2642 591.352 L 344.2442 590.6721 L 343.2242 589.972 L 342.2042 589.252 L 341.1842 588.512 L 340.1642 587.772 L 339.1442 587.012 L 338.1242 586.232 L 337.1042 585.432 L 336.0842 584.632 L 335.0642 583.812 L 334.0242 582.972 L 333.0042 582.132 L 331.9842 581.272 L 330.9442 580.392 L 329.9242 579.512 L 328.8842 578.612 L 327.8642 577.6921 L 326.8242 576.772 L 325.7842 575.852 L 324.7442 574.892 L 323.7042 573.9519 L 322.6642 572.972 L 321.6042 572.012 L 320.5442 571.032 L 319.4842 570.052 L 318.4042 569.0721 L 317.3442 568.0721 L 316.2442 567.0721 L 315.1642 566.0721 L 314.0642 565.0721 L 312.9642 564.0721 L 311.8442 563.0721 L 310.7242 562.0721 L 309.5842 561.0721 L 308.4442 560.0721 L 307.3042 559.0721 L 306.1442 558.0721 L 304.9842 557.0721 L 303.8042 556.052 L 302.6242 555.052 L 301.4642 554.032 L 300.2642 553.012 L 299.0842 551.972 L 297.8842 550.9519 L 296.6842 549.912 L 295.4842 548.872 L 294.2842 547.8319 L 293.0642 546.772 L 291.8442 545.712 L 290.6442 544.652 L 289.4242 543.5721 L 288.1842 542.492 L 286.9642 541.412 L 285.7242 540.312 L 284.4842 539.232 L 283.2442 538.132 L 282.0042 537.032 L 280.7442 535.932 L 279.4842 534.812 L 278.2242 533.6921 L 276.9442 532.592 L 275.6842 531.4519 L 274.4042 530.3319 L 273.1042 529.1921 L 271.8242 528.0721 L 270.5242 526.932 L 269.2242 525.772 L 267.9242 524.632 L 266.6042 523.472 L 265.3042 522.3319 L 263.9842 521.172 L 262.6642 519.992 L 261.3242 518.8319 L 259.9842 517.652 L 258.6642 516.472 L 257.3042 515.292 L 255.9642 514.112 L 254.6042 512.932 L 253.2642 511.732 L 251.9042 510.532 L 250.5442 509.352 L 249.1842 508.152 L 247.8042 506.9519 L 246.4442 505.732 L 245.0642 504.532 L 243.6842 503.312 L 242.3042 502.112 L 240.9242 500.892 L 239.5242 499.672 L 238.1442 498.4519 L 236.7442 497.212 L 235.3442 495.992 L 233.9442 494.752 L 232.5242 493.512 L 231.1242 492.272 L 229.7042 491.032 L 228.2842 489.792 L 226.8642 488.552 L 225.4442 487.292 L 224.0042 486.032 L 222.5842 484.772 L 221.1442 483.512 L 219.7042 482.252 L 218.2642 480.992 L 216.8042 479.712 L 215.3642 478.432 L 213.9042 477.152 L 212.4442 475.872 L 210.9842 474.592 L 209.5042 473.312 L 208.0442 472.012 L 206.5642 470.732 L 205.1042 469.432 L 203.6242 468.132 L 202.1242 466.8319 L 200.6442 465.532 L 199.1442 464.212 L 197.6642 462.912 L 196.1642 461.592 L 194.6642 460.272 L 193.1642 458.9519 L 191.6442 457.632 L 190.1242 456.312 L 188.6242 454.992 L 187.1042 453.652 L 185.5842 452.312 L 184.0442 450.972 L 182.5242 449.632 L 180.9842 448.292 L 179.4642 446.9519 L 177.9242 445.612 L 176.3842 444.252 L 174.8242 442.892 L 173.2842 441.532 L 171.7242 440.172 L 170.1842 438.812 L 168.6242 437.4519 L 167.0642 436.092 L 165.4842 434.712 L 163.9242 433.3319 L 162.3442 431.972 L 160.7842 430.592 L 159.2042 429.212 L 157.6242 427.812 L 156.0442 426.432 L 154.4442 425.052 L 152.8642 423.652 L 151.2642 422.252 L 149.6842 420.852 L 148.0842 419.4519 L 146.4842 418.052 L 144.8842 416.652 L 143.2642 415.252 L 141.6642 413.8319 L 140.0442 412.432 L 138.4242 411.012 L 136.8242 409.592 L 135.2042 408.172 L 133.5842 406.732 L 131.9842 405.292 L 130.3642 403.852 L 128.7642 402.392 L 127.1442 400.9519 L 125.5242 399.492 L 123.9042 398.052 L 122.2842 396.592 L 120.6442 395.132 L 119.0242 393.672 L 117.4042 392.212 L 115.7842 390.752 L 114.1642 389.312 L 112.5642 387.872 L 110.9642 386.432 L 109.3842 385.012 L 107.8242 383.612 L 106.3042 382.232 L 104.7842 380.872 L 103.2842 379.532 L 101.8042 378.1921 L 100.3442 376.892 L 98.9042 375.592 L 97.4842 374.312 L 96.0842 373.052 L 94.7042 371.812 L 93.3442 370.592 L 92.0042 369.372 L 90.6842 368.1921 L 89.3842 367.012 L 88.1042 365.872 L 86.8442 364.732 L 85.6042 363.612 L 84.4042 362.512 L 83.2042 361.432 L 82.0242 360.352 L 80.8842 359.312 L 79.7442 358.272 L 78.6642 357.232 L 77.5842 356.212 L 76.5442 355.212 L 75.5242 354.1921 L 74.5242 353.1921 L 73.5442 352.1921 L 72.6042 351.172 L 71.6842 350.172 L 70.7642 349.152 L 69.8842 348.132 L 69.0242 347.092 L 68.1842 346.052 L 67.3642 345.012 L 66.5642 343.972 L 65.7842 342.912 L 65.0042 341.852 L 64.2642 340.792 L 63.5442 339.712 L 62.8442 338.612 L 62.1442 337.492 L 61.4642 336.392 L 60.8042 335.252 L 60.1642 334.112 L 59.5442 332.972 L 58.9242 331.792 L 58.3442 330.632 L 57.7642 329.4519 L 57.2042 328.252 L 56.6442 327.032 L 56.1242 325.812 L 55.6042 324.592 L 55.1042 323.352 L 54.6242 322.092 L 54.1442 320.8319 L 53.6642 319.5721 L 53.2042 318.292 L 52.7242 317.012 L 52.2642 315.712 L 51.8042 314.412 L 51.3442 313.092 L 50.8842 311.772 L 50.4242 310.4519 L 49.9442 309.132 L 49.4642 307.792 L 49.0042 306.4519 L 48.5242 305.092 L 48.0442 303.732 L 47.5642 302.372 L 47.0842 300.992 L 46.6242 299.612 L 46.1442 298.232 L 45.6842 296.8319 L 45.2042 295.432 L 44.7442 294.032 L 44.2642 292.612 L 43.7842 291.1921 L 43.3042 289.752 L 42.8442 288.312 L 42.3642 286.872 L 41.9042 285.412 L 41.4442 283.9519 L 40.9842 282.492 L 40.5042 281.012 L 40.0642 279.532 L 39.6042 278.032 L 39.1642 276.532 L 38.7042 275.012 L 38.2642 273.492 L 37.8242 271.972 L 37.4042 270.432 L 36.9642 268.892 L 36.5442 267.3319 L 36.1242 265.772 L 35.6842 264.212 L 35.2442 262.632 L 34.8242 261.052 L 34.3842 259.472 L 33.9442 257.892 L 33.5042 256.292 L 33.0642 254.6921 L 32.6242 253.0721 L 32.1842 251.4519 L 31.7442 249.8319 L 31.2842 248.212 L 30.8442 246.5721 L 30.3842 244.932 L 29.9042 243.292 L 29.4442 241.652 L 28.9642 239.992 L 28.4842 238.3319 L 28.0242 236.652 L 27.5442 234.992 L 27.0642 233.312 L 26.5642 231.612 L 26.0842 229.932 L 25.6042 228.232 L 25.1242 226.532 L 24.6242 224.812 L 24.1442 223.112 L 23.6442 221.392 L 23.1442 219.652 L 22.6442 217.932 L 22.1642 216.1921 L 21.6642 214.4519 L 21.1642 212.712 L 20.6642 210.972 L 20.1642 209.212 L 19.6842 207.4519 L 19.2042 205.6921 L 18.7242 203.912 L 18.2642 202.132 L 17.8042 200.352 L 17.3642 198.552 L 16.9242 196.752 L 16.4842 194.9519 L 16.0642 193.132 L 15.6442 191.312 L 15.2242 189.492 L 14.8242 187.652 L 14.4442 185.812 L 14.0642 183.952 L 13.7042 182.112 L 13.3442 180.252 L 13.0042 178.372 L 12.6642 176.492 L 12.3642 174.612 L 12.0442 172.732 L 11.7642 170.832 L 11.4842 168.932 L 11.2242 167.012 L 10.9842 165.112 L 10.7842 163.172 L 10.5842 161.252 L 10.4042 159.312 L 10.2642 157.372 L 10.1442 155.432 L 10.0642 153.472 L 9.9842 151.512 L 9.9442 149.552 V 147.592 L 9.9642 145.632 L 10.0242 143.652 L 10.1042 141.692 L 10.1842 139.712 L 10.3042 137.732 L 10.4642 135.752 L 10.6242 133.772 L 10.8042 131.772 L 11.0242 129.792 L 11.2442 127.812 L 11.5042 125.812 L 11.7642 123.832 L 12.0642 121.832 L 12.3642 119.852 L 12.6842 117.852 L 13.0242 115.852 L 13.3642 113.852 L 13.7042 111.852 L 14.0442 109.832 L 14.4042 107.832 L 14.7642 105.812 L 15.1242 103.792 L 15.5042 101.772 L 15.8842 99.752 L 16.2842 97.732 L 16.6842 95.712 L 17.1042 93.692 L 17.5242 91.692 L 17.9642 89.732 L 18.3842 87.792 L 18.8242 85.892 L 19.2642 84.012 L 19.7042 82.152 L 20.1442 80.332 L 20.5842 78.552 L 21.0442 76.792 L 21.4842 75.072 L 21.9242 73.372 L 22.3642 71.692 L 22.8242 70.052 L 23.2642 68.452 L 23.7042 66.872 L 24.1642 65.312 L 24.6242 63.792 L 25.0642 62.292 L 25.5242 60.832 L 25.9842 59.392 L 26.4442 57.972 L 26.9242 56.592 L 27.3842 55.252 L 27.8642 53.912 L 28.3642 52.632 L 28.8442 51.372 L 29.3442 50.132 L 29.8642 48.912 L 30.3642 47.732 L 30.8842 46.572 L 31.4042 45.452 L 31.9442 44.372 L 32.4842 43.312 L 33.0442 42.272 L 33.6042 41.272 L 34.1642 40.292 L 34.7442 39.352 L 35.3242 38.432 L 35.9042 37.552 L 36.4842 36.692 L 37.0842 35.852 L 37.7042 35.052 L 38.3042 34.272 L 38.9242 33.532 L 39.5642 32.812 L 40.1842 32.112 L 40.8242 31.452 L 41.4642 30.832 L 42.1042 30.232 L 42.7442 29.652 L 43.4042 29.092 L 44.0442 28.572 L 44.6842 28.072 L 45.3242 27.612 L 45.9642 27.172 L 46.6242 26.752 L 47.2642 26.352 L 47.9042 25.992 L 48.5642 25.632 L 49.2042 25.292 L 49.8642 24.952 L 50.5242 24.632 L 51.1642 24.312 L 51.8242 23.992 L 52.4842 23.672 L 53.1242 23.372 L 53.7842 23.052 L 54.4442 22.732 L 55.1042 22.412 L 55.7842 22.112 L 56.4642 21.792 L 57.1442 21.492 L 57.8442 21.192 L 58.5442 20.892 L 59.2642 20.612 L 59.9842 20.312 L 60.7242 20.032 L 61.4642 19.752 L 62.2042 19.492 L 62.9642 19.232 L 63.7442 18.972 L 64.5242 18.712 L 65.3242 18.472 L 66.1242 18.212 L 66.9242 17.972 L 67.7442 17.732 L 68.5842 17.472 L 69.4242 17.232 L 70.2642 16.972 L 71.1242 16.732 L 71.9842 16.472 L 72.8642 16.212 L 73.7442 15.952 L 74.6242 15.692 L 75.5242 15.432 L 76.4242 15.192 L 77.3442 14.932 L 78.2642 14.672 L 79.2042 14.432 L 80.1442 14.192 L 81.1042 13.932 L 82.0642 13.692 L 83.0442 13.452 L 84.0242 13.232 L 85.0242 12.992 L 86.0242 12.772 L 87.0242 12.552 L 88.0442 12.332 L 89.0842 12.112 L 90.1242 11.892 L 91.1642 11.672 L 92.2242 11.452 L 93.2842 11.232 L 94.3642 11.012 L 95.4442 10.792 L 96.5442 10.572 L 97.6442 10.352 L 98.7642 10.112 L 99.8842 9.892 L 101.0042 9.652 L 102.1442 9.432 L 103.2842 9.192 L 104.4442 8.952 L 105.6242 8.712 L 106.7842 8.472 L 107.9642 8.232 L 109.1442 8.012 L 110.3042 7.772 L 111.4442 7.572 L 112.5842 7.352 L 113.6842 7.152 L 114.7842 6.972 L 115.8642 6.792 L 116.9042 6.632 L 117.9442 6.472 L 118.9642 6.332 L 119.9642 6.192 L 120.9442 6.072 L 121.9242 5.952 L 122.8642 5.852 L 123.8042 5.752 L 124.7242 5.672 L 125.6442 5.592 L 126.5242 5.512 L 127.4042 5.452 L 128.2842 5.392 L 129.1242 5.352 L 129.9642 5.312 L 130.7842 5.292 L 131.6042 5.272 L 132.4042 5.252 H 133.1842 L 133.9442 5.272 L 134.6842 5.292 L 135.4042 5.332 L 136.1042 5.372 L 137.4642 5.552 L 138.7242 5.752 L 139.9042 6.012 L 141.0042 6.332 L 142.0842 6.7121 L 143.1242 7.172 L 144.1242 7.672 L 145.0842 8.252 L 146.0042 8.872 L 146.8842 9.572 L 147.7242 10.332 L 148.5242 11.1521 L 149.2642 12.0321 L 149.9642 12.9721 L 150.6042 13.9721 L 151.1642 15.012 L 151.6642 16.0921 L 152.1042 17.232 L 152.4442 18.4121 L 152.7042 19.612 L 152.8842 20.832 L 152.9442 22.072 L 152.9042 23.312 L 152.7642 24.572 L 152.5242 25.812 L 152.1842 27.0321 L 151.7442 28.272 L 151.2242 29.4721 L 150.5842 30.672 L 149.8842 31.8521 L 149.5042 32.4121 L 149.1242 32.9721 L 148.7242 33.552 L 148.3242 34.112 L 147.8842 34.672 L 147.4642 35.252 L 147.0242 35.812 L 146.5642 36.392 L 146.1042 36.9721 L 145.6242 37.552 L 145.1442 38.132 L 144.6442 38.7121 L 144.1242 39.2921 L 143.6042 39.892 L 143.0642 40.4721 L 142.5042 41.052 L 141.9442 41.632 L 141.3442 42.192 L 140.7442 42.772 L 140.1242 43.332 L 139.4842 43.9121 L 138.8242 44.4721 L 138.1442 45.0321 L 137.4442 45.5921 L 136.7442 46.132 L 136.0042 46.692 L 135.2642 47.232 L 134.5042 47.772 L 133.7442 48.312 L 132.9442 48.872 L 132.1442 49.4121 L 131.3442 49.9721 L 130.5242 50.552 L 129.6842 51.112 L 128.8442 51.692 L 128.0042 52.272 L 127.1242 52.872 L 126.2442 53.452 L 125.3442 54.0321 L 124.4442 54.612 L 123.5242 55.192 L 122.6042 55.7921 L 121.6642 56.372 L 120.7242 56.952 L 119.7642 57.552 L 118.8042 58.132 L 117.8242 58.732 L 116.8442 59.332 L 115.8442 59.932 L 114.8442 60.5321 L 113.8442 61.1521 L 112.8242 61.772 L 111.8042 62.392 L 110.7842 63.0321 L 109.7442 63.6521 L 108.7042 64.2921 L 107.6442 64.932 L 106.5842 65.5921 L 105.5242 66.232 L 104.4442 66.892 L 103.3642 67.552 L 102.2642 68.232 L 101.1642 68.892 L 100.0642 69.572 L 98.9442 70.252 L 97.8242 70.952 L 96.6842 71.6521 L 95.5642 72.3521 L 94.4242 73.072 L 93.2842 73.812 L 92.1442 74.552 L 91.0242 75.332 L 89.8842 76.112 L 88.7442 76.892 L 87.6242 77.7121 L 86.5042 78.5321 L 85.4042 79.372 L 84.3242 80.2121 L 83.2442 81.072 L 82.2042 81.9121 L 81.1842 82.772 L 80.1842 83.632 L 79.2042 84.492 L 78.2642 85.3521 L 77.3442 86.2121 L 76.4442 87.072 L 75.5842 87.932 L 74.7442 88.7921 L 73.9242 89.6521 L 73.1442 90.492 L 72.3842 91.352 L 71.6442 92.192 L 70.9242 93.032 L 70.2442 93.872 L 69.5642 94.712 L 68.9242 95.532 L 68.3242 96.372 L 67.7242 97.192 L 67.1442 98.032 L 66.5842 98.892 L 66.0442 99.752 L 65.5242 100.612 L 65.0242 101.492 L 64.5442 102.372 L 64.0842 103.272 L 63.6642 104.172 L 63.2442 105.092 L 62.8442 106.012 L 62.4642 106.952 L 62.1042 107.912 L 61.7842 108.872 L 61.4842 109.852 L 61.2042 110.832 L 60.9442 111.832 L 60.7042 112.832 L 60.4842 113.852 L 60.3042 114.872 L 60.1242 115.912 L 59.9842 116.952 L 59.8442 117.992 L 59.7442 119.072 L 59.6442 120.132 L 59.5642 121.212 L 59.5042 122.312 L 59.4442 123.412 L 59.3842 124.532 L 59.3242 125.652 L 59.2642 126.772 L 59.2042 127.912 L 59.1442 129.072 L 59.0842 130.232 L 59.0242 131.392 L 58.9642 132.572 L 58.9242 133.772 L 58.8842 134.972 L 58.8442 136.172 L 58.8242 137.392 V 138.612 V 139.852 L 58.8442 141.092 L 58.8642 142.352 L 58.9042 143.612 L 58.9642 144.892 L 59.0442 146.172 L 59.1242 147.452 L 59.2442 148.752 L 59.3642 150.052 L 59.5042 151.352 L 59.6642 152.672 L 59.8442 153.992 L 60.0242 155.332 L 60.2242 156.652 L 60.4442 157.992 L 60.6642 159.352 L 60.9042 160.712 L 61.1442 162.072 L 61.3842 163.432 L 61.6642 164.792 L 61.9242 166.172 L 62.2042 167.552 L 62.5042 168.932 L 62.8242 170.312 L 63.1442 171.692 L 63.4642 173.092 L 63.8042 174.492 L 64.1442 175.892 L 64.4842 177.312 L 64.8242 178.732 L 65.1642 180.152 L 65.5242 181.592 L 65.8642 183.032 L 66.2042 184.472 L 66.5642 185.932 L 66.8842 187.392 L 67.2242 188.872 L 67.5442 190.352 L 67.8642 191.832 L 68.1642 193.3319 L 68.4842 194.8319 L 68.7842 196.352 L 69.0842 197.872 L 69.3842 199.392 L 69.7042 200.932 L 70.0042 202.472 L 70.3242 204.012 L 70.6242 205.5721 L 70.9442 207.132 L 71.2442 208.6921 L 71.5642 210.272 L 71.8842 211.852 L 72.2042 213.432 L 72.5242 215.032 L 72.8442 216.632 L 73.1642 218.232 L 73.4842 219.852 L 73.8042 221.472 L 74.1242 223.092 L 74.4442 224.712 L 74.7642 226.312 L 75.0842 227.932 L 75.4042 229.512 L 75.7242 231.092 L 76.0442 232.672 L 76.3442 234.212 L 76.6442 235.732 L 76.9442 237.232 L 77.2442 238.712 L 77.5442 240.152 L 77.8242 241.5721 L 78.1042 242.972 L 78.3842 244.352 L 78.6442 245.6921 L 78.9042 246.992 L 79.1642 248.292 L 79.4242 249.552 L 79.6642 250.772 L 79.9242 251.992 L 80.1442 253.172 L 80.3842 254.3319 L 80.6242 255.4519 L 80.8442 256.552 L 81.0842 257.632 L 81.3242 258.6921 L 81.5642 259.712 L 81.8042 260.712 L 82.0442 261.6921 L 82.3042 262.652 L 82.5642 263.612 L 82.8442 264.532 L 83.1242 265.432 L 83.4042 266.312 L 83.7042 267.1921 L 84.0242 268.052 L 84.3642 268.912 L 84.7242 269.752 L 85.0842 270.592 L 85.4842 271.432 L 85.9042 272.232 L 86.3442 273.032 L 86.8042 273.812 L 87.2842 274.5721 L 87.7842 275.312 L 88.3242 276.052 L 88.8642 276.752 L 89.4242 277.432 L 90.0242 278.092 L 90.6242 278.732 L 91.2642 279.352 L 91.9042 279.9519 L 92.5642 280.512 L 93.2442 281.052 L 93.9242 281.5721 L 94.6242 282.0721 L 95.3442 282.532 L 96.0842 282.992 L 96.8242 283.392 L 97.5642 283.792 L 98.3442 284.152 L 99.1242 284.492 L 99.9042 284.792 L 100.7242 285.092 L 101.5442 285.352 L 102.3842 285.612 L 103.2242 285.8319 L 104.0842 286.052 L 104.9442 286.272 L 105.8442 286.472 L 106.7242 286.6721 L 107.6242 286.8721 L 108.5442 287.0521 L 109.4642 287.2321 L 110.4042 287.4121 L 111.3442 287.5721 L 112.3042 287.7119 L 113.2642 287.8319 L 114.2442 287.9519 L 115.2442 288.0721 L 116.2442 288.1721 L 117.2442 288.2721 L 118.2642 288.3721 L 119.2842 288.4721 L 120.3242 288.5723 L 121.3842 288.6523 L 122.4242 288.7523 L 123.5042 288.8523 L 124.5642 288.9523 L 125.6642 289.0525 L 126.7442 289.1525 L 127.8442 289.2525 L 128.9642 289.3525 L 130.0842 289.4325 L 131.2242 289.5125 L 132.3642 289.5925 L 133.5042 289.6525 L 134.6842 289.7325 L 135.8442 289.7925 L 137.0242 289.8325 L 138.2242 289.8925 L 139.4242 289.9325 L 140.6242 289.9525 L 141.8442 289.9925 L 143.0842 290.0125 H 144.3242 L 145.5642 290.0325 H 146.8242 H 148.0842 L 149.3642 290.0125 H 150.6642 L 151.9442 289.9925 H 153.2442 L 154.5642 289.9725 H 155.8842 L 157.2242 289.9525 H 158.5642 L 159.9042 289.9325 H 161.2642 L 162.6442 289.9125 H 164.0042 L 165.4042 289.8925 H 166.7842 H 168.1842 L 169.6042 289.8725 H 171.0242 L 172.4442 289.8525 H 173.8642 L 175.3042 289.8325 L 176.7442 289.8125 L 178.2042 289.7725 L 179.6442 289.7525 L 181.1242 289.7325 L 182.5842 289.6927 L 184.0642 289.6727 L 185.5442 289.6327 L 187.0242 289.6127 L 188.5242 289.5727 L 190.0242 289.5527 L 191.5442 289.5127 L 193.0442 289.4927 L 194.5642 289.4527 L 196.1042 289.4327 L 197.6442 289.3927 L 199.1842 289.3727 L 200.7242 289.3327 L 202.2842 289.3127 L 203.8442 289.2727 L 205.4042 289.2527 L 206.9842 289.2127 L 208.5642 289.1727 L 210.1642 289.1527 L 211.7442 289.1127 L 213.3442 289.0927 L 214.9642 289.0527 L 216.5642 289.0327 L 218.2042 288.9927 L 219.8242 288.9727 L 221.4642 288.9327 L 223.1042 288.9127 L 224.7442 288.8727 L 226.4042 288.8527 L 228.0642 288.8127 L 229.7242 288.7927 L 231.4042 288.7527 L 233.0842 288.7327 L 234.7642 288.6929 L 236.4442 288.6729 L 238.1442 288.6329 L 239.8442 288.6129 L 241.5642 288.5729 L 243.2842 288.5529 L 245.0042 288.5129 L 246.7242 288.4929 L 248.4642 288.4529 L 250.2042 288.4329 L 251.9442 288.3929 L 253.7042 288.3729 L 255.4642 288.3329 L 257.2242 288.3129 L 258.9842 288.2729 L 260.7642 288.2529 L 262.5442 288.2129 L 264.3242 288.1929 L 266.1242 288.1529 L 267.9042 288.1329 L 269.7042 288.0929 L 271.5242 288.0729 L 273.3242 288.0329 L 275.1442 288.0129 L 276.9642 287.9729 L 278.7842 287.9529 L 280.6042 287.9129 L 282.4442 287.8929 L 284.2642 287.8529 L 286.1042 287.8329 L 287.9442 287.7929 L 289.7842 287.7729 L 291.6442 287.7329 L 293.5042 287.7129 L 295.3642 287.6729 L 297.2242 287.6529 L 299.0842 287.6129 L 300.9642 287.5929 L 302.8442 287.5529 L 304.7242 287.5329 L 306.6042 287.4929"
       style="fill:none;stroke:#000000;stroke-width:0.5;stroke-linecap:round;stroke-linejoin:round;stroke-miterlimit:10;stroke-dasharray:none;stroke-opacity:1" />
  </g>
</svg>
