<?xml version="1.0" encoding="UTF-8" standalone="no"?>
<!-- Created with Inkscape (http://www.inkscape.org/) -->

<svg
   inkscape:version="1.3.2 (091e20e, 2023-11-25, custom)"
   sodipodi:docname="track_brand_hatch.svg"
   xmlns:inkscape="http://www.inkscape.org/namespaces/inkscape"
   xmlns:sodipodi="http://sodipodi.sourceforge.net/DTD/sodipodi-0.dtd"
   xmlns="http://www.w3.org/2000/svg"
   xmlns:svg="http://www.w3.org/2000/svg">
  <g>
    <path
       id="track"
       d="M 198.4836 46.93 H 198.8636 H 199.9236 H 200.9636 H 202.0236 H 203.0836 H 204.1436 L 205.1836 46.95 H 206.2436 H 207.3036 L 208.3636 46.97 L 209.4436 46.99 L 210.5036 47.01 L 211.5636 47.03 L 212.6236 47.05 L 213.6836 47.07 L 214.7636 47.11 L 215.8236 47.13 L 216.9036 47.17 L 217.9636 47.21 L 219.0436 47.23 L 220.1036 47.27 L 221.1836 47.31 L 222.2636 47.35 L 223.3436 47.37 L 224.4036 47.41 L 225.4836 47.45 L 226.5636 47.49 L 227.6436 47.51 L 228.7236 47.55 L 229.8036 47.59 L 230.9036 47.63 L 231.9836 47.65 L 233.0636 47.69 L 234.1436 47.73 L 235.2436 47.77 L 236.3236 47.81 L 237.4236 47.83 L 238.5036 47.87 L 239.6036 47.91 L 240.6836 47.95 L 241.7836 47.97 L 242.8836 48.01 L 243.9636 48.05 L 245.0636 48.09 L 246.1636 48.13 L 247.2636 48.15 L 248.3636 48.19 L 249.4636 48.23 L 250.5636 48.27 L 251.6636 48.29 L 252.7636 48.33 L 253.8636 48.37 L 254.9836 48.41 L 256.0836 48.45 L 257.1836 48.47 L 258.3036 48.51 L 259.4036 48.55 L 260.5236 48.59 L 261.6236 48.63 L 262.7436 48.67 L 263.8436 48.71 L 264.9636 48.75 L 266.0836 48.79 L 267.2036 48.83 L 268.3036 48.85 L 269.4236 48.89 L 270.5436 48.93 L 271.6636 48.97 L 272.7836 49.01 L 273.9036 49.05 L 275.0236 49.09 L 276.1436 49.13 L 277.2836 49.17 L 278.4036 49.21 L 279.5236 49.23 L 280.6436 49.27 L 281.7836 49.31 L 282.9036 49.35 L 284.0436 49.39 L 285.1636 49.43 L 286.3036 49.47 L 287.4236 49.51 L 288.5636 49.55 L 289.7036 49.59 L 290.8236 49.61 L 291.9636 49.65 L 293.1036 49.69 L 294.2436 49.73 L 295.3836 49.77 L 296.5236 49.81 L 297.6636 49.85 L 298.8036 49.89 L 299.9436 49.93 L 301.0836 49.95 L 302.2236 49.99 L 303.3636 50.03 L 304.5036 50.07 L 305.6636 50.11 L 306.8036 50.15 L 307.9436 50.19 L 309.1036 50.23 L 310.2436 50.27 L 311.4036 50.31 L 312.5436 50.35 L 313.7036 50.37 L 314.8436 50.41 L 316.0036 50.45 L 317.1636 50.49 L 318.3036 50.53 L 319.4636 50.57 L 320.6236 50.61 L 321.7836 50.65 L 322.9436 50.69 L 324.1036 50.73 L 325.2636 50.77 L 326.4236 50.79 L 327.5836 50.83 L 328.7436 50.87 L 329.9036 50.91 L 331.0636 50.95 L 332.2236 50.99 L 333.4036 51.03 L 334.5636 51.07 L 335.7236 51.11 L 336.8836 51.15 L 338.0636 51.17 L 339.2236 51.21 L 340.4036 51.25 L 341.5636 51.29 L 342.7436 51.33 L 343.9036 51.37 L 345.0836 51.41 L 346.2636 51.45 L 347.4236 51.49 L 348.6036 51.53 L 349.7836 51.57 L 350.9636 51.61 L 352.1236 51.63 L 353.3036 51.67 L 354.4836 51.71 L 355.6636 51.75 L 356.8436 51.77 L 358.0236 51.81 L 359.2036 51.83 L 360.3836 51.85 L 361.5636 51.87 L 362.7436 51.89 L 363.9436 51.91 L 365.1236 51.93 L 366.3036 51.95 L 367.4836 51.97 H 368.6836 L 369.8636 51.99 L 371.0436 52.01 L 372.2436 52.03 L 373.4236 52.05 L 374.6236 52.07 L 375.8036 52.09 L 377.0036 52.11 L 378.1836 52.13 L 379.3836 52.15 L 380.5836 52.17 L 381.7636 52.19 L 382.9636 52.21 L 384.1636 52.23 L 385.3636 52.25 L 386.5436 52.27 L 387.7436 52.31 L 388.9436 52.33 L 390.1436 52.35 L 391.3436 52.37 L 392.5436 52.39 L 393.7436 52.41 L 394.9436 52.43 L 396.1436 52.47 L 397.3436 52.49 L 398.5436 52.51 L 399.7436 52.53 L 400.9436 52.55 L 402.1436 52.57 L 403.3636 52.59 L 404.5636 52.61 L 405.7636 52.65 L 406.9636 52.67 L 408.1836 52.69 L 409.3836 52.71 L 410.5836 52.73 L 411.8036 52.75 L 413.0036 52.77 L 414.2236 52.81 L 415.4236 52.83 L 416.6436 52.85 L 417.8436 52.87 L 419.0636 52.89 L 420.2636 52.91 L 421.4836 52.93 L 422.6836 52.95 L 423.9036 52.97 L 425.1236 52.99 L 426.3436 53.01 L 427.5436 53.05 L 428.7636 53.07 L 429.9836 53.09 L 431.2036 53.11 L 432.4236 53.13 L 433.6236 53.15 L 434.8436 53.17 L 436.0636 53.19 L 437.2836 53.21 L 438.4836 53.23 L 439.6836 53.25 L 440.8636 53.27 L 442.0236 53.29 L 443.1836 53.31 L 444.3236 53.33 L 445.4436 53.35 L 446.5636 53.37 L 447.6436 53.39 L 448.7436 53.41 L 449.8036 53.43 L 450.8636 53.45 L 451.9036 53.47 L 452.9236 53.49 L 453.9436 53.51 L 454.9436 53.53 L 455.9436 53.57 L 456.9236 53.59 L 457.9036 53.61 L 458.8636 53.63 L 459.8036 53.67 L 460.7436 53.69 L 461.6836 53.73 L 462.6036 53.75 L 463.5036 53.77 L 464.4036 53.81 L 465.3036 53.83 L 466.2036 53.85 L 467.0836 53.89 L 467.9836 53.91 L 468.8636 53.93 L 469.7236 53.97 L 470.5836 53.99 L 471.4436 54.01 L 472.2836 54.03 L 473.1236 54.07 L 473.9636 54.09 L 474.7636 54.11 L 475.5836 54.13 L 476.3836 54.15 L 477.1636 54.17 L 477.9436 54.21 L 478.7036 54.23 L 479.4636 54.25 L 480.2036 54.27 L 480.9636 54.29 L 481.6836 54.31 L 482.4036 54.33 L 483.1236 54.35 L 483.8236 54.37 L 484.5236 54.39 L 485.2036 54.41 L 485.8636 54.43 L 486.5236 54.45 L 487.1836 54.47 L 487.8036 54.49 L 488.4236 54.51 H 489.0236 L 489.6236 54.53 L 490.2036 54.55 L 490.7836 54.57 L 491.3436 54.59 L 491.8836 54.61 L 492.4236 54.63 L 492.9436 54.65 H 493.4436 L 493.9436 54.67 L 494.4236 54.69 L 494.8836 54.71 H 495.3436 L 495.8036 54.75 L 496.2436 54.77 L 496.6636 54.81 L 497.1036 54.85 L 497.5036 54.91 L 497.9036 54.97 L 498.3036 55.03 L 498.7036 55.09 L 499.0636 55.17 L 499.4436 55.27 L 499.8036 55.35 L 500.1436 55.45 L 500.5036 55.57 L 500.8236 55.69 L 501.1636 55.81 L 501.4636 55.93 L 501.7836 56.07 L 502.3436 56.35 L 502.8836 56.67 L 503.4036 57.03 L 503.8836 57.41 L 504.3236 57.81 L 504.7036 58.25 L 505.0836 58.71 L 505.4036 59.19 L 505.6836 59.71 L 505.9236 60.23 L 506.1236 60.77 L 506.3036 61.33 L 506.4636 61.91 L 506.6036 62.49 L 506.7436 63.09 L 506.8836 63.65 L 507.0236 64.21 L 507.1836 64.73 L 507.3636 65.21 L 507.5836 65.69 L 507.8236 66.13 L 508.1036 66.57 L 508.4036 66.97 L 508.7636 67.37 L 509.1436 67.73 L 509.5636 68.05 L 510.0036 68.35 L 510.4636 68.61 L 510.9436 68.83 L 511.4636 69.01 L 511.9836 69.15 L 512.5236 69.27 L 513.0636 69.33 L 513.6236 69.35 L 514.1836 69.33 L 514.7636 69.27 L 515.3236 69.17 L 515.8836 69.03 L 516.4636 68.89 L 517.0636 68.71 L 517.6836 68.51 L 518.0036 68.41 L 518.3436 68.31 L 518.6836 68.21 L 519.0236 68.09 L 519.3636 67.99 L 519.7236 67.87 L 520.0836 67.75 L 520.4636 67.63 L 520.8436 67.51 L 521.2236 67.39 L 521.6036 67.27 L 522.0036 67.15 L 522.3836 67.03 L 522.7836 66.89 L 523.1836 66.77 L 523.6036 66.65 L 524.0236 66.51 L 524.4436 66.37 L 524.8636 66.25 L 525.2836 66.11 L 525.7236 65.97 L 526.1636 65.83 L 526.6236 65.69 L 527.0636 65.55 L 527.5236 65.39 L 528.0036 65.25 L 528.4636 65.11 L 528.9436 64.97 L 529.4236 64.83 L 529.9236 64.67 L 530.4036 64.53 L 530.9036 64.39 L 531.4236 64.23 L 531.9236 64.09 L 532.4436 63.95 L 532.9636 63.79 L 533.4836 63.63 L 534.0236 63.49 L 534.5436 63.33 L 535.0836 63.17 L 535.6236 63.01 L 536.1636 62.85 L 536.7236 62.69 L 537.2636 62.53 L 537.8236 62.37 L 538.3836 62.21 L 538.9436 62.05 L 539.5236 61.89 L 540.0836 61.71 L 540.6636 61.55 L 541.2436 61.39 L 541.8236 61.21 L 542.4236 61.05 L 543.0036 60.87 L 543.6036 60.71 L 544.2036 60.55 L 544.8236 60.37 L 545.4236 60.21 L 546.0436 60.05 L 546.6636 59.89 L 547.2836 59.75 L 547.9236 59.59 L 548.5636 59.45 L 549.2036 59.31 L 549.8436 59.19 L 550.5036 59.05 L 551.1636 58.93 L 551.8236 58.79 L 552.4836 58.67 L 553.1436 58.55 L 553.8236 58.41 L 554.5036 58.29 L 555.1836 58.17 L 555.8636 58.03 L 556.5436 57.91 L 557.2436 57.79 L 557.9436 57.69 L 558.6436 57.57 L 559.3436 57.45 L 560.0436 57.35 L 560.7636 57.25 L 561.4836 57.15 L 562.2036 57.05 L 562.9236 56.95 L 563.6436 56.85 L 564.3836 56.77 L 565.1236 56.67 L 565.8436 56.59 L 566.5836 56.51 L 567.3236 56.45 L 568.0636 56.37 L 568.8236 56.31 L 569.5636 56.25 L 570.3236 56.19 L 571.0836 56.13 L 571.8436 56.09 L 572.6036 56.03 L 573.3636 55.99 L 574.1436 55.95 L 574.9036 55.91 L 575.6836 55.89 L 576.4636 55.85 L 577.2436 55.83 L 578.0236 55.81 L 578.8236 55.79 L 579.6036 55.77 L 580.4036 55.75 L 581.2036 55.73 L 582.0036 55.71 L 582.8036 55.69 L 583.6036 55.67 H 584.4236 L 585.2236 55.65 H 586.0436 H 586.8636 H 587.6836 H 588.5036 H 589.3436 H 590.1636 H 591.0036 H 591.8236 L 592.6636 55.67 H 593.5036 H 594.3436 L 595.1836 55.69 L 596.0436 55.71 L 596.8836 55.73 H 597.7436 L 598.6036 55.75 L 599.4436 55.77 L 600.3036 55.81 L 601.1836 55.83 L 602.0436 55.85 L 602.9036 55.89 L 603.7836 55.93 L 604.6436 55.97 L 605.5236 56.01 L 606.4036 56.07 L 607.2836 56.13 L 608.1636 56.19 L 609.0436 56.25 L 609.9236 56.33 L 610.8036 56.41 L 611.6836 56.49 L 612.5636 56.59 L 613.4436 56.69 L 614.3436 56.79 L 615.2236 56.91 L 616.1036 57.03 L 617.0036 57.17 L 617.8836 57.31 L 618.7836 57.47 L 619.6636 57.63 L 620.5436 57.79 L 621.4436 57.97 L 622.3236 58.15 L 623.2236 58.35 L 624.1036 58.55 L 625.0036 58.77 L 625.8836 58.99 L 626.7836 59.21 L 627.6636 59.45 L 628.5636 59.69 L 629.4436 59.95 L 630.3436 60.21 L 631.2236 60.49 L 632.1036 60.77 L 632.9836 61.05 L 633.8836 61.35 L 634.7636 61.67 L 635.6436 61.99 L 636.5236 62.31 L 637.4036 62.65 L 638.2636 62.99 L 639.1436 63.33 L 640.0236 63.69 L 640.9036 64.07 L 641.7636 64.45 L 642.6236 64.83 L 643.5036 65.23 L 644.3636 65.63 L 645.2236 66.05 L 646.0836 66.47 L 646.9436 66.89 L 647.8036 67.33 L 648.6436 67.77 L 649.5036 68.23 L 650.3436 68.69 L 651.1836 69.17 L 652.0236 69.65 L 652.8636 70.15 L 653.7036 70.63 L 654.5436 71.15 L 655.3636 71.67 L 656.1836 72.19 L 657.0036 72.71 L 657.8236 73.25 L 658.6436 73.81 L 659.4436 74.37 L 660.2436 74.93 L 661.0436 75.51 L 661.8436 76.11 L 662.6236 76.71 L 663.4036 77.31 L 664.1636 77.93 L 664.9436 78.57 L 665.7036 79.21 L 666.4436 79.85 L 667.1836 80.51 L 667.9236 81.19 L 668.6636 81.85 L 669.3836 82.55 L 670.1036 83.25 L 670.8236 83.95 L 671.5236 84.65 L 672.2236 85.37 L 672.9236 86.11 L 673.6036 86.83 L 674.2836 87.59 L 674.9636 88.33 L 675.6436 89.09 L 676.3036 89.85 L 676.9636 90.63 L 677.6036 91.41 L 678.2636 92.17 L 678.9236 92.95 L 679.5836 93.75 L 680.2236 94.53 L 680.8836 95.31 L 681.5436 96.11 L 682.1836 96.89 L 682.8236 97.69 L 683.4636 98.51 L 684.0836 99.31 L 684.7236 100.13 L 685.3436 100.95 L 685.9436 101.79 L 686.5636 102.61 L 687.1636 103.45 L 687.7636 104.31 L 688.3636 105.15 L 688.9636 105.99 L 689.5436 106.85 L 690.1436 107.71 L 690.7036 108.59 L 691.2836 109.47 L 691.8436 110.35 L 692.3836 111.23 L 692.9236 112.13 L 693.4636 113.03 L 693.9636 113.95 L 694.4836 114.87 L 694.9836 115.79 L 695.4636 116.71 L 695.9436 117.65 L 696.4236 118.59 L 696.8636 119.53 L 697.3236 120.49 L 697.7636 121.45 L 698.2036 122.4101 L 698.6236 123.37 L 699.0436 124.35 L 699.4436 125.33 L 699.8436 126.3099 L 700.2236 127.3099 L 700.5836 128.29 L 700.9436 129.29 L 701.2836 130.29 L 701.6236 131.3099 L 701.9436 132.3099 L 702.2636 133.33 L 702.5836 134.35 L 702.8836 135.37 L 703.1836 136.39 L 703.4636 137.41 L 703.7636 138.4301 L 704.0236 139.47 L 704.3036 140.49 L 704.5636 141.53 L 704.8236 142.57 L 705.0636 143.61 L 705.3036 144.65 L 705.5436 145.6899 L 705.7836 146.75 L 706.0036 147.79 L 706.2436 148.85 L 706.4636 149.89 L 706.6836 150.95 L 706.8836 151.99 L 707.1036 153.0501 L 707.3036 154.11 L 707.5036 155.17 L 707.7036 156.23 L 707.8836 157.29 L 708.0836 158.35 L 708.2836 159.4301 L 708.4636 160.49 L 708.6636 161.5501 L 708.8436 162.63 L 709.0236 163.6899 L 709.2236 164.77 L 709.4036 165.83 L 709.5836 166.91 L 709.7836 167.97 L 709.9636 169.0501 L 710.1436 170.13 L 710.3236 171.21 L 710.5036 172.29 L 710.6836 173.37 L 710.8636 174.45 L 711.0236 175.53 L 711.2036 176.61 L 711.3836 177.6899 L 711.5436 178.77 L 711.7236 179.87 L 711.8836 180.95 L 712.0636 182.0501 L 712.2236 183.13 L 712.3836 184.23 L 712.5436 185.3099 L 712.7036 186.41 L 712.8836 187.51 L 713.0236 188.59 L 713.1836 189.6899 L 713.3436 190.79 L 713.5036 191.89 L 713.6636 192.99 L 713.8236 194.09 L 713.9836 195.1899 L 714.1436 196.29 L 714.2836 197.39 L 714.4436 198.49 L 714.6036 199.61 L 714.7636 200.71 L 714.9236 201.8099 L 715.0836 202.9301 L 715.2436 204.03 L 715.4036 205.13 L 715.5636 206.25 L 715.7236 207.37 L 715.8636 208.47 L 716.0236 209.59 L 716.1836 210.6899 L 716.3436 211.8099 L 716.5036 212.9301 L 716.6636 214.0501 L 716.8236 215.17 L 716.9636 216.29 L 717.1236 217.41 L 717.2636 218.53 L 717.4236 219.65 L 717.5636 220.77 L 717.7236 221.89 L 717.8636 223.01 L 718.0036 224.11 L 718.1436 225.23 L 718.2636 226.33 L 718.4036 227.4301 L 718.5436 228.51 L 718.6636 229.59 L 718.7836 230.65 L 718.9236 231.71 L 719.0436 232.75 L 719.1636 233.79 L 719.2836 234.8099 L 719.4036 235.83 L 719.5236 236.83 L 719.6436 237.83 L 719.7636 238.8099 L 719.8836 239.79 L 720.0036 240.75 L 720.1036 241.71 L 720.2236 242.65 L 720.3436 243.59 L 720.4436 244.51 L 720.5636 245.4301 L 720.6636 246.33 L 720.7836 247.21 L 720.8836 248.09 L 720.9836 248.95 L 721.1036 249.8099 L 721.2036 250.65 L 721.3036 251.47 L 721.4036 252.29 L 721.5036 253.09 L 721.6036 253.87 L 721.7036 254.65 L 721.8036 255.41 L 721.9036 256.17 L 721.9836 256.91 L 722.0836 257.63 L 722.1636 258.33 L 722.2636 259.0501 L 722.3436 259.73 L 722.4436 260.41 L 722.5236 261.07 L 722.6036 261.73 L 722.6836 262.37 L 722.7636 262.99 L 722.8436 263.61 L 722.9236 264.21 L 723.0036 264.79 L 723.0636 265.37 L 723.1436 265.95 L 723.2236 266.49 L 723.2836 267.03 L 723.3636 267.57 L 723.4236 268.09 L 723.4836 268.59 L 723.5636 269.09 L 723.6236 269.59 L 723.6836 270.0501 L 723.7436 270.53 L 723.8036 270.99 L 723.8636 271.47 L 723.9236 271.9301 L 723.9836 272.39 L 724.0436 272.85 L 724.1236 273.3099 L 724.1836 273.77 L 724.2436 274.21 L 724.3036 274.65 L 724.3636 275.09 L 724.4236 275.51 L 724.4836 275.91 L 724.5636 276.33 L 724.6236 276.73 L 724.7036 277.11 L 724.8036 277.49 L 724.8836 277.87 L 724.9836 278.23 L 725.0836 278.59 L 725.1836 278.95 L 725.3036 279.29 L 725.4236 279.61 L 725.5436 279.95 L 725.6836 280.27 L 725.8436 280.59 L 726.0036 280.89 L 726.1636 281.1899 L 726.3436 281.49 L 726.5236 281.79 L 726.7036 282.07 L 726.9036 282.35 L 727.1236 282.63 L 727.3436 282.89 L 727.5637 283.15 L 727.8036 283.41 L 728.0436 283.67 L 728.3036 283.91 L 728.5637 284.15 L 728.8237 284.37 L 729.1036 284.59 L 729.3837 284.8099 L 729.6636 285.03 L 729.9636 285.23 L 730.2637 285.4301 L 730.5836 285.6101 L 730.9036 285.7901 L 731.2436 285.9701 L 731.5637 286.1301 L 731.9036 286.2901 L 732.2637 286.4501 L 732.6036 286.5901 L 732.9636 286.7301 L 733.3237 286.8901 L 733.7037 287.0501 L 734.0637 287.2101 L 734.4437 287.3701 L 734.8036 287.5501 L 735.1437 287.7301 L 735.5037 287.9302 L 735.8436 288.1502 L 736.2037 288.3701 L 736.5236 288.5901 L 736.8636 288.8301 L 737.1836 289.0901 L 737.5037 289.3501 L 737.8036 289.6101 L 738.1036 289.8902 L 738.3837 290.1702 L 738.6636 290.4501 L 738.9437 290.7501 L 739.2236 291.0701 L 739.4836 291.3902 L 739.7436 291.7101 L 739.9836 292.0302 L 740.2436 292.3701 L 740.4636 292.7101 L 740.7037 293.0701 L 740.9236 293.4302 L 741.1236 293.8101 L 741.3237 294.1901 L 741.5436 294.5701 L 741.7436 294.9501 L 741.9437 295.3501 L 742.1437 295.7702 L 742.3437 296.1702 L 742.5437 296.5901 L 742.7437 297.0102 L 742.9437 297.4302 L 743.1437 297.8701 L 743.3637 298.3101 L 743.5637 298.7501 L 743.7637 299.2101 L 743.9837 299.6702 L 744.1837 300.1301 L 744.4037 300.5901 L 744.6037 301.0701 L 744.8037 301.5502 L 745.0037 302.0502 L 745.2037 302.5502 L 745.4037 303.0502 L 745.5837 303.5502 L 745.7837 304.0701 L 745.9637 304.5901 L 746.1437 305.1101 L 746.3237 305.6502 L 746.5037 306.1901 L 746.6637 306.7301 L 746.8437 307.2902 L 747.0237 307.8301 L 747.2037 308.3701 L 747.3837 308.9302 L 747.5637 309.4901 L 747.7637 310.0502 L 747.9637 310.6101 L 748.1637 311.1702 L 748.3837 311.7301 L 748.6037 312.2902 L 748.8037 312.8701 L 749.0237 313.4501 L 749.2637 314.0302 L 749.4837 314.6101 L 749.7037 315.1901 L 749.9237 315.7902 L 750.1637 316.3902 L 750.3837 316.9901 L 750.6237 317.5901 L 750.8437 318.1901 L 751.0837 318.7902 L 751.3237 319.4102 L 751.5637 320.0302 L 751.8037 320.6502 L 752.0437 321.2702 L 752.2837 321.9102 L 752.5237 322.5302 L 752.7637 323.1702 L 753.0237 323.8101 L 753.2837 324.4501 L 753.5437 325.0901 L 753.7837 325.7301 L 754.0437 326.3902 L 754.3237 327.0502 L 754.5837 327.6901 L 754.8437 328.3501 L 755.1037 329.0102 L 755.3837 329.6901 L 755.6437 330.3501 L 755.9237 331.0302 L 756.1837 331.6901 L 756.4637 332.3701 L 756.7237 333.0502 L 757.0037 333.7301 L 757.2637 334.4102 L 757.5437 335.0901 L 757.8237 335.7902 L 758.1037 336.4701 L 758.3837 337.1702 L 758.6637 337.8701 L 758.9437 338.5701 L 759.2437 339.2702 L 759.5237 339.9701 L 759.8237 340.6901 L 760.1037 341.3902 L 760.4037 342.1101 L 760.6837 342.8301 L 760.9837 343.5302 L 761.2837 344.2501 L 761.5837 344.9901 L 761.8837 345.7101 L 762.2037 346.4302 L 762.5037 347.1702 L 762.8037 347.8902 L 763.1237 348.6301 L 763.4237 349.3701 L 763.7437 350.1101 L 764.0437 350.8501 L 764.3637 351.6101 L 764.6837 352.3501 L 764.9837 353.1101 L 765.3037 353.8701 L 765.6037 354.6301 L 765.9037 355.3902 L 766.2237 356.1502 L 766.5237 356.9302 L 766.8437 357.7101 L 767.1437 358.4701 L 767.4637 359.2501 L 767.7637 360.0302 L 768.0837 360.8101 L 768.3837 361.5901 L 768.7037 362.3701 L 769.0037 363.1301 L 769.3237 363.9102 L 769.6237 364.6702 L 769.9237 365.4302 L 770.2237 366.1702 L 770.5237 366.9102 L 770.8037 367.6301 L 771.0837 368.3501 L 771.3837 369.0701 L 771.6637 369.7702 L 771.9237 370.4501 L 772.2037 371.1502 L 772.4837 371.8101 L 772.7437 372.4901 L 773.0037 373.1502 L 773.2437 373.7902 L 773.5037 374.4302 L 773.7437 375.0701 L 773.9637 375.7101 L 774.1837 376.3301 L 774.3837 376.9501 L 774.5837 377.5701 L 774.7637 378.1702 L 774.9437 378.7902 L 775.1037 379.3902 L 775.2437 379.9901 L 775.3837 380.6101 L 775.5037 381.2101 L 775.6237 381.8301 L 775.7237 382.4302 L 775.8037 383.0502 L 775.8837 383.6502 L 775.9437 384.2702 L 775.9837 384.8701 L 776.0237 385.4901 L 776.0637 386.0901 L 776.0837 386.7101 V 387.3101 L 776.1037 387.9302 L 776.0837 388.5302 V 389.1301 L 776.0637 389.7501 L 776.0437 390.3501 L 776.0037 390.9501 L 775.9437 391.5502 L 775.8837 392.1502 L 775.8237 392.7501 L 775.7437 393.3301 L 775.6637 393.9302 L 775.5637 394.5102 L 775.4637 395.1101 L 775.3437 395.6901 L 775.2237 396.2702 L 775.0837 396.8501 L 774.9437 397.4102 L 774.7837 397.9901 L 774.6037 398.5502 L 774.4237 399.0901 L 774.2237 399.6502 L 774.0038 400.1702 L 773.7837 400.7101 L 773.5437 401.2301 L 773.3037 401.7501 L 773.0237 402.2501 L 772.7638 402.7501 L 772.4837 403.2501 L 772.1837 403.7301 L 771.8838 404.2101 L 771.5638 404.6702 L 771.2437 405.1301 L 770.9037 405.5901 L 770.5638 406.0302 L 770.2038 406.4501 L 769.8238 406.8902 L 769.4637 407.3101 L 769.0638 407.7101 L 768.6637 408.1301 L 768.2638 408.5302 L 767.8437 408.9102 L 767.4237 409.2902 L 766.9837 409.6702 L 766.5237 410.0502 L 766.0837 410.4102 L 765.6037 410.7501 L 765.1438 411.1101 L 764.6438 411.4302 L 764.1637 411.7702 L 763.6438 412.0901 L 763.1438 412.3902 L 762.6237 412.6901 L 762.0837 412.9901 L 761.5437 413.2702 L 761.0038 413.5302 L 760.4637 413.7902 L 759.9037 414.0502 L 759.3238 414.2902 L 758.7437 414.5102 L 758.1637 414.7301 L 757.5837 414.9302 L 756.9837 415.1302 L 756.3838 415.3302 L 755.7837 415.4902 L 755.1637 415.6502 L 754.5437 415.8102 L 753.9237 415.9502 L 753.3037 416.0902 L 752.6637 416.2102 L 752.0237 416.3302 L 751.3838 416.4304 L 750.7437 416.5304 L 750.0837 416.6504 L 749.4237 416.7504 L 748.7837 416.8704 L 748.1037 416.9704 L 747.4438 417.0904 L 746.7837 417.2104 L 746.1037 417.3104 L 745.4237 417.4306 L 744.7437 417.5506 L 744.0638 417.6706 L 743.3637 417.7906 L 742.6837 417.8906 L 741.9837 418.0106 L 741.2837 418.1306 L 740.5837 418.2506 L 739.8637 418.3706 L 739.1637 418.4906 L 738.4438 418.6106 L 737.7237 418.7306 L 737.0038 418.8506 L 736.2837 418.9506 L 735.5638 419.0706 L 734.8238 419.1906 L 734.1037 419.2906 L 733.3637 419.3906 L 732.6237 419.4906 L 731.8838 419.6106 L 731.1438 419.7106 L 730.4037 419.8106 L 729.6438 419.9108 L 728.9037 420.0108 L 728.1438 420.1108 L 727.3838 420.2108 L 726.6237 420.3108 L 725.8637 420.431 L 725.0837 420.531 L 724.3238 420.651 L 723.5437 420.751 L 722.7638 420.871 L 721.9837 420.971 L 721.2038 421.091 L 720.4237 421.211 L 719.6438 421.331 L 718.8437 421.451 L 718.0638 421.571 L 717.2638 421.691 L 716.4637 421.811 L 715.6637 421.9312 L 714.8637 422.071 L 714.0437 422.191 L 713.2437 422.311 L 712.4237 422.4312 L 711.6037 422.571 L 710.8037 422.691 L 709.9837 422.811 L 709.1637 422.951 L 708.3437 423.071 L 707.5237 423.191 L 706.7038 423.331 L 705.9037 423.451 L 705.1037 423.571 L 704.3238 423.691 L 703.5437 423.811 L 702.7638 423.9312 L 702.0038 424.0512 L 701.2638 424.1712 L 700.5237 424.2712 L 699.7837 424.3912 L 699.0638 424.5112 L 698.3637 424.6112 L 697.6637 424.7112 L 696.9837 424.8112 L 696.3238 424.9314 L 695.6637 425.0314 L 695.0237 425.1114 L 694.3838 425.2114 L 693.7638 425.3114 L 693.1637 425.3914 L 692.5638 425.4714 L 691.9837 425.5514 L 691.4037 425.6314 L 690.8437 425.6914 L 690.2638 425.7714 L 689.7237 425.8314 L 689.1637 425.8914 L 688.6037 425.9314 L 688.0638 425.9714 L 687.5237 426.0114 L 687.0038 426.0314 L 686.4637 426.0514 H 685.9438 H 685.4237 H 684.9037 L 684.3838 426.0314 L 683.8637 426.0114 L 683.3437 425.9714 L 682.8238 425.9314 L 682.3238 425.8714 L 681.8037 425.7914 L 681.2837 425.7314 L 680.7837 425.6514 L 680.2837 425.5514 L 679.7837 425.4514 L 679.2837 425.3314 L 678.7837 425.2114 L 678.2837 425.0914 L 677.8037 424.9514 L 677.3037 424.8114 L 676.8238 424.6514 L 676.3238 424.4714 L 675.8437 424.3114 L 675.3637 424.1114 L 674.9037 423.9114 L 674.4237 423.7113 L 673.9637 423.4914 L 673.4837 423.2514 L 673.0437 423.0114 L 672.5837 422.7714 L 672.1438 422.5114 L 671.7038 422.2113 L 671.2837 421.9314 L 670.8636 421.63 L 670.4436 421.3099 L 670.0436 420.99 L 669.6436 420.65 L 669.2436 420.29 L 668.8436 419.95 L 668.4636 419.57 L 668.0636 419.1899 L 667.6836 418.8099 L 667.3036 418.4301 L 666.9236 418.01 L 666.5636 417.61 L 666.1836 417.1899 L 665.8236 416.75 L 665.4636 416.33 L 665.1236 415.87 L 664.7636 415.4301 L 664.4036 414.97 L 664.0636 414.49 L 663.7236 414.03 L 663.3636 413.5501 L 663.0236 413.0501 L 662.6836 412.57 L 662.3236 412.07 L 661.9836 411.57 L 661.6236 411.07 L 661.2836 410.57 L 660.9236 410.0501 L 660.5636 409.5501 L 660.2036 409.03 L 659.8236 408.51 L 659.4636 407.99 L 659.1036 407.45 L 658.7236 406.9301 L 658.3636 406.39 L 657.9836 405.85 L 657.6236 405.3099 L 657.2636 404.75 L 656.8836 404.1899 L 656.5236 403.63 L 656.1436 403.07 L 655.7836 402.49 L 655.4036 401.91 L 655.0436 401.35 L 654.6636 400.77 L 654.2836 400.17 L 653.9236 399.59 L 653.5436 398.99 L 653.1636 398.41 L 652.7636 397.8099 L 652.3836 397.21 L 652.0036 396.59 L 651.6236 395.99 L 651.2236 395.37 L 650.8436 394.77 L 650.4436 394.15 L 650.0636 393.53 L 649.6636 392.89 L 649.2636 392.27 L 648.8636 391.65 L 648.4836 391.03 L 648.0836 390.39 L 647.6836 389.75 L 647.2836 389.13 L 646.8636 388.49 L 646.4636 387.85 L 646.0636 387.21 L 645.6436 386.5501 L 645.2436 385.91 L 644.8236 385.27 L 644.4236 384.61 L 644.0036 383.95 L 643.5836 383.29 L 643.1636 382.63 L 642.7436 381.97 L 642.3236 381.3099 L 641.9036 380.63 L 641.4636 379.97 L 641.0436 379.29 L 640.6036 378.61 L 640.1836 377.9301 L 639.7436 377.25 L 639.3236 376.57 L 638.8836 375.89 L 638.4436 375.21 L 638.0036 374.51 L 637.5636 373.8099 L 637.1236 373.13 L 636.6836 372.4301 L 636.2436 371.73 L 635.8036 371.03 L 635.3436 370.3099 L 634.9036 369.61 L 634.4636 368.91 L 634.0036 368.1899 L 633.5436 367.47 L 633.1036 366.77 L 632.6436 366.0501 L 632.1836 365.33 L 631.7236 364.61 L 631.2636 363.87 L 630.8036 363.15 L 630.3436 362.4301 L 629.8836 361.6899 L 629.4036 360.95 L 628.9436 360.23 L 628.4836 359.49 L 628.0036 358.75 L 627.5436 358.01 L 627.0636 357.27 L 626.6036 356.53 L 626.1236 355.79 L 625.6636 355.0501 L 625.1836 354.3099 L 624.7036 353.5501 L 624.2436 352.8099 L 623.7636 352.0501 L 623.2836 351.29 L 622.8036 350.5501 L 622.3236 349.79 L 621.8436 349.03 L 621.3436 348.27 L 620.8636 347.51 L 620.3636 346.75 L 619.8636 345.99 L 619.3636 345.23 L 618.8636 344.47 L 618.3436 343.71 L 617.8436 342.97 L 617.3236 342.21 L 616.8036 341.45 L 616.2836 340.6899 L 615.7436 339.9301 L 615.2236 339.17 L 614.6836 338.41 L 614.1636 337.65 L 613.6236 336.89 L 613.0836 336.11 L 612.5436 335.35 L 612.0036 334.59 L 611.4636 333.8099 L 610.9236 333.0501 L 610.3836 332.29 L 609.8236 331.51 L 609.2836 330.73 L 608.7236 329.97 L 608.1836 329.1899 L 607.6236 328.41 L 607.0636 327.63 L 606.5036 326.85 L 605.9436 326.09 L 605.3836 325.3099 L 604.8036 324.53 L 604.2436 323.75 L 603.6636 322.99 L 603.0836 322.21 L 602.4836 321.4301 L 601.9036 320.67 L 601.3036 319.89 L 600.7036 319.13 L 600.1036 318.35 L 599.4836 317.59 L 598.8836 316.83 L 598.2636 316.07 L 597.6236 315.3099 L 597.0036 314.5501 L 596.3636 313.79 L 595.7236 313.0501 L 595.0836 312.29 L 594.4236 311.5501 L 593.7836 310.79 L 593.1236 310.0501 L 592.4436 309.3099 L 591.7836 308.57 L 591.1036 307.83 L 590.4236 307.09 L 589.7436 306.37 L 589.0636 305.63 L 588.3636 304.89 L 587.6836 304.15 L 586.9836 303.4301 L 586.2836 302.6899 L 585.5836 301.95 L 584.8836 301.21 L 584.1836 300.47 L 583.4836 299.75 L 582.7836 299.01 L 582.0836 298.25 L 581.3836 297.51 L 580.6636 296.77 L 579.9636 296.03 L 579.2636 295.29 L 578.5436 294.53 L 577.8436 293.79 L 577.1236 293.03 L 576.4036 292.29 L 575.7036 291.53 L 574.9836 290.79 L 574.2636 290.03 L 573.5436 289.27 L 572.8236 288.51 L 572.1036 287.77 L 571.3836 287.01 L 570.6636 286.25 L 569.9436 285.49 L 569.2236 284.71 L 568.4836 283.95 L 567.7636 283.1899 L 567.0436 282.4301 L 566.3036 281.65 L 565.5836 280.89 L 564.8436 280.13 L 564.1036 279.35 L 563.3836 278.57 L 562.6436 277.8099 L 561.9036 277.03 L 561.1636 276.27 L 560.4436 275.49 L 559.7036 274.71 L 558.9636 273.9301 L 558.2236 273.17 L 557.4836 272.39 L 556.7236 271.61 L 555.9836 270.85 L 555.2436 270.07 L 554.4836 269.3099 L 553.7236 268.53 L 552.9636 267.77 L 552.2036 266.99 L 551.4436 266.23 L 550.6836 265.47 L 549.9236 264.6899 L 549.1436 263.9301 L 548.3836 263.17 L 547.6036 262.39 L 546.8236 261.63 L 546.0636 260.87 L 545.2836 260.09 L 544.5036 259.33 L 543.7236 258.5501 L 542.9436 257.79 L 542.1636 257.01 L 541.4036 256.25 L 540.6036 255.47 L 539.8236 254.6899 L 539.0436 253.91 L 538.2636 253.15 L 537.4836 252.37 L 536.7036 251.59 L 535.9036 250.8099 L 535.1236 250.03 L 534.3436 249.25 L 533.5636 248.47 L 532.7636 247.6899 L 531.9836 246.89 L 531.2036 246.11 L 530.4236 245.33 L 529.6236 244.53 L 528.8436 243.73 L 528.0636 242.95 L 527.2636 242.15 L 526.4836 241.35 L 525.7036 240.57 L 524.9036 239.77 L 524.1236 238.97 L 523.3436 238.17 L 522.5436 237.37 L 521.7636 236.57 L 520.9836 235.75 L 520.2036 234.95 L 519.4036 234.13 L 518.6236 233.33 L 517.8436 232.51 L 517.0636 231.71 L 516.2636 230.89 L 515.4836 230.09 L 514.7036 229.27 L 513.9036 228.45 L 513.1236 227.65 L 512.3236 226.83 L 511.5436 226.01 L 510.7436 225.1899 L 509.9636 224.39 L 509.1636 223.57 L 508.3636 222.75 L 507.5636 221.95 L 506.7836 221.13 L 505.9836 220.3099 L 505.1836 219.49 L 504.3836 218.67 L 503.5836 217.87 L 502.7836 217.0501 L 501.9636 216.23 L 501.1636 215.4301 L 500.3636 214.61 L 499.5636 213.79 L 498.7436 212.99 L 497.9436 212.17 L 497.1436 211.35 L 496.3236 210.53 L 495.5236 209.73 L 494.7036 208.91 L 493.9036 208.09 L 493.0836 207.27 L 492.2836 206.47 L 491.4636 205.65 L 490.6636 204.85 L 489.8636 204.0501 L 489.0836 203.25 L 488.2836 202.47 L 487.5236 201.6899 L 486.7636 200.9301 L 486.0036 200.17 L 485.2636 199.41 L 484.5236 198.67 L 483.7836 197.95 L 483.0636 197.23 L 482.3636 196.51 L 481.6436 195.79 L 480.9436 195.09 L 480.2636 194.41 L 479.5636 193.71 L 478.8836 193.03 L 478.2236 192.37 L 477.5636 191.71 L 476.9036 191.0501 L 476.2436 190.39 L 475.6036 189.75 L 474.9636 189.11 L 474.3236 188.47 L 473.7036 187.83 L 473.0636 187.1899 L 472.4436 186.57 L 471.8036 185.95 L 471.1836 185.33 L 470.5836 184.71 L 469.9636 184.09 L 469.3636 183.49 L 468.7636 182.89 L 468.1636 182.3099 L 467.5836 181.73 L 467.0036 181.15 L 466.4436 180.57 L 465.8836 180.01 L 465.3236 179.45 L 464.7636 178.91 L 464.2236 178.37 L 463.7036 177.83 L 463.1636 177.3099 L 462.6636 176.79 L 462.1436 176.29 L 461.6436 175.77 L 461.1436 175.27 L 460.6436 174.79 L 460.1636 174.3099 L 459.6836 173.83 L 459.2236 173.35 L 458.7636 172.89 L 458.3036 172.4301 L 457.8636 171.99 L 457.4036 171.5501 L 456.9636 171.11 L 456.5436 170.6899 L 456.1036 170.27 L 455.6836 169.87 L 455.2436 169.47 L 454.8236 169.07 L 454.4036 168.6899 L 453.9836 168.3099 L 453.5636 167.95 L 453.1436 167.59 L 452.7236 167.25 L 452.3236 166.91 L 451.9236 166.57 L 451.5036 166.23 L 451.1036 165.91 L 450.7236 165.59 L 450.3236 165.27 L 449.9436 164.95 L 449.5436 164.63 L 449.1636 164.33 L 448.7836 164.03 L 448.4236 163.73 L 448.0436 163.45 L 447.6636 163.1899 L 447.2836 162.91 L 446.9236 162.67 L 446.5436 162.4301 L 446.1636 162.1899 L 445.8036 161.97 L 445.4236 161.77 L 445.0436 161.59 L 444.6636 161.41 L 444.2836 161.23 L 443.9036 161.09 L 443.5236 160.95 L 443.1436 160.81 L 442.7636 160.69 L 442.3636 160.59 L 441.9836 160.51 L 441.6036 160.43 L 441.2036 160.35 L 440.8236 160.31 L 440.4436 160.27 L 440.0636 160.23 H 439.6636 L 439.2836 160.21 L 438.9036 160.23 H 438.5036 L 438.1236 160.25 L 437.7236 160.29 L 437.3236 160.33 L 436.9236 160.37 L 436.5236 160.43 L 436.1036 160.49 L 435.7036 160.55 L 435.2836 160.61 L 434.8436 160.67 L 434.4236 160.73 L 433.9836 160.79 L 433.5436 160.85 L 433.0836 160.91 L 432.6436 160.97 L 432.1836 161.03 L 431.7036 161.11 L 431.2436 161.17 L 430.7636 161.23 L 430.2836 161.29 L 429.7836 161.35 L 429.3036 161.41 L 428.7836 161.47 L 428.2836 161.51 L 427.7836 161.57 L 427.2636 161.61 L 426.7236 161.65 L 426.2036 161.67 L 425.6636 161.71 H 425.1236 L 424.5836 161.73 L 424.0436 161.71 L 423.5036 161.69 L 422.9636 161.67 L 422.4236 161.65 L 421.8636 161.59 L 421.3236 161.55 L 420.7636 161.49 L 420.2036 161.41 L 419.6436 161.33 L 419.0836 161.25 L 418.5036 161.17 L 417.9236 161.09 L 417.3636 161.01 L 416.7836 160.91 L 416.2036 160.83 L 415.6036 160.71 L 415.0236 160.61 L 414.4436 160.47 L 413.8436 160.35 L 413.2636 160.19 L 412.6636 160.0502 L 412.0836 159.8702 L 411.4836 159.7102 L 410.9036 159.5102 L 410.3036 159.3101 L 409.7236 159.1101 L 409.1436 158.8901 L 408.5636 158.6501 L 407.9836 158.4102 L 407.4036 158.1501 L 406.8436 157.8901 L 406.2636 157.6101 L 405.7036 157.3501 L 405.1436 157.0502 L 404.5836 156.7701 L 404.0236 156.4501 L 403.4836 156.1301 L 402.9436 155.8101 L 402.4036 155.4701 L 401.8636 155.1101 L 401.3436 154.7501 L 400.8236 154.3901 L 400.3236 153.9901 L 399.8236 153.5901 L 399.3236 153.1901 L 398.8236 152.7701 L 398.3236 152.3501 L 397.8236 151.9302 L 397.3236 151.5101 L 396.8036 151.1101 L 396.2836 150.6901 L 395.7436 150.3101 L 395.2036 149.9102 L 394.6636 149.5302 L 394.1036 149.1702 L 393.5436 148.8101 L 392.9636 148.4501 L 392.3836 148.1301 L 391.8036 147.7902 L 391.2236 147.4901 L 390.6236 147.1702 L 390.0236 146.8901 L 389.4036 146.5901 L 388.8036 146.3301 L 388.1836 146.0701 L 387.5636 145.8101 L 386.9236 145.5701 L 386.3036 145.3501 L 385.6636 145.1301 L 385.0236 144.9301 L 384.3836 144.7501 L 383.7436 144.5701 L 383.0836 144.3901 L 382.4436 144.2301 L 381.7836 144.0901 L 381.1236 143.9501 L 380.4436 143.8301 L 379.7836 143.7101 L 379.1036 143.6101 L 378.4236 143.5101 L 377.7436 143.4101 L 377.0636 143.3099 L 376.3636 143.2299 L 375.6636 143.1299 L 374.9836 143.0299 L 374.2836 142.9299 L 373.5636 142.8097 L 372.8636 142.7097 L 372.1436 142.6097 L 371.4436 142.5097 L 370.7236 142.4097 L 369.9836 142.3095 L 369.2636 142.2095 L 368.5436 142.1295 L 367.8236 142.0295 L 367.0836 141.9295 L 366.3436 141.8495 L 365.6036 141.7495 L 364.8636 141.6695 L 364.1236 141.5695 L 363.3836 141.4895 L 362.6236 141.4095 L 361.8636 141.3295 L 361.1236 141.2695 L 360.3436 141.1895 L 359.5836 141.1295 L 358.8236 141.0695 L 358.0436 141.0095 L 357.2836 140.9495 L 356.5036 140.9095 L 355.7236 140.8695 L 354.9236 140.8295 L 354.1436 140.7895 L 353.3436 140.7695 L 352.5636 140.7295 L 351.7636 140.7095 L 350.9636 140.6895 L 350.1636 140.6495 L 349.3636 140.6295 H 348.5436 L 347.7436 140.6095 L 346.9236 140.5895 H 346.1036 L 345.2836 140.5695 H 344.4636 H 343.6236 L 342.8036 140.5495 H 341.9636 H 341.1436 H 340.3036 L 339.4636 140.5295 H 338.6236 H 337.7836 H 336.9236 L 336.0836 140.5095 H 335.2236 H 334.3636 H 333.5036 H 332.6436 L 331.7836 140.4895 H 330.9236 H 330.0436 H 329.1836 L 328.3036 140.4695 H 327.4236 H 326.5636 H 325.6836 H 324.8036 L 323.9236 140.4495 H 323.0436 H 322.1636 L 321.2636 140.4295 H 320.3836 H 319.5036 H 318.6036 L 317.7036 140.4095 H 316.8036 H 315.9036 H 315.0036 L 314.1036 140.3895 H 313.2036 H 312.2836 L 311.3836 140.3695 H 310.4636 H 309.5436 H 308.6436 L 307.7236 140.3495 H 306.8036 H 305.8836 H 304.9436 L 304.0236 140.3295 H 303.0836 H 302.1636 L 301.2236 140.3095 H 300.3036 H 299.3636 H 298.4236 L 297.4836 140.2895 H 296.5236 H 295.5836 H 294.6436 L 293.6836 140.2695 H 292.7436 H 291.7836 L 290.8236 140.2495 H 289.8636 H 288.9236 H 287.9436 L 286.9836 140.2295 H 286.0236 H 285.0636 H 284.0836 L 283.1236 140.2095 H 282.1436 H 281.1636 L 280.2036 140.1895 H 279.2236 H 278.2436 L 277.2636 140.1695 H 276.2636 H 275.2836 L 274.3036 140.1495 H 273.3036 L 272.3236 140.1295 H 271.3236 L 270.3436 140.1095 H 269.3436 L 268.3436 140.0895 H 267.3436 L 266.3436 140.0695 H 265.3436 L 264.3236 140.0495 H 263.3236 L 262.3236 140.0295 H 261.3036 L 260.3036 140.0095 H 259.2836 L 258.2636 139.9895 H 257.2636 L 256.2436 139.9695 L 255.2236 139.9495 H 254.2036 L 253.1636 139.9295 H 252.1436 L 251.1236 139.9095 H 250.1036 L 249.0636 139.8895 H 248.0436 L 247.0036 139.8695 H 245.9636 L 244.9436 139.8495 H 243.9036 L 242.8636 139.8295 H 241.8236 L 240.7836 139.8095 H 239.7436 L 238.6836 139.7895 H 237.6436 L 236.6036 139.7695 H 235.5436 L 234.5036 139.7495 H 233.4436 L 232.4036 139.7295 L 231.3436 139.7095 H 230.2836 L 229.2236 139.6895 H 228.1636 L 227.1036 139.6695 H 226.0436 L 224.9836 139.6495 H 223.9236 L 222.8636 139.6295 H 221.7836 L 220.7236 139.6095 H 219.6636 L 218.5836 139.5895 H 217.5236 L 216.4636 139.5695 H 215.3836 L 214.3236 139.5495 L 213.2436 139.5295 H 212.1636 L 211.1036 139.5095 H 210.0236 L 208.9436 139.4895 H 207.8636 L 206.7836 139.4695 H 205.7036 L 204.6236 139.4495 H 203.5436 L 202.4636 139.4295 H 201.3836 L 200.2836 139.4095 H 199.2036 L 198.1236 139.3895 L 197.0236 139.3695 H 195.9436 L 194.8436 139.3495 H 193.7636 L 192.6636 139.3295 H 191.5636 L 190.4636 139.3095 H 189.3836 L 188.2836 139.2895 H 187.1836 L 186.0836 139.2695 H 184.9836 L 183.8836 139.2495 L 182.7636 139.2295 H 181.6636 L 180.5636 139.2095 H 179.4636 L 178.3436 139.1895 H 177.2436 L 176.1236 139.1695 H 175.0236 L 173.9036 139.1495 L 172.8036 139.1295 H 171.6836 L 170.5636 139.1095 H 169.4436 L 168.3436 139.0895 H 167.2236 L 166.1036 139.0695 H 164.9836 L 163.8636 139.0495 L 162.7436 139.0295 H 161.6236 L 160.4836 139.0095 H 159.3636 L 158.2436 138.9895 H 157.1236 L 155.9836 138.9695 H 154.8636 L 153.7236 138.9495 L 152.6036 138.9295 H 151.4636 L 150.3436 138.9095 L 149.2036 138.8895 H 148.0636 L 146.9236 138.8695 L 145.8036 138.8495 L 144.6636 138.8295 H 143.5236 L 142.3836 138.8095 L 141.2436 138.7895 L 140.1036 138.7695 L 138.9636 138.7495 L 137.8236 138.7295 L 136.6836 138.7095 H 135.5236 L 134.3836 138.6895 L 133.2436 138.6695 L 132.1036 138.6495 L 130.9436 138.6295 L 129.8036 138.6095 H 128.6436 L 127.5036 138.5895 L 126.3436 138.5695 L 125.2036 138.5495 L 124.0636 138.5295 L 122.9236 138.5095 L 121.7836 138.4895 H 120.6436 L 119.5236 138.4695 L 118.4036 138.4495 L 117.2836 138.4295 L 116.1636 138.4095 L 115.0636 138.3895 H 113.9636 L 112.8836 138.3695 L 111.8036 138.3495 L 110.7436 138.3295 L 109.6636 138.3095 H 108.6036 L 107.5636 138.2895 L 106.5236 138.2695 L 105.4836 138.2495 L 104.4636 138.2295 H 103.4236 L 102.4236 138.2095 L 101.4236 138.1895 L 100.4236 138.1695 H 99.4236 L 98.4636 138.1495 L 97.4836 138.1295 L 96.5236 138.1095 H 95.5636 L 94.6236 138.0895 L 93.6836 138.0695 L 92.7436 138.0495 L 91.8236 138.0295 H 90.9036 L 90.0036 138.0095 L 89.1236 137.9895 L 88.2436 137.9695 L 87.3836 137.9495 L 86.5436 137.9295 L 85.7036 137.9095 L 84.8636 137.8895 L 84.0436 137.8495 L 83.2436 137.8295 L 82.4436 137.8095 L 81.6636 137.7695 L 80.8836 137.7295 L 80.1236 137.7095 L 79.3636 137.6695 L 78.6236 137.6095 L 77.9036 137.5695 L 77.1836 137.5095 L 76.4636 137.4295 L 75.7636 137.3495 L 75.0836 137.2695 L 74.4036 137.1695 L 73.7236 137.0695 L 73.0436 136.9695 L 72.3836 136.8295 L 71.7436 136.7095 L 71.0836 136.5495 L 70.4436 136.4095 L 69.8236 136.2295 L 69.2036 136.0495 L 68.5836 135.8695 L 67.9636 135.6695 L 67.3636 135.45 L 66.7636 135.23 L 66.1836 134.99 L 65.5836 134.73 L 65.0036 134.47 L 64.4436 134.21 L 63.8636 133.91 L 63.3036 133.63 L 62.7636 133.3099 L 62.2036 133.01 L 61.6636 132.67 L 61.1436 132.33 L 60.6036 131.97 L 60.0836 131.63 L 59.5636 131.25 L 59.0436 130.87 L 58.5436 130.49 L 58.0436 130.09 L 57.5436 129.6899 L 57.0636 129.27 L 56.5836 128.85 L 56.1036 128.4301 L 55.6236 127.97 L 55.1636 127.53 L 54.7236 127.07 L 54.2836 126.59 L 53.8436 126.11 L 53.4236 125.63 L 53.0036 125.13 L 52.6036 124.61 L 52.2036 124.09 L 51.8036 123.57 L 51.4436 123.0501 L 51.0836 122.51 L 50.7236 121.95 L 50.3836 121.41 L 50.0636 120.85 L 49.7436 120.29 L 49.4436 119.73 L 49.1436 119.15 L 48.8636 118.57 L 48.6036 117.99 L 48.3636 117.41 L 48.1236 116.83 L 47.9036 116.25 L 47.7036 115.65 L 47.5236 115.05 L 47.3436 114.47 L 47.1836 113.87 L 47.0236 113.27 L 46.9036 112.67 L 46.7836 112.07 L 46.6636 111.47 L 46.5836 110.87 L 46.5036 110.27 L 46.4236 109.67 L 46.3836 109.07 L 46.3436 108.47 L 46.3236 107.87 L 46.3036 107.27 V 106.67 L 46.3236 106.07 L 46.3436 105.47 L 46.3836 104.87 L 46.4436 104.29 L 46.5036 103.69 L 46.5636 103.09 L 46.6636 102.49 L 46.7636 101.91 L 46.8636 101.31 L 46.9836 100.73 L 47.1236 100.13 L 47.2636 99.53 L 47.4236 98.95 L 47.5836 98.37 L 47.7636 97.77 L 47.9636 97.19 L 48.1636 96.61 L 48.3836 96.01 L 48.6236 95.43 L 48.8636 94.85 L 49.1036 94.29 L 49.3836 93.71 L 49.6636 93.15 L 49.9436 92.57 L 50.2436 92.01 L 50.5636 91.45 L 50.8836 90.89 L 51.2236 90.33 L 51.5636 89.79 L 51.9236 89.23 L 52.2836 88.69 L 52.6636 88.15 L 53.0636 87.63 L 53.4636 87.09 L 53.8836 86.57 L 54.3036 86.05 L 54.7236 85.53 L 55.1636 85.01 L 55.6236 84.51 L 56.0636 83.99 L 56.5236 83.47 L 56.9836 82.97 L 57.4636 82.45 L 57.9236 81.93 L 58.4036 81.41 L 58.8636 80.89 L 59.3436 80.37 L 59.8236 79.85 L 60.3036 79.33 L 60.8036 78.79 L 61.2836 78.27 L 61.7836 77.75 L 62.2836 77.21 L 62.7836 76.69 L 63.3036 76.15 L 63.8036 75.63 L 64.3236 75.11 L 64.8636 74.57 L 65.3836 74.05 L 65.9236 73.55 L 66.4836 73.03 L 67.0236 72.51 L 67.6036 72.01 L 68.1636 71.51 L 68.7436 71.03 L 69.3436 70.55 L 69.9436 70.07 L 70.5436 69.59 L 71.1636 69.13 L 71.8036 68.67 L 72.4436 68.23 L 73.0836 67.79 L 73.7236 67.37 L 74.4036 66.95 L 75.0636 66.53 L 75.7436 66.13 L 76.4236 65.73 L 77.1236 65.35 L 77.8236 64.97 L 78.5236 64.59 L 79.2436 64.23 L 79.9636 63.87 L 80.6836 63.53 L 81.4236 63.19 L 82.1636 62.85 L 82.9036 62.51 L 83.6636 62.19 L 84.4036 61.87 L 85.1636 61.55 L 85.9436 61.23 L 86.7036 60.93 L 87.4836 60.63 L 88.2636 60.33 L 89.0436 60.03 L 89.8236 59.73 L 90.6036 59.45 L 91.4036 59.17 L 92.2036 58.89 L 93.0036 58.61 L 93.8236 58.35 L 94.6236 58.09 L 95.4436 57.83 L 96.2636 57.57 L 97.1036 57.33 L 97.9236 57.11 L 98.7636 56.87 L 99.6036 56.65 L 100.4436 56.43 L 101.2836 56.23 L 102.1436 56.03 L 103.0036 55.83 L 103.8636 55.63 L 104.7236 55.45 L 105.5836 55.27 L 106.4636 55.11 L 107.3236 54.93 L 108.2036 54.77 L 109.0836 54.61 L 109.9636 54.47 L 110.8436 54.31 L 111.7436 54.17 L 112.6236 54.01 L 113.5236 53.87 L 114.4236 53.73 L 115.3236 53.59 L 116.2036 53.45 L 117.1036 53.31 L 118.0036 53.17 L 118.9036 53.03 L 119.8236 52.91 L 120.7236 52.79 L 121.6236 52.67 L 122.5436 52.55 L 123.4636 52.43 L 124.3836 52.31 L 125.2836 52.19 L 126.2036 52.07 L 127.1436 51.95 L 128.0636 51.83 L 128.9836 51.71 L 129.9036 51.59 L 130.8436 51.49 L 131.7836 51.37 L 132.7036 51.25 L 133.6436 51.15 L 134.5836 51.03 L 135.5236 50.93 L 136.4636 50.83 L 137.4236 50.71 L 138.3636 50.61 L 139.3036 50.51 L 140.2636 50.39 L 141.2236 50.29 L 142.1636 50.19 L 143.1236 50.07 L 144.0836 49.97 L 145.0436 49.87 L 146.0036 49.77 L 146.9636 49.67 L 147.9436 49.57 L 148.9036 49.47 L 149.8836 49.39 L 150.8436 49.29 L 151.8236 49.21 L 152.8036 49.11 L 153.7836 49.03 L 154.7636 48.95 L 155.7436 48.87 L 156.7236 48.79 L 157.7036 48.71 L 158.7036 48.63 L 159.6836 48.55 L 160.6836 48.47 L 161.6636 48.41 L 162.6636 48.33 L 163.6636 48.25 L 164.6636 48.17 L 165.6436 48.09 L 166.6436 48.01 L 167.6636 47.93 L 168.6636 47.85 L 169.6636 47.77 L 170.6636 47.71 L 171.6836 47.63 L 172.6836 47.57 L 173.7036 47.49 L 174.7236 47.43 L 175.7436 47.37 L 176.7436 47.33 L 177.7636 47.27 L 178.7836 47.23 L 179.8236 47.19 L 180.8436 47.15 L 181.8636 47.11 L 182.8836 47.09 L 183.9236 47.07 L 184.9436 47.03 H 185.9836 L 187.0236 47.01 L 188.0636 46.99 H 189.0836 L 190.1236 46.97 H 191.1636 L 192.2036 46.95 H 193.2436 H 194.3036 H 195.3436 L 196.3836 46.93 H 197.4436 H 198.4836"
       style="fill:none;stroke:#000000;stroke-width:0.5;stroke-linecap:round;stroke-linejoin:round;stroke-miterlimit:10;stroke-dasharray:none;stroke-opacity:1" />
  </g>
</svg>
