<?xml version="1.0" encoding="UTF-8" standalone="no"?>
<!-- Created with Inkscape (http://www.inkscape.org/) -->

<svg
   inkscape:version="1.3.2 (091e20e, 2023-11-25, custom)"
   sodipodi:docname="track_brand_hatch.svg"
   xmlns:inkscape="http://www.inkscape.org/namespaces/inkscape"
   xmlns:sodipodi="http://sodipodi.sourceforge.net/DTD/sodipodi-0.dtd"
   xmlns="http://www.w3.org/2000/svg"
   xmlns:svg="http://www.w3.org/2000/svg">
  <g>
    <path
       id="track"
       d="M 384.356 7.604 H 386.996 H 389.476 L 391.976 7.624 H 394.476 H 396.996 L 399.496 7.644 H 402.016 L 404.536 7.664 L 407.056 7.684 L 409.596 7.704 L 412.136 7.724 L 414.676 7.764 L 417.216 7.784 L 419.756 7.824 L 422.316 7.844 L 424.876 7.884 L 427.436 7.904 L 429.996 7.944 L 432.576 7.964 L 435.136 8.004 L 437.716 8.024 L 440.296 8.044 L 442.896 8.064 L 445.476 8.084 L 448.076 8.104 L 450.676 8.124 H 453.276 L 455.896 8.144 L 458.516 8.164 H 461.116 L 463.736 8.184 L 466.376 8.204 L 468.996 8.224 H 471.636 L 474.276 8.244 L 476.916 8.264 L 479.556 8.284 H 482.196 L 484.856 8.304 L 487.516 8.324 L 490.176 8.344 H 492.836 L 495.516 8.364 L 498.176 8.384 L 500.856 8.404 H 503.536 L 506.216 8.424 L 508.896 8.444 L 511.596 8.464 H 514.296 L 516.976 8.484 L 519.676 8.504 L 522.376 8.524 H 525.096 L 527.796 8.544 L 530.496 8.564 L 533.216 8.584 H 535.936 L 538.636 8.604 L 541.336 8.624 L 544.056 8.644 H 546.776 L 549.476 8.664 L 552.196 8.684 H 554.916 L 557.636 8.704 L 560.356 8.724 H 563.056 H 565.776 L 568.476 8.744 H 571.156 H 573.836 L 576.496 8.764 H 579.136 H 581.756 H 584.356 H 586.916 H 589.436 H 591.936 H 594.396 H 596.8161 H 599.1961 L 601.536 8.784 L 603.856 8.804 L 606.116 8.824 L 608.356 8.864 L 610.5759 8.924 L 612.736 8.984 L 614.876 9.064 L 616.976 9.164 L 619.036 9.264 L 621.0759 9.384 L 623.0759 9.524 L 625.036 9.684 L 626.976 9.864 L 628.876 10.064 L 630.736 10.264 L 632.5759 10.484 L 634.376 10.724 L 636.156 10.984 L 637.896 11.264 L 639.596 11.564 L 641.276 11.864 L 642.916 12.204 L 644.536 12.564 L 646.116 12.924 L 647.636 13.324 L 649.136 13.744 L 650.596 14.184 L 652.016 14.644 L 653.416 15.144 L 654.776 15.644 L 656.0759 16.184 L 657.356 16.724 L 658.5759 17.304 L 659.796 17.884 L 660.9559 18.464 L 662.096 19.064 L 663.1961 19.684 L 664.256 20.284 L 665.276 20.924 L 666.276 21.564 L 667.216 22.224 L 668.136 22.864 L 669.016 23.524 L 669.876 24.184 L 670.6961 24.844 L 671.476 25.504 L 672.236 26.184 L 672.9559 26.844 L 673.636 27.524 L 674.296 28.204 L 674.916 28.904 L 675.516 29.604 L 676.0759 30.324 L 676.616 31.044 L 677.116 31.804 L 677.596 32.544 L 678.056 33.324 L 678.476 34.104 L 678.856 34.904 L 679.236 35.704 L 679.556 36.524 L 679.876 37.364 L 680.136 38.204 L 680.396 39.064 L 680.616 39.924 L 680.8161 40.804 L 680.9761 41.704 L 681.1161 42.604 L 681.2361 43.504 L 681.3361 44.424 L 681.3961 45.344 L 681.4361 46.284 L 681.4561 47.224 V 48.164 L 681.4161 49.104 L 681.3361 50.064 L 681.2561 51.024 L 681.1361 51.984 L 680.9761 52.944 L 680.7961 53.904 L 680.576 54.884 L 680.336 55.844 L 680.0561 56.804 L 679.756 57.764 L 679.416 58.704 L 679.036 59.664 L 678.636 60.604 L 678.216 61.524 L 677.756 62.444 L 677.256 63.364 L 676.736 64.264 L 676.1961 65.144 L 675.616 66.024 L 675.016 66.864 L 674.376 67.704 L 673.716 68.524 L 673.036 69.324 L 672.3161 70.104 L 671.596 70.864 L 670.836 71.604 L 670.0561 72.324 L 669.256 73.004 L 668.4361 73.664 L 667.596 74.304 L 666.756 74.904 L 665.876 75.484 L 664.996 76.044 L 664.096 76.544 L 663.1761 77.044 L 662.256 77.484 L 661.3161 77.924 L 660.356 78.304 L 659.376 78.664 L 658.396 79.004 L 657.396 79.324 L 656.396 79.624 L 655.376 79.884 L 654.336 80.144 L 653.2961 80.384 L 652.256 80.604 L 651.1961 80.804 L 650.116 80.984 L 649.0561 81.164 L 647.976 81.304 L 646.876 81.444 L 645.7961 81.564 L 644.6961 81.664 L 643.576 81.744 L 642.476 81.824 L 641.356 81.864 L 640.236 81.884 H 639.116 H 637.996 L 636.876 81.844 L 635.736 81.784 L 634.596 81.704 L 633.456 81.624 L 632.3161 81.504 L 631.1761 81.384 L 630.016 81.244 L 628.856 81.104 L 627.6961 80.944 L 626.516 80.784 L 625.336 80.604 L 624.136 80.424 L 622.936 80.244 L 621.716 80.064 L 620.496 79.864 L 619.236 79.684 L 617.976 79.504 L 616.716 79.304 L 615.416 79.124 L 614.116 78.924 L 612.796 78.744 L 611.476 78.564 L 610.136 78.384 L 608.776 78.204 L 607.416 78.024 L 606.056 77.864 L 604.676 77.704 L 603.276 77.544 L 601.876 77.404 L 600.4559 77.264 L 599.036 77.124 L 597.596 76.984 L 596.136 76.864 L 594.676 76.744 L 593.1961 76.644 L 591.716 76.524 L 590.216 76.444 L 588.716 76.344 L 587.1961 76.264 L 585.676 76.184 L 584.136 76.124 L 582.596 76.064 L 581.036 76.024 L 579.476 75.984 L 577.896 75.944 L 576.3161 75.924 H 574.716 L 573.116 75.944 L 571.496 75.964 L 569.856 75.984 L 568.216 76.044 L 566.5759 76.104 L 564.916 76.184 L 563.256 76.264 L 561.5759 76.364 L 559.896 76.504 L 558.1961 76.644 L 556.496 76.784 L 554.776 76.964 L 553.056 77.144 L 551.336 77.324 L 549.596 77.524 L 547.836 77.744 L 546.076 77.964 L 544.316 78.184 L 542.556 78.424 L 540.776 78.6639 L 538.996 78.924 L 537.216 79.204 L 535.436 79.484 L 533.656 79.7839 L 531.856 80.084 L 530.056 80.424 L 528.256 80.764 L 526.436 81.124 L 524.636 81.5039 L 522.816 81.924 L 521.016 82.344 L 519.196 82.764 L 517.376 83.2239 L 515.576 83.704 L 513.756 84.204 L 511.936 84.704 L 510.116 85.2239 L 508.296 85.764 L 506.496 86.304 L 504.696 86.844 L 502.916 87.404 L 501.156 87.964 L 499.416 88.524 L 497.696 89.084 L 495.976 89.644 L 494.276 90.204 L 492.596 90.744 L 490.936 91.304 L 489.296 91.844 L 487.676 92.384 L 486.076 92.924 L 484.496 93.424 L 482.936 93.9439 L 481.376 94.424 L 479.856 94.884 L 478.336 95.304 L 476.836 95.7239 L 475.356 96.104 L 473.876 96.464 L 472.436 96.7839 L 470.996 97.084 L 469.556 97.364 L 468.136 97.624 L 466.736 97.824 L 465.356 98.024 L 463.976 98.184 L 462.616 98.304 L 461.276 98.384 L 459.956 98.424 L 458.656 98.444 H 457.376 L 456.096 98.424 L 454.856 98.364 L 453.616 98.284 L 452.396 98.164 L 451.196 98.004 L 449.996 97.824 L 448.816 97.624 L 447.656 97.384 L 446.496 97.104 L 445.376 96.824 L 444.256 96.5039 L 443.176 96.1639 L 442.096 95.804 L 441.056 95.404 L 440.016 95.0039 L 439.016 94.564 L 438.016 94.104 L 437.036 93.624 L 436.076 93.104 L 435.136 92.584 L 434.196 92.024 L 433.296 91.4439 L 432.376 90.844 L 431.496 90.2239 L 430.616 89.584 L 429.736 88.924 L 428.876 88.244 L 428.036 87.564 L 427.196 86.844 L 426.356 86.144 L 425.536 85.404 L 424.736 84.6639 L 423.916 83.904 L 423.116 83.144 L 422.316 82.364 L 421.536 81.584 L 420.756 80.7839 L 419.976 79.984 L 419.196 79.1639 L 418.436 78.344 L 417.676 77.5039 L 416.916 76.6639 L 416.176 75.804 L 415.436 74.9439 L 414.696 74.064 L 413.976 73.1639 L 413.256 72.2839 L 412.536 71.364 L 411.836 70.4439 L 411.116 69.5039 L 410.436 68.564 L 409.736 67.624 L 409.056 66.644 L 408.396 65.684 L 407.716 64.684 L 407.056 63.704 L 406.396 62.704 L 405.716 61.704 L 405.056 60.704 L 404.396 59.684 L 403.716 58.6639 L 403.036 57.644 L 402.376 56.624 L 401.696 55.604 L 401.016 54.584 L 400.336 53.584 L 399.676 52.564 L 398.996 51.564 L 398.336 50.584 L 397.676 49.604 L 397.016 48.644 L 396.356 47.684 L 395.716 46.764 L 395.096 45.844 L 394.456 44.9439 L 393.836 44.084 L 393.216 43.2239 L 392.616 42.404 L 392.016 41.604 L 391.396 40.824 L 390.796 40.064 L 390.196 39.324 L 389.596 38.624 L 388.996 37.9439 L 388.376 37.304 L 387.776 36.684 L 387.156 36.104 L 386.556 35.544 L 385.936 35.024 L 384.696 34.064 L 383.436 33.204 L 382.196 32.464 L 380.936 31.824 L 379.676 31.264 L 378.396 30.764 L 377.076 30.344 L 375.756 29.964 L 374.416 29.644 L 373.056 29.364 L 371.676 29.104 L 370.276 28.884 L 368.856 28.684 L 367.416 28.564 L 365.956 28.484 H 364.496 L 363.016 28.544 L 361.556 28.724 L 360.076 28.964 L 358.636 29.284 L 357.196 29.704 L 355.776 30.224 L 354.376 30.804 L 353.016 31.464 L 351.676 32.224 L 350.376 33.044 L 349.096 33.904 L 347.836 34.844 L 346.616 35.844 L 345.476 36.924 L 344.376 38.084 L 343.856 38.684 L 343.336 39.304 L 342.836 39.924 L 342.356 40.564 L 341.896 41.224 L 341.436 41.904 L 341.016 42.604 L 340.596 43.304 L 340.216 44.024 L 339.836 44.764 L 339.496 45.504 L 339.176 46.264 L 338.876 47.024 L 338.596 47.804 L 338.356 48.604 L 338.156 49.404 L 337.956 50.204 L 337.796 51.024 L 337.676 51.844 L 337.556 52.684 L 337.476 53.504 L 337.416 54.344 L 337.396 55.184 L 337.376 56.024 L 337.396 56.864 L 337.456 57.684 L 337.536 58.524 L 337.636 59.364 L 337.756 60.184 L 337.916 61.024 L 338.096 61.844 L 338.296 62.664 L 338.536 63.484 L 338.776 64.284 L 339.036 65.104 L 339.316 65.904 L 339.616 66.704 L 339.936 67.504 L 340.256 68.304 L 340.616 69.084 L 340.956 69.884 L 341.336 70.664 L 341.716 71.464 L 342.116 72.244 L 342.536 73.024 L 342.956 73.804 L 343.396 74.604 L 343.856 75.384 L 344.316 76.184 L 344.816 76.984 L 345.316 77.784 L 345.836 78.604 L 346.376 79.404 L 346.916 80.244 L 347.476 81.064 L 348.056 81.904 L 348.656 82.744 L 349.276 83.604 L 349.896 84.464 L 350.516 85.324 L 351.176 86.204 L 351.836 87.104 L 352.496 88.004 L 353.176 88.904 L 353.876 89.824 L 354.576 90.764 L 355.296 91.704 L 356.016 92.644 L 356.736 93.624 L 357.476 94.584 L 358.236 95.584 L 358.996 96.564 L 359.776 97.584 L 360.556 98.604 L 361.336 99.624 L 362.136 100.664 L 362.956 101.704 L 363.776 102.764 L 364.596 103.824 L 365.436 104.904 L 366.276 106.004 L 367.136 107.084 L 367.996 108.184 L 368.856 109.284 L 369.716 110.384 L 370.596 111.504 L 371.476 112.624 L 372.376 113.744 L 373.276 114.884 L 374.176 116.024 L 375.096 117.184 L 376.016 118.344 L 376.936 119.504 L 377.876 120.684 L 378.836 121.864 L 379.776 123.044 L 380.756 124.244 L 381.716 125.444 L 382.696 126.644 L 383.656 127.864 L 384.636 129.064 L 385.616 130.284 L 386.596 131.524 L 387.576 132.744 L 388.536 133.984 L 389.516 135.224 L 390.476 136.464 L 391.436 137.704 L 392.396 138.964 L 393.356 140.224 L 394.316 141.484 L 395.276 142.764 L 396.216 144.024 L 397.176 145.304 L 398.116 146.584 L 399.056 147.864 L 399.996 149.164 L 400.916 150.464 L 401.836 151.764 L 402.736 153.064 L 403.636 154.384 L 404.516 155.724 L 405.376 157.064 L 406.236 158.404 L 407.076 159.764 L 407.896 161.144 L 408.716 162.524 L 409.496 163.904 L 410.276 165.304 L 411.036 166.724 L 411.796 168.144 L 412.536 169.584 L 413.256 171.024 L 413.976 172.484 L 414.676 173.944 L 415.356 175.424 L 416.036 176.924 L 416.696 178.424 L 417.356 179.924 L 417.996 181.444 L 418.636 182.984 L 419.256 184.524 L 419.896 186.064 L 420.496 187.624 L 421.116 189.184 L 421.736 190.764 L 422.336 192.324 L 422.956 193.924 L 423.556 195.504 L 424.176 197.104 L 424.776 198.704 L 425.396 200.324 L 425.996 201.924 L 426.616 203.564 L 427.196 205.184 L 427.796 206.824 L 428.376 208.484 L 428.956 210.124 L 429.516 211.804 L 430.056 213.484 L 430.596 215.164 L 431.116 216.864 L 431.616 218.584 L 432.096 220.304 L 432.556 222.024 L 433.016 223.764 L 433.476 225.504 L 433.896 227.264 L 434.316 229.024 L 434.716 230.804 L 435.116 232.564 L 435.496 234.364 L 435.856 236.144 L 436.196 237.944 L 436.536 239.744 L 436.876 241.544 L 437.196 243.344 L 437.496 245.164 L 437.816 246.964 L 438.116 248.764 L 438.416 250.564 L 438.716 252.364 L 438.996 254.144 L 439.276 255.924 L 439.556 257.704 L 439.836 259.464 L 440.096 261.224 L 440.356 262.964 L 440.616 264.704 L 440.856 266.424 L 441.116 268.124 L 441.336 269.824 L 441.576 271.484 L 441.796 273.144 L 442.016 274.804 L 442.236 276.444 L 442.436 278.044 L 442.656 279.664 L 442.876 281.244 L 443.076 282.824 L 443.316 284.384 L 443.536 285.924 L 443.796 287.464 L 444.056 289.004 L 444.316 290.524 L 444.596 292.044 L 444.916 293.564 L 445.236 295.064 L 445.556 296.564 L 445.916 298.064 L 446.296 299.564 L 446.676 301.044 L 447.096 302.544 L 447.516 304.024 L 447.956 305.504 L 448.396 306.984 L 448.856 308.464 L 449.336 309.924 L 449.816 311.404 L 450.296 312.864 L 450.796 314.344 L 451.316 315.804 L 451.836 317.264 L 452.376 318.724 L 452.916 320.184 L 453.496 321.644 L 454.056 323.084 L 454.656 324.524 L 455.276 325.964 L 455.916 327.384 L 456.576 328.804 L 457.256 330.204 L 457.936 331.624 L 458.656 333.004 L 459.396 334.384 L 460.156 335.764 L 460.936 337.124 L 461.756 338.484 L 462.576 339.844 L 463.436 341.184 L 464.296 342.504 L 465.196 343.844 L 466.096 345.164 L 467.036 346.484 L 467.976 347.804 L 468.936 349.124 L 469.916 350.444 L 470.916 351.744 L 471.936 353.064 L 472.956 354.384 L 473.996 355.704 L 475.076 357.024 L 476.156 358.324 L 477.256 359.644 L 478.376 360.944 L 479.496 362.244 L 480.656 363.564 L 481.836 364.844 L 483.036 366.144 L 484.256 367.424 L 485.476 368.704 L 486.736 369.984 L 487.996 371.264 L 489.256 372.544 L 490.556 373.824 L 491.856 375.084 L 493.176 376.344 L 494.496 377.624 L 495.836 378.884 L 497.176 380.124 L 498.516 381.384 L 499.876 382.624 L 501.236 383.864 L 502.616 385.104 L 503.996 386.324 L 505.376 387.544 L 506.756 388.744 L 508.156 389.964 L 509.556 391.164 L 510.976 392.344 L 512.376 393.544 L 513.796 394.724 L 515.196 395.904 L 516.616 397.084 L 518.016 398.244 L 519.416 399.424 L 520.796 400.584 L 522.176 401.764 L 523.536 402.924 L 524.896 404.084 L 526.236 405.264 L 527.556 406.424 L 528.856 407.604 L 530.156 408.784 L 531.436 409.984 L 532.696 411.164 L 533.936 412.344 L 535.176 413.544 L 536.396 414.764 L 537.576 415.984 L 538.756 417.204 L 539.916 418.424 L 541.036 419.664 L 542.156 420.924 L 543.256 422.164 L 544.336 423.424 L 545.396 424.704 L 546.456 425.984 L 547.476 427.264 L 548.496 428.544 L 549.516 429.824 L 550.496 431.124 L 551.476 432.444 L 552.436 433.744 L 553.356 435.064 L 554.276 436.404 L 555.176 437.744 L 556.056 439.084 L 556.916 440.444 L 557.756 441.804 L 558.5759 443.164 L 559.376 444.524 L 560.156 445.904 L 560.916 447.304 L 561.676 448.684 L 562.416 450.084 L 563.136 451.484 L 563.856 452.884 L 564.556 454.284 L 565.256 455.704 L 565.916 457.124 L 566.596 458.544 L 567.236 459.964 L 567.856 461.404 L 568.476 462.824 L 569.0759 464.264 L 569.676 465.704 L 570.236 467.164 L 570.796 468.624 L 571.336 470.064 L 571.876 471.544 L 572.416 473.004 L 572.936 474.464 L 573.4559 475.944 L 573.976 477.404 L 574.496 478.884 L 574.996 480.364 L 575.496 481.844 L 576.016 483.344 L 576.516 484.824 L 577.016 486.324 L 577.516 487.804 L 578.016 489.304 L 578.516 490.804 L 578.996 492.304 L 579.496 493.824 L 579.976 495.324 L 580.476 496.844 L 580.9559 498.344 L 581.436 499.864 L 581.916 501.364 L 582.376 502.864 L 582.836 504.344 L 583.296 505.824 L 583.756 507.304 L 584.1961 508.784 L 584.656 510.224 L 585.096 511.684 L 585.536 513.124 L 585.976 514.564 L 586.416 515.984 L 586.876 517.384 L 587.3161 518.804 L 587.756 520.184 L 588.216 521.564 L 588.656 522.924 L 589.116 524.264 L 589.556 525.604 L 590.016 526.904 L 590.4559 528.204 L 590.916 529.464 L 591.356 530.724 L 591.796 531.964 L 592.216 533.184 L 592.656 534.404 L 593.0759 535.584 L 593.476 536.744 L 593.876 537.904 L 594.276 539.024 L 594.656 540.144 L 595.016 541.244 L 595.376 542.324 L 595.716 543.384 L 596.056 544.424 L 596.376 545.464 L 596.676 546.484 L 596.976 547.484 L 597.276 548.484 L 597.556 549.484 L 597.836 550.464 L 598.096 551.424 L 598.356 552.404 L 598.596 553.364 L 598.8161 554.324 L 599.036 555.304 L 599.256 556.264 L 599.456 557.224 L 599.636 558.184 L 599.816 559.144 L 599.996 560.104 L 600.156 561.064 L 600.296 562.024 L 600.436 563.004 L 600.5758 563.964 L 600.676 564.944 L 600.796 565.904 L 600.896 566.884 L 600.976 567.864 L 601.036 568.844 L 601.096 569.824 L 601.156 570.804 L 601.196 571.804 L 601.216 572.804 L 601.236 573.784 L 601.256 574.784 V 575.784 V 576.784 L 601.236 577.804 L 601.216 578.804 L 601.196 579.824 L 601.176 580.824 L 601.136 581.844 L 601.096 582.864 L 601.036 583.884 L 600.976 584.924 L 600.916 585.944 L 600.836 586.964 L 600.736 588.004 L 600.636 589.044 L 600.516 590.064 L 600.376 591.104 L 600.216 592.124 L 600.056 593.164 L 599.876 594.204 L 599.676 595.224 L 599.4559 596.264 L 599.2359 597.304 L 598.9959 598.324 L 598.7359 599.344 L 598.4559 600.384 L 598.156 601.404 L 597.8359 602.424 L 597.516 603.444 L 597.176 604.464 L 596.816 605.484 L 596.436 606.484 L 596.056 607.504 L 595.656 608.504 L 595.2359 609.524 L 594.816 610.524 L 594.376 611.544 L 593.936 612.544 L 593.4759 613.564 L 593.016 614.564 L 592.536 615.584 L 592.056 616.604 L 591.556 617.604 L 591.056 618.624 L 590.516 619.624 L 589.9759 620.624 L 589.416 621.624 L 588.8359 622.624 L 588.256 623.604 L 587.636 624.604 L 587.016 625.584 L 586.3559 626.564 L 585.696 627.544 L 584.9959 628.524 L 584.276 629.504 L 583.556 630.464 L 582.796 631.424 L 582.016 632.384 L 581.2159 633.344 L 580.396 634.284 L 579.5759 635.224 L 578.7159 636.164 L 577.8359 637.084 L 576.936 638.004 L 576.016 638.904 L 575.0959 639.804 L 574.136 640.684 L 573.176 641.564 L 572.196 642.424 L 571.196 643.264 L 570.176 644.104 L 569.156 644.924 L 568.1159 645.724 L 567.056 646.504 L 565.9759 647.264 L 564.896 648.004 L 563.796 648.724 L 562.676 649.424 L 561.556 650.124 L 560.416 650.784 L 559.256 651.424 L 558.096 652.044 L 556.916 652.644 L 555.736 653.204 L 554.536 653.764 L 553.336 654.304 L 552.116 654.804 L 550.896 655.284 L 549.656 655.744 L 548.416 656.184 L 547.176 656.604 L 545.916 657.004 L 544.636 657.364 L 543.356 657.724 L 542.076 658.064 L 540.776 658.364 L 539.456 658.644 L 538.136 658.924 L 536.816 659.184 L 535.476 659.424 L 534.116 659.664 L 532.756 659.884 L 531.396 660.084 L 530.036 660.284 L 528.656 660.464 L 527.256 660.644 L 525.856 660.804 L 524.456 660.944 L 523.036 661.044 L 521.636 661.144 L 520.216 661.224 L 518.796 661.284 L 517.376 661.324 L 515.956 661.344 H 514.516 L 513.096 661.304 L 511.676 661.244 L 510.236 661.164 L 508.816 661.064 L 507.376 660.944 L 505.936 660.804 L 504.516 660.624 L 503.076 660.444 L 501.636 660.244 L 500.196 660.044 L 498.736 659.804 L 497.296 659.564 L 495.836 659.324 L 494.356 659.064 L 492.896 658.784 L 491.416 658.524 L 489.936 658.224 L 488.436 657.924 L 486.936 657.624 L 485.436 657.304 L 483.916 656.984 L 482.396 656.644 L 480.876 656.304 L 479.356 655.944 L 477.816 655.584 L 476.276 655.204 L 474.736 654.804 L 473.196 654.404 L 471.656 654.004 L 470.096 653.584 L 468.536 653.144 L 466.976 652.724 L 465.396 652.284 L 463.836 651.844 L 462.236 651.384 L 460.656 650.944 L 459.056 650.504 L 457.436 650.064 L 455.816 649.624 L 454.196 649.184 L 452.556 648.744 L 450.916 648.284 L 449.256 647.844 L 447.616 647.384 L 445.956 646.924 L 444.316 646.464 L 442.676 646.004 L 441.056 645.564 L 439.436 645.104 L 437.816 644.664 L 436.216 644.224 L 434.636 643.804 L 433.036 643.384 L 431.456 642.984 L 429.896 642.604 L 428.336 642.244 L 426.776 641.904 L 425.216 641.584 L 423.656 641.264 L 422.116 640.984 L 420.556 640.724 L 418.996 640.484 L 417.436 640.284 L 415.876 640.084 L 414.316 639.904 L 412.756 639.744 L 411.176 639.604 L 409.616 639.464 L 408.036 639.344 L 406.456 639.224 L 404.896 639.124 L 403.316 639.024 L 401.736 638.944 L 400.156 638.864 L 398.576 638.804 L 396.996 638.724 L 395.416 638.684 L 393.836 638.624 L 392.276 638.584 L 390.716 638.544 L 389.156 638.504 L 387.616 638.464 L 386.096 638.424 L 384.596 638.404 L 383.116 638.364 L 381.636 638.344 L 380.176 638.304 L 378.736 638.264 L 377.336 638.224 L 375.936 638.184 L 374.556 638.144 L 373.196 638.104 L 371.856 638.064 L 370.536 638.004 L 369.236 637.944 L 367.956 637.904 L 366.696 637.844 L 365.456 637.764 L 364.236 637.704 L 363.036 637.604 L 361.856 637.524 L 360.696 637.404 L 359.556 637.284 L 358.416 637.164 L 357.316 637.004 L 356.216 636.824 L 355.136 636.644 L 354.056 636.424 L 353.016 636.204 L 351.976 635.944 L 350.936 635.684 L 349.936 635.404 L 348.916 635.084 L 347.936 634.744 L 346.956 634.404 L 345.976 634.024 L 345.016 633.624 L 344.076 633.204 L 343.136 632.764 L 342.196 632.304 L 341.296 631.804 L 340.396 631.284 L 339.516 630.744 L 338.636 630.184 L 337.776 629.604 L 336.916 628.984 L 336.096 628.364 L 335.276 627.724 L 334.456 627.064 L 333.676 626.364 L 332.896 625.664 L 332.136 624.924 L 331.396 624.184 L 330.676 623.404 L 329.956 622.604 L 329.276 621.804 L 328.596 620.984 L 327.916 620.144 L 327.276 619.284 L 326.636 618.404 L 326.016 617.524 L 325.416 616.624 L 324.816 615.704 L 324.236 614.764 L 323.676 613.824 L 323.116 612.864 L 322.556 611.884 L 322.016 610.904 L 321.476 609.904 L 320.936 608.884 L 320.416 607.864 L 319.876 606.804 L 319.356 605.764 L 318.836 604.684 L 318.316 603.604 L 317.796 602.504 L 317.276 601.404 L 316.756 600.264 L 316.236 599.124 L 315.736 597.984 L 315.236 596.804 L 314.736 595.624 L 314.256 594.424 L 313.776 593.204 L 313.296 591.964 L 312.836 590.704 L 312.396 589.444 L 311.956 588.164 L 311.516 586.864 L 311.096 585.544 L 310.696 584.204 L 310.296 582.864 L 309.936 581.504 L 309.556 580.124 L 309.216 578.724 L 308.876 577.304 L 308.556 575.884 L 308.236 574.444 L 307.936 572.984 L 307.656 571.524 L 307.396 570.024 L 307.156 568.524 L 306.936 567.024 L 306.716 565.484 L 306.516 563.944 L 306.336 562.384 L 306.176 560.824 L 306.036 559.244 L 305.896 557.664 L 305.796 556.044 L 305.716 554.444 L 305.636 552.804 L 305.576 551.164 L 305.536 549.524 L 305.516 547.864 V 546.184 V 544.504 L 305.536 542.804 L 305.556 541.104 L 305.596 539.404 L 305.656 537.684 L 305.736 535.984 L 305.816 534.264 L 305.916 532.584 L 306.036 530.884 L 306.156 529.204 L 306.296 527.544 L 306.456 525.884 L 306.616 524.244 L 306.796 522.624 L 306.996 521.004 L 307.216 519.424 L 307.456 517.844 L 307.716 516.304 L 307.976 514.764 L 308.256 513.264 L 308.576 511.764 L 308.896 510.304 L 309.236 508.844 L 309.576 507.404 L 309.956 505.984 L 310.336 504.584 L 310.756 503.184 L 311.156 501.804 L 311.576 500.424 L 312.016 499.044 L 312.456 497.684 L 312.896 496.304 L 313.336 494.944 L 313.776 493.604 L 314.236 492.244 L 314.696 490.924 L 315.156 489.604 L 315.636 488.304 L 316.136 487.004 L 316.636 485.744 L 317.156 484.504 L 317.696 483.284 L 318.256 482.064 L 318.816 480.884 L 319.396 479.744 L 319.976 478.604 L 320.596 477.504 L 321.216 476.444 L 321.836 475.384 L 322.476 474.364 L 323.136 473.384 L 323.796 472.424 L 324.476 471.484 L 325.176 470.584 L 325.876 469.704 L 326.576 468.844 L 327.296 468.024 L 328.016 467.244 L 328.756 466.484 L 329.496 465.764 L 330.236 465.064 L 330.996 464.404 L 331.736 463.784 L 332.496 463.184 L 333.236 462.624 L 333.976 462.084 L 334.716 461.584 L 335.436 461.124 L 336.176 460.684 L 336.876 460.284 L 338.296 459.584 L 339.656 458.984 L 340.996 458.504 L 342.276 458.144 L 343.556 457.904 L 344.776 457.764 L 345.976 457.744 L 347.176 457.824 L 348.336 458.024 L 349.496 458.304 L 350.656 458.684 L 351.796 459.124 L 352.976 459.604 L 354.176 460.144 L 355.416 460.724 L 356.676 461.344 L 357.996 462.004 L 359.356 462.724 L 360.756 463.504 L 361.476 463.904 L 362.196 464.324 L 362.936 464.784 L 363.676 465.244 L 364.416 465.724 L 365.176 466.244 L 365.936 466.764 L 366.676 467.324 L 367.436 467.884 L 368.196 468.484 L 368.956 469.104 L 369.716 469.764 L 370.476 470.424 L 371.216 471.124 L 371.976 471.844 L 372.716 472.584 L 373.456 473.344 L 374.176 474.124 L 374.896 474.944 L 375.616 475.784 L 376.336 476.644 L 377.036 477.524 L 377.716 478.424 L 378.416 479.344 L 379.096 480.284 L 379.776 481.264 L 380.456 482.244 L 381.136 483.244 L 381.816 484.264 L 382.496 485.304 L 383.196 486.344 L 383.896 487.424 L 384.596 488.484 L 385.316 489.584 L 386.056 490.684 L 386.776 491.804 L 387.516 492.924 L 388.256 494.064 L 389.016 495.204 L 389.776 496.384 L 390.536 497.544 L 391.296 498.704 L 392.056 499.884 L 392.816 501.084 L 393.596 502.284 L 394.376 503.504 L 395.156 504.724 L 395.936 505.964 L 396.736 507.224 L 397.516 508.484 L 398.316 509.744 L 399.116 511.024 L 399.936 512.324 L 400.736 513.624 L 401.556 514.944 L 402.376 516.264 L 403.196 517.604 L 404.016 518.944 L 404.856 520.304 L 405.696 521.664 L 406.536 523.044 L 407.376 524.444 L 408.236 525.824 L 409.096 527.244 L 409.976 528.644 L 410.856 530.064 L 411.756 531.484 L 412.676 532.904 L 413.596 534.344 L 414.536 535.764 L 415.476 537.204 L 416.436 538.644 L 417.416 540.084 L 418.396 541.504 L 419.376 542.904 L 420.376 544.304 L 421.396 545.684 L 422.416 547.064 L 423.436 548.404 L 424.476 549.724 L 425.536 551.044 L 426.596 552.324 L 427.676 553.584 L 428.776 554.844 L 429.876 556.064 L 430.996 557.264 L 432.096 558.444 L 433.236 559.584 L 434.356 560.704 L 435.496 561.804 L 436.636 562.844 L 437.796 563.884 L 438.956 564.864 L 440.136 565.824 L 441.296 566.744 L 442.476 567.664 L 443.656 568.524 L 444.836 569.384 L 446.016 570.184 L 447.196 570.944 L 448.396 571.664 L 449.596 572.384 L 450.776 573.044 L 451.976 573.684 L 453.156 574.284 L 454.356 574.844 L 455.536 575.384 L 456.716 575.884 L 457.896 576.344 L 459.076 576.764 L 460.236 577.164 L 461.396 577.524 L 462.536 577.864 L 463.676 578.164 L 464.796 578.444 L 465.896 578.684 L 466.976 578.904 L 468.036 579.084 L 469.096 579.264 L 470.116 579.404 L 471.116 579.524 L 472.116 579.624 L 473.096 579.704 L 474.036 579.764 L 474.976 579.804 L 475.916 579.824 L 476.816 579.804 L 477.716 579.784 L 478.596 579.704 L 479.476 579.624 L 480.316 579.504 L 481.156 579.364 L 481.976 579.204 L 482.796 579.024 L 483.596 578.804 L 484.376 578.564 L 485.876 577.964 L 487.296 577.284 L 488.656 576.504 L 489.936 575.624 L 491.136 574.684 L 492.276 573.664 L 493.336 572.564 L 494.356 571.384 L 495.316 570.184 L 496.256 568.924 L 497.156 567.624 L 498.036 566.304 L 498.876 564.924 L 499.296 564.224 L 499.696 563.504 L 500.076 562.784 L 500.436 562.044 L 500.796 561.284 L 501.116 560.524 L 501.436 559.744 L 501.736 558.944 L 501.996 558.144 L 502.256 557.324 L 502.476 556.484 L 502.676 555.644 L 502.8761 554.784 L 503.0361 553.924 L 503.1961 553.024 L 503.3161 552.144 L 503.4161 551.224 L 503.4961 550.304 L 503.5761 549.364 L 503.6161 548.424 L 503.6561 547.464 V 546.484 V 545.504 L 503.6361 544.504 L 503.5961 543.484 L 503.5561 542.464 L 503.4761 541.404 L 503.3961 540.364 L 503.2761 539.284 L 503.1761 538.204 L 503.0361 537.104 L 502.8961 536.004 L 502.7361 534.864 L 502.5761 533.724 L 502.3961 532.564 L 502.2161 531.404 L 502.0361 530.224 L 501.8561 529.024 L 501.6561 527.804 L 501.4761 526.584 L 501.256 525.344 L 501.056 524.084 L 500.8361 522.804 L 500.616 521.524 L 500.376 520.224 L 500.136 518.924 L 499.896 517.604 L 499.616 516.264 L 499.356 514.924 L 499.056 513.564 L 498.7761 512.224 L 498.456 510.864 L 498.136 509.504 L 497.796 508.124 L 497.436 506.744 L 497.076 505.364 L 496.696 503.964 L 496.296 502.564 L 495.896 501.144 L 495.476 499.724 L 495.036 498.284 L 494.596 496.844 L 494.136 495.404 L 493.676 493.944 L 493.196 492.484 L 492.716 491.004 L 492.216 489.524 L 491.716 488.024 L 491.216 486.524 L 490.696 485.024 L 490.176 483.504 L 489.636 481.964 L 489.116 480.424 L 488.556 478.884 L 488.016 477.324 L 487.456 475.744 L 486.896 474.184 L 486.316 472.584 L 485.736 471.004 L 485.136 469.404 L 484.536 467.784 L 483.916 466.184 L 483.296 464.564 L 482.656 462.924 L 482.016 461.304 L 481.356 459.664 L 480.676 458.004 L 479.996 456.364 L 479.316 454.704 L 478.596 453.044 L 477.896 451.384 L 477.176 449.724 L 476.456 448.064 L 475.696 446.404 L 474.956 444.724 L 474.196 443.064 L 473.416 441.384 L 472.636 439.704 L 471.836 438.004 L 471.036 436.324 L 470.236 434.624 L 469.416 432.924 L 468.596 431.204 L 467.756 429.484 L 466.916 427.764 L 466.076 426.044 L 465.216 424.304 L 464.356 422.584 L 463.496 420.824 L 462.636 419.084 L 461.756 417.324 L 460.876 415.564 L 459.976 413.784 L 459.096 412.024 L 458.196 410.244 L 457.276 408.444 L 456.376 406.664 L 455.456 404.864 L 454.516 403.064 L 453.596 401.244 L 452.656 399.444 L 451.696 397.624 L 450.736 395.804 L 449.776 393.984 L 448.796 392.164 L 447.796 390.324 L 446.796 388.504 L 445.776 386.664 L 444.756 384.844 L 443.716 383.004 L 442.676 381.164 L 441.616 379.324 L 440.536 377.484 L 439.456 375.644 L 438.356 373.804 L 437.256 371.964 L 436.136 370.124 L 434.996 368.284 L 433.856 366.424 L 432.696 364.584 L 431.536 362.744 L 430.356 360.884 L 429.176 359.044 L 427.976 357.184 L 426.776 355.344 L 425.556 353.504 L 424.336 351.644 L 423.096 349.804 L 421.856 347.984 L 420.596 346.144 L 419.336 344.304 L 418.076 342.464 L 416.796 340.624 L 415.516 338.784 L 414.216 336.944 L 412.916 335.104 L 411.616 333.264 L 410.316 331.424 L 408.996 329.564 L 407.676 327.724 L 406.336 325.864 L 405.016 324.004 L 403.676 322.144 L 402.336 320.284 L 400.976 318.424 L 399.636 316.564 L 398.276 314.684 L 396.896 312.824 L 395.536 310.944 L 394.156 309.064 L 392.776 307.184 L 391.376 305.304 L 389.976 303.424 L 388.576 301.544 L 387.176 299.664 L 385.756 297.784 L 384.316 295.904 L 382.896 294.024 L 381.456 292.144 L 380.016 290.264 L 378.576 288.384 L 377.136 286.544 L 375.716 284.684 L 374.296 282.864 L 372.876 281.064 L 371.476 279.284 L 370.096 277.524 L 368.716 275.784 L 367.336 274.064 L 365.976 272.364 L 364.616 270.724 L 363.256 269.084 L 361.896 267.484 L 360.556 265.924 L 359.196 264.384 L 357.856 262.864 L 356.496 261.384 L 355.156 259.944 L 353.816 258.524 L 352.476 257.144 L 351.156 255.784 L 349.816 254.464 L 348.476 253.184 L 347.156 251.924 L 345.856 250.664 L 344.556 249.444 L 343.276 248.244 L 342.016 247.064 L 340.756 245.884 L 339.536 244.744 L 338.316 243.604 L 337.116 242.484 L 335.956 241.384 L 334.796 240.304 L 333.636 239.244 L 332.496 238.204 L 331.356 237.204 L 330.236 236.204 L 329.096 235.244 L 327.976 234.304 L 326.836 233.384 L 325.696 232.464 L 324.536 231.584 L 323.396 230.704 L 322.236 229.864 L 321.096 229.024 L 319.936 228.184 L 318.816 227.384 L 317.676 226.584 L 316.576 225.804 L 315.476 225.024 L 314.396 224.264 L 313.336 223.524 L 312.276 222.784 L 311.256 222.064 L 310.236 221.344 L 309.236 220.624 L 308.256 219.924 L 307.276 219.204 L 306.316 218.504 L 305.376 217.824 L 304.436 217.124 L 303.516 216.424 L 302.596 215.744 L 301.696 215.064 L 300.796 214.364 L 299.916 213.684 L 299.056 212.984 L 298.216 212.304 L 297.376 211.604 L 296.576 210.904 L 295.796 210.184 L 295.056 209.484 L 294.336 208.764 L 293.636 208.024 L 292.976 207.304 L 292.336 206.564 L 291.736 205.824 L 291.156 205.084 L 290.596 204.324 L 290.076 203.584 L 289.596 202.844 L 289.136 202.104 L 288.716 201.364 L 288.316 200.624 L 287.936 199.884 L 287.596 199.164 L 287.016 197.704 L 286.576 196.244 L 286.236 194.824 L 285.996 193.404 L 285.876 191.984 V 190.564 L 285.956 189.164 L 286.136 187.804 L 286.436 186.444 L 286.796 185.124 L 287.256 183.824 L 287.796 182.564 L 288.376 181.324 L 289.016 180.084 L 289.696 178.864 L 290.396 177.644 L 291.096 176.404 L 291.796 175.144 L 292.496 173.864 L 293.176 172.544 L 293.836 171.184 L 294.476 169.784 L 295.076 168.364 L 295.616 166.884 L 296.116 165.364 L 296.556 163.824 L 296.776 163.024 L 296.996 162.224 L 297.176 161.424 L 297.356 160.604 L 297.536 159.784 L 297.676 158.944 L 297.816 158.104 L 297.956 157.264 L 298.056 156.424 L 298.136 155.564 L 298.216 154.704 L 298.256 153.824 L 298.276 152.944 V 152.064 L 298.256 151.184 L 298.216 150.304 L 298.136 149.404 L 298.056 148.524 L 297.916 147.624 L 297.776 146.744 L 297.596 145.844 L 297.3959 144.964 L 297.156 144.084 L 296.8959 143.224 L 296.6159 142.364 L 296.2959 141.504 L 295.9359 140.664 L 295.5559 139.844 L 295.156 139.024 L 294.716 138.224 L 294.2559 137.444 L 293.776 136.664 L 293.276 135.904 L 292.7359 135.184 L 292.1759 134.464 L 291.596 133.784 L 290.9959 133.104 L 290.3759 132.464 L 289.7359 131.864 L 289.0559 131.264 L 288.3759 130.704 L 287.6759 130.164 L 286.9559 129.664 L 286.216 129.184 L 285.4559 128.724 L 284.6959 128.304 L 283.916 127.904 L 283.1159 127.544 L 282.3159 127.204 L 281.5159 126.904 L 280.6759 126.624 L 279.8559 126.364 L 279.0159 126.144 L 278.156 125.964 L 277.3159 125.804 L 276.4559 125.684 L 275.5759 125.584 L 274.716 125.504 L 273.836 125.464 H 272.9359 H 272.036 L 271.1359 125.504 L 270.216 125.584 L 269.2959 125.664 L 268.3759 125.784 L 267.4359 125.944 L 266.4959 126.104 L 265.536 126.304 L 264.5759 126.524 L 263.6159 126.764 L 262.6359 127.024 L 261.656 127.304 L 260.656 127.604 L 259.656 127.924 L 258.656 128.264 L 257.656 128.604 L 256.6359 128.984 L 255.6159 129.384 L 254.596 129.784 L 253.5759 130.224 L 252.5559 130.704 L 251.5159 131.184 L 250.4959 131.704 L 249.476 132.264 L 248.4359 132.824 L 247.416 133.404 L 246.3759 133.984 L 245.3159 134.604 L 244.276 135.224 L 243.216 135.864 L 242.1359 136.524 L 241.0559 137.184 L 239.976 137.864 L 238.8759 138.544 L 237.776 139.244 L 236.6759 139.944 L 235.536 140.664 L 234.416 141.384 L 233.276 142.124 L 232.1159 142.864 L 230.9559 143.604 L 229.8159 144.364 L 228.656 145.124 L 227.476 145.904 L 226.2959 146.684 L 225.1159 147.464 L 223.916 148.244 L 222.6959 149.044 L 221.476 149.844 L 220.2559 150.664 L 219.0159 151.484 L 217.776 152.304 L 216.5159 153.124 L 215.2559 153.964 L 213.976 154.824 L 212.6959 155.664 L 211.416 156.544 L 210.1159 157.404 L 208.8159 158.304 L 207.5159 159.184 L 206.1959 160.104 L 204.8759 161.004 L 203.536 161.924 L 202.1959 162.844 L 200.836 163.784 L 199.4959 164.724 L 198.1159 165.664 L 196.7359 166.624 L 195.3559 167.564 L 193.9559 168.524 L 192.5559 169.484 L 191.1359 170.444 L 189.6959 171.424 L 188.2559 172.384 L 186.8159 173.364 L 185.3559 174.344 L 183.8959 175.324 L 182.416 176.324 L 180.9359 177.304 L 179.4359 178.304 L 177.9559 179.304 L 176.4559 180.284 L 174.9359 181.284 L 173.4359 182.284 L 171.916 183.284 L 170.3759 184.284 L 168.836 185.284 L 167.2959 186.304 L 165.7359 187.304 L 164.156 188.304 L 162.5759 189.304 L 160.9959 190.304 L 159.3959 191.304 L 157.776 192.304 L 156.156 193.304 L 154.536 194.304 L 152.8959 195.304 L 151.2359 196.304 L 149.5759 197.304 L 147.9359 198.284 L 146.276 199.284 L 144.6159 200.244 L 142.976 201.224 L 141.3559 202.184 L 139.7359 203.144 L 138.1159 204.084 L 136.536 205.044 L 134.9559 205.964 L 133.3959 206.904 L 131.8559 207.824 L 130.3159 208.744 L 128.8159 209.664 L 127.3159 210.564 L 125.836 211.464 L 124.3759 212.344 L 122.9359 213.224 L 121.5159 214.084 L 120.1159 214.944 L 118.7359 215.784 L 117.3759 216.604 L 116.0559 217.404 L 114.7359 218.204 L 113.4359 218.964 L 112.156 219.704 L 110.916 220.444 L 109.6759 221.144 L 108.4559 221.824 L 107.2559 222.484 L 106.0759 223.104 L 104.8959 223.724 L 103.7559 224.304 L 102.6159 224.844 L 101.476 225.384 L 100.3759 225.884 L 99.276 226.364 L 98.1759 226.804 L 97.1159 227.244 L 96.0559 227.644 L 95.0159 228.004 L 93.976 228.364 L 92.9559 228.664 L 91.9359 228.964 L 90.9359 229.224 L 89.916 229.464 L 88.916 229.664 L 87.916 229.844 L 86.916 229.984 L 85.8959 230.104 L 84.8959 230.204 L 83.8759 230.284 L 82.8559 230.324 L 81.8559 230.344 H 80.836 L 79.7959 230.324 L 78.776 230.304 L 77.7559 230.244 L 76.7359 230.184 L 75.6959 230.104 L 74.6759 230.024 L 73.6359 229.924 L 72.6159 229.824 L 71.596 229.684 L 70.5559 229.564 L 69.536 229.404 L 68.5159 229.244 L 67.4959 229.064 L 66.476 228.864 L 65.4559 228.664 L 64.4359 228.424 L 63.4359 228.184 L 62.416 227.924 L 61.416 227.624 L 60.4359 227.324 L 59.4359 227.004 L 58.4559 226.664 L 57.476 226.284 L 56.5159 225.904 L 55.5559 225.504 L 54.596 225.064 L 53.656 224.624 L 52.7359 224.144 L 51.8159 223.644 L 50.916 223.124 L 50.036 222.584 L 49.156 222.004 L 48.296 221.424 L 47.456 220.804 L 46.636 220.164 L 45.816 219.504 L 45.016 218.824 L 44.236 218.124 L 43.456 217.404 L 42.696 216.664 L 41.936 215.924 L 41.176 215.164 L 40.436 214.384 L 39.716 213.604 L 38.996 212.804 L 38.256 211.984 L 37.556 211.164 L 36.836 210.304 L 36.136 209.464 L 35.456 208.584 L 34.776 207.704 L 34.096 206.784 L 33.436 205.864 L 32.776 204.924 L 32.136 203.984 L 31.516 203.024 L 30.896 202.024 L 30.276 201.044 L 29.676 200.024 L 29.096 198.984 L 28.516 197.944 L 27.936 196.884 L 27.356 195.804 L 26.796 194.724 L 26.236 193.624 L 25.696 192.504 L 25.136 191.384 L 24.596 190.244 L 24.056 189.084 L 23.516 187.904 L 22.976 186.724 L 22.436 185.524 L 21.896 184.324 L 21.376 183.104 L 20.856 181.864 L 20.316 180.604 L 19.796 179.344 L 19.276 178.064 L 18.756 176.764 L 18.236 175.464 L 17.716 174.144 L 17.196 172.804 L 16.676 171.464 L 16.136 170.104 L 15.616 168.744 L 15.096 167.364 L 14.596 165.964 L 14.076 164.544 L 13.576 163.124 L 13.096 161.684 L 12.616 160.224 L 12.136 158.744 L 11.676 157.264 L 11.236 155.764 L 10.816 154.244 L 10.396 152.704 L 9.996 151.164 L 9.616 149.584 L 9.236 148.024 L 8.876 146.424 L 8.556 144.824 L 8.236 143.184 L 7.916 141.564 L 7.636 139.904 L 7.356 138.244 L 7.076 136.564 L 6.836 134.884 L 6.596 133.184 L 6.376 131.484 L 6.176 129.744 L 5.976 128.024 L 5.816 126.264 L 5.656 124.504 L 5.516 122.744 L 5.396 120.964 L 5.296 119.184 L 5.196 117.384 L 5.136 115.604 L 5.076 113.824 L 5.056 112.044 L 5.036 110.264 L 5.056 108.524 L 5.076 106.764 L 5.136 105.044 L 5.216 103.324 L 5.336 101.624 L 5.456 99.944 L 5.636 98.304 L 5.816 96.664 L 6.056 95.044 L 6.296 93.444 L 6.596 91.884 L 6.896 90.324 L 7.256 88.804 L 7.616 87.304 L 8.036 85.824 L 8.456 84.364 L 8.916 82.924 L 9.396 81.524 L 9.916 80.124 L 10.436 78.744 L 10.996 77.384 L 11.596 76.044 L 12.196 74.704 L 12.836 73.384 L 13.496 72.084 L 14.176 70.784 L 14.876 69.504 L 15.616 68.224 L 16.356 66.944 L 17.096 65.684 L 17.876 64.424 L 18.656 63.164 L 19.456 61.924 L 20.276 60.684 L 21.096 59.464 L 21.936 58.224 L 22.796 57.004 L 23.676 55.804 L 24.556 54.604 L 25.456 53.404 L 26.356 52.224 L 27.296 51.044 L 28.236 49.884 L 29.196 48.724 L 30.176 47.584 L 31.156 46.464 L 32.176 45.344 L 33.216 44.224 L 34.276 43.144 L 35.336 42.064 L 36.436 40.984 L 37.556 39.944 L 38.676 38.904 L 39.836 37.864 L 40.996 36.864 L 42.196 35.864 L 43.396 34.904 L 44.636 33.944 L 45.896 33.004 L 47.156 32.084 L 48.456 31.204 L 49.776 30.324 L 51.116 29.464 L 52.456 28.644 L 53.836 27.824 L 55.216 27.024 L 56.616 26.224 L 58.036 25.464 L 59.456 24.684 L 60.896 23.944 L 62.336 23.184 L 63.796 22.464 L 65.276 21.744 L 66.756 21.024 L 68.256 20.324 L 69.756 19.644 L 71.276 18.964 L 72.796 18.324 L 74.336 17.684 L 75.876 17.064 L 77.416 16.464 L 78.976 15.864 L 80.556 15.304 L 82.136 14.764 L 83.716 14.244 L 85.316 13.744 L 86.916 13.264 L 88.516 12.824 L 90.136 12.384 L 91.776 11.964 L 93.416 11.584 L 95.056 11.204 L 96.716 10.844 L 98.356 10.524 L 100.036 10.204 L 101.696 9.924 L 103.376 9.644 L 105.056 9.404 L 106.756 9.164 L 108.436 8.944 L 110.136 8.724 L 111.836 8.524 L 113.536 8.324 L 115.256 8.144 L 116.976 7.964 L 118.676 7.784 L 120.396 7.624 L 122.116 7.464 L 123.856 7.304 L 125.576 7.164 L 127.296 7.024 L 129.036 6.884 L 130.756 6.744 L 132.476 6.624 L 134.216 6.524 L 135.936 6.424 L 137.676 6.324 L 139.416 6.244 L 141.136 6.184 L 142.876 6.124 L 144.596 6.084 L 146.336 6.064 L 148.056 6.044 H 149.796 H 151.516 H 153.256 L 154.996 6.064 L 156.716 6.084 L 158.456 6.104 H 160.176 L 161.916 6.124 L 163.656 6.144 L 165.396 6.164 L 167.136 6.184 L 168.876 6.204 L 170.636 6.224 H 172.396 L 174.136 6.244 L 175.916 6.264 L 177.676 6.284 L 179.436 6.304 H 181.216 L 182.996 6.324 L 184.776 6.344 L 186.556 6.364 L 188.356 6.384 L 190.156 6.404 H 191.956 L 193.756 6.424 L 195.576 6.444 L 197.396 6.464 L 199.216 6.484 L 201.036 6.504 L 202.856 6.524 L 204.696 6.544 L 206.536 6.564 L 208.376 6.584 L 210.216 6.604 L 212.056 6.624 L 213.896 6.664 L 215.736 6.704 L 217.596 6.744 L 219.456 6.784 L 221.336 6.824 L 223.196 6.884 L 225.076 6.924 L 226.976 6.984 L 228.876 7.024 L 230.776 7.064 L 232.676 7.104 L 234.596 7.144 L 236.536 7.184 L 238.456 7.204 L 240.416 7.224 H 242.356 L 244.316 7.244 H 246.276 L 248.256 7.264 H 250.236 L 252.236 7.284 L 254.236 7.304 L 256.236 7.324 L 258.256 7.344 L 260.276 7.364 L 262.316 7.404 L 264.356 7.444 L 266.396 7.484 L 268.456 7.524 L 270.516 7.564 L 272.576 7.604 L 274.656 7.644 L 276.756 7.684 L 278.836 7.724 L 280.936 7.744 L 283.056 7.784 L 285.176 7.804 L 287.296 7.824 H 289.436 L 291.576 7.844 H 293.716 H 295.876 H 298.036 H 300.196 H 302.376 H 304.556 H 306.736 H 308.936 H 311.136 H 313.356 H 315.556 L 317.796 7.824 H 320.016 H 322.256 H 324.496 H 326.736 H 328.976 H 331.216 L 333.456 7.804 H 335.716 H 337.976 L 340.236 7.784 H 342.516 L 344.796 7.764 H 347.076 H 349.356 L 351.656 7.744 H 353.956 L 356.256 7.724 L 358.576 7.704 H 360.896 L 363.216 7.684 H 365.536 L 367.876 7.664 L 370.216 7.644 H 372.556 L 374.896 7.624 H 377.256 L 379.616 7.604 H 381.976 H 384.356"
       style="fill:none;stroke:#000000;stroke-width:0.5;stroke-linecap:round;stroke-linejoin:round;stroke-miterlimit:10;stroke-dasharray:none;stroke-opacity:1" />
  </g>
</svg>
