<?xml version="1.0" encoding="UTF-8" standalone="no"?>
<!-- Created with Inkscape (http://www.inkscape.org/) -->

<svg
   inkscape:version="1.3.2 (091e20e, 2023-11-25, custom)"
   sodipodi:docname="track_brand_hatch.svg"
   xmlns:inkscape="http://www.inkscape.org/namespaces/inkscape"
   xmlns:sodipodi="http://sodipodi.sourceforge.net/DTD/sodipodi-0.dtd"
   xmlns="http://www.w3.org/2000/svg"
   xmlns:svg="http://www.w3.org/2000/svg">
  <g>
    <path
       id="track"
       d="M 232.63 22.42 H 233.51 H 235.19 L 236.87 22.44 H 238.55 L 240.25 22.46 H 241.95 L 243.65 22.48 L 245.37 22.5 L 247.09 22.52 L 248.81 22.54 L 250.53 22.56 L 252.27 22.58 L 254.01 22.6 L 255.77 22.64 L 257.51 22.66 L 259.27 22.7 L 261.03 22.74 L 262.81 22.76 L 264.59 22.8 L 266.37 22.84 L 268.15 22.88 L 269.95 22.92 L 271.75 22.98 L 273.55 23.02 L 275.35 23.06 L 277.17 23.12 L 278.99 23.16 L 280.81 23.22 L 282.65 23.28 L 284.49 23.32 L 286.33 23.38 L 288.17 23.44 L 290.03 23.5 L 291.87 23.56 L 293.73 23.64 L 295.61 23.7 L 297.47 23.76 L 299.33 23.84 L 301.21 23.9 L 303.07 23.98 L 304.95 24.06 L 306.83 24.14 L 308.71 24.22 L 310.61 24.28 L 312.49 24.36 L 314.39 24.44 L 316.29 24.52 L 318.19 24.6 L 320.11 24.66 L 322.03 24.74 L 323.95 24.8 L 325.87 24.86 L 327.79 24.92 L 329.73 24.98 L 331.67 25.02 L 333.61 25.06 L 335.55 25.1 L 337.49 25.14 L 339.45 25.18 L 341.41 25.22 L 343.37 25.26 L 345.33 25.3 L 347.31 25.32 L 349.27 25.36 L 351.25 25.4 L 353.23 25.42 L 355.23 25.46 L 357.21 25.5 L 359.21 25.52 L 361.21 25.56 L 363.21 25.6 L 365.21 25.64 L 367.23 25.66 L 369.23 25.7 L 371.25 25.72 L 373.27 25.74 L 375.31 25.76 L 377.33 25.78 L 379.37 25.8 L 381.41 25.82 H 383.45 H 385.49 L 387.53 25.84 H 389.59 L 391.65 25.82 H 393.71 H 395.77 H 397.83 L 399.91 25.8 H 401.97 L 404.05 25.78 H 406.13 L 408.23 25.76 H 410.31 L 412.41 25.74 H 414.51 H 416.61 L 418.71 25.72 H 420.81 L 422.93 25.7 H 425.03 H 427.15 L 429.27 25.68 H 431.41 H 433.53 H 435.67 H 437.79 H 439.93 H 442.07 L 444.23 25.7 H 446.37 L 448.53 25.72 H 450.69 L 452.85 25.74 H 455.01 L 457.17 25.76 H 459.35 L 461.51 25.78 H 463.69 H 465.87 L 468.05 25.8 L 470.25 25.82 L 472.43 25.84 L 474.63 25.86 L 476.83 25.88 L 479.03 25.9 L 481.23 25.92 L 483.43 25.96 L 485.65 25.98 L 487.85 26 L 490.07 26.04 L 492.29 26.06 L 494.53 26.1 L 496.75 26.12 L 498.97 26.14 L 501.21 26.18 L 503.45 26.2 L 505.69 26.24 L 507.93 26.26 L 510.17 26.28 L 512.41 26.32 L 514.67 26.34 L 516.91 26.38 L 519.17 26.4 L 521.43 26.42 L 523.67 26.46 L 525.93 26.48 L 528.19 26.52 L 530.47 26.54 L 532.73 26.56 L 534.99 26.6 L 537.25 26.62 L 539.51 26.64 L 541.77 26.68 L 544.01 26.7 L 546.25 26.72 L 548.47 26.76 L 550.67 26.78 L 552.85 26.8 L 555.01 26.82 L 557.13 26.86 L 559.25 26.88 L 561.31 26.9 L 563.37 26.92 L 565.39 26.94 L 567.39 26.96 L 569.37 26.98 H 571.31 L 573.23 27 L 575.13 27.02 H 576.99 H 578.85 H 580.67 L 582.47 27.04 H 584.25 H 585.99 H 587.73 H 589.45 L 591.17 27.06 H 592.85 H 594.51 L 596.15 27.08 L 597.77 27.1 H 599.37 L 600.95 27.12 H 602.51 L 604.05 27.14 H 605.5699 H 607.0699 L 608.55 27.12 H 610.01 L 611.45 27.1 L 612.87 27.08 L 614.25 27.06 L 615.63 27.04 L 616.97 27.02 L 618.3101 27 L 619.61 26.98 L 620.91 26.96 L 622.1899 26.94 L 623.45 26.92 L 624.6899 26.9 L 625.91 26.88 H 627.13 L 628.33 26.86 H 629.53 L 630.6899 26.88 L 631.85 26.9 L 632.97 26.94 L 634.09 26.98 L 635.1899 27.04 L 636.27 27.12 L 637.35 27.22 L 638.39 27.34 L 639.4301 27.48 L 640.45 27.64 L 641.45 27.82 L 642.4301 28.02 L 643.39 28.24 L 644.35 28.46 L 645.29 28.72 L 646.21 29 L 647.11 29.3 L 647.99 29.6 L 648.85 29.92 L 649.71 30.26 L 650.53 30.62 L 651.33 31 L 652.13 31.38 L 652.91 31.78 L 653.65 32.2 L 654.39 32.62 L 655.09 33.04 L 655.77 33.5 L 656.45 33.94 L 657.09 34.42 L 657.71 34.88 L 658.3101 35.38 L 658.89 35.88 L 659.4301 36.38 L 659.97 36.9 L 660.47 37.42 L 660.97 37.96 L 661.4301 38.52 L 661.87 39.08 L 662.29 39.64 L 662.6899 40.22 L 663.0699 40.8 L 663.4301 41.4 L 663.77 42 L 664.0699 42.62 L 664.37 43.24 L 664.65 43.86 L 665.0699 45.12 L 665.41 46.4 L 665.65 47.7 L 665.79 48.98 L 665.85 50.28 L 665.79 51.58 L 665.67 52.86 L 665.4499 54.14 L 665.13 55.4 L 664.75 56.64 L 664.29 57.86 L 663.73 59.06 L 663.11 60.22 L 662.39 61.32 L 662.03 61.88 L 661.65 62.42 L 661.25 62.94 L 660.8299 63.46 L 660.39 63.96 L 659.93 64.46 L 659.4499 64.94 L 658.97 65.42 L 658.4499 65.88 L 657.93 66.34 L 657.39 66.8 L 656.8299 67.26 L 656.25 67.7 L 655.67 68.16 L 655.0699 68.62 L 654.4499 69.08 L 653.8299 69.54 L 653.1899 70 L 652.55 70.48 L 651.89 70.98 L 651.23 71.46 L 650.5699 71.98 L 649.89 72.48 L 649.1899 73 L 648.49 73.52 L 647.77 74.06 L 647.05 74.58 L 646.31 75.14 L 645.5699 75.68 L 644.81 76.24 L 644.03 76.8 L 643.25 77.38 L 642.4699 77.96 L 641.67 78.54 L 640.85 79.12 L 640.03 79.72 L 639.1899 80.3 L 638.3299 80.9 L 637.4699 81.5 L 636.5899 82.1 L 635.7099 82.72 L 634.81 83.32 L 633.89 83.92 L 632.9499 84.52 L 632.01 85.12 L 631.05 85.72 L 630.0899 86.32 L 629.11 86.9 L 628.13 87.48 L 627.13 88.04 L 626.11 88.62 L 625.0699 89.16 L 624.03 89.72 L 622.97 90.26 L 621.91 90.8 L 620.8299 91.34 L 619.73 91.86 L 618.61 92.38 L 617.49 92.88 L 616.35 93.4 L 615.2099 93.9 L 614.05 94.38 L 612.87 94.86 L 611.67 95.34 L 610.4699 95.8 L 609.25 96.24 L 608.03 96.7 L 606.79 97.14 L 605.53 97.56 L 604.27 97.98 L 602.99 98.38 L 601.7099 98.78 L 600.41 99.16 L 599.0899 99.54 L 597.77 99.9 L 596.43 100.26 L 595.0899 100.6 L 593.73 100.94 L 592.37 101.26 L 590.99 101.58 L 589.5899 101.88 L 588.1899 102.16 L 586.79 102.46 L 585.37 102.72 L 583.9499 103 L 582.51 103.24 L 581.05 103.5 L 579.5899 103.74 L 578.13 103.96 L 576.67 104.2 L 575.1899 104.4 L 573.71 104.62 L 572.23 104.82 L 570.75 105.02 L 569.25 105.22 L 567.73 105.4 L 566.23 105.58 L 564.69 105.74 L 563.17 105.9 L 561.63 106.06 L 560.09 106.2 L 558.53 106.32 L 556.97 106.44 L 555.41 106.54 L 553.83 106.62 L 552.25 106.7 L 550.67 106.78 L 549.07 106.84 L 547.47 106.88 L 545.85 106.92 L 544.25 106.94 L 542.63 106.96 H 540.99 L 539.37 106.94 H 537.73 L 536.07 106.9 L 534.43 106.88 L 532.77 106.84 L 531.11 106.8 L 529.43 106.74 L 527.77 106.68 L 526.09 106.62 L 524.39 106.56 L 522.71 106.48 L 521.01 106.4 L 519.29 106.32 L 517.59 106.22 L 515.87 106.12 L 514.15 106.02 L 512.43 105.92 L 510.69 105.82 L 508.95 105.7 L 507.21 105.6 L 505.47 105.48 L 503.71 105.36 L 501.95 105.24 L 500.17 105.12 L 498.41 105 L 496.63 104.88 L 494.85 104.76 L 493.05 104.64 L 491.27 104.52 L 489.47 104.38 L 487.67 104.26 L 485.85 104.12 L 484.03 103.98 L 482.23 103.86 L 480.39 103.72 L 478.57 103.58 L 476.75 103.44 L 474.91 103.3 L 473.09 103.16 L 471.25 103.02 L 469.43 102.9 L 467.61 102.76 L 465.79 102.62 L 463.99 102.48 L 462.19 102.34 L 460.43 102.22 L 458.67 102.08 L 456.93 101.96 L 455.21 101.82 L 453.51 101.7 L 451.83 101.56 L 450.17 101.44 L 448.55 101.32 L 446.93 101.2 L 445.35 101.08 L 443.79 100.96 L 442.25 100.84 L 440.73 100.72 L 439.23 100.62 L 437.75 100.5 L 436.29 100.4 L 434.87 100.28 L 433.45 100.18 L 432.07 100.08 L 430.69 99.98 L 429.35 99.86 L 428.03 99.76 L 426.73 99.66 L 425.43 99.58 L 424.17 99.48 L 422.93 99.38 L 421.71 99.3 L 420.51 99.2 L 419.33 99.12 L 418.17 99.04 L 417.01 98.96 L 415.89 98.9 L 414.77 98.82 L 413.69 98.76 L 412.61 98.7 L 411.55 98.64 L 410.49 98.58 L 409.47 98.54 L 408.45 98.5 L 407.45 98.48 L 406.45 98.46 H 405.45 H 404.49 L 403.51 98.5 L 402.55 98.54 L 401.61 98.62 L 400.67 98.7 L 399.75 98.82 L 398.83 98.96 L 397.93 99.12 L 397.03 99.3 L 396.17 99.48 L 395.31 99.7 L 394.45 99.94 L 393.63 100.18 L 392.81 100.44 L 392.01 100.7 L 391.21 100.98 L 390.43 101.28 L 389.65 101.58 L 388.87 101.88 L 388.09 102.18 L 387.33 102.5 L 386.57 102.82 L 385.81 103.16 L 385.05 103.5 L 384.31 103.86 L 383.59 104.24 L 382.87 104.62 L 382.15 105.04 L 381.45 105.46 L 380.77 105.9 L 380.09 106.36 L 379.43 106.84 L 378.79 107.32 L 378.15 107.84 L 377.53 108.38 L 376.93 108.92 L 376.35 109.48 L 375.79 110.08 L 375.23 110.66 L 374.69 111.28 L 374.19 111.9 L 373.69 112.54 L 373.19 113.2 L 372.73 113.86 L 372.29 114.54 L 371.87 115.22 L 371.45 115.94 L 371.07 116.64 L 370.71 117.36 L 370.35 118.1 L 370.03 118.84 L 369.73 119.58 L 369.45 120.34 L 369.17 121.1 L 368.93 121.88 L 368.71 122.66 L 368.51 123.44 L 368.33 124.24 L 368.17 125.04 L 368.03 125.84 L 367.91 126.66 L 367.81 127.48 L 367.73 128.32 L 367.67 129.14 L 367.63 129.98 L 367.61 130.82 V 131.66 L 367.65 132.5 L 367.69 133.34 L 367.77 134.2 L 367.85 135.04 L 367.97 135.9 L 368.09 136.74 L 368.25 137.6 L 368.43 138.44 L 368.63 139.28 L 368.85 140.14 L 369.09 140.98 L 369.35 141.82 L 369.63 142.66 L 369.93 143.48 L 370.27 144.32 L 370.61 145.14 L 370.99 145.96 L 371.37 146.76 L 371.79 147.58 L 372.21 148.38 L 372.65 149.18 L 373.13 149.96 L 373.61 150.76 L 374.13 151.52 L 374.65 152.28 L 375.21 153.02 L 375.77 153.76 L 376.37 154.5 L 376.97 155.2 L 377.61 155.9 L 378.25 156.6 L 378.91 157.26 L 379.59 157.92 L 380.29 158.58 L 381.01 159.2 L 381.75 159.8 L 382.51 160.4 L 383.27 161 L 384.07 161.56 L 384.87 162.12 L 385.69 162.64 L 386.51 163.16 L 387.37 163.68 L 388.23 164.16 L 389.11 164.66 L 389.99 165.12 L 390.89 165.58 L 391.79 166.02 L 392.73 166.46 L 393.65 166.9 L 394.59 167.32 L 395.55 167.76 L 396.51 168.18 L 397.47 168.6 L 398.45 169.02 L 399.43 169.44 L 400.41 169.86 L 401.41 170.28 L 402.41 170.72 L 403.41 171.16 L 404.43 171.58 L 405.43 172.02 L 406.47 172.46 L 407.49 172.92 L 408.53 173.36 L 409.55 173.8 L 410.59 174.24 L 411.63 174.68 L 412.65 175.12 L 413.67 175.54 L 414.69 175.98 L 415.67 176.4 L 416.67 176.84 L 417.63 177.26 L 418.59 177.7 L 419.53 178.12 L 420.45 178.56 L 421.37 179 L 422.27 179.44 L 423.17 179.86 L 424.07 180.3 L 424.93 180.74 L 425.81 181.16 L 426.67 181.58 L 427.51 182 L 428.35 182.4 L 429.19 182.82 L 430.03 183.22 L 430.87 183.62 L 431.69 184.02 L 432.51 184.42 L 433.33 184.82 L 434.15 185.22 L 434.95 185.62 L 435.75 186.02 L 436.53 186.44 L 437.33 186.84 L 438.09 187.28 L 438.87 187.72 L 439.63 188.16 L 440.39 188.62 L 441.13 189.1 L 441.87 189.58 L 442.59 190.08 L 443.29 190.6 L 443.99 191.12 L 444.67 191.66 L 445.35 192.22 L 446.01 192.8 L 446.65 193.4 L 447.27 194 L 447.89 194.62 L 448.49 195.26 L 449.07 195.9 L 449.63 196.58 L 450.19 197.26 L 450.75 197.96 L 451.29 198.66 L 451.81 199.4 L 452.33 200.14 L 452.85 200.88 L 453.37 201.66 L 453.89 202.44 L 454.39 203.24 L 454.89 204.06 L 455.39 204.88 L 455.89 205.74 L 456.37 206.6 L 456.87 207.48 L 457.35 208.36 L 457.81 209.28 L 458.27 210.2 L 458.73 211.16 L 459.19 212.12 L 459.63 213.08 L 460.05 214.08 L 460.49 215.1 L 460.89 216.12 L 461.31 217.16 L 461.71 218.22 L 462.09 219.28 L 462.47 220.38 L 462.87 221.46 L 463.23 222.56 L 463.61 223.66 L 463.97 224.78 L 464.33 225.92 L 464.67 227.06 L 465.03 228.2 L 465.37 229.38 L 465.69 230.54 L 466.03 231.74 L 466.35 232.94 L 466.67 234.14 L 466.97 235.36 L 467.29 236.6 L 467.57 237.84 L 467.87 239.1 L 468.15 240.36 L 468.43 241.64 L 468.71 242.92 L 468.99 244.22 L 469.25 245.54 L 469.51 246.86 L 469.77 248.18 L 470.03 249.52 L 470.29 250.86 L 470.55 252.22 L 470.81 253.58 L 471.05 254.96 L 471.31 256.34 L 471.55 257.74 L 471.79 259.14 L 472.03 260.56 L 472.27 261.98 L 472.49 263.4 L 472.73 264.84 L 472.95 266.3 L 473.17 267.76 L 473.41 269.22 L 473.63 270.68 L 473.85 272.16 L 474.07 273.66 L 474.31 275.14 L 474.53 276.64 L 474.75 278.14 L 474.99 279.64 L 475.21 281.14 L 475.45 282.66 L 475.67 284.18 L 475.91 285.72 L 476.13 287.24 L 476.37 288.78 L 476.61 290.34 L 476.83 291.9 L 477.07 293.46 L 477.31 295.02 L 477.55 296.6 L 477.79 298.18 L 478.03 299.76 L 478.27 301.36 L 478.51 302.96 L 478.77 304.56 L 479.01 306.18 L 479.27 307.78 L 479.53 309.4 L 479.79 311.04 L 480.05 312.68 L 480.31 314.32 L 480.57 315.96 L 480.83 317.62 L 481.09 319.28 L 481.35 320.94 L 481.61 322.6 L 481.89 324.28 L 482.15 325.96 L 482.41 327.66 L 482.69 329.34 L 482.95 331.04 L 483.23 332.74 L 483.49 334.46 L 483.77 336.18 L 484.05 337.9 L 484.31 339.62 L 484.59 341.36 L 484.87 343.1 L 485.15 344.84 L 485.41 346.58 L 485.69 348.34 L 485.97 350.1 L 486.25 351.86 L 486.53 353.64 L 486.81 355.4 L 487.09 357.18 L 487.37 358.96 L 487.67 360.76 L 487.95 362.56 L 488.23 364.34 L 488.51 366.16 L 488.79 367.96 L 489.09 369.78 L 489.37 371.58 L 489.65 373.4 L 489.95 375.24 L 490.23 377.06 L 490.53 378.88 L 490.81 380.72 L 491.09 382.54 L 491.39 384.38 L 491.67 386.22 L 491.97 388.06 L 492.25 389.9 L 492.55 391.74 L 492.83 393.6 L 493.11 395.46 L 493.39 397.32 L 493.67 399.18 L 493.93 401.04 L 494.21 402.92 L 494.47 404.8 L 494.73 406.68 L 494.99 408.56 L 495.23 410.44 L 495.49 412.34 L 495.73 414.24 L 495.95 416.14 L 496.19 418.04 L 496.41 419.96 L 496.63 421.86 L 496.85 423.78 L 497.05 425.7 L 497.27 427.64 L 497.45 429.56 L 497.65 431.5 L 497.83 433.42 L 498.01 435.36 L 498.17 437.32 L 498.33 439.26 L 498.47 441.22 L 498.61 443.16 L 498.75 445.12 L 498.85 447.08 L 498.95 449.06 L 499.05 451.02 L 499.11 452.98 L 499.17 454.96 L 499.21 456.94 L 499.25 458.9 V 460.86 V 462.8 L 499.23 464.74 L 499.21 466.66 L 499.17 468.56 L 499.11 470.44 L 499.05 472.28 L 498.99 474.12 L 498.91 475.92 L 498.83 477.7 L 498.73 479.44 L 498.65 481.16 L 498.55 482.86 L 498.45 484.54 L 498.33 486.2 L 498.23 487.82 L 498.13 489.42 L 498.03 490.98 L 497.91 492.54 L 497.81 494.06 L 497.71 495.56 L 497.63 497.04 L 497.55 498.5 L 497.47 499.94 L 497.41 501.34 L 497.39 502.74 L 497.37 504.12 V 505.48 L 497.41 506.82 L 497.47 508.14 L 497.53 509.46 L 497.65 510.76 L 497.77 512.04 L 497.91 513.3 L 498.09 514.56 L 498.27 515.8 L 498.49 517.02 L 498.73 518.22 L 498.99 519.4 L 499.27 520.56 L 499.57 521.72 L 499.87 522.84 L 500.21 523.96 L 500.57 525.06 L 500.95 526.12 L 501.35 527.18 L 501.77 528.22 L 502.21 529.24 L 502.67 530.22 L 503.15 531.2 L 503.65 532.16 L 504.17 533.08 L 504.71 534 L 505.29 534.9 L 505.87 535.76 L 506.47 536.62 L 507.07 537.48 L 507.71 538.3 L 508.33 539.1 L 508.99 539.9 L 509.67 540.66 L 510.37 541.4 L 511.07 542.12 L 511.79 542.82 L 512.51 543.5 L 513.27 544.16 L 514.03 544.8 L 514.81 545.42 L 515.61 546.02 L 516.41 546.6 L 517.21 547.16 L 518.05 547.7 L 518.87 548.22 L 519.73 548.72 L 520.59 549.2 L 521.45 549.66 L 522.33 550.12 L 523.23 550.56 L 524.11 551 L 525.01 551.4 L 525.91 551.8 L 526.83 552.2 L 527.77 552.6 L 528.71 552.98 L 529.67 553.36 L 530.63 553.74 L 531.61 554.1 L 532.59 554.48 L 533.57 554.86 L 534.57 555.26 L 535.57 555.64 L 536.59 556.06 L 537.61 556.46 L 538.63 556.88 L 539.65 557.32 L 540.69 557.76 L 541.73 558.22 L 542.77 558.68 L 543.81 559.14 L 544.87 559.62 L 545.93 560.1 L 547.01 560.6 L 548.09 561.12 L 549.17 561.62 L 550.25 562.14 L 551.35 562.68 L 552.45 563.22 L 553.55 563.78 L 554.65 564.32 L 555.77 564.9 L 556.89 565.48 L 558.03 566.06 L 559.15 566.64 L 560.29 567.26 L 561.43 567.86 L 562.59 568.48 L 563.73 569.12 L 564.89 569.74 L 566.07 570.4 L 567.23 571.04 L 568.41 571.72 L 569.57 572.38 L 570.77 573.06 L 571.95 573.76 L 573.13 574.46 L 574.33 575.16 L 575.51 575.86 L 576.7099 576.58 L 577.89 577.3 L 579.0699 578.02 L 580.23 578.74 L 581.37 579.44 L 582.49 580.16 L 583.61 580.88 L 584.6899 581.6 L 585.75 582.32 L 586.79 583.04 L 587.81 583.78 L 588.81 584.52 L 589.77 585.28 L 590.7099 586.02 L 591.63 586.78 L 592.53 587.56 L 593.39 588.34 L 594.23 589.12 L 595.05 589.9 L 595.85 590.7 L 596.61 591.52 L 597.3299 592.32 L 598.05 593.14 L 598.73 593.96 L 599.39 594.8 L 600.03 595.64 L 600.63 596.48 L 601.1899 597.32 L 601.75 598.18 L 602.27 599.04 L 602.77 599.92 L 603.25 600.78 L 603.6899 601.66 L 604.13 602.56 L 604.53 603.46 L 604.91 604.36 L 605.27 605.26 L 605.5899 606.18 L 605.91 607.1 L 606.2099 608.02 L 606.4699 608.96 L 606.73 609.88 L 606.97 610.82 L 607.1899 611.76 L 607.39 612.72 L 607.57 613.66 L 607.75 614.62 L 607.91 615.58 L 608.07 616.54 L 608.21 617.5 L 608.35 618.46 L 608.47 619.44 L 608.57 620.4 L 608.65 621.38 L 608.71 622.34 L 608.75 623.32 L 608.77 624.3 L 608.79 625.28 L 608.77 626.26 L 608.73 627.22 L 608.67 628.2 L 608.59 629.16 L 608.49 630.12 L 608.37 631.08 L 608.23 632.04 L 608.05 632.98 L 607.8499 633.92 L 607.63 634.86 L 607.39 635.78 L 607.13 636.68 L 606.8299 637.6 L 606.51 638.48 L 606.17 639.36 L 605.81 640.24 L 605.43 641.08 L 605.03 641.92 L 604.6099 642.76 L 604.17 643.58 L 603.7099 644.38 L 603.2299 645.18 L 602.7299 645.94 L 602.1899 646.7 L 601.65 647.44 L 601.0899 648.18 L 600.51 648.88 L 599.91 649.6 L 599.29 650.28 L 598.65 650.96 L 597.99 651.62 L 597.3299 652.28 L 596.63 652.9 L 595.93 653.52 L 595.1899 654.12 L 594.4499 654.72 L 593.6899 655.28 L 592.91 655.84 L 592.1099 656.38 L 591.31 656.92 L 590.4699 657.42 L 589.63 657.92 L 588.77 658.4 L 587.91 658.86 L 587.01 659.3 L 586.1099 659.72 L 585.1899 660.12 L 584.25 660.52 L 583.31 660.9 L 582.3499 661.28 L 581.37 661.64 L 580.39 661.98 L 579.39 662.32 L 578.37 662.66 L 577.3499 662.98 L 576.3299 663.3 L 575.29 663.6 L 574.2299 663.92 L 573.1699 664.22 L 572.09 664.5 L 571.01 664.78 L 569.9099 665.04 L 568.7899 665.3 L 567.6699 665.54 L 566.5499 665.78 L 565.39 666 L 564.25 666.2 L 563.09 666.4 L 561.9099 666.58 L 560.7299 666.76 L 559.53 666.92 L 558.33 667.06 L 557.1099 667.18 L 555.89 667.3 L 554.6699 667.4 L 553.43 667.48 L 552.1699 667.56 L 550.93 667.64 L 549.65 667.68 L 548.39 667.72 L 547.09 667.74 L 545.81 667.76 H 544.51 L 543.21 667.74 L 541.89 667.72 L 540.57 667.7 L 539.25 667.64 L 537.9099 667.58 L 536.57 667.52 L 535.21 667.44 L 533.8499 667.36 L 532.49 667.26 L 531.1099 667.16 L 529.7299 667.06 L 528.3499 666.96 L 526.95 666.84 L 525.5499 666.72 L 524.15 666.6 L 522.7299 666.48 L 521.31 666.34 L 519.89 666.2 L 518.45 666.06 L 517.01 665.92 L 515.5499 665.76 L 514.09 665.6 L 512.63 665.44 L 511.1699 665.26 L 509.69 665.08 L 508.2299 664.9 L 506.75 664.72 L 505.27 664.52 L 503.7899 664.32 L 502.2899 664.12 L 500.81 663.92 L 499.31 663.7 L 497.7899 663.5 L 496.2899 663.28 L 494.77 663.0799 L 493.25 662.86 L 491.71 662.6399 L 490.1699 662.4399 L 488.63 662.2199 L 487.09 662.0199 L 485.53 661.7999 L 483.9699 661.5999 L 482.39 661.3799 L 480.81 661.1799 L 479.2299 660.9599 L 477.65 660.7599 L 476.0499 660.5399 L 474.4699 660.3399 L 472.8499 660.1199 L 471.25 659.9199 L 469.65 659.6999 L 468.0499 659.4999 L 466.4699 659.2799 L 464.89 659.0799 L 463.33 658.8799 L 461.81 658.6799 L 460.2899 658.4999 L 458.7899 658.2998 L 457.31 658.1198 L 455.87 657.9398 L 454.45 657.7598 L 453.0499 657.5998 L 451.6699 657.4398 L 450.31 657.2598 L 448.9699 657.0998 L 447.6699 656.9398 L 446.39 656.7598 L 445.13 656.5798 L 443.89 656.3998 L 442.69 656.2198 L 441.49 656.0198 L 440.33 655.7998 L 439.1699 655.5599 L 438.0499 655.3199 L 436.93 655.0599 L 435.8499 654.7998 L 434.7899 654.4999 L 433.75 654.1998 L 432.7299 653.8799 L 431.71 653.5398 L 430.7299 653.1799 L 429.77 652.7998 L 428.83 652.4198 L 427.9099 652.0198 L 427.01 651.5998 L 426.13 651.1799 L 425.27 650.7399 L 424.43 650.2798 L 423.6099 649.8199 L 422.81 649.3199 L 422.0499 648.8199 L 421.2899 648.2998 L 420.5499 647.7598 L 419.8499 647.2198 L 419.15 646.6598 L 418.49 646.0798 L 417.83 645.4999 L 417.21 644.8998 L 416.63 644.2798 L 416.0499 643.6398 L 415.49 642.9999 L 414.9699 642.3398 L 414.45 641.6799 L 413.9699 640.9999 L 413.51 640.3199 L 413.0499 639.6199 L 412.63 638.9198 L 412.2299 638.1998 L 411.8499 637.4798 L 411.49 636.7399 L 411.1699 636.0198 L 410.8499 635.2798 L 410.5499 634.5198 L 410.2899 633.7798 L 410.0499 633.0198 L 409.83 632.2598 L 409.63 631.4999 L 409.45 630.7399 L 409.27 629.9798 L 409.11 629.2198 L 408.97 628.4598 L 408.81 627.6998 L 408.67 626.9399 L 408.51 626.1998 L 408.35 625.4399 L 408.17 624.6998 L 407.99 623.9598 L 407.77 623.2399 L 407.5499 622.5198 L 407.33 621.8199 L 407.07 621.1199 L 406.7899 620.4399 L 406.51 619.7598 L 406.19 619.0798 L 405.87 618.4198 L 405.53 617.7598 L 405.1699 617.1199 L 404.7899 616.4798 L 404.39 615.8398 L 403.9699 615.2198 L 403.53 614.5998 L 403.09 613.9999 L 402.6099 613.3799 L 402.13 612.7598 L 401.63 612.1398 L 401.13 611.5198 L 400.59 610.9198 L 400.0499 610.2998 L 399.51 609.6598 L 398.93 609.0398 L 398.3499 608.4198 L 397.75 607.7798 L 397.15 607.1598 L 396.51 606.5198 L 395.87 605.8799 L 395.2299 605.2399 L 394.5499 604.5998 L 393.87 603.9598 L 393.1699 603.3199 L 392.4699 602.6598 L 391.75 602.02 L 391.01 601.36 L 390.27 600.7 L 389.51 600.04 L 388.73 599.38 L 387.95 598.7 L 387.15 598.02 L 386.35 597.34 L 385.53 596.64 L 384.71 595.94 L 383.89 595.24 L 383.05 594.54 L 382.19 593.82 L 381.35 593.08 L 380.49 592.36 L 379.61 591.62 L 378.75 590.88 L 377.87 590.14 L 376.99 589.38 L 376.11 588.64 L 375.21 587.88 L 374.31 587.1 L 373.41 586.34 L 372.49 585.56 L 371.57 584.78 L 370.63 583.98 L 369.71 583.18 L 368.77 582.38 L 367.83 581.56 L 366.87 580.74 L 365.93 579.92 L 364.97 579.08 L 364.01 578.24 L 363.03 577.38 L 362.05 576.52 L 361.07 575.66 L 360.09 574.78 L 359.11 573.92 L 358.11 573.04 L 357.09 572.16 L 356.09 571.26 L 355.07 570.38 L 354.05 569.5 L 353.01 568.64 L 351.97 567.76 L 350.93 566.92 L 349.89 566.08 L 348.85 565.24 L 347.79 564.44 L 346.75 563.66 L 345.69 562.9 L 344.61 562.16 L 343.55 561.46 L 342.45 560.78 L 341.37 560.12 L 340.27 559.5 L 339.17 558.9 L 338.07 558.34 L 336.95 557.8 L 335.85 557.28 L 334.73 556.8 L 333.61 556.34 L 332.47 555.9 L 331.35 555.5 L 330.21 555.12 L 329.09 554.76 L 327.95 554.44 L 326.83 554.14 L 325.69 553.86 L 324.57 553.62 L 323.47 553.4 L 322.35 553.22 L 321.25 553.06 L 320.17 552.92 L 319.07 552.82 L 318.01 552.72 L 316.95 552.66 L 315.89 552.62 H 314.85 H 313.83 L 312.81 552.66 L 311.79 552.72 L 310.79 552.8 L 309.81 552.92 L 308.83 553.04 L 307.87 553.2 L 306.89 553.38 L 305.95 553.58 L 305.01 553.8 L 304.07 554.04 L 303.15 554.32 L 302.25 554.6 L 301.35 554.92 L 300.45 555.24 L 299.59 555.6 L 298.73 555.96 L 297.87 556.34 L 297.03 556.74 L 296.21 557.16 L 295.39 557.6 L 294.59 558.04 L 293.81 558.52 L 293.03 559 L 292.29 559.5 L 291.55 560.02 L 290.83 560.56 L 290.13 561.12 L 289.45 561.68 L 288.77 562.28 L 288.11 562.86 L 287.47 563.48 L 286.85 564.1 L 286.25 564.74 L 285.65 565.38 L 285.05 566.04 L 284.49 566.7 L 283.91 567.38 L 283.35 568.04 L 282.79 568.72 L 282.21 569.38 L 281.65 570.06 L 281.07 570.72 L 280.49 571.38 L 279.89 572.02 L 279.29 572.64 L 278.67 573.26 L 278.05 573.88 L 277.41 574.46 L 276.77 575.04 L 276.09 575.6 L 275.43 576.14 L 274.75 576.66 L 274.05 577.18 L 273.33 577.68 L 272.61 578.14 L 271.89 578.6 L 271.15 579.04 L 270.39 579.48 L 269.63 579.88 L 268.85 580.28 L 268.07 580.66 L 267.27 581.02 L 266.47 581.38 L 265.67 581.7 L 264.85 582.02 L 264.01 582.32 L 263.19 582.6 L 262.35 582.86 L 261.49 583.1 L 260.65 583.32 L 259.79 583.52 L 258.93 583.72 L 258.07 583.88 L 257.21 584.02 L 256.33 584.12 L 255.47 584.22 L 254.59 584.3 L 253.71 584.34 L 252.85 584.36 H 251.97 L 251.09 584.34 L 250.21 584.3 L 249.31 584.24 L 248.43 584.16 L 247.55 584.06 L 246.67 583.94 L 245.79 583.78 L 244.91 583.62 L 244.05 583.42 L 243.17 583.22 L 242.31 582.98 L 241.45 582.74 L 240.59 582.46 L 239.75 582.16 L 238.91 581.84 L 238.09 581.5 L 237.25 581.14 L 236.43 580.76 L 235.63 580.36 L 234.83 579.92 L 234.05 579.48 L 233.27 579 L 232.49 578.52 L 231.73 578.02 L 230.97 577.48 L 230.21 576.92 L 229.49 576.34 L 228.75 575.74 L 228.05 575.12 L 227.35 574.48 L 226.65 573.82 L 225.97 573.14 L 225.31 572.42 L 224.65 571.7 L 223.99 570.96 L 223.35 570.2 L 222.71 569.44 L 222.09 568.64 L 221.45 567.84 L 220.83 567.04 L 220.21 566.22 L 219.59 565.38 L 218.95 564.54 L 218.33 563.68 L 217.69 562.82 L 217.07 561.96 L 216.45 561.06 L 215.83 560.16 L 215.21 559.26 L 214.59 558.32 L 213.99 557.38 L 213.39 556.42 L 212.79 555.46 L 212.19 554.48 L 211.59 553.5 L 210.99 552.48 L 210.41 551.48 L 209.81 550.44 L 209.21 549.42 L 208.63 548.38 L 208.03 547.32 L 207.41 546.26 L 206.81 545.18 L 206.21 544.1 L 205.59 543.02 L 204.99 541.92 L 204.37 540.82 L 203.75 539.7 L 203.13 538.58 L 202.51 537.46 L 201.89 536.32 L 201.25 535.18 L 200.61 534.02 L 199.97 532.86 L 199.33 531.68 L 198.69 530.52 L 198.03 529.34 L 197.37 528.14 L 196.71 526.96 L 196.05 525.74 L 195.37 524.54 L 194.69 523.32 L 194.01 522.1 L 193.33 520.88 L 192.63 519.64 L 191.93 518.4 L 191.23 517.16 L 190.53 515.9 L 189.81 514.64 L 189.09 513.38 L 188.37 512.1 L 187.65 510.82 L 186.93 509.54 L 186.21 508.26 L 185.49 507 L 184.77 505.74 L 184.07 504.5 L 183.35 503.28 L 182.65 502.08 L 181.95 500.9 L 181.25 499.74 L 180.55 498.6 L 179.85 497.48 L 179.13 496.38 L 178.41 495.32 L 177.67 494.28 L 176.93 493.28 L 176.19 492.28 L 175.41 491.32 L 174.65 490.38 L 173.85 489.48 L 173.07 488.6 L 172.25 487.74 L 171.45 486.92 L 170.61 486.12 L 169.79 485.34 L 168.95 484.58 L 168.09 483.86 L 167.23 483.16 L 166.37 482.48 L 165.51 481.84 L 164.63 481.2 L 163.75 480.6 L 162.87 480.04 L 161.99 479.48 L 161.09 478.94 L 160.21 478.44 L 159.31 477.96 L 158.41 477.5 L 157.49 477.04 L 156.59 476.62 L 155.69 476.18 L 154.77 475.76 L 153.87 475.36 L 152.95 474.94 L 152.05 474.52 L 151.15 474.1 L 150.25 473.68 L 149.33 473.26 L 148.43 472.84 L 147.53 472.42 L 146.61 472.02 L 145.71 471.6 L 144.79 471.2 L 143.87 470.8 L 142.95 470.44 L 142.03 470.06 L 141.09 469.7 L 140.15 469.34 L 139.21 468.98 L 138.27 468.64 L 137.31 468.3 L 136.35 467.96 L 135.39 467.6 L 134.43 467.26 L 133.45 466.92 L 132.47 466.56 L 131.49 466.22 L 130.49 465.86 L 129.51 465.5 L 128.49 465.14 L 127.49 464.8 L 126.47 464.44 L 125.43 464.1 L 124.41 463.76 L 123.35 463.42 L 122.31 463.08 L 121.23 462.76 L 120.17 462.44 L 119.09 462.12 L 118.01 461.8 L 116.91 461.5 L 115.81 461.2 L 114.71 460.9 L 113.61 460.6 L 112.49 460.3 L 111.37 460 L 110.27 459.7 L 109.15 459.42 L 108.01 459.12 L 106.89 458.82 L 105.77 458.52 L 104.63 458.22 L 103.51 457.92 L 102.37 457.62 L 101.23 457.32 L 100.09 457 L 98.97 456.7 L 97.83 456.38 L 96.69 456.06 L 95.55 455.72 L 94.41 455.38 L 93.27 455.02 L 92.13 454.66 L 90.99 454.28 L 89.85 453.9 L 88.73 453.5 L 87.59 453.08 L 86.47 452.66 L 85.33 452.22 L 84.21 451.76 L 83.09 451.28 L 81.99 450.8 L 80.87 450.3 L 79.77 449.78 L 78.67 449.24 L 77.59 448.7 L 76.51 448.12 L 75.45 447.54 L 74.39 446.94 L 73.35 446.32 L 72.33 445.68 L 71.31 445.02 L 70.33 444.34 L 69.37 443.62 L 68.41 442.9 L 67.49 442.16 L 66.57 441.4 L 65.67 440.62 L 64.79 439.82 L 63.93 439 L 63.09 438.16 L 62.25 437.32 L 61.45 436.44 L 60.65 435.56 L 59.85 434.64 L 59.09 433.72 L 58.33 432.8 L 57.61 431.84 L 56.89 430.88 L 56.19 429.9 L 55.51 428.9 L 54.85 427.9 L 54.23 426.88 L 53.61 425.84 L 53.03 424.8 L 52.47 423.76 L 51.93 422.7 L 51.41 421.62 L 50.91 420.54 L 50.45 419.46 L 49.99 418.36 L 49.57 417.24 L 49.17 416.12 L 48.79 414.98 L 48.43 413.84 L 48.11 412.68 L 47.79 411.52 L 47.49 410.34 L 47.21 409.16 L 46.95 407.96 L 46.71 406.74 L 46.51 405.52 L 46.31 404.28 L 46.15 403.04 L 45.99 401.8 L 45.87 400.54 L 45.75 399.26 L 45.67 397.98 L 45.61 396.7 L 45.55 395.4 L 45.51 394.1 L 45.49 392.78 V 391.46 V 390.14 L 45.51 388.8 L 45.53 387.46 L 45.57 386.1 L 45.61 384.74 L 45.65 383.38 L 45.71 382 L 45.77 380.6 L 45.83 379.22 L 45.91 377.82 L 45.99 376.4 L 46.09 374.98 L 46.19 373.56 L 46.29 372.14 L 46.39 370.7 L 46.51 369.24 L 46.63 367.8 L 46.75 366.34 L 46.85 364.86 L 46.97 363.38 L 47.07 361.9 L 47.19 360.4 L 47.29 358.9 L 47.37 357.4 L 47.47 355.9 L 47.55 354.38 L 47.63 352.88 L 47.69 351.34 L 47.77 349.82 L 47.83 348.28 L 47.89 346.74 L 47.95 345.2 L 47.99 343.64 L 48.05 342.08 L 48.09 340.5 L 48.15 338.92 L 48.21 337.34 L 48.25 335.76 L 48.31 334.16 L 48.35 332.56 L 48.41 330.96 L 48.47 329.34 L 48.51 327.72 L 48.57 326.08 L 48.63 324.46 L 48.69 322.82 L 48.75 321.16 L 48.79 319.52 L 48.85 317.86 L 48.91 316.18 L 48.97 314.52 L 49.03 312.84 L 49.09 311.14 L 49.15 309.46 L 49.19 307.76 L 49.25 306.06 L 49.31 304.34 L 49.37 302.62 L 49.43 300.9 L 49.49 299.18 L 49.55 297.44 L 49.61 295.7 L 49.65 293.96 L 49.71 292.22 L 49.77 290.46 L 49.81 288.7 L 49.87 286.92 L 49.91 285.16 L 49.97 283.38 L 50.01 281.58 L 50.05 279.8 L 50.09 278 L 50.13 276.2 L 50.17 274.38 L 50.21 272.58 L 50.23 270.76 L 50.27 268.92 L 50.31 267.1 L 50.33 265.26 L 50.37 263.42 L 50.39 261.6 L 50.41 259.76 L 50.45 257.92 L 50.47 256.1 L 50.49 254.26 L 50.51 252.44 L 50.53 250.64 L 50.55 248.84 L 50.59 247.04 L 50.61 245.26 L 50.65 243.5 L 50.69 241.76 L 50.73 240.06 L 50.77 238.36 L 50.83 236.68 L 50.87 235.02 L 50.93 233.38 L 50.99 231.76 L 51.05 230.16 L 51.11 228.56 L 51.17 227 L 51.23 225.46 L 51.29 223.94 L 51.35 222.42 L 51.39 220.94 L 51.45 219.46 L 51.47 218 L 51.51 216.56 L 51.55 215.14 L 51.57 213.74 L 51.59 212.36 V 210.98 V 209.64 L 51.61 208.3 V 206.96 V 205.64 V 204.36 V 203.06 V 201.8 V 200.54 L 51.63 199.3 V 198.06 L 51.65 196.84 L 51.67 195.64 L 51.69 194.44 L 51.73 193.26 L 51.77 192.1 L 51.81 190.94 L 51.85 189.8 L 51.91 188.66 L 51.95 187.54 L 52.03 186.44 L 52.09 185.34 L 52.19 184.26 L 52.29 183.2 L 52.41 182.14 L 52.55 181.1 L 52.69 180.08 L 52.87 179.08 L 53.07 178.08 L 53.27 177.12 L 53.51 176.16 L 53.75 175.2 L 54.03 174.28 L 54.31 173.38 L 54.63 172.48 L 54.95 171.6 L 55.29 170.76 L 55.65 169.92 L 56.03 169.1 L 56.43 168.3 L 56.83 167.52 L 57.25 166.76 L 57.67 166 L 58.13 165.26 L 58.59 164.54 L 59.05 163.84 L 59.55 163.16 L 60.05 162.48 L 60.57 161.82 L 61.09 161.16 L 61.65 160.54 L 62.21 159.92 L 62.79 159.32 L 63.37 158.76 L 63.97 158.2 L 64.59 157.64 L 65.23 157.12 L 65.87 156.62 L 66.51 156.12 L 67.17 155.66 L 67.83 155.2 L 68.51 154.76 L 69.19 154.36 L 69.89 153.96 L 70.59 153.58 L 71.31 153.22 L 72.01 152.9 L 72.73 152.58 L 73.47 152.28 L 74.19 152 L 74.93 151.76 L 75.67 151.52 L 76.41 151.3 L 77.15 151.1 L 77.91 150.92 L 78.65 150.76 L 79.41 150.62 L 80.17 150.48 L 80.95 150.38 L 81.71 150.28 L 82.49 150.2 L 83.27 150.14 L 84.07 150.08 L 84.87 150.04 L 85.69 150.02 L 86.51 150 H 87.35 H 88.19 L 89.03 150.02 L 89.91 150.06 L 90.77 150.12 L 91.65 150.18 L 92.55 150.26 L 93.45 150.36 L 94.35 150.46 L 95.27 150.58 L 96.19 150.72 L 97.11 150.86 L 98.05 151.04 L 99.01 151.22 L 99.95 151.42 L 100.91 151.62 L 101.89 151.84 L 102.87 152.08 L 103.85 152.34 L 104.85 152.6 L 105.87 152.86 L 106.87 153.14 L 107.91 153.42 L 108.95 153.72 L 109.99 154.02 L 111.05 154.32 L 112.11 154.62 L 113.19 154.92 L 114.29 155.24 L 115.39 155.54 L 116.51 155.86 L 117.63 156.16 L 118.75 156.48 L 119.89 156.78 L 121.03 157.08 L 122.19 157.4 L 123.35 157.7 L 124.53 158 L 125.71 158.3 L 126.91 158.6 L 128.11 158.9 L 129.33 159.18 L 130.55 159.48 L 131.79 159.78 L 133.03 160.06 L 134.29 160.34 L 135.55 160.64 L 136.83 160.92 L 138.11 161.2 L 139.39 161.48 L 140.71 161.74 L 142.01 162 L 143.35 162.24 L 144.69 162.48 L 146.03 162.72 L 147.39 162.92 L 148.75 163.12 L 150.13 163.32 L 151.53 163.5 L 152.93 163.66 L 154.33 163.82 L 155.75 163.96 L 157.17 164.08 L 158.61 164.22 L 160.07 164.32 L 161.51 164.42 L 162.97 164.52 L 164.45 164.6 L 165.93 164.66 L 167.41 164.74 L 168.91 164.78 L 170.39 164.84 L 171.87 164.88 L 173.35 164.9 L 174.81 164.92 L 176.25 164.94 H 177.67 H 179.07 L 180.45 164.92 H 181.81 L 183.15 164.88 L 184.47 164.86 L 185.77 164.82 L 187.05 164.78 L 188.31 164.72 L 189.55 164.68 L 190.75 164.6 L 191.95 164.52 L 193.13 164.44 L 194.27 164.34 L 195.41 164.22 L 196.53 164.1 L 197.61 163.94 L 198.69 163.78 L 199.75 163.58 L 200.79 163.38 L 201.81 163.14 L 202.83 162.88 L 203.81 162.62 L 204.79 162.32 L 205.73 162.02 L 206.67 161.6801 L 207.59 161.34 L 208.49 160.98 L 209.37 160.6 L 210.23 160.2 L 211.07 159.78 L 211.89 159.34 L 212.69 158.88 L 213.47 158.42 L 214.23 157.92 L 214.97 157.42 L 215.69 156.9 L 216.39 156.38 L 217.07 155.82 L 217.73 155.26 L 218.37 154.6801 L 219.01 154.08 L 219.61 153.4601 L 220.19 152.84 L 220.75 152.22 L 221.29 151.56 L 221.81 150.9 L 222.31 150.2401 L 222.79 149.56 L 223.25 148.88 L 223.67 148.1801 L 224.09 147.48 L 224.47 146.78 L 224.83 146.06 L 225.17 145.34 L 225.47 144.6 L 225.77 143.88 L 226.03 143.14 L 226.27 142.38 L 226.49 141.64 L 226.69 140.9 L 226.87 140.14 L 227.03 139.38 L 227.15 138.64 L 227.25 137.88 L 227.33 137.12 L 227.39 136.38 L 227.41 135.64 L 227.43 134.88 L 227.41 134.14 L 227.37 133.4 L 227.33 132.66 L 227.25 131.92 L 227.15 131.2 L 227.03 130.4601 L 226.87 129.7401 L 226.71 129.02 L 226.53 128.32 L 226.31 127.62 L 226.09 126.92 L 225.83 126.22 L 225.57 125.54 L 225.27 124.86 L 224.97 124.2 L 224.65 123.54 L 224.29 122.9 L 223.93 122.26 L 223.55 121.64 L 223.15 121.02 L 222.73 120.44 L 222.29 119.84 L 221.83 119.28 L 221.37 118.72 L 220.87 118.1801 L 220.37 117.64 L 219.85 117.12 L 219.31 116.62 L 218.75 116.14 L 218.19 115.68 L 217.61 115.22 L 217.01 114.78 L 216.41 114.36 L 215.79 113.96 L 215.15 113.58 L 214.49 113.2 L 213.83 112.86 L 213.15 112.54 L 212.47 112.22 L 211.77 111.94 L 211.05 111.66 L 210.33 111.4 L 209.59 111.18 L 208.85 110.96 L 208.09 110.76 L 207.31 110.58 L 206.53 110.44 L 205.75 110.3 L 204.95 110.18 L 204.13 110.06 L 203.31 109.98 L 202.47 109.9 L 201.63 109.84 L 200.79 109.8 L 199.91 109.76 L 199.03 109.74 H 198.15 L 197.25 109.72 H 196.33 L 195.41 109.74 L 194.47 109.76 H 193.51 L 192.55 109.8 L 191.59 109.82 L 190.59 109.86 L 189.61 109.88 L 188.59 109.92 L 187.59 109.96 L 186.55 110.02 L 185.51 110.06 L 184.47 110.1 L 183.41 110.16 L 182.33 110.22 L 181.25 110.26 L 180.15 110.32 L 179.05 110.38 L 177.93 110.44 L 176.81 110.5 L 175.69 110.56 L 174.57 110.62 L 173.43 110.68 L 172.29 110.74 L 171.13 110.78 L 169.97 110.84 L 168.81 110.9 L 167.63 110.96 L 166.43 111 L 165.25 111.06 L 164.03 111.1 L 162.83 111.16 L 161.61 111.2 L 160.37 111.24 L 159.13 111.28 L 157.89 111.32 L 156.63 111.36 L 155.37 111.38 L 154.11 111.42 L 152.83 111.44 L 151.55 111.46 L 150.29 111.48 L 149.01 111.5 L 147.77 111.52 L 146.51 111.54 L 145.29 111.56 H 144.07 L 142.87 111.58 L 141.67 111.6 H 140.51 L 139.35 111.62 L 138.21 111.64 L 137.09 111.66 L 135.99 111.68 L 134.89 111.7 L 133.83 111.72 L 132.77 111.74 L 131.73 111.76 L 130.71 111.78 L 129.71 111.8 H 128.73 L 127.77 111.82 H 126.81 H 125.87 H 124.95 L 124.05 111.8 L 123.17 111.78 L 122.29 111.74 L 121.43 111.7 L 120.57 111.66 L 119.71 111.6 L 118.85 111.54 L 118.01 111.46 L 117.17 111.36 L 116.33 111.24 L 115.49 111.12 L 114.67 110.98 L 113.83 110.82 L 113.01 110.64 L 112.19 110.46 L 111.37 110.24 L 110.55 110 L 109.75 109.76 L 108.93 109.48 L 108.13 109.2 L 107.31 108.9 L 106.51 108.6 L 105.69 108.28 L 104.89 107.94 L 104.07 107.6 L 103.27 107.26 L 102.47 106.9 L 101.67 106.52 L 100.85 106.14 L 100.05 105.76 L 99.27 105.34 L 98.47 104.92 L 97.69 104.5 L 96.91 104.04 L 96.15 103.58 L 95.39 103.08 L 94.63 102.58 L 93.89 102.06 L 93.15 101.52 L 92.43 100.96 L 91.71 100.4 L 91.01 99.8 L 90.31 99.2 L 89.63 98.56 L 88.95 97.92 L 88.29 97.26 L 87.63 96.58 L 86.99 95.9 L 86.35 95.18 L 85.73 94.46 L 85.13 93.7 L 84.53 92.94 L 83.95 92.16 L 83.39 91.36 L 82.85 90.56 L 82.31 89.72 L 81.81 88.88 L 81.31 88.02 L 80.83 87.14 L 80.37 86.26 L 79.93 85.36 L 79.49 84.44 L 79.09 83.5 L 78.71 82.56 L 78.33 81.6 L 77.97 80.62 L 77.65 79.64 L 77.33 78.66 L 77.05 77.66 L 76.79 76.64 L 76.53 75.62 L 76.31 74.6 L 76.11 73.56 L 75.93 72.54 L 75.77 71.48 L 75.63 70.44 L 75.53 69.38 L 75.43 68.34 L 75.37 67.28 L 75.33 66.24 L 75.31 65.18 V 64.14 L 75.35 63.08 L 75.41 62.04 L 75.49 61.02 L 75.61 59.98 L 75.75 58.96 L 75.91 57.94 L 76.09 56.92 L 76.31 55.92 L 76.5499 54.94 L 76.81 53.94 L 77.09 52.98 L 77.4099 52 L 77.7299 51.06 L 78.09 50.12 L 78.45 49.18 L 78.8499 48.26 L 79.27 47.36 L 79.71 46.48 L 80.1699 45.6 L 80.63 44.74 L 81.13 43.9 L 81.65 43.06 L 82.19 42.26 L 82.75 41.46 L 83.33 40.68 L 83.9099 39.92 L 84.53 39.16 L 85.15 38.44 L 85.81 37.74 L 86.4699 37.04 L 87.15 36.38 L 87.8499 35.72 L 88.57 35.08 L 89.2899 34.46 L 90.03 33.84 L 90.7899 33.26 L 91.57 32.7 L 92.3499 32.14 L 93.1699 31.6 L 93.99 31.08 L 94.81 30.58 L 95.6699 30.1 L 96.53 29.64 L 97.4099 29.2 L 98.31 28.78 L 99.21 28.36 L 100.15 27.98 L 101.09 27.6 L 102.03 27.24 L 103.01 26.92 L 103.99 26.6 L 104.9699 26.3 L 105.9699 26.02 L 106.99 25.76 L 108.03 25.54 L 109.07 25.32 L 110.1099 25.12 L 111.1699 24.94 L 112.25 24.76 L 113.3499 24.6 L 114.43 24.46 L 115.5499 24.32 L 116.65 24.18 L 117.77 24.04 L 118.9099 23.92 L 120.0499 23.8 L 121.19 23.68 L 122.3499 23.56 L 123.53 23.46 L 124.71 23.36 L 125.89 23.28 L 127.09 23.22 L 128.2899 23.16 L 129.51 23.1 L 130.7299 23.06 L 131.9699 23.04 L 133.21 23.02 L 134.4699 23 H 135.7299 L 137.01 22.98 H 138.2899 L 139.57 22.96 L 140.87 22.94 L 142.1699 22.92 L 143.49 22.9 L 144.83 22.88 L 146.15 22.86 L 147.49 22.84 L 148.8499 22.8 L 150.21 22.76 L 151.57 22.74 L 152.95 22.7 L 154.3499 22.66 L 155.7299 22.64 L 157.13 22.6 L 158.5499 22.58 L 159.9699 22.56 L 161.39 22.52 L 162.83 22.5 H 164.27 L 165.7299 22.48 L 167.19 22.46 H 168.6699 H 170.13 L 171.63 22.44 H 173.1099 H 174.6099 L 176.13 22.46 H 177.63 H 179.15 H 180.6699 H 182.21 H 183.7299 H 185.27 H 186.81 H 188.37 H 189.9099 H 191.49 H 193.0499 H 194.63 H 196.21 L 197.7899 22.44 H 199.39 H 200.99 H 202.6099 H 204.21 H 205.83 H 207.4699 H 209.1099 H 210.75 H 212.39 H 214.0499 H 215.69 H 217.37 H 219.03 L 220.71 22.42 H 222.39 H 224.09 H 225.7899 H 227.49 H 229.19 H 230.9099 H 232.63"
       style="fill:none;stroke:#000000;stroke-width:0.5;stroke-linecap:round;stroke-linejoin:round;stroke-miterlimit:10;stroke-dasharray:none;stroke-opacity:1" />
  </g>
</svg>
