<?xml version="1.0" encoding="UTF-8" standalone="no"?>
<!-- Created with Inkscape (http://www.inkscape.org/) -->

<svg
   inkscape:version="1.3.2 (091e20e, 2023-11-25, custom)"
   sodipodi:docname="track_brand_hatch.svg"
   xmlns:inkscape="http://www.inkscape.org/namespaces/inkscape"
   xmlns:sodipodi="http://sodipodi.sourceforge.net/DTD/sodipodi-0.dtd"
   xmlns="http://www.w3.org/2000/svg"
   xmlns:svg="http://www.w3.org/2000/svg">
  <g>
    <path
       id="track"
       d="M 346.1404 30.096 H 347.3604 L 350.4004 30.116 H 353.4404 H 356.5004 H 359.5604 L 362.6404 30.136 H 365.7204 H 368.7804 H 371.8804 L 374.9604 30.156 H 378.0604 H 381.1804 H 384.2804 L 387.4004 30.176 H 390.5204 H 393.6404 H 396.7804 L 399.9204 30.196 H 403.0604 H 406.2204 H 409.3604 L 412.5204 30.216 H 415.7004 H 418.8604 L 422.0404 30.236 H 425.2204 H 428.4204 H 431.6004 L 434.8004 30.256 H 438.0204 H 441.2204 H 444.4404 L 447.6604 30.276 H 450.8804 H 454.1204 H 457.3404 L 460.5804 30.296 H 463.8404 H 467.0804 H 470.3404 L 473.6004 30.316 H 476.8604 H 480.1404 H 483.4204 L 486.7004 30.336 H 489.9804 H 493.2604 L 496.5604 30.356 H 499.8604 H 503.1604 H 506.4804 L 509.7804 30.376 H 513.1004 H 516.4204 H 519.7604 L 523.1004 30.396 H 526.4204 H 529.7604 H 533.1204 L 536.4604 30.416 H 539.8204 H 543.1804 H 546.5404 L 549.9004 30.436 H 553.2804 H 556.6404 H 560.0204 L 563.4004 30.456 H 566.7804 H 570.1804 H 573.5604 L 576.9604 30.476 H 580.3404 H 583.7404 L 587.1404 30.496 H 590.5404 H 593.9404 H 597.3404 L 600.7404 30.516 H 604.1404 H 607.5404 H 610.9404 L 614.3604 30.536 H 617.7804 H 621.2004 H 624.6204 L 628.0404 30.556 H 631.4804 H 634.9004 H 638.3404 L 641.7804 30.576 H 645.2204 H 648.6804 H 652.1204 L 655.5804 30.596 H 659.0204 H 662.4804 L 665.9404 30.616 H 669.4204 H 672.8804 H 676.3604 L 679.8404 30.636 H 683.3204 H 686.8004 H 690.2804 H 693.7604 H 697.2604 H 700.7604 H 704.2604 L 707.7604 30.616 H 711.2604 L 714.7604 30.596 H 718.2804 L 721.8004 30.576 H 725.3004 L 728.8204 30.556 L 732.3604 30.536 H 735.8804 L 739.4204 30.516 L 742.9404 30.496 H 746.4804 L 750.0204 30.476 L 753.5604 30.456 L 757.1004 30.436 H 760.6604 L 764.2204 30.416 L 767.7604 30.396 H 771.3204 L 774.8804 30.376 L 778.4604 30.356 H 782.0204 L 785.5804 30.336 L 789.1604 30.316 L 792.7404 30.296 H 796.3204 L 799.9004 30.276 L 803.5004 30.256 H 807.0804 L 810.6804 30.236 L 814.2604 30.216 H 817.8604 L 821.4604 30.196 L 825.0804 30.176 L 828.6804 30.156 H 832.3004 L 835.9004 30.136 L 839.5204 30.116 H 843.1404 L 846.7604 30.096 L 850.4004 30.076 L 854.0204 30.056 H 857.6604 L 861.3004 30.036 L 864.9204 30.016 L 868.5604 29.996 H 872.2204 L 875.8604 29.976 L 879.5204 29.956 H 883.1604 L 886.8204 29.936 L 890.4804 29.916 L 894.1404 29.896 H 897.8004 L 901.4804 29.876 L 905.1404 29.856 L 908.8204 29.836 L 912.5004 29.816 L 916.1804 29.796 L 919.8604 29.776 L 923.5404 29.736 L 927.2404 29.716 L 930.9204 29.676 L 934.6204 29.636 L 938.3004 29.596 L 942.0004 29.536 L 945.7004 29.496 L 949.4204 29.436 L 953.1204 29.376 L 956.8405 29.336 L 960.5404 29.276 L 964.2604 29.196 L 967.9803 29.136 L 971.7004 29.076 L 975.4204 29.016 L 979.1404 28.936 L 982.8604 28.876 L 986.6003 28.796 L 990.3405 28.736 L 994.0604 28.676 L 997.8004 28.596 L 1001.5404 28.536 L 1005.2804 28.456 L 1009.0004 28.396 L 1012.7205 28.316 L 1016.4404 28.256 L 1020.1404 28.196 L 1023.8405 28.116 L 1027.5004 28.056 L 1031.1404 27.996 L 1034.7404 27.916 L 1038.2804 27.856 L 1041.8004 27.796 L 1045.2604 27.736 L 1048.6804 27.676 L 1052.0404 27.616 L 1055.3604 27.556 L 1058.6204 27.496 L 1061.8604 27.436 L 1065.0404 27.376 L 1068.1604 27.316 L 1071.2604 27.256 L 1074.3204 27.216 L 1077.3204 27.156 L 1080.2804 27.096 L 1083.2205 27.056 L 1086.1003 26.996 L 1088.9404 26.956 L 1091.7604 26.896 L 1094.5404 26.856 L 1097.2804 26.796 L 1100.0204 26.736 L 1102.7205 26.696 L 1105.3804 26.636 L 1108.0204 26.576 L 1110.6204 26.516 L 1113.1804 26.456 L 1115.7004 26.396 L 1118.2004 26.336 L 1120.6404 26.256 L 1123.0604 26.196 L 1125.4404 26.116 L 1127.7804 26.056 L 1130.0804 25.976 L 1132.3604 25.916 L 1134.6003 25.876 L 1136.8204 25.816 L 1139.0004 25.796 L 1141.1404 25.776 L 1143.2804 25.796 L 1145.3604 25.816 L 1147.4404 25.876 L 1149.4803 25.956 L 1151.5004 26.036 L 1153.4803 26.176 L 1155.4604 26.316 L 1157.4004 26.496 L 1159.3405 26.716 L 1161.2604 26.936 L 1163.1604 27.196 L 1165.0404 27.476 L 1166.9004 27.776 L 1168.7404 28.116 L 1170.5604 28.456 L 1172.3405 28.836 L 1174.1204 29.236 L 1175.8804 29.656 L 1177.6204 30.096 L 1179.3405 30.556 L 1181.0404 31.036 L 1182.7604 31.556 L 1184.4404 32.096 L 1186.1204 32.636 L 1187.8004 33.216 L 1189.4604 33.816 L 1191.1003 34.436 L 1192.7205 35.096 L 1194.3405 35.776 L 1195.9204 36.496 L 1197.5004 37.236 L 1199.0604 38.016 L 1200.5804 38.816 L 1202.0804 39.656 L 1203.5604 40.536 L 1205.0004 41.456 L 1206.4204 42.396 L 1207.8204 43.376 L 1209.1804 44.376 L 1210.5204 45.396 L 1211.8004 46.456 L 1213.0804 47.556 L 1214.3004 48.676 L 1215.4803 49.836 L 1216.6404 51.016 L 1217.7604 52.216 L 1218.8405 53.436 L 1219.8604 54.696 L 1220.8604 55.976 L 1221.8204 57.276 L 1222.7404 58.576 L 1223.6204 59.916 L 1224.4404 61.276 L 1225.2404 62.656 L 1225.9803 64.036 L 1226.7004 65.436 L 1227.3604 66.856 L 1227.9803 68.276 L 1228.5804 69.716 L 1229.1204 71.176 L 1229.6204 72.636 L 1230.1003 74.096 L 1230.5204 75.576 L 1230.9204 77.056 L 1231.2804 78.556 L 1231.6003 80.036 L 1231.9004 81.536 L 1232.1404 83.036 L 1232.3405 84.536 L 1232.5205 86.036 L 1232.6805 87.516 L 1232.8005 89.016 L 1232.9005 90.516 L 1232.9805 91.996 L 1233.0405 93.476 L 1233.1005 94.956 L 1233.1605 96.436 L 1233.2405 97.916 L 1233.3405 99.396 L 1233.4405 100.856 L 1233.5805 102.316 L 1233.7405 103.756 L 1233.9405 105.196 L 1234.1605 106.636 L 1234.4205 108.056 L 1234.6805 109.476 L 1235.0005 110.896 L 1235.3406 112.276 L 1235.7206 113.676 L 1236.1405 115.056 L 1236.5805 116.416 L 1237.0605 117.756 L 1237.5605 119.096 L 1238.1405 120.416 L 1238.7206 121.716 L 1239.3605 122.996 L 1240.0405 124.276 L 1240.7405 125.536 L 1241.4605 126.776 L 1242.2206 128.016 L 1242.9804 129.236 L 1243.7805 130.456 L 1244.6004 131.656 L 1245.4605 132.836 L 1246.3406 134.016 L 1247.2405 135.176 L 1248.1805 136.336 L 1249.1405 137.476 L 1250.1205 138.616 L 1251.1405 139.756 L 1252.1805 140.856 L 1253.2405 141.976 L 1254.3205 143.056 L 1255.4605 144.136 L 1256.6004 145.176 L 1257.7805 146.216 L 1259.0005 147.236 L 1260.2405 148.236 L 1261.5005 149.236 L 1262.7805 150.216 L 1264.1004 151.176 L 1265.4205 152.116 L 1266.7805 153.036 L 1268.1805 153.916 L 1269.6004 154.796 L 1271.0205 155.656 L 1272.4804 156.516 L 1273.9605 157.356 L 1275.4605 158.176 L 1277.0005 158.996 L 1278.5405 159.796 L 1280.1004 160.596 L 1281.7005 161.356 L 1283.3005 162.136 L 1284.9405 162.876 L 1286.5805 163.616 L 1288.2605 164.316 L 1289.9405 165.016 L 1291.6605 165.716 L 1293.4005 166.396 L 1295.1405 167.056 L 1296.9005 167.696 L 1298.7005 168.356 L 1300.4804 168.996 L 1302.3005 169.636 L 1304.1205 170.296 L 1305.9405 170.976 L 1307.7805 171.636 L 1309.6405 172.336 L 1311.5005 173.036 L 1313.3605 173.756 L 1315.2206 174.496 L 1317.1004 175.256 L 1318.9804 176.036 L 1320.8805 176.836 L 1322.7605 177.656 L 1324.6604 178.496 L 1326.5404 179.356 L 1328.4404 180.236 L 1330.3405 181.156 L 1332.2404 182.116 L 1334.1204 183.076 L 1336.0004 184.096 L 1337.8804 185.116 L 1339.7604 186.196 L 1341.6404 187.296 L 1343.4803 188.416 L 1345.3405 189.596 L 1347.1804 190.796 L 1349.0004 192.016 L 1350.8204 193.296 L 1352.6204 194.596 L 1354.4004 195.936 L 1356.1804 197.296 L 1357.9204 198.716 L 1359.6604 200.156 L 1361.3405 201.616 L 1363.0204 203.116 L 1364.6604 204.656 L 1366.3004 206.216 L 1367.9004 207.836 L 1369.4803 209.456 L 1371.0404 211.136 L 1372.5604 212.836 L 1374.0804 214.556 L 1375.5604 216.316 L 1377.0204 218.096 L 1378.4604 219.916 L 1379.8604 221.776 L 1381.2404 223.656 L 1382.6003 225.556 L 1383.9204 227.496 L 1385.2004 229.456 L 1386.4803 231.436 L 1387.7004 233.436 L 1388.9004 235.476 L 1390.0804 237.536 L 1391.2205 239.616 L 1392.3004 241.696 L 1393.3804 243.816 L 1394.4004 245.936 L 1395.3804 248.056 L 1396.3405 250.196 L 1397.2205 252.336 L 1398.0804 254.496 L 1398.9004 256.636 L 1399.6804 258.796 L 1400.4004 260.956 L 1401.0804 263.116 L 1401.7205 265.256 L 1402.3204 267.416 L 1402.8604 269.576 L 1403.3604 271.716 L 1403.8405 273.856 L 1404.2604 276.016 L 1404.6404 278.156 L 1404.9604 280.296 L 1405.2604 282.436 L 1405.5204 284.576 L 1405.7205 286.736 L 1405.9005 288.876 L 1406.0205 291.016 L 1406.1205 293.156 L 1406.1805 295.296 V 297.416 L 1406.1605 299.556 L 1406.0805 301.676 L 1405.9805 303.796 L 1405.8407 305.916 L 1405.6406 308.016 L 1405.4206 310.136 L 1405.1606 312.236 L 1404.8606 314.316 L 1404.5206 316.416 L 1404.1406 318.496 L 1403.7406 320.576 L 1403.2806 322.636 L 1402.8006 324.696 L 1402.2606 326.736 L 1401.7006 328.776 L 1401.1005 330.776 L 1400.4805 332.796 L 1399.8006 334.776 L 1399.1005 336.756 L 1398.3606 338.696 L 1397.5606 340.636 L 1396.7606 342.556 L 1395.9006 344.456 L 1395.0206 346.336 L 1394.1005 348.196 L 1393.1606 350.056 L 1392.1606 351.876 L 1391.1406 353.696 L 1390.0806 355.496 L 1389.0006 357.276 L 1387.8806 359.036 L 1386.7207 360.776 L 1385.5406 362.476 L 1384.3206 364.196 L 1383.0606 365.876 L 1381.7806 367.536 L 1380.4606 369.176 L 1379.1206 370.796 L 1377.7406 372.396 L 1376.3206 373.976 L 1374.8806 375.536 L 1373.4006 377.076 L 1371.9006 378.596 L 1370.3606 380.076 L 1368.8006 381.556 L 1367.2006 382.996 L 1365.5806 384.436 L 1363.9406 385.836 L 1362.2606 387.236 L 1360.5806 388.616 L 1358.8606 389.976 L 1357.1206 391.316 L 1355.3407 392.636 L 1353.5606 393.956 L 1351.7606 395.256 L 1349.9206 396.536 L 1348.0606 397.796 L 1346.2006 399.056 L 1344.3006 400.276 L 1342.3806 401.496 L 1340.4406 402.696 L 1338.4805 403.876 L 1336.5006 405.036 L 1334.4805 406.176 L 1332.4606 407.276 L 1330.4206 408.376 L 1328.3407 409.456 L 1326.2406 410.496 L 1324.1406 411.536 L 1322.0006 412.536 L 1319.8606 413.516 L 1317.6806 414.496 L 1315.4805 415.436 L 1313.2806 416.356 L 1311.0606 417.256 L 1308.8206 418.156 L 1306.5606 419.036 L 1304.2806 419.896 L 1302.0006 420.756 L 1299.7006 421.596 L 1297.3806 422.436 L 1295.0606 423.236 L 1292.7006 424.036 L 1290.3407 424.816 L 1287.9606 425.576 L 1285.5806 426.336 L 1283.1806 427.056 L 1280.7606 427.756 L 1278.3206 428.416 L 1275.8606 429.076 L 1273.4006 429.696 L 1270.9206 430.296 L 1268.4206 430.856 L 1265.9006 431.416 L 1263.3806 431.916 L 1260.8407 432.416 L 1258.3006 432.876 L 1255.7406 433.316 L 1253.1606 433.736 L 1250.5806 434.136 L 1247.9805 434.496 L 1245.3606 434.856 L 1242.7406 435.176 L 1240.1206 435.476 L 1237.4805 435.776 L 1234.8206 436.036 L 1232.1606 436.276 L 1229.5006 436.496 L 1226.8206 436.696 L 1224.1206 436.856 L 1221.4406 437.016 L 1218.7207 437.156 L 1216.0006 437.256 L 1213.2806 437.356 L 1210.5606 437.416 L 1207.8206 437.456 L 1205.0606 437.496 L 1202.3206 437.516 L 1199.5406 437.536 L 1196.7806 437.556 L 1194.0006 437.576 L 1191.2207 437.596 L 1188.4206 437.616 L 1185.6206 437.656 L 1182.8206 437.716 L 1180.0206 437.756 L 1177.2207 437.836 L 1174.4206 437.896 L 1171.6005 437.976 L 1168.7806 438.056 L 1165.9606 438.136 L 1163.1206 438.216 L 1160.2806 438.296 L 1157.4406 438.376 L 1154.5806 438.456 L 1151.7207 438.536 L 1148.8606 438.616 L 1146.0006 438.696 L 1143.1206 438.776 L 1140.2406 438.856 L 1137.3407 438.936 L 1134.4406 438.996 L 1131.5406 439.076 L 1128.6406 439.136 L 1125.7207 439.196 L 1122.8006 439.256 L 1119.8606 439.316 L 1116.9406 439.376 L 1114.0006 439.416 L 1111.0406 439.476 L 1108.1005 439.516 L 1105.1406 439.556 L 1102.1606 439.596 L 1099.2006 439.636 L 1096.2207 439.656 L 1093.2406 439.696 L 1090.2406 439.716 L 1087.2606 439.756 L 1084.2606 439.776 L 1081.2406 439.796 H 1078.2406 L 1075.2207 439.816 H 1072.2207 L 1069.2006 439.836 H 1066.2207 H 1063.2406 H 1060.2806 H 1057.3206 H 1054.4006 L 1051.5006 439.816 H 1048.6406 L 1045.8006 439.796 H 1043.0006 L 1040.2207 439.776 H 1037.5006 L 1034.8006 439.796 L 1032.1406 439.816 L 1029.5206 439.856 L 1026.9406 439.896 L 1024.4006 439.936 L 1021.9206 439.996 L 1019.4606 440.056 L 1017.0606 440.116 L 1014.7006 440.176 L 1012.3606 440.216 L 1010.0806 440.256 H 1007.8606 H 1005.6606 H 1003.4805 L 1001.3606 440.196 L 999.2606 440.136 L 997.2006 440.036 L 995.1806 439.916 L 993.1806 439.776 L 991.2207 439.596 L 989.3006 439.396 L 987.4006 439.136 L 985.5206 438.876 L 983.6806 438.576 L 981.8606 438.236 L 980.0806 437.896 L 978.3206 437.496 L 976.6005 437.076 L 974.9206 436.616 L 973.2406 436.136 L 971.6005 435.596 L 969.9805 435.036 L 968.4006 434.436 L 966.8206 433.796 L 965.2806 433.116 L 963.7606 432.396 L 962.2406 431.636 L 960.7606 430.856 L 959.3206 430.036 L 957.8806 429.176 L 956.4805 428.276 L 955.0806 427.356 L 953.7207 426.416 L 952.3806 425.416 L 951.0806 424.396 L 949.8006 423.356 L 948.5406 422.276 L 947.3206 421.176 L 946.1406 420.036 L 944.9805 418.876 L 943.8606 417.696 L 942.7606 416.496 L 941.7006 415.256 L 940.6806 413.996 L 939.7006 412.716 L 938.7406 411.416 L 937.8407 410.096 L 936.9606 408.756 L 936.1206 407.396 L 935.3206 406.016 L 934.5606 404.636 L 933.8206 403.216 L 933.1406 401.796 L 932.4805 400.376 L 931.8806 398.916 L 931.3006 397.476 L 930.7806 395.996 L 930.3006 394.516 L 929.8406 393.036 L 929.4406 391.536 L 929.0806 390.056 L 928.7606 388.536 L 928.4806 387.036 L 928.2406 385.536 L 928.0406 384.016 L 927.8606 382.496 L 927.7406 380.976 L 927.6606 379.456 L 927.6206 377.956 V 376.436 L 927.6406 374.936 L 927.7206 373.436 L 927.8406 371.916 L 927.9806 370.416 L 928.1806 368.916 L 928.4206 367.436 L 928.6806 365.936 L 928.9806 364.456 L 929.3206 362.956 L 929.7006 361.476 L 930.1206 359.996 L 930.5806 358.516 L 931.0606 357.056 L 931.6005 355.596 L 932.1606 354.136 L 932.7606 352.696 L 933.4006 351.256 L 934.0806 349.816 L 934.8006 348.396 L 935.5406 346.976 L 936.3206 345.576 L 937.1606 344.196 L 938.0006 342.816 L 938.9006 341.436 L 939.8407 340.096 L 940.8006 338.756 L 941.8006 337.436 L 942.8407 336.116 L 943.9206 334.836 L 945.0206 333.556 L 946.1606 332.296 L 947.3407 331.056 L 948.5406 329.816 L 949.8006 328.616 L 951.0606 327.436 L 952.3806 326.256 L 953.7006 325.116 L 955.0806 323.976 L 956.4805 322.856 L 957.9006 321.756 L 959.3606 320.676 L 960.8407 319.596 L 962.3407 318.536 L 963.8806 317.496 L 965.4206 316.436 L 967.0006 315.396 L 968.5806 314.356 L 970.2006 313.336 L 971.8206 312.316 L 973.4805 311.296 L 975.1606 310.296 L 976.8606 309.316 L 978.5806 308.336 L 980.3206 307.376 L 982.0806 306.436 L 983.8806 305.516 L 985.7006 304.596 L 987.5406 303.716 L 989.4006 302.856 L 991.2806 301.996 L 993.1806 301.176 L 995.1206 300.396 L 997.0806 299.616 L 999.0606 298.876 L 1001.0606 298.156 L 1003.0606 297.456 L 1005.1206 296.796 L 1007.1806 296.156 L 1009.2606 295.556 L 1011.3606 294.976 L 1013.4805 294.416 L 1015.6206 293.896 L 1017.7806 293.416 L 1019.9406 292.956 L 1022.1406 292.516 L 1024.3407 292.136 L 1026.5606 291.776 L 1028.7806 291.436 L 1031.0206 291.156 L 1033.2606 290.896 L 1035.5206 290.676 L 1037.7806 290.476 L 1040.0606 290.316 L 1042.3606 290.176 L 1044.6606 290.076 L 1046.9805 290.016 L 1049.3006 289.956 L 1051.6406 289.936 H 1053.9805 L 1056.3407 289.956 L 1058.7006 289.996 L 1061.0806 290.076 L 1063.4606 290.136 L 1065.8407 290.236 L 1068.2606 290.356 L 1070.6606 290.476 L 1073.0806 290.616 L 1075.5206 290.776 L 1077.9606 290.936 L 1080.4006 291.116 L 1082.8606 291.296 L 1085.3407 291.496 L 1087.8206 291.676 L 1090.3206 291.876 L 1092.8206 292.076 L 1095.3206 292.296 L 1097.8407 292.496 L 1100.3806 292.696 L 1102.9206 292.876 L 1105.4606 293.076 L 1108.0206 293.276 L 1110.6005 293.476 L 1113.1806 293.656 L 1115.7806 293.836 L 1118.3806 294.036 L 1120.9805 294.216 L 1123.6005 294.396 L 1126.2207 294.576 L 1128.8206 294.736 L 1131.4006 294.896 L 1133.9606 295.036 L 1136.5006 295.176 L 1139.0006 295.276 L 1141.4805 295.376 L 1143.9406 295.456 L 1146.3606 295.496 L 1148.7606 295.516 H 1151.1206 L 1153.4606 295.476 L 1155.7606 295.416 L 1158.0406 295.336 L 1160.2806 295.236 L 1162.4805 295.136 L 1164.6606 295.036 L 1166.8006 294.916 L 1168.9206 294.816 L 1171.0006 294.736 L 1173.0406 294.656 L 1175.0606 294.596 L 1177.0606 294.556 H 1179.0206 L 1180.9406 294.576 L 1182.8407 294.596 L 1184.7207 294.656 L 1186.5606 294.696 L 1188.3606 294.776 L 1190.1206 294.836 L 1191.8606 294.896 L 1193.5606 294.956 L 1195.2406 294.996 L 1196.8806 295.036 L 1198.5006 295.056 L 1200.1005 295.036 L 1201.6606 295.016 L 1203.2006 294.956 L 1204.7207 294.876 L 1206.2207 294.776 L 1207.7006 294.636 L 1209.1606 294.476 L 1210.5806 294.276 L 1212.0006 294.056 L 1213.3806 293.796 L 1214.7406 293.516 L 1216.0806 293.196 L 1217.4006 292.836 L 1218.6806 292.456 L 1219.9606 292.056 L 1221.2006 291.616 L 1222.4206 291.136 L 1223.6206 290.636 L 1224.8006 290.096 L 1225.9606 289.516 L 1227.0806 288.916 L 1228.2006 288.276 L 1229.3006 287.616 L 1230.3606 286.916 L 1231.4006 286.196 L 1232.4206 285.436 L 1233.4006 284.656 L 1234.3606 283.836 L 1235.2806 282.976 L 1236.1806 282.116 L 1237.0606 281.216 L 1237.9006 280.296 L 1238.7207 279.336 L 1239.4805 278.376 L 1240.2406 277.376 L 1240.9406 276.356 L 1241.6206 275.336 L 1242.2606 274.276 L 1242.8606 273.216 L 1243.4406 272.116 L 1243.9606 271.016 L 1244.4606 269.896 L 1244.9206 268.776 L 1245.3407 267.636 L 1245.7207 266.476 L 1246.0606 265.316 L 1246.3606 264.136 L 1246.6406 262.936 L 1246.8606 261.756 L 1247.0606 260.536 L 1247.2406 259.336 L 1247.3606 258.116 L 1247.4406 256.896 L 1247.4806 255.656 L 1247.5006 254.436 L 1247.4806 253.196 L 1247.4006 251.976 L 1247.3006 250.736 L 1247.1606 249.516 L 1246.9806 248.296 L 1246.7607 247.076 L 1246.5006 245.876 L 1246.2007 244.656 L 1245.8807 243.456 L 1245.5006 242.256 L 1245.1006 241.056 L 1244.6407 239.876 L 1244.1607 238.676 L 1243.6206 237.516 L 1243.0607 236.336 L 1242.4607 235.176 L 1241.8207 234.036 L 1241.1607 232.896 L 1240.4407 231.756 L 1239.6807 230.636 L 1238.9007 229.516 L 1238.0807 228.416 L 1237.2207 227.316 L 1236.3207 226.236 L 1235.4007 225.176 L 1234.4407 224.116 L 1233.4407 223.056 L 1232.4207 222.016 L 1231.3806 220.976 L 1230.3007 219.956 L 1229.1807 218.936 L 1228.0407 217.916 L 1226.8807 216.896 L 1225.6807 215.876 L 1224.4407 214.876 L 1223.2007 213.856 L 1221.9207 212.836 L 1220.6407 211.816 L 1219.3207 210.796 L 1218.0006 209.776 L 1216.6407 208.736 L 1215.2807 207.696 L 1213.9007 206.636 L 1212.5006 205.596 L 1211.1006 204.536 L 1209.6807 203.496 L 1208.2406 202.436 L 1206.8007 201.376 L 1205.3207 200.316 L 1203.8207 199.256 L 1202.3207 198.196 L 1200.8007 197.136 L 1199.2406 196.096 L 1197.6807 195.036 L 1196.1006 193.976 L 1194.4806 192.936 L 1192.8606 191.876 L 1191.2207 190.816 L 1189.5607 189.756 L 1187.9007 188.696 L 1186.2207 187.636 L 1184.5207 186.556 L 1182.8007 185.476 L 1181.0607 184.396 L 1179.3207 183.296 L 1177.5807 182.196 L 1175.8207 181.096 L 1174.0407 179.976 L 1172.2406 178.836 L 1170.4607 177.716 L 1168.6407 176.556 L 1166.8207 175.416 L 1164.9806 174.236 L 1163.1407 173.076 L 1161.2807 171.896 L 1159.4207 170.696 L 1157.5407 169.496 L 1155.6607 168.296 L 1153.7607 167.076 L 1151.8606 165.856 L 1149.9407 164.636 L 1148.0207 163.416 L 1146.1006 162.176 L 1144.1807 160.956 L 1142.2207 159.716 L 1140.2607 158.476 L 1138.3007 157.236 L 1136.3007 156.016 L 1134.3007 154.796 L 1132.2807 153.576 L 1130.2406 152.356 L 1128.1807 151.156 L 1126.1006 149.976 L 1124.0207 148.796 L 1121.9007 147.636 L 1119.7607 146.476 L 1117.6206 145.336 L 1115.4407 144.196 L 1113.2607 143.076 L 1111.0607 141.976 L 1108.8407 140.876 L 1106.6006 139.796 L 1104.3407 138.736 L 1102.0807 137.676 L 1099.7807 136.636 L 1097.4806 135.596 L 1095.1407 134.596 L 1092.8007 133.596 L 1090.4407 132.616 L 1088.0607 131.656 L 1085.6807 130.696 L 1083.2607 129.756 L 1080.8407 128.836 L 1078.4007 127.936 L 1075.9407 127.076 L 1073.4607 126.216 L 1070.9806 125.376 L 1068.4607 124.556 L 1065.9407 123.756 L 1063.4007 122.996 L 1060.8407 122.236 L 1058.2607 121.516 L 1055.6807 120.816 L 1053.0807 120.136 L 1050.4607 119.496 L 1047.8207 118.856 L 1045.1807 118.236 L 1042.5207 117.656 L 1039.8606 117.076 L 1037.1807 116.516 L 1034.4806 115.976 L 1031.7807 115.456 L 1029.0607 114.956 L 1026.3407 114.476 L 1023.6006 114.016 L 1020.8407 113.576 L 1018.0807 113.156 L 1015.3207 112.756 L 1012.5407 112.376 L 1009.7607 112.016 L 1006.9806 111.676 L 1004.2007 111.336 L 1001.4007 111.036 L 998.6006 110.736 L 995.8007 110.436 L 993.0207 110.156 L 990.2406 109.896 L 987.5006 109.616 L 984.7804 109.356 L 982.0804 109.116 L 979.4204 108.876 L 976.8004 108.656 L 974.2004 108.436 L 971.6404 108.256 L 969.1204 108.076 L 966.6404 107.916 L 964.1804 107.796 L 961.7804 107.676 L 959.3804 107.596 L 957.0404 107.536 L 954.7404 107.496 L 952.4604 107.476 L 950.2205 107.456 L 948.0004 107.476 L 945.8405 107.496 L 943.7004 107.536 L 941.6003 107.616 L 939.5404 107.696 L 937.5004 107.796 L 935.5004 107.916 L 933.5204 108.056 L 931.5804 108.216 L 929.6604 108.416 L 927.7804 108.616 L 925.9204 108.876 L 924.0804 109.156 L 922.2604 109.456 L 920.4804 109.796 L 918.7204 110.176 L 916.9804 110.576 L 915.2804 111.016 L 913.6204 111.496 L 911.9804 112.016 L 910.3804 112.576 L 908.8204 113.156 L 907.2804 113.796 L 905.7804 114.456 L 904.3004 115.136 L 902.8804 115.856 L 901.4804 116.616 L 900.1204 117.416 L 898.7804 118.256 L 897.4804 119.116 L 896.2204 120.016 L 894.9804 120.936 L 893.7804 121.896 L 892.6004 122.896 L 891.4604 123.916 L 890.3604 124.976 L 889.2804 126.056 L 888.2404 127.156 L 887.2204 128.296 L 886.2604 129.456 L 885.3204 130.656 L 884.4204 131.876 L 883.5204 133.116 L 882.6804 134.376 L 881.8604 135.656 L 881.0604 136.956 L 880.3004 138.276 L 879.5804 139.616 L 878.9004 140.976 L 878.2404 142.376 L 877.6004 143.756 L 877.0204 145.176 L 876.4604 146.616 L 875.9204 148.056 L 875.4404 149.516 L 874.9804 150.996 L 874.5404 152.496 L 874.1404 154.016 L 873.7804 155.536 L 873.4604 157.056 L 873.1604 158.616 L 872.9004 160.176 L 872.6804 161.756 L 872.4804 163.336 L 872.3004 164.936 L 872.1604 166.556 L 872.0404 168.176 L 871.9404 169.816 L 871.8404 171.456 L 871.7604 173.116 L 871.6604 174.796 L 871.5804 176.496 L 871.4604 178.196 L 871.3404 179.896 L 871.2004 181.616 L 871.0404 183.356 L 870.8604 185.096 L 870.6404 186.856 L 870.4004 188.616 L 870.1404 190.396 L 869.8604 192.176 L 869.5404 193.956 L 869.2004 195.756 L 868.8204 197.556 L 868.4204 199.356 L 867.9804 201.156 L 867.5004 202.976 L 867.0004 204.796 L 866.4604 206.616 L 865.9004 208.436 L 865.3004 210.256 L 864.6804 212.076 L 864.0204 213.896 L 863.3204 215.736 L 862.6004 217.556 L 861.8604 219.396 L 861.0804 221.216 L 860.3004 223.056 L 859.4804 224.896 L 858.6404 226.736 L 857.7804 228.576 L 856.9004 230.436 L 856.0204 232.276 L 855.1004 234.136 L 854.1804 236.016 L 853.2204 237.876 L 852.2604 239.736 L 851.2804 241.616 L 850.2804 243.496 L 849.2604 245.356 L 848.2004 247.236 L 847.1404 249.116 L 846.0604 250.996 L 844.9604 252.896 L 843.8404 254.776 L 842.6804 256.656 L 841.5204 258.536 L 840.3404 260.416 L 839.1204 262.296 L 837.9004 264.176 L 836.6404 266.036 L 835.3804 267.916 L 834.1004 269.776 L 832.8204 271.636 L 831.5004 273.496 L 830.2004 275.376 L 828.8804 277.236 L 827.5604 279.116 L 826.2404 281.016 L 824.9404 282.936 L 823.6204 284.856 L 822.3204 286.776 L 821.0204 288.736 L 819.7204 290.696 L 818.4204 292.676 L 817.1204 294.656 L 815.8404 296.656 L 814.5404 298.656 L 813.2604 300.676 L 811.9604 302.696 L 810.6804 304.736 L 809.3804 306.796 L 808.0804 308.836 L 806.7804 310.916 L 805.4804 312.976 L 804.1604 315.056 L 802.8604 317.136 L 801.5404 319.236 L 800.2204 321.336 L 798.8804 323.436 L 797.5604 325.556 L 796.2204 327.676 L 794.8804 329.816 L 793.5404 331.936 L 792.1804 334.076 L 790.8204 336.216 L 789.4604 338.336 L 788.1204 340.456 L 786.7804 342.556 L 785.4404 344.636 L 784.1404 346.696 L 782.8404 348.716 L 781.5604 350.716 L 780.3004 352.696 L 779.0404 354.636 L 777.8204 356.556 L 776.6004 358.436 L 775.4004 360.276 L 774.2004 362.076 L 773.0204 363.856 L 771.8404 365.596 L 770.6804 367.316 L 769.5204 368.976 L 768.3404 370.596 L 767.1804 372.176 L 766.0004 373.716 L 764.8404 375.236 L 763.6604 376.696 L 762.4604 378.136 L 761.2604 379.516 L 760.0604 380.836 L 758.8404 382.136 L 757.6204 383.416 L 756.3804 384.636 L 755.1204 385.836 L 753.8604 386.996 L 752.5404 388.116 L 751.2204 389.216 L 749.8804 390.276 L 748.5004 391.316 L 747.1204 392.336 L 745.7204 393.336 L 744.3004 394.316 L 742.8404 395.256 L 741.3804 396.176 L 739.9004 397.096 L 738.4004 397.976 L 736.8804 398.836 L 735.3204 399.676 L 733.7604 400.476 L 732.1804 401.276 L 730.5604 402.016 L 728.9404 402.756 L 727.2804 403.456 L 725.6204 404.136 L 723.9404 404.776 L 722.2204 405.396 L 720.4804 405.956 L 718.7404 406.496 L 716.9804 407.016 L 715.2004 407.496 L 713.4004 407.956 L 711.5804 408.356 L 709.7404 408.736 L 707.9004 409.096 L 706.0404 409.396 L 704.1604 409.676 L 702.2604 409.916 L 700.3604 410.116 L 698.4604 410.296 L 696.5204 410.436 L 694.6004 410.556 L 692.6604 410.636 L 690.7004 410.696 L 688.7404 410.716 L 686.7804 410.736 L 684.8004 410.696 L 682.8204 410.656 L 680.8404 410.576 L 678.8404 410.476 L 676.8204 410.336 L 674.8204 410.176 L 672.8204 409.996 L 670.8004 409.796 L 668.8004 409.536 L 666.7804 409.236 L 664.7804 408.916 L 662.7804 408.556 L 660.7604 408.176 L 658.7604 407.776 L 656.7604 407.336 L 654.7604 406.876 L 652.7804 406.376 L 650.8004 405.856 L 648.8004 405.276 L 646.8204 404.696 L 644.8604 404.076 L 642.8804 403.416 L 640.9004 402.716 L 638.9404 401.996 L 636.9604 401.256 L 635.0004 400.476 L 633.0204 399.676 L 631.0604 398.856 L 629.0804 397.996 L 627.1204 397.116 L 625.1404 396.236 L 623.1604 395.336 L 621.1804 394.416 L 619.1804 393.476 L 617.1804 392.536 L 615.1804 391.576 L 613.1804 390.596 L 611.1804 389.616 L 609.1604 388.616 L 607.1404 387.576 L 605.1204 386.556 L 603.1004 385.496 L 601.0804 384.436 L 599.0404 383.336 L 597.0004 382.236 L 594.9604 381.116 L 592.9204 379.996 L 590.8804 378.856 L 588.8204 377.716 L 586.7404 376.556 L 584.6804 375.396 L 582.6004 374.236 L 580.5004 373.076 L 578.4004 371.896 L 576.2804 370.716 L 574.1604 369.516 L 572.0404 368.336 L 569.9004 367.136 L 567.7604 365.936 L 565.6004 364.736 L 563.4404 363.516 L 561.2604 362.296 L 559.0804 361.076 L 556.9004 359.856 L 554.7004 358.616 L 552.5004 357.356 L 550.3004 356.116 L 548.0804 354.836 L 545.8604 353.576 L 543.6404 352.296 L 541.4004 351.016 L 539.1604 349.716 L 536.9204 348.416 L 534.6604 347.096 L 532.4004 345.796 L 530.1404 344.456 L 527.8604 343.136 L 525.5804 341.776 L 523.3004 340.436 L 521.0004 339.076 L 518.7204 337.696 L 516.4204 336.336 L 514.1004 334.936 L 511.8004 333.556 L 509.4804 332.136 L 507.1604 330.736 L 504.8404 329.296 L 502.5204 327.876 L 500.2004 326.416 L 497.8604 324.956 L 495.5204 323.476 L 493.2004 321.996 L 490.8604 320.496 L 488.5204 319.016 L 486.1604 317.496 L 483.8004 315.996 L 481.4404 314.476 L 479.0804 312.976 L 476.7204 311.476 L 474.3404 309.956 L 471.9604 308.456 L 469.5804 306.956 L 467.1804 305.436 L 464.7804 303.936 L 462.3804 302.416 L 459.9604 300.916 L 457.5404 299.396 L 455.1004 297.876 L 452.6604 296.356 L 450.2204 294.836 L 447.7604 293.336 L 445.3004 291.816 L 442.8404 290.276 L 440.3604 288.756 L 437.8804 287.236 L 435.3804 285.716 L 432.8804 284.176 L 430.3804 282.656 L 427.8804 281.116 L 425.3604 279.596 L 422.8404 278.056 L 420.3004 276.516 L 417.7804 274.976 L 415.2404 273.416 L 412.6804 271.876 L 410.1404 270.316 L 407.5804 268.756 L 405.0204 267.216 L 402.4404 265.636 L 399.8604 264.076 L 397.2804 262.496 L 394.7004 260.936 L 392.1204 259.356 L 389.5204 257.776 L 386.9204 256.196 L 384.3004 254.596 L 381.7004 253.016 L 379.0804 251.416 L 376.4604 249.836 L 373.8204 248.236 L 371.1804 246.636 L 368.5404 245.036 L 365.9004 243.436 L 363.2404 241.816 L 360.5804 240.216 L 357.9204 238.596 L 355.2604 236.976 L 352.5804 235.376 L 349.9004 233.756 L 347.2204 232.136 L 344.5604 230.516 L 341.8804 228.916 L 339.2004 227.296 L 336.5604 225.716 L 333.9204 224.136 L 331.3204 222.576 L 328.7404 221.016 L 326.2004 219.496 L 323.6804 217.996 L 321.2004 216.496 L 318.7404 215.036 L 316.3204 213.596 L 313.9404 212.176 L 311.5804 210.796 L 309.2804 209.416 L 306.9804 208.056 L 304.7404 206.736 L 302.5404 205.416 L 300.3604 204.116 L 298.2204 202.856 L 296.1004 201.596 L 294.0404 200.356 L 292.0004 199.116 L 290.0204 197.916 L 288.0604 196.696 L 286.1204 195.516 L 284.2204 194.336 L 282.3604 193.156 L 280.5204 191.996 L 278.7204 190.856 L 276.9404 189.716 L 275.1804 188.596 L 273.4604 187.476 L 271.7604 186.396 L 270.0804 185.296 L 268.4404 184.236 L 266.8004 183.176 L 265.2004 182.156 L 263.6204 181.116 L 262.0604 180.116 L 260.5204 179.116 L 259.0204 178.136 L 257.5204 177.176 L 256.0404 176.216 L 254.5804 175.276 L 253.1404 174.336 L 251.7204 173.416 L 250.3204 172.516 L 248.9404 171.616 L 247.5804 170.736 L 246.2404 169.876 L 244.9404 169.036 L 243.6404 168.196 L 242.3804 167.376 L 241.1204 166.576 L 239.9004 165.776 L 238.6804 164.996 L 237.4804 164.216 L 236.3004 163.476 L 235.1404 162.736 L 234.0004 162.016 L 232.8604 161.316 L 231.7404 160.656 L 230.6204 159.996 L 229.5204 159.376 L 228.4404 158.776 L 227.3404 158.216 L 226.2604 157.676 L 225.1804 157.156 L 224.1204 156.676 L 223.0604 156.216 L 222.0004 155.796 L 220.9604 155.416 L 219.9004 155.056 L 218.8804 154.756 L 217.8404 154.476 L 216.8404 154.236 L 215.8204 154.016 L 213.8404 153.736 L 211.8804 153.596 H 209.9604 L 208.0604 153.736 L 206.2004 154.016 L 204.3804 154.436 L 202.6004 154.976 L 200.8404 155.656 L 199.1404 156.456 L 197.4804 157.336 L 195.8604 158.336 L 194.3204 159.416 L 192.8204 160.576 L 191.4204 161.856 L 190.0604 163.176 L 188.8204 164.616 L 187.7204 166.136 L 186.7204 167.736 L 185.8204 169.396 L 185.0404 171.096 L 184.3804 172.856 L 183.9004 174.656 L 183.5404 176.516 L 183.3204 178.396 L 183.2204 180.296 V 182.216 L 183.3804 184.156 L 183.6204 186.116 L 183.9604 188.096 L 184.1604 189.116 L 184.3604 190.136 L 184.5804 191.176 L 184.8204 192.236 L 185.0804 193.296 L 185.3604 194.376 L 185.6204 195.476 L 185.9004 196.596 L 186.2004 197.736 L 186.4804 198.876 L 186.7804 200.056 L 187.0804 201.236 L 187.4004 202.456 L 187.7004 203.676 L 188.0204 204.916 L 188.3404 206.176 L 188.6804 207.456 L 189.0204 208.736 L 189.3804 210.056 L 189.7404 211.376 L 190.1204 212.716 L 190.5204 214.076 L 190.9404 215.436 L 191.3604 216.836 L 191.8004 218.236 L 192.2604 219.656 L 192.7204 221.076 L 193.2004 222.536 L 193.7004 223.996 L 194.1804 225.476 L 194.7004 226.976 L 195.2004 228.476 L 195.7404 230.016 L 196.2604 231.556 L 196.8004 233.116 L 197.3604 234.696 L 197.9204 236.276 L 198.5004 237.876 L 199.1004 239.476 L 199.7004 241.116 L 200.3404 242.736 L 200.9804 244.356 L 201.6604 245.976 L 202.3404 247.596 L 203.0604 249.216 L 203.8204 250.836 L 204.6004 252.456 L 205.4004 254.076 L 206.2604 255.676 L 207.1404 257.276 L 208.0604 258.876 L 209.0204 260.456 L 210.0004 262.016 L 211.0404 263.576 L 212.1004 265.116 L 213.2004 266.636 L 214.3204 268.136 L 215.5004 269.636 L 216.7004 271.096 L 217.9204 272.556 L 219.2004 273.996 L 220.5004 275.396 L 221.8404 276.796 L 223.2004 278.156 L 224.6004 279.496 L 226.0404 280.816 L 227.5004 282.096 L 228.9804 283.376 L 230.4804 284.656 L 232.0004 285.896 L 233.5404 287.116 L 235.1204 288.316 L 236.7004 289.476 L 238.3204 290.616 L 239.9404 291.736 L 241.5804 292.836 L 243.2204 293.896 L 244.8804 294.936 L 246.5404 295.936 L 248.2004 296.896 L 249.8604 297.836 L 251.5204 298.756 L 253.1604 299.656 L 254.8204 300.536 L 256.4604 301.396 L 258.0804 302.276 L 259.7004 303.136 L 261.3204 304.016 L 262.9204 304.916 L 264.5004 305.836 L 266.0604 306.756 L 267.6004 307.716 L 269.1204 308.696 L 270.6004 309.716 L 272.0804 310.736 L 273.5204 311.796 L 274.9404 312.896 L 276.3204 313.996 L 277.6804 315.136 L 279.0204 316.296 L 280.3004 317.476 L 281.5604 318.696 L 282.7804 319.936 L 283.9804 321.196 L 285.1204 322.476 L 286.2404 323.796 L 287.3204 325.116 L 288.3604 326.476 L 289.3804 327.836 L 290.3604 329.236 L 291.2804 330.656 L 292.2004 332.096 L 293.0604 333.536 L 293.9004 335.016 L 294.6804 336.496 L 295.4404 337.996 L 296.1604 339.516 L 296.8404 341.036 L 297.4804 342.576 L 298.0804 344.136 L 298.6404 345.696 L 299.1804 347.256 L 299.6604 348.836 L 300.1204 350.436 L 300.5204 352.016 L 300.9004 353.616 L 301.2204 355.216 L 301.5204 356.816 L 301.7604 358.416 L 301.9604 360.016 L 302.1204 361.616 L 302.2404 363.216 L 302.3404 364.816 L 302.3804 366.416 V 367.996 L 302.3604 369.576 L 302.2804 371.156 L 302.1804 372.716 L 302.0204 374.276 L 301.8204 375.816 L 301.6004 377.356 L 301.3204 378.876 L 301.0204 380.376 L 300.6804 381.856 L 300.3204 383.316 L 299.9204 384.736 L 299.4804 386.116 L 299.0204 387.476 L 298.5204 388.816 L 298.0004 390.116 L 297.4404 391.396 L 296.8604 392.636 L 296.2604 393.856 L 295.6204 395.056 L 294.9804 396.196 L 294.3004 397.336 L 293.6004 398.436 L 292.8804 399.496 L 292.1404 400.536 L 291.3604 401.556 L 290.5604 402.536 L 289.7404 403.496 L 288.9004 404.416 L 288.0204 405.316 L 287.1404 406.176 L 286.2404 407.016 L 285.3204 407.836 L 284.3804 408.616 L 283.4004 409.356 L 282.4204 410.076 L 281.4204 410.776 L 280.4204 411.436 L 279.3804 412.056 L 278.3404 412.656 L 277.2804 413.236 L 276.2004 413.776 L 275.1204 414.296 L 274.0004 414.796 L 272.9004 415.256 L 271.7604 415.676 L 270.6204 416.076 L 269.4604 416.456 L 268.3004 416.796 L 267.1204 417.096 L 265.9404 417.396 L 264.7204 417.636 L 263.5204 417.876 L 262.2804 418.076 L 261.0404 418.256 L 259.8004 418.436 L 258.5204 418.576 L 257.2404 418.696 L 255.9404 418.816 L 254.6204 418.916 L 253.2804 418.996 L 251.9404 419.076 L 250.5604 419.116 L 249.1804 419.136 L 247.7804 419.156 L 246.3604 419.136 L 244.9204 419.116 L 243.4604 419.036 L 242.0004 418.956 L 240.5204 418.836 L 239.0204 418.676 L 237.5404 418.476 L 236.0204 418.256 L 234.5204 417.996 L 233.0004 417.696 L 231.4804 417.376 L 229.9604 417.016 L 228.4404 416.616 L 226.9004 416.176 L 225.3604 415.716 L 223.8204 415.216 L 222.2604 414.676 L 220.7204 414.116 L 219.1404 413.536 L 217.5804 412.936 L 215.9804 412.296 L 214.3804 411.656 L 212.7804 410.996 L 211.1804 410.316 L 209.5604 409.656 L 207.9404 408.976 L 206.3004 408.276 L 204.6404 407.596 L 202.9804 406.916 L 201.3004 406.216 L 199.6004 405.536 L 197.8804 404.876 L 196.1404 404.196 L 194.3804 403.536 L 192.6204 402.876 L 190.8204 402.216 L 189.0204 401.576 L 187.2004 400.916 L 185.3604 400.276 L 183.5204 399.616 L 181.6604 398.956 L 179.7804 398.296 L 177.9004 397.636 L 175.9804 396.976 L 174.0604 396.316 L 172.1404 395.656 L 170.2004 394.976 L 168.2404 394.316 L 166.2604 393.636 L 164.2604 392.976 L 162.2604 392.316 L 160.2404 391.656 L 158.2004 390.996 L 156.1604 390.356 L 154.1004 389.716 L 152.0404 389.076 L 150.0004 388.456 L 147.9604 387.836 L 145.9204 387.216 L 143.9004 386.616 L 141.9004 385.996 L 139.9204 385.396 L 137.9804 384.796 L 136.0404 384.196 L 134.1204 383.576 L 132.2404 382.956 L 130.3804 382.336 L 128.5404 381.716 L 126.7204 381.076 L 124.9404 380.436 L 123.1604 379.776 L 121.4404 379.096 L 119.7204 378.436 L 118.0604 377.756 L 116.4004 377.056 L 114.8004 376.376 L 113.2004 375.676 L 111.6404 374.976 L 110.1204 374.276 L 108.6204 373.556 L 107.1404 372.836 L 105.6804 372.116 L 104.2404 371.396 L 102.8404 370.656 L 101.4604 369.896 L 100.1204 369.156 L 98.8004 368.376 L 97.5004 367.596 L 96.2604 366.796 L 95.0404 365.996 L 93.8404 365.156 L 92.7004 364.316 L 91.5804 363.436 L 90.5004 362.556 L 89.4404 361.656 L 88.4404 360.716 L 87.4404 359.776 L 86.5004 358.796 L 85.5804 357.796 L 84.7004 356.796 L 83.8404 355.756 L 83.0204 354.696 L 82.2404 353.616 L 81.4804 352.536 L 80.7604 351.416 L 80.0804 350.276 L 79.4404 349.116 L 78.8004 347.956 L 78.2004 346.776 L 77.6404 345.576 L 77.1004 344.376 L 76.5804 343.156 L 76.1004 341.916 L 75.6604 340.676 L 75.2404 339.396 L 74.8604 338.136 L 74.5004 336.836 L 74.1804 335.556 L 73.8804 334.236 L 73.6404 332.936 L 73.4004 331.596 L 73.2204 330.276 L 73.0604 328.936 L 72.9404 327.596 L 72.8604 326.236 L 72.8004 324.896 L 72.7804 323.536 L 72.8004 322.156 L 72.8404 320.796 L 72.9204 319.416 L 73.0204 318.056 L 73.1604 316.676 L 73.3404 315.296 L 73.5404 313.916 L 73.7804 312.536 L 74.0404 311.156 L 74.3404 309.756 L 74.6404 308.376 L 74.9804 306.976 L 75.3404 305.556 L 75.7204 304.156 L 76.1004 302.736 L 76.5004 301.316 L 76.9004 299.876 L 77.3004 298.416 L 77.7204 296.956 L 78.1204 295.496 L 78.5404 293.996 L 78.9404 292.496 L 79.3204 290.996 L 79.7204 289.456 L 80.1004 287.916 L 80.4604 286.336 L 80.8204 284.756 L 81.1804 283.176 L 81.5204 281.556 L 81.8404 279.916 L 82.1604 278.276 L 82.4604 276.596 L 82.7404 274.916 L 83.0404 273.216 L 83.3004 271.516 L 83.5604 269.776 L 83.8004 268.036 L 84.0204 266.276 L 84.2404 264.496 L 84.4404 262.736 L 84.6404 260.956 L 84.8004 259.196 L 84.9604 257.456 L 85.0804 255.736 L 85.1804 254.036 L 85.2404 252.356 L 85.2804 250.716 V 249.076 L 85.2404 247.476 L 85.1804 245.896 L 85.0604 244.336 L 84.9204 242.796 L 84.7404 241.296 L 84.5004 239.796 L 84.2604 238.336 L 83.9604 236.896 L 83.6404 235.496 L 83.2804 234.116 L 82.8804 232.776 L 82.4604 231.436 L 82.0004 230.156 L 81.5404 228.876 L 81.0204 227.636 L 80.5004 226.436 L 79.9404 225.256 L 79.3404 224.116 L 78.7404 223.016 L 78.1004 221.936 L 77.4604 220.876 L 76.8004 219.856 L 76.1204 218.856 L 75.4204 217.896 L 74.7204 216.956 L 74.0004 216.056 L 73.2604 215.176 L 72.5204 214.336 L 71.7604 213.536 L 70.9804 212.776 L 70.2004 212.036 L 69.4004 211.336 L 68.6004 210.676 L 67.7804 210.056 L 66.1204 208.936 L 64.4404 207.956 L 62.7604 207.136 L 61.0804 206.436 L 59.4004 205.856 L 57.7604 205.396 L 56.1804 204.996 L 54.6404 204.656 L 53.1604 204.336 L 51.7604 203.996 L 50.4204 203.636 L 49.1604 203.216 L 48.0004 202.696 L 46.8604 202.156 L 45.7804 201.616 L 44.7804 200.976 L 43.8004 200.316 L 42.9004 199.536 L 42.0804 198.676 L 41.2804 197.756 L 40.5204 196.776 L 39.8204 195.716 L 39.1404 194.576 L 38.5004 193.376 L 37.9204 192.096 L 37.4004 190.756 L 36.9204 189.316 L 36.5004 187.796 L 36.1204 186.196 L 35.8004 184.516 L 35.5204 182.756 L 35.2804 180.916 L 35.0804 178.996 L 34.9004 176.996 L 34.8204 175.976 L 34.7404 174.936 L 34.6604 173.876 L 34.5804 172.796 L 34.5204 171.676 L 34.4604 170.536 L 34.3804 169.376 L 34.3204 168.196 L 34.2604 166.976 L 34.2004 165.756 L 34.1204 164.536 L 34.0604 163.296 L 34.0004 162.036 L 33.9404 160.756 L 33.8804 159.456 L 33.8204 158.136 L 33.7604 156.776 L 33.7004 155.416 L 33.6404 154.036 L 33.6004 152.636 L 33.5404 151.216 L 33.5004 149.756 L 33.4604 148.296 L 33.4204 146.816 L 33.4004 145.316 L 33.3804 143.796 V 142.236 L 33.4004 140.676 L 33.4404 139.096 L 33.5004 137.496 L 33.5804 135.876 L 33.6804 134.256 L 33.8204 132.596 L 33.9604 130.936 L 34.1604 129.256 L 34.3604 127.556 L 34.6004 125.856 L 34.8804 124.156 L 35.1804 122.436 L 35.5404 120.716 L 35.9204 118.996 L 36.3404 117.276 L 36.8004 115.556 L 37.2804 113.836 L 37.8004 112.136 L 38.3604 110.416 L 38.9604 108.696 L 39.6004 106.976 L 40.2804 105.256 L 40.9804 103.556 L 41.7404 101.836 L 42.5404 100.136 L 43.3604 98.416 L 44.2004 96.716 L 45.1004 95.016 L 46.0204 93.316 L 46.9804 91.616 L 47.9604 89.916 L 48.9804 88.216 L 50.0404 86.536 L 51.1204 84.836 L 52.2404 83.156 L 53.3804 81.496 L 54.5604 79.836 L 55.7804 78.176 L 57.0404 76.536 L 58.3204 74.896 L 59.6404 73.276 L 61.0004 71.656 L 62.3804 70.076 L 63.8204 68.496 L 65.2804 66.936 L 66.7804 65.416 L 68.3204 63.896 L 69.9004 62.396 L 71.5004 60.916 L 73.1404 59.476 L 74.8204 58.036 L 76.5204 56.636 L 78.2804 55.256 L 80.0404 53.916 L 81.8604 52.576 L 83.7004 51.276 L 85.5604 50.016 L 87.4404 48.796 L 89.3404 47.596 L 91.2804 46.436 L 93.2604 45.296 L 95.2604 44.196 L 97.2804 43.136 L 99.3204 42.096 L 101.4004 41.096 L 103.5004 40.136 L 105.6204 39.216 L 107.7804 38.316 L 109.9404 37.456 L 112.1404 36.616 L 114.3604 35.836 L 116.5804 35.076 L 118.8404 34.356 L 121.1204 33.676 L 123.4004 33.036 L 125.7204 32.416 L 128.0404 31.856 L 130.4004 31.316 L 132.7604 30.816 L 135.1404 30.356 L 137.5204 29.936 L 139.9404 29.556 L 142.3604 29.196 L 144.7804 28.876 L 147.2204 28.576 L 149.6804 28.316 L 152.1604 28.096 L 154.6404 27.916 L 157.1204 27.776 L 159.6204 27.636 L 162.1404 27.556 L 164.6604 27.476 L 167.1804 27.436 L 169.7204 27.416 L 172.2804 27.396 L 174.8404 27.416 L 177.4004 27.436 L 179.9804 27.476 L 182.5604 27.516 L 185.1604 27.556 L 187.7804 27.596 L 190.3804 27.636 L 193.0204 27.676 L 195.6404 27.696 L 198.2804 27.736 L 200.9404 27.776 L 203.6004 27.816 L 206.2804 27.856 L 208.9604 27.916 L 211.6404 27.956 L 214.3404 27.996 L 217.0404 28.036 L 219.7604 28.096 L 222.4804 28.136 L 225.2204 28.196 L 227.9604 28.236 L 230.7004 28.296 L 233.4604 28.356 L 236.2404 28.416 L 239.0004 28.456 L 241.8004 28.516 L 244.5804 28.596 L 247.3804 28.656 L 250.1804 28.716 L 252.9804 28.776 L 255.7804 28.856 L 258.6004 28.916 L 261.4204 28.996 L 264.2404 29.056 L 267.0604 29.136 L 269.9004 29.196 L 272.7604 29.276 L 275.6004 29.336 L 278.4604 29.396 L 281.3404 29.456 L 284.2004 29.516 L 287.0804 29.576 L 289.9804 29.616 L 292.8604 29.656 L 295.7804 29.716 L 298.6804 29.756 L 301.6004 29.776 L 304.5204 29.816 L 307.4404 29.856 L 310.3804 29.896 L 313.3204 29.916 L 316.2804 29.936 L 319.2404 29.976 L 322.2004 29.996 L 325.1604 30.016 L 328.1404 30.036 L 331.1204 30.056 H 334.1204 L 337.1204 30.076 H 340.1204 L 343.1204 30.096 H 346.1404"
       style="fill:none;stroke:#000000;stroke-width:0.5;stroke-linecap:round;stroke-linejoin:round;stroke-miterlimit:10;stroke-dasharray:none;stroke-opacity:1" />
  </g>
</svg>
