<?xml version="1.0" encoding="UTF-8" standalone="no"?>
<!-- Created with Inkscape (http://www.inkscape.org/) -->

<svg
   inkscape:version="1.3.2 (091e20e, 2023-11-25, custom)"
   sodipodi:docname="track_brand_hatch.svg"
   xmlns:inkscape="http://www.inkscape.org/namespaces/inkscape"
   xmlns:sodipodi="http://sodipodi.sourceforge.net/DTD/sodipodi-0.dtd"
   xmlns="http://www.w3.org/2000/svg"
   xmlns:svg="http://www.w3.org/2000/svg">
  <g>
    <path
       id="track"
       d="M 241.4042 15.821 L 242.0542 15.891 L 242.7142 16.011 L 243.3842 16.181 L 244.0642 16.431 L 244.7642 16.741 L 245.4842 17.131 L 246.2342 17.551 L 247.0242 18.011 L 247.5942 18.331 L 248.1742 18.661 L 248.7942 19.011 L 249.4542 19.391 L 250.1442 19.771 L 250.8542 20.161 L 251.5942 20.521 L 252.3442 20.871 L 253.1242 21.191 L 253.9042 21.481 L 254.6942 21.771 L 255.4942 22.051 L 256.3142 22.331 L 257.1842 22.631 L 258.1042 22.951 L 259.0742 23.261 L 260.0942 23.571 L 261.1642 23.871 L 262.2842 24.161 L 263.4542 24.441 L 264.0742 24.581 L 264.7042 24.711 L 265.3442 24.841 L 265.9842 24.951 L 266.6342 25.041 L 267.2842 25.111 L 267.9342 25.181 L 268.5942 25.271 L 269.2542 25.351 L 269.9342 25.441 L 270.5942 25.541 L 271.2642 25.641 L 271.9242 25.761 L 272.5742 25.891 L 273.2342 26.031 L 273.9042 26.181 L 274.5742 26.331 L 275.2442 26.481 L 275.9142 26.621 L 276.5742 26.771 L 277.2542 26.901 L 277.9242 27.041 L 278.6142 27.181 L 279.3042 27.311 L 280.0142 27.441 L 280.7242 27.571 L 281.4442 27.701 L 282.1742 27.821 L 282.9142 27.941 L 283.6642 28.061 L 284.4242 28.181 L 285.1942 28.301 L 285.9742 28.411 L 286.7742 28.531 L 287.5742 28.651 L 288.3842 28.771 L 289.2042 28.891 L 290.0342 29.001 L 290.8742 29.121 L 291.7242 29.241 L 292.5842 29.371 L 293.4542 29.491 L 294.3342 29.611 L 295.2242 29.741 L 296.1242 29.861 L 297.0242 30.001 L 297.9442 30.131 L 298.8642 30.271 L 299.7942 30.421 L 300.7342 30.561 L 301.6842 30.711 L 302.6342 30.871 L 303.5842 31.021 L 304.5442 31.181 L 305.4942 31.331 L 306.4542 31.491 L 307.4142 31.661 L 308.3942 31.821 L 309.3742 31.991 L 310.3542 32.171 L 311.3542 32.351 L 312.3542 32.531 L 313.3642 32.721 L 314.3842 32.921 L 315.4042 33.121 L 316.4242 33.341 L 317.4542 33.561 L 318.4842 33.791 L 319.5042 34.041 L 320.5242 34.291 L 321.5442 34.561 L 322.5542 34.851 L 323.5742 35.141 L 324.5742 35.451 L 325.5842 35.771 L 326.5842 36.101 L 327.5942 36.431 L 328.5942 36.781 L 329.6042 37.131 L 330.6042 37.491 L 331.6042 37.861 L 332.6042 38.231 L 333.5842 38.611 L 334.5642 39.011 L 335.5342 39.421 L 336.5042 39.841 L 337.4542 40.261 L 338.4042 40.701 L 339.3542 41.151 L 340.2942 41.601 L 341.2342 42.061 L 342.1642 42.521 L 343.1042 42.981 L 344.0342 43.441 L 344.9642 43.911 L 345.8942 44.381 L 346.8142 44.861 L 347.7242 45.341 L 348.6342 45.821 L 349.5342 46.321 L 350.4342 46.821 L 351.3342 47.321 L 352.2142 47.821 L 353.1042 48.331 L 353.9842 48.851 L 354.8542 49.371 L 355.7242 49.891 L 356.5942 50.421 L 357.4442 50.951 L 358.3042 51.491 L 359.1442 52.031 L 359.9842 52.581 L 360.8142 53.141 L 361.6342 53.701 L 362.4542 54.281 L 363.2642 54.861 L 364.0542 55.451 L 364.8442 56.051 L 365.6242 56.661 L 366.3942 57.271 L 367.1542 57.901 L 367.8942 58.541 L 368.6342 59.181 L 369.3542 59.841 L 370.0642 60.511 L 370.7642 61.191 L 371.4442 61.881 L 372.1142 62.581 L 372.7742 63.291 L 373.4142 64.011 L 374.0442 64.741 L 374.6642 65.481 L 375.2542 66.231 L 375.8342 66.991 L 376.3942 67.761 L 376.9442 68.541 L 377.4642 69.341 L 377.9642 70.141 L 378.4542 70.951 L 378.9242 71.771 L 379.3642 72.591 L 379.7942 73.431 L 380.2042 74.271 L 380.5942 75.121 L 380.9542 75.971 L 381.3042 76.841 L 381.6342 77.701 L 381.9442 78.571 L 382.2342 79.451 L 382.5042 80.331 L 382.7542 81.211 L 382.9842 82.101 L 383.1942 82.991 L 383.3942 83.891 L 383.5642 84.781 L 383.7242 85.681 L 383.8642 86.591 L 383.9842 87.491 L 384.0842 88.401 L 384.1642 89.311 L 384.2242 90.221 L 384.2642 91.131 L 384.2942 92.051 L 384.3042 92.971 V 93.891 L 384.2742 94.811 L 384.2442 95.731 L 384.1942 96.661 L 384.1342 97.591 L 384.0642 98.521 L 383.9942 99.461 L 383.9142 100.401 L 383.8242 101.341 L 383.7342 102.291 L 383.6442 103.241 L 383.5442 104.201 L 383.4442 105.161 L 383.3442 106.121 L 383.2342 107.091 L 383.1142 108.071 L 382.9842 109.051 L 382.8442 110.031 L 382.7042 111.021 L 382.5442 112.021 L 382.3842 113.011 L 382.2042 114.021 L 382.0242 115.031 L 381.8242 116.041 L 381.6242 117.051 L 381.4042 118.061 L 381.1742 119.071 L 380.9442 120.081 L 380.6942 121.091 L 380.4442 122.101 L 380.1742 123.121 L 379.8942 124.131 L 379.6042 125.141 L 379.3042 126.141 L 378.9942 127.151 L 378.6642 128.161 L 378.3242 129.161 L 377.9742 130.161 L 377.6142 131.161 L 377.2342 132.151 L 376.8442 133.141 L 376.4342 134.121 L 376.0142 135.101 L 375.5842 136.071 L 375.1442 137.031 L 374.6842 138.001 L 374.2142 138.961 L 373.7342 139.911 L 373.2442 140.861 L 372.7542 141.821 L 372.2542 142.771 L 371.7542 143.711 L 371.2442 144.661 L 370.7342 145.611 L 370.2142 146.551 L 369.6942 147.501 L 369.1742 148.441 L 368.6442 149.391 L 368.1142 150.331 L 367.5742 151.271 L 367.0342 152.221 L 366.4942 153.161 L 365.9442 154.101 L 365.3942 155.041 L 364.8342 155.981 L 364.2742 156.921 L 363.7042 157.851 L 363.1242 158.781 L 362.5342 159.711 L 361.9442 160.631 L 361.3342 161.561 L 360.7242 162.471 L 360.0942 163.391 L 359.4642 164.301 L 358.8242 165.211 L 358.1742 166.121 L 357.5242 167.021 L 356.8642 167.931 L 356.1942 168.841 L 355.5242 169.761 L 354.8542 170.681 L 354.1742 171.601 L 353.4942 172.521 L 352.8142 173.451 L 352.1242 174.391 L 351.4342 175.331 L 350.7342 176.271 L 350.0342 177.221 L 349.3242 178.171 L 348.6242 179.131 L 347.9042 180.091 L 347.1942 181.061 L 346.4742 182.031 L 345.7542 183.011 L 345.0242 183.991 L 344.2942 184.971 L 343.5642 185.961 L 342.8242 186.951 L 342.0842 187.941 L 341.3442 188.941 L 340.5842 189.941 L 339.8242 190.931 L 339.0542 191.931 L 338.2742 192.921 L 337.4942 193.901 L 336.7142 194.881 L 335.9142 195.841 L 335.1242 196.791 L 334.3142 197.741 L 333.5142 198.671 L 332.7042 199.601 L 331.9042 200.521 L 331.0942 201.441 L 330.2842 202.351 L 329.4842 203.261 L 328.6842 204.171 L 327.8942 205.061 L 327.1142 205.961 L 326.3242 206.841 L 325.5542 207.731 L 324.7842 208.601 L 324.0142 209.471 L 323.2642 210.331 L 322.5142 211.181 L 321.7842 212.021 L 321.0542 212.851 L 320.3442 213.661 L 319.6342 214.471 L 318.9342 215.271 L 318.2442 216.051 L 317.5642 216.831 L 316.8942 217.601 L 316.2242 218.371 L 315.5542 219.131 L 314.8842 219.891 L 314.2242 220.641 L 313.5642 221.381 L 312.9142 222.111 L 312.2642 222.831 L 311.6242 223.541 L 310.9842 224.231 L 310.3442 224.911 L 309.7242 225.581 L 309.0942 226.231 L 308.4742 226.861 L 307.8642 227.491 L 307.2442 228.101 L 306.6342 228.701 L 306.0342 229.281 L 305.4342 229.851 L 304.8342 230.411 L 304.2442 230.951 L 303.6542 231.481 L 303.0742 231.991 L 302.4842 232.481 L 301.9042 232.961 L 301.3242 233.421 L 300.7342 233.861 L 300.1342 234.291 L 299.5442 234.701 L 298.9342 235.091 L 298.3342 235.461 L 297.7342 235.801 L 297.1242 236.131 L 296.5142 236.441 L 295.9142 236.721 L 295.3042 236.991 L 294.7042 237.231 L 294.0942 237.451 L 293.4842 237.661 L 292.8642 237.841 L 292.2542 238.001 L 291.6442 238.131 L 291.0342 238.251 L 290.4242 238.341 L 289.8142 238.411 L 289.2042 238.471 L 288.6042 238.491 L 288.0042 238.501 L 287.4142 238.491 L 286.8242 238.451 L 286.2442 238.391 L 285.6742 238.311 L 284.5242 238.061 L 283.4142 237.721 L 282.3242 237.301 L 281.2842 236.801 L 280.2842 236.231 L 279.3242 235.591 L 278.3942 234.891 L 277.5042 234.141 L 276.6442 233.341 L 276.2442 232.931 L 275.8442 232.511 L 275.4542 232.071 L 275.0842 231.631 L 274.7142 231.171 L 274.3542 230.701 L 274.0142 230.221 L 273.6842 229.731 L 273.3542 229.231 L 273.0542 228.711 L 272.7542 228.191 L 272.4742 227.651 L 272.2042 227.101 L 271.9442 226.551 L 271.7042 225.981 L 271.4742 225.411 L 271.2542 224.821 L 271.0542 224.231 L 270.8742 223.631 L 270.7042 223.021 L 270.5542 222.411 L 270.4142 221.781 L 270.2942 221.161 L 270.1942 220.521 L 270.1142 219.891 L 270.0442 219.241 L 269.9942 218.591 L 269.9742 217.941 L 269.9642 217.291 L 269.9742 216.631 L 270.0042 215.981 L 270.0542 215.321 L 270.1242 214.661 L 270.2142 214.001 L 270.3242 213.341 L 270.4542 212.691 L 270.6042 212.031 L 270.7842 211.381 L 270.9742 210.731 L 271.1842 210.091 L 271.4042 209.441 L 271.6542 208.801 L 271.9142 208.161 L 272.2042 207.521 L 272.5042 206.891 L 272.8142 206.261 L 273.1442 205.631 L 273.4842 205.011 L 273.8542 204.381 L 274.2242 203.761 L 274.6142 203.151 L 275.0142 202.531 L 275.4242 201.911 L 275.8442 201.301 L 276.2742 200.681 L 276.7142 200.061 L 277.1642 199.441 L 277.6242 198.811 L 278.0942 198.181 L 278.5642 197.541 L 279.0442 196.901 L 279.5342 196.261 L 280.0442 195.611 L 280.5542 194.961 L 281.0742 194.311 L 281.6042 193.651 L 282.1442 193.001 L 282.7042 192.331 L 283.2642 191.671 L 283.8442 191.001 L 284.4342 190.331 L 285.0342 189.651 L 285.6442 188.971 L 286.2742 188.281 L 286.9042 187.581 L 287.5442 186.881 L 288.1942 186.171 L 288.8542 185.451 L 289.5142 184.721 L 290.1942 183.991 L 290.8742 183.251 L 291.5542 182.511 L 292.2342 181.761 L 292.9242 181.001 L 293.6142 180.231 L 294.3042 179.441 L 294.9942 178.641 L 295.6842 177.831 L 296.3742 177.011 L 297.0542 176.171 L 297.7342 175.321 L 298.4142 174.451 L 299.0842 173.571 L 299.7542 172.681 L 300.4242 171.771 L 301.0842 170.851 L 301.7342 169.921 L 302.3942 168.971 L 303.0442 168.011 L 303.6842 167.041 L 304.3242 166.051 L 304.9642 165.051 L 305.6042 164.041 L 306.2342 163.021 L 306.8642 161.991 L 307.4742 160.951 L 308.0842 159.911 L 308.6842 158.871 L 309.2742 157.821 L 309.8642 156.781 L 310.4342 155.751 L 310.9942 154.731 L 311.5542 153.711 L 312.1042 152.711 L 312.6542 151.721 L 313.1842 150.741 L 313.7142 149.771 L 314.2442 148.811 L 314.7642 147.871 L 315.2742 146.931 L 315.7842 146.011 L 316.2842 145.091 L 316.7742 144.191 L 317.2542 143.291 L 317.7242 142.411 L 318.1842 141.541 L 318.6442 140.681 L 319.0842 139.831 L 319.5042 138.981 L 319.9242 138.151 L 320.3142 137.331 L 320.7042 136.511 L 321.0642 135.701 L 321.4142 134.901 L 321.7442 134.111 L 322.0542 133.321 L 322.3542 132.541 L 322.6242 131.771 L 322.8842 131.011 L 323.1242 130.251 L 323.3442 129.491 L 323.5542 128.741 L 323.7542 127.991 L 323.9342 127.251 L 324.1142 126.511 L 324.2742 125.781 L 324.4342 125.061 L 324.5942 124.351 L 324.7542 123.641 L 324.9042 122.951 L 325.0442 122.261 L 325.1842 121.591 L 325.3142 120.921 L 325.4342 120.261 L 325.5442 119.621 L 325.6442 118.981 L 325.7342 118.351 L 325.8142 117.731 L 325.8842 117.121 L 325.9442 116.531 L 325.9942 115.351 V 114.201 L 325.9342 113.061 L 325.8242 111.941 L 325.6542 110.841 L 325.4342 109.741 L 325.1542 108.651 L 324.8142 107.561 L 324.4142 106.481 L 323.9642 105.411 L 323.4442 104.341 L 323.1842 103.821 L 322.9142 103.301 L 322.6242 102.781 L 322.3142 102.271 L 321.9942 101.761 L 321.6642 101.251 L 321.3142 100.761 L 320.9542 100.271 L 320.5742 99.781 L 320.1742 99.311 L 319.7742 98.841 L 319.3542 98.371 L 318.9142 97.911 L 318.4642 97.461 L 318.0042 97.021 L 317.5242 96.581 L 317.0342 96.151 L 316.5242 95.731 L 316.0042 95.321 L 315.4742 94.911 L 314.9342 94.501 L 314.3742 94.101 L 313.8142 93.701 L 313.2442 93.301 L 312.6642 92.901 L 312.0742 92.501 L 311.4742 92.101 L 310.8742 91.691 L 310.2642 91.281 L 309.6442 90.861 L 309.0242 90.451 L 308.3942 90.031 L 307.7542 89.601 L 307.1042 89.181 L 306.4442 88.751 L 305.7842 88.321 L 305.1142 87.891 L 304.4342 87.461 L 303.7442 87.021 L 303.0542 86.581 L 302.3442 86.141 L 301.6342 85.701 L 300.9142 85.261 L 300.1842 84.821 L 299.4342 84.381 L 298.6842 83.951 L 297.9242 83.511 L 297.1442 83.081 L 296.3542 82.651 L 295.5642 82.231 L 294.7542 81.811 L 293.9242 81.391 L 293.0942 80.981 L 292.2442 80.571 L 291.3842 80.171 L 290.5142 79.771 L 289.6342 79.381 L 288.7442 78.991 L 287.8342 78.611 L 286.9242 78.231 L 285.9942 77.851 L 285.0642 77.471 L 284.1342 77.101 L 283.1942 76.731 L 282.2542 76.351 L 281.2942 75.981 L 280.3342 75.601 L 279.3542 75.231 L 278.3742 74.851 L 277.3942 74.471 L 276.3942 74.091 L 275.3942 73.711 L 274.3842 73.331 L 273.3642 72.941 L 272.3342 72.561 L 271.3042 72.181 L 270.2642 71.801 L 269.2042 71.411 L 268.1542 71.031 L 267.0842 70.641 L 266.0142 70.261 L 264.9242 69.881 L 263.8342 69.501 L 262.7442 69.121 L 261.6342 68.741 L 260.5142 68.371 L 259.3942 68.001 L 258.2642 67.631 L 257.1242 67.271 L 255.9742 66.901 L 254.8242 66.551 L 253.6642 66.191 L 252.4942 65.831 L 251.3142 65.481 L 250.1342 65.131 L 248.9442 64.791 L 247.7542 64.451 L 246.5542 64.121 L 245.3442 63.781 L 244.1342 63.451 L 242.9042 63.131 L 241.6742 62.811 L 240.4442 62.491 L 239.2042 62.181 L 237.9542 61.871 L 236.6942 61.561 L 235.4342 61.261 L 234.1642 60.961 L 232.8942 60.671 L 231.6142 60.381 L 230.3242 60.091 L 229.0342 59.811 L 227.7342 59.531 L 226.4242 59.251 L 225.1142 58.981 L 223.7942 58.711 L 222.4642 58.441 L 221.1342 58.181 L 219.7942 57.931 L 218.4542 57.681 L 217.1042 57.441 L 215.7442 57.201 L 214.3742 56.971 L 213.0042 56.751 L 211.6242 56.531 L 210.2442 56.321 L 208.8542 56.121 L 207.4542 55.931 L 206.0542 55.751 L 204.6442 55.581 L 203.2242 55.421 L 201.8042 55.261 L 200.3742 55.111 L 198.9442 54.961 L 197.5042 54.831 L 196.0542 54.701 L 194.6042 54.571 L 193.1542 54.441 L 191.7142 54.321 L 190.2742 54.201 L 188.8442 54.081 L 187.4242 53.961 L 186.0142 53.851 L 184.6042 53.741 L 183.2142 53.631 L 181.8342 53.531 L 180.4642 53.431 L 179.1142 53.341 L 177.7742 53.251 L 176.4542 53.171 L 175.1442 53.091 L 173.8542 53.031 L 172.5842 52.961 L 171.3342 52.921 L 170.0942 52.881 L 168.8742 52.851 L 167.6742 52.841 L 166.4842 52.831 L 165.3042 52.841 L 164.1442 52.871 L 162.9942 52.911 L 161.8542 52.961 L 160.7242 53.041 L 159.6042 53.131 L 158.5042 53.231 L 157.4142 53.361 L 156.3242 53.501 L 155.2542 53.661 L 154.2042 53.841 L 153.1542 54.031 L 152.1142 54.241 L 151.0942 54.461 L 150.0742 54.711 L 149.0742 54.971 L 148.0942 55.251 L 147.1142 55.541 L 146.1442 55.831 L 145.1842 56.131 L 144.2342 56.431 L 143.2942 56.741 L 142.3642 57.041 L 141.4442 57.351 L 140.5342 57.671 L 139.6242 57.981 L 138.7342 58.311 L 137.8442 58.631 L 136.9742 58.961 L 136.1142 59.311 L 135.2642 59.661 L 134.4242 60.021 L 133.5942 60.381 L 132.7642 60.751 L 131.9542 61.111 L 131.1542 61.491 L 130.3542 61.871 L 129.5742 62.261 L 128.7942 62.671 L 128.0342 63.091 L 127.2742 63.531 L 126.5342 63.971 L 125.7942 64.421 L 125.0642 64.881 L 124.3442 65.361 L 123.6342 65.851 L 122.9342 66.351 L 122.2542 66.871 L 121.5742 67.401 L 120.9142 67.951 L 120.2642 68.511 L 119.6242 69.071 L 118.9942 69.651 L 118.3742 70.241 L 117.7742 70.831 L 117.1842 71.441 L 116.6142 72.071 L 116.0542 72.701 L 115.5142 73.341 L 114.9942 74.001 L 114.4942 74.661 L 114.0142 75.341 L 113.5442 76.021 L 113.0942 76.721 L 112.6642 77.411 L 112.2542 78.121 L 111.8642 78.831 L 111.4942 79.551 L 111.1442 80.271 L 110.8142 80.991 L 110.5042 81.721 L 110.2142 82.451 L 109.9442 83.191 L 109.6842 83.921 L 109.4542 84.661 L 109.2442 85.411 L 109.0542 86.151 L 108.8742 86.891 L 108.7142 87.641 L 108.5842 88.381 L 108.4642 89.121 L 108.3642 89.871 L 108.2842 90.611 L 108.2242 91.341 L 108.1942 92.071 L 108.1742 92.801 V 93.521 L 108.2042 94.241 L 108.2442 94.951 L 108.2942 95.651 L 108.3542 96.361 L 108.4242 97.051 L 108.4942 97.751 L 108.5742 98.441 L 108.6642 99.121 L 108.7642 99.801 L 108.8842 100.471 L 109.0142 101.121 L 109.1642 101.771 L 109.3142 102.421 L 109.4842 103.061 L 109.6542 103.681 L 109.8442 104.301 L 110.0442 104.911 L 110.2542 105.521 L 110.4742 106.121 L 110.6942 106.711 L 110.9142 107.301 L 111.1542 107.871 L 111.6342 108.991 L 112.1542 110.061 L 112.7142 111.091 L 113.2942 112.101 L 113.9142 113.051 L 114.5742 113.921 L 115.2842 114.721 L 116.0242 115.441 L 116.7842 116.101 L 117.5542 116.691 L 118.3242 117.231 L 119.1142 117.701 L 119.9142 118.081 L 120.7342 118.411 L 121.5642 118.691 L 122.3742 118.951 L 123.1842 119.201 L 123.9742 119.451 L 124.7642 119.691 L 125.5342 119.931 L 126.2942 120.201 L 127.0542 120.471 L 127.7942 120.751 L 128.5442 121.031 L 129.2742 121.331 L 130.0042 121.651 L 130.7342 122.011 L 131.4742 122.391 L 132.2342 122.811 L 133.0142 123.251 L 133.8142 123.711 L 134.6442 124.211 L 135.4942 124.731 L 136.3842 125.291 L 137.2842 125.881 L 138.2242 126.511 L 139.1742 127.181 L 140.1542 127.891 L 140.6542 128.271 L 141.1542 128.661 L 141.6542 129.061 L 142.1542 129.471 L 142.6542 129.881 L 143.1442 130.311 L 143.6442 130.751 L 144.1342 131.201 L 144.6342 131.671 L 145.1242 132.141 L 145.6142 132.621 L 146.1042 133.111 L 146.5942 133.611 L 147.0842 134.121 L 147.5642 134.641 L 148.0442 135.171 L 148.5142 135.721 L 148.9842 136.271 L 149.4542 136.821 L 149.9342 137.381 L 150.4142 137.941 L 150.9042 138.511 L 151.3942 139.071 L 151.8942 139.641 L 152.4042 140.211 L 152.9142 140.781 L 153.4342 141.361 L 153.9642 141.931 L 154.4942 142.511 L 155.0342 143.081 L 155.5742 143.651 L 156.1142 144.211 L 156.6642 144.771 L 157.2142 145.341 L 157.7742 145.921 L 158.3542 146.501 L 158.9342 147.101 L 159.5242 147.701 L 160.1242 148.301 L 160.7242 148.911 L 161.3442 149.531 L 161.9642 150.161 L 162.5942 150.791 L 163.2242 151.431 L 163.8642 152.071 L 164.5142 152.731 L 165.1742 153.391 L 165.8342 154.061 L 166.5042 154.731 L 167.1742 155.411 L 167.8642 156.101 L 168.5442 156.801 L 169.2442 157.501 L 169.9442 158.211 L 170.6542 158.921 L 171.3642 159.641 L 172.0842 160.371 L 172.8142 161.101 L 173.5442 161.841 L 174.2742 162.591 L 175.0042 163.341 L 175.7342 164.091 L 176.4642 164.831 L 177.1842 165.591 L 177.9242 166.341 L 178.6642 167.111 L 179.4042 167.881 L 180.1542 168.661 L 180.9142 169.441 L 181.6742 170.231 L 182.4442 171.031 L 183.2142 171.831 L 183.9942 172.641 L 184.7742 173.451 L 185.5642 174.271 L 186.3642 175.091 L 187.1642 175.921 L 187.9642 176.761 L 188.7742 177.601 L 189.5942 178.451 L 190.4142 179.301 L 191.2342 180.161 L 192.0542 181.031 L 192.8842 181.911 L 193.7242 182.791 L 194.5542 183.681 L 195.3942 184.581 L 196.2342 185.491 L 197.0742 186.401 L 197.9142 187.321 L 198.7442 188.261 L 199.5842 189.201 L 200.4242 190.151 L 201.2642 191.111 L 202.0942 192.081 L 202.9142 193.061 L 203.7442 194.051 L 204.5642 195.041 L 205.3942 196.051 L 206.2142 197.061 L 207.0442 198.081 L 207.8742 199.111 L 208.7042 200.141 L 209.5342 201.181 L 210.3642 202.221 L 211.2042 203.271 L 212.0442 204.321 L 212.8842 205.381 L 213.7242 206.451 L 214.5642 207.521 L 215.4042 208.601 L 216.2442 209.691 L 217.0842 210.791 L 217.9142 211.901 L 218.7442 213.021 L 219.5642 214.151 L 220.3742 215.301 L 221.1842 216.451 L 221.9842 217.621 L 222.7842 218.791 L 223.5742 219.971 L 224.3642 221.171 L 225.1542 222.371 L 225.9442 223.571 L 226.7342 224.791 L 227.5242 226.011 L 228.3242 227.231 L 229.1142 228.461 L 229.9142 229.701 L 230.7142 230.941 L 231.5142 232.181 L 232.3242 233.431 L 233.1442 234.681 L 233.9642 235.931 L 234.7842 237.191 L 235.6242 238.451 L 236.4542 239.711 L 237.2942 240.981 L 238.1442 242.241 L 238.9842 243.521 L 239.8342 244.791 L 240.6942 246.071 L 241.5542 247.361 L 242.4142 248.651 L 243.2742 249.941 L 244.1442 251.231 L 245.0042 252.531 L 245.8742 253.831 L 246.7442 255.131 L 247.6242 256.441 L 248.4942 257.751 L 249.3742 259.071 L 250.2542 260.391 L 251.1442 261.711 L 252.0342 263.031 L 252.9142 264.371 L 253.8142 265.701 L 254.7042 267.041 L 255.6042 268.381 L 256.5042 269.731 L 257.4042 271.071 L 258.3042 272.431 L 259.2142 273.791 L 260.1242 275.151 L 261.0342 276.511 L 261.9542 277.881 L 262.8642 279.251 L 263.7842 280.631 L 264.7042 282.011 L 265.6342 283.391 L 266.5642 284.781 L 267.4842 286.171 L 268.4242 287.561 L 269.3542 288.961 L 270.2842 290.371 L 271.2242 291.781 L 272.1642 293.191 L 273.1042 294.611 L 274.0442 296.031 L 274.9842 297.461 L 275.9242 298.891 L 276.8642 300.331 L 277.8142 301.771 L 278.7642 303.221 L 279.7042 304.671 L 280.6542 306.121 L 281.6142 307.581 L 282.5642 309.051 L 283.5242 310.521 L 284.4842 311.991 L 285.4442 313.471 L 286.4042 314.951 L 287.3742 316.441 L 288.3342 317.931 L 289.3042 319.421 L 290.2742 320.921 L 291.2542 322.421 L 292.2242 323.931 L 293.2042 325.441 L 294.1842 326.961 L 295.1742 328.481 L 296.1542 330.001 L 297.1442 331.531 L 298.1342 333.061 L 299.1242 334.601 L 300.1242 336.141 L 301.1142 337.681 L 302.1142 339.231 L 303.1142 340.781 L 304.1242 342.331 L 305.1242 343.891 L 306.1342 345.451 L 307.1442 347.021 L 308.1642 348.591 L 309.1742 350.161 L 310.1942 351.741 L 311.2142 353.311 L 312.2342 354.901 L 313.2642 356.481 L 314.2842 358.071 L 315.3142 359.661 L 316.3442 361.261 L 317.3742 362.851 L 318.4142 364.451 L 319.4442 366.051 L 320.4742 367.641 L 321.5042 369.231 L 322.5342 370.821 L 323.5642 372.401 L 324.5842 373.971 L 325.6042 375.541 L 326.6242 377.091 L 327.6342 378.631 L 328.6342 380.161 L 329.6342 381.681 L 330.6142 383.181 L 331.5942 384.671 L 332.5642 386.141 L 333.5142 387.591 L 334.4542 389.021 L 335.3842 390.431 L 336.3042 391.831 L 337.2142 393.201 L 338.1042 394.561 L 338.9842 395.901 L 339.8542 397.221 L 340.7142 398.531 L 341.5642 399.811 L 342.3942 401.071 L 343.2042 402.311 L 344.0142 403.531 L 344.8042 404.741 L 345.5742 405.921 L 346.3442 407.091 L 347.0942 408.241 L 347.8242 409.371 L 348.5442 410.491 L 349.2542 411.591 L 349.9442 412.671 L 350.6142 413.741 L 351.2742 414.801 L 351.9142 415.841 L 352.5242 416.871 L 353.1242 417.881 L 353.6942 418.891 L 354.2542 419.891 L 354.7842 420.881 L 355.3042 421.861 L 355.8042 422.831 L 356.2842 423.791 L 356.7442 424.741 L 357.1942 425.691 L 357.6342 426.621 L 358.0642 427.541 L 358.4742 428.461 L 358.8942 429.361 L 359.2942 430.251 L 359.6942 431.121 L 360.0842 431.981 L 360.4642 432.841 L 360.8342 433.691 L 361.2042 434.531 L 361.5542 435.381 L 361.9042 436.221 L 362.2342 437.071 L 362.5542 437.921 L 362.8642 438.771 L 363.1642 439.621 L 363.4442 440.481 L 363.7142 441.331 L 363.9642 442.191 L 364.2042 443.041 L 364.4242 443.901 L 364.6342 444.761 L 364.8342 445.621 L 365.0142 446.481 L 365.1842 447.341 L 365.3442 448.201 L 365.4842 449.071 L 365.6142 449.931 L 365.7342 450.791 L 365.8442 451.661 L 365.9442 452.521 L 366.0442 453.381 L 366.1342 454.251 L 366.2242 455.111 L 366.3042 455.981 L 366.3742 456.841 L 366.4342 457.711 L 366.4842 458.571 L 366.5342 459.441 L 366.5542 460.311 L 366.5742 461.181 V 462.041 L 366.5642 462.911 L 366.5442 463.771 L 366.5042 464.631 L 366.4542 465.481 L 366.3842 466.341 L 366.3042 467.191 L 366.2042 468.051 L 366.0842 468.891 L 365.9542 469.741 L 365.8042 470.591 L 365.6442 471.431 L 365.4642 472.271 L 365.2642 473.101 L 365.0442 473.941 L 364.8142 474.771 L 364.5742 475.591 L 364.3142 476.421 L 364.0442 477.241 L 363.7542 478.071 L 363.4642 478.901 L 363.1742 479.731 L 362.8642 480.561 L 362.5642 481.391 L 362.2542 482.231 L 361.9342 483.081 L 361.6242 483.921 L 361.3042 484.771 L 360.9742 485.621 L 360.6542 486.481 L 360.3242 487.341 L 359.9842 488.201 L 359.6442 489.061 L 359.2942 489.921 L 358.9342 490.781 L 358.5642 491.631 L 358.1742 492.491 L 357.7842 493.331 L 357.3742 494.171 L 356.9442 495.011 L 356.5042 495.841 L 356.0442 496.661 L 355.5742 497.481 L 355.0842 498.291 L 354.5842 499.091 L 354.0642 499.891 L 353.5342 500.681 L 352.9842 501.471 L 352.4242 502.251 L 351.8542 503.041 L 351.2742 503.821 L 350.6842 504.601 L 350.0842 505.381 L 349.4842 506.161 L 348.8642 506.941 L 348.2442 507.721 L 347.6042 508.501 L 346.9642 509.281 L 346.3242 510.061 L 345.6642 510.841 L 345.0042 511.631 L 344.3342 512.411 L 343.6542 513.191 L 342.9642 513.981 L 342.2642 514.761 L 341.5642 515.541 L 340.8542 516.331 L 340.1342 517.111 L 339.4042 517.901 L 338.6642 518.681 L 337.9242 519.461 L 337.1742 520.251 L 336.4142 521.041 L 335.6542 521.831 L 334.8842 522.621 L 334.1142 523.421 L 333.3342 524.221 L 332.5442 525.021 L 331.7642 525.831 L 330.9642 526.641 L 330.1642 527.441 L 329.3542 528.251 L 328.5342 529.061 L 327.7042 529.871 L 326.8642 530.671 L 326.0042 531.471 L 325.1442 532.271 L 324.2742 533.061 L 323.3842 533.851 L 322.4942 534.641 L 321.5942 535.431 L 320.6842 536.211 L 319.7542 536.991 L 318.8242 537.771 L 317.8842 538.551 L 316.9342 539.331 L 315.9742 540.101 L 315.0142 540.881 L 314.0542 541.661 L 313.0742 542.441 L 312.1042 543.231 L 311.1142 544.021 L 310.1342 544.811 L 309.1342 545.611 L 308.1442 546.411 L 307.1442 547.221 L 306.1442 548.031 L 305.1342 548.851 L 304.1242 549.671 L 303.1142 550.501 L 302.1042 551.341 L 301.0942 552.191 L 300.0842 553.041 L 299.0742 553.901 L 298.0542 554.771 L 297.0342 555.641 L 296.0142 556.511 L 294.9842 557.391 L 293.9542 558.281 L 292.9242 559.171 L 291.8842 560.061 L 290.8542 560.951 L 289.8242 561.841 L 288.8042 562.721 L 287.7842 563.601 L 286.7742 564.471 L 285.7742 565.341 L 284.7942 566.191 L 283.8142 567.031 L 282.8542 567.861 L 281.9042 568.681 L 280.9742 569.491 L 280.0642 570.281 L 279.1642 571.061 L 278.2742 571.831 L 277.4042 572.591 L 276.5442 573.331 L 275.7042 574.061 L 274.8842 574.771 L 274.0742 575.481 L 273.2842 576.171 L 272.5042 576.851 L 271.7342 577.521 L 270.9742 578.181 L 270.2142 578.841 L 269.4642 579.491 L 268.7242 580.141 L 267.9842 580.781 L 267.2542 581.421 L 266.5342 582.051 L 265.8142 582.681 L 265.0942 583.301 L 264.3942 583.921 L 263.6942 584.531 L 262.9942 585.141 L 262.3042 585.751 L 261.6242 586.341 L 260.9342 586.941 L 260.2542 587.521 L 259.5742 588.101 L 258.8942 588.661 L 258.2142 589.211 L 257.5342 589.751 L 256.8442 590.281 L 256.1642 590.791 L 255.4842 591.281 L 254.7942 591.761 L 254.1042 592.221 L 253.4242 592.661 L 252.7242 593.091 L 252.0342 593.501 L 251.3342 593.901 L 250.6342 594.281 L 249.9242 594.651 L 249.2142 595.001 L 248.5042 595.341 L 247.7842 595.661 L 247.0642 595.971 L 246.3442 596.261 L 245.6142 596.531 L 244.8842 596.801 L 244.1542 597.051 L 243.4242 597.281 L 242.6942 597.491 L 241.9642 597.691 L 241.2242 597.871 L 240.4842 598.031 L 239.7442 598.161 L 239.0042 598.281 L 238.2642 598.381 L 237.5342 598.461 L 236.7942 598.511 L 236.0642 598.551 L 235.3442 598.571 H 234.6242 L 233.9042 598.551 L 233.1942 598.511 L 232.4842 598.451 L 231.7742 598.371 L 231.0642 598.271 L 230.3642 598.161 L 229.6442 598.031 L 228.9342 597.881 L 228.2142 597.721 L 227.4842 597.551 L 226.7542 597.371 L 226.0142 597.171 L 225.2742 596.971 L 224.5242 596.751 L 223.7642 596.531 L 222.9942 596.301 L 222.2242 596.071 L 221.4442 595.821 L 220.6642 595.571 L 219.8642 595.321 L 219.0642 595.061 L 218.2542 594.791 L 217.4342 594.521 L 216.5942 594.251 L 215.7542 593.971 L 214.9042 593.691 L 214.0442 593.411 L 213.1842 593.121 L 212.3142 592.841 L 211.4442 592.551 L 210.5542 592.261 L 209.6542 591.961 L 208.7542 591.661 L 207.8442 591.361 L 206.9242 591.061 L 205.9942 590.751 L 205.0542 590.431 L 204.1142 590.101 L 203.1642 589.771 L 202.2142 589.441 L 201.2542 589.091 L 200.2842 588.741 L 199.3142 588.391 L 198.3342 588.021 L 197.3442 587.651 L 196.3542 587.271 L 195.3542 586.891 L 194.3542 586.491 L 193.3442 586.081 L 192.3342 585.671 L 191.3142 585.241 L 190.2942 584.801 L 189.2742 584.341 L 188.2442 583.871 L 187.2142 583.391 L 186.1842 582.891 L 185.1542 582.381 L 184.1242 581.851 L 183.0942 581.301 L 182.0642 580.741 L 181.0342 580.161 L 180.0042 579.571 L 178.9842 578.961 L 177.9642 578.341 L 176.9442 577.691 L 175.9342 577.031 L 174.9142 576.361 L 173.9042 575.661 L 172.8942 574.961 L 171.8842 574.241 L 170.8742 573.511 L 169.8642 572.771 L 168.8642 572.021 L 167.8542 571.251 L 166.8542 570.461 L 165.8642 569.651 L 164.8742 568.831 L 163.8942 567.991 L 162.9142 567.141 L 161.9342 566.271 L 160.9642 565.391 L 159.9942 564.501 L 159.0242 563.591 L 158.0642 562.671 L 157.1042 561.731 L 156.1542 560.781 L 155.2042 559.811 L 154.2642 558.831 L 153.3242 557.841 L 152.3842 556.831 L 151.4542 555.811 L 150.5142 554.781 L 149.5842 553.751 L 148.6442 552.701 L 147.7142 551.651 L 146.7742 550.581 L 145.8342 549.511 L 144.8942 548.441 L 143.9442 547.361 L 142.9942 546.271 L 142.0342 545.181 L 141.0842 544.081 L 140.1142 542.981 L 139.1542 541.881 L 138.1942 540.781 L 137.2342 539.681 L 136.2742 538.581 L 135.3242 537.491 L 134.3842 536.401 L 133.4542 535.311 L 132.5342 534.231 L 131.6242 533.141 L 130.7242 532.061 L 129.8442 530.981 L 128.9742 529.901 L 128.1142 528.811 L 127.2642 527.731 L 126.4342 526.651 L 125.6242 525.571 L 124.8242 524.491 L 124.0442 523.401 L 123.2742 522.321 L 122.5242 521.231 L 121.7842 520.141 L 121.0542 519.041 L 120.3442 517.931 L 119.6542 516.821 L 118.9642 515.701 L 118.2942 514.571 L 117.6442 513.441 L 117.0142 512.291 L 116.3942 511.141 L 115.7842 509.991 L 115.1942 508.821 L 114.6142 507.661 L 114.0542 506.481 L 113.5042 505.301 L 112.9642 504.111 L 112.4442 502.911 L 111.9342 501.711 L 111.4342 500.501 L 110.9442 499.291 L 110.4642 498.081 L 109.9842 496.871 L 109.5142 495.671 L 109.0642 494.461 L 108.6142 493.261 L 108.1742 492.061 L 107.7542 490.871 L 107.3342 489.691 L 106.9242 488.511 L 106.5242 487.341 L 106.1342 486.181 L 105.7442 485.021 L 105.3642 483.881 L 104.9842 482.741 L 104.6142 481.611 L 104.2542 480.491 L 103.8942 479.391 L 103.5542 478.291 L 103.2142 477.211 L 102.8842 476.141 L 102.5642 475.081 L 102.2642 474.031 L 101.9642 473.001 L 101.6842 471.971 L 101.4242 470.961 L 101.1642 469.951 L 100.9242 468.961 L 100.6942 467.981 L 100.4642 467.021 L 100.2542 466.061 L 100.0542 465.121 L 99.8542 464.181 L 99.6542 463.261 L 99.4642 462.351 L 99.2742 461.461 L 99.0942 460.581 L 98.9042 459.701 L 98.7242 458.831 L 98.5542 457.971 L 98.3842 457.111 L 98.2242 456.271 L 98.0742 455.431 L 97.9242 454.601 L 97.7942 453.781 L 97.6742 452.971 L 97.5742 452.171 L 97.4842 451.381 L 97.4142 450.591 L 97.3542 449.821 L 97.3142 449.051 L 97.2842 448.301 L 97.2642 447.551 V 446.811 L 97.2842 446.091 L 97.3042 445.371 L 97.3542 444.661 L 97.4142 443.961 L 97.4942 443.261 L 97.5842 442.571 L 97.6942 441.891 L 97.8242 441.211 L 97.9742 440.531 L 98.1442 439.871 L 98.3242 439.201 L 98.5142 438.541 L 98.7242 437.881 L 98.9542 437.221 L 99.1842 436.561 L 99.4342 435.901 L 99.6942 435.231 L 99.9642 434.571 L 100.2442 433.901 L 100.5342 433.231 L 100.8242 432.551 L 101.1142 431.861 L 101.4142 431.171 L 101.7142 430.481 L 102.0242 429.771 L 102.3342 429.061 L 102.6542 428.351 L 102.9642 427.621 L 103.2942 426.891 L 103.6142 426.151 L 103.9542 425.411 L 104.2942 424.661 L 104.6342 423.901 L 104.9842 423.141 L 105.3442 422.371 L 105.7042 421.601 L 106.0842 420.821 L 106.4642 420.041 L 106.8542 419.251 L 107.2542 418.461 L 107.6642 417.661 L 108.0842 416.861 L 108.5142 416.061 L 108.9542 415.241 L 109.4042 414.431 L 109.8642 413.611 L 110.3442 412.791 L 110.8342 411.971 L 111.3442 411.141 L 111.8742 410.311 L 112.4142 409.491 L 112.9642 408.661 L 113.5342 407.831 L 114.1242 407.011 L 114.7242 406.181 L 115.3342 405.371 L 115.9642 404.551 L 116.6042 403.731 L 117.2642 402.911 L 117.9342 402.091 L 118.6142 401.281 L 119.3142 400.461 L 120.0342 399.651 L 120.7742 398.841 L 121.5142 398.041 L 122.2742 397.231 L 123.0442 396.421 L 123.8242 395.611 L 124.6142 394.801 L 125.4142 393.991 L 126.2242 393.171 L 127.0342 392.351 L 127.8542 391.521 L 128.6842 390.691 L 129.5242 389.861 L 130.3642 389.021 L 131.2042 388.171 L 132.0542 387.321 L 132.9142 386.471 L 133.7742 385.601 L 134.6442 384.741 L 135.5142 383.861 L 136.3942 382.981 L 137.2642 382.101 L 138.1442 381.221 L 139.0242 380.321 L 139.9142 379.421 L 140.8042 378.521 L 141.6942 377.611 L 142.5942 376.691 L 143.4942 375.771 L 144.4042 374.851 L 145.3142 373.921 L 146.2242 372.981 L 147.1442 372.041 L 148.0642 371.101 L 148.9742 370.161 L 149.8842 369.221 L 150.7942 368.291 L 151.6942 367.361 L 152.5842 366.441 L 153.4642 365.521 L 154.3442 364.611 L 155.2142 363.711 L 156.0742 362.821 L 156.9242 361.931 L 157.7642 361.061 L 158.5942 360.191 L 159.4142 359.341 L 160.2242 358.501 L 161.0142 357.661 L 161.8042 356.841 L 162.5842 356.031 L 163.3542 355.231 L 164.1142 354.441 L 164.8542 353.671 L 165.5942 352.901 L 166.3242 352.141 L 167.0442 351.391 L 167.7542 350.651 L 168.4542 349.921 L 169.1442 349.211 L 169.8242 348.501 L 170.4942 347.801 L 171.1542 347.111 L 171.8042 346.421 L 172.4342 345.751 L 173.0642 345.081 L 173.6742 344.421 L 174.2742 343.771 L 174.8542 343.111 L 175.4142 342.471 L 175.9642 341.821 L 176.4942 341.171 L 177.0042 340.531 L 177.4942 339.901 L 177.9742 339.261 L 178.4242 338.631 L 178.8542 338.001 L 179.2742 337.371 L 179.6642 336.751 L 180.0342 336.111 L 180.3842 335.471 L 180.7242 334.821 L 181.0342 334.171 L 181.3242 333.511 L 181.5942 332.841 L 181.8442 332.171 L 182.0842 331.501 L 182.2942 330.831 L 182.4942 330.151 L 182.6742 329.471 L 182.8342 328.781 L 182.9742 328.101 L 183.0842 327.401 L 183.1842 326.711 L 183.2642 326.011 L 183.3242 325.301 L 183.3542 324.601 L 183.3742 323.891 V 323.181 L 183.3542 322.471 L 183.3042 321.751 L 183.2442 321.031 L 183.1642 320.311 L 183.0542 319.581 L 182.9342 318.851 L 182.7842 318.121 L 182.6242 317.391 L 182.4342 316.661 L 182.2342 315.931 L 182.0142 315.201 L 181.7642 314.471 L 181.4942 313.741 L 181.2142 313.011 L 180.9042 312.281 L 180.5842 311.551 L 180.2542 310.821 L 179.9042 310.081 L 179.5342 309.351 L 179.1642 308.611 L 178.7842 307.861 L 178.3842 307.111 L 177.9842 306.361 L 177.5642 305.601 L 177.1342 304.831 L 176.6942 304.061 L 176.2542 303.281 L 175.7942 302.501 L 175.3242 301.711 L 174.8442 300.921 L 174.3642 300.131 L 173.8642 299.331 L 173.3542 298.521 L 172.8342 297.721 L 172.3042 296.911 L 171.7542 296.101 L 171.2042 295.291 L 170.6442 294.481 L 170.0842 293.671 L 169.5042 292.851 L 168.9142 292.031 L 168.3042 291.211 L 167.6942 290.391 L 167.0642 289.571 L 166.4142 288.751 L 165.7642 287.931 L 165.0942 287.101 L 164.4242 286.281 L 163.7442 285.451 L 163.0542 284.611 L 162.3642 283.771 L 161.6642 282.931 L 160.9642 282.081 L 160.2542 281.221 L 159.5342 280.361 L 158.8042 279.491 L 158.0842 278.621 L 157.3442 277.751 L 156.5942 276.871 L 155.8442 275.991 L 155.0742 275.111 L 154.3042 274.231 L 153.5142 273.351 L 152.7142 272.471 L 151.9042 271.591 L 151.0842 270.721 L 150.2542 269.841 L 149.4142 268.971 L 148.5642 268.091 L 147.7042 267.221 L 146.8342 266.341 L 145.9642 265.461 L 145.0642 264.591 L 144.1742 263.721 L 143.2642 262.841 L 142.3642 261.971 L 141.4642 261.091 L 140.5642 260.221 L 139.6642 259.351 L 138.7642 258.471 L 137.8542 257.591 L 136.9442 256.701 L 136.0342 255.811 L 135.1142 254.911 L 134.1942 254.011 L 133.2742 253.111 L 132.3442 252.201 L 131.4142 251.281 L 130.4742 250.361 L 129.5342 249.441 L 128.5842 248.511 L 127.6342 247.581 L 126.6842 246.641 L 125.7242 245.701 L 124.7642 244.751 L 123.7942 243.801 L 122.8242 242.851 L 121.8442 241.891 L 120.8642 240.931 L 119.8842 239.961 L 118.8942 238.991 L 117.8942 238.021 L 116.9042 237.041 L 115.8942 236.051 L 114.8942 235.071 L 113.8842 234.071 L 112.8742 233.071 L 111.8542 232.071 L 110.8442 231.061 L 109.8242 230.041 L 108.8042 229.011 L 107.7842 227.981 L 106.7542 226.941 L 105.7342 225.901 L 104.7142 224.851 L 103.6842 223.791 L 102.6542 222.731 L 101.6242 221.661 L 100.5842 220.591 L 99.5542 219.511 L 98.5142 218.431 L 97.4742 217.351 L 96.4342 216.271 L 95.3842 215.181 L 94.3342 214.081 L 93.2742 212.991 L 92.2242 211.891 L 91.1642 210.781 L 90.0942 209.681 L 89.0242 208.571 L 87.9542 207.451 L 86.8842 206.341 L 85.8042 205.211 L 84.7242 204.091 L 83.6342 202.961 L 82.5542 201.831 L 81.4542 200.701 L 80.3642 199.561 L 79.2642 198.421 L 78.1642 197.271 L 77.0642 196.121 L 75.9542 194.971 L 74.8442 193.821 L 73.7242 192.661 L 72.6142 191.491 L 71.4842 190.331 L 70.3642 189.161 L 69.2442 187.981 L 68.1142 186.811 L 66.9942 185.641 L 65.8742 184.471 L 64.7642 183.311 L 63.6642 182.151 L 62.5742 181.001 L 61.5042 179.871 L 60.4342 178.741 L 59.3842 177.631 L 58.3442 176.541 L 57.3242 175.461 L 56.3242 174.411 L 55.3442 173.361 L 54.3642 172.331 L 53.4042 171.311 L 52.4542 170.301 L 51.5242 169.301 L 50.6142 168.331 L 49.7242 167.361 L 48.8542 166.411 L 47.9942 165.471 L 47.1542 164.551 L 46.3242 163.651 L 45.5142 162.761 L 44.7242 161.891 L 43.9542 161.031 L 43.1842 160.191 L 42.4442 159.361 L 41.7142 158.551 L 40.9942 157.761 L 40.2942 156.981 L 39.6142 156.211 L 38.9342 155.461 L 38.2742 154.711 L 37.6142 153.981 L 36.9642 153.251 L 36.3342 152.541 L 35.7042 151.831 L 35.0842 151.131 L 34.4742 150.431 L 33.8742 149.741 L 33.2842 149.061 L 32.7042 148.391 L 32.1442 147.721 L 31.5942 147.061 L 31.0542 146.391 L 30.5242 145.741 L 30.0142 145.091 L 29.5142 144.441 L 29.0242 143.791 L 28.5642 143.151 L 28.1142 142.511 L 27.6842 141.861 L 27.2742 141.221 L 26.8742 140.581 L 26.4942 139.931 L 26.1242 139.291 L 25.7742 138.661 L 25.4342 138.021 L 25.1042 137.391 L 24.7842 136.771 L 24.4642 136.141 L 24.1642 135.521 L 23.8542 134.891 L 23.5642 134.271 L 23.2742 133.641 L 22.9942 133.011 L 22.7142 132.371 L 22.4542 131.731 L 22.1942 131.091 L 21.9442 130.441 L 21.7042 129.791 L 21.4742 129.121 L 21.2542 128.461 L 21.0442 127.781 L 20.8442 127.101 L 20.6542 126.411 L 20.4742 125.721 L 20.3042 125.021 L 20.1542 124.311 L 20.0042 123.601 L 19.8742 122.891 L 19.7642 122.171 L 19.6642 121.461 L 19.5842 120.741 L 19.5142 120.021 L 19.4642 119.301 L 19.4342 118.571 L 19.4142 117.841 V 117.111 L 19.4242 116.371 L 19.4542 115.631 L 19.5042 114.891 L 19.5742 114.141 L 19.6442 113.391 L 19.7342 112.641 L 19.8442 111.881 L 19.9542 111.111 L 20.0642 110.351 L 20.1942 109.571 L 20.3242 108.791 L 20.4642 108.011 L 20.6042 107.221 L 20.7442 106.431 L 20.8942 105.631 L 21.0642 104.821 L 21.2242 104.011 L 21.4042 103.201 L 21.5942 102.381 L 21.8042 101.561 L 22.0142 100.731 L 22.2442 99.901 L 22.4942 99.071 L 22.7542 98.231 L 23.0342 97.401 L 23.3242 96.561 L 23.6242 95.721 L 23.9442 94.871 L 24.2642 94.021 L 24.6042 93.161 L 24.9542 92.311 L 25.3142 91.441 L 25.6942 90.571 L 26.0742 89.691 L 26.4642 88.811 L 26.8642 87.921 L 27.2742 87.031 L 27.6942 86.121 L 28.1242 85.211 L 28.5542 84.301 L 28.9942 83.371 L 29.4542 82.451 L 29.9142 81.521 L 30.3842 80.581 L 30.8642 79.641 L 31.3642 78.691 L 31.8742 77.741 L 32.3942 76.791 L 32.9342 75.841 L 33.4842 74.891 L 34.0442 73.931 L 34.6342 72.981 L 35.2342 72.021 L 35.8442 71.071 L 36.4742 70.111 L 37.1242 69.161 L 37.7842 68.211 L 38.4642 67.261 L 39.1542 66.311 L 39.8642 65.371 L 40.5942 64.431 L 41.3342 63.491 L 42.0942 62.551 L 42.8642 61.621 L 43.6542 60.701 L 44.4542 59.781 L 45.2742 58.871 L 46.1042 57.961 L 46.9442 57.071 L 47.7942 56.181 L 48.6542 55.311 L 49.5242 54.461 L 50.4042 53.621 L 51.2942 52.791 L 52.1942 51.971 L 53.0942 51.181 L 54.0142 50.401 L 54.9342 49.641 L 55.8642 48.901 L 56.8042 48.181 L 57.7442 47.481 L 58.6942 46.801 L 59.6542 46.141 L 60.6142 45.501 L 61.5842 44.871 L 62.5742 44.271 L 63.5642 43.681 L 64.5742 43.111 L 65.5842 42.551 L 66.6042 42.011 L 67.6342 41.471 L 68.6742 40.951 L 69.7142 40.431 L 70.7642 39.921 L 71.8242 39.411 L 72.8842 38.911 L 73.9442 38.421 L 75.0142 37.931 L 76.0942 37.451 L 77.1742 36.981 L 78.2542 36.521 L 79.3442 36.071 L 80.4442 35.631 L 81.5442 35.201 L 82.6442 34.781 L 83.7642 34.361 L 84.8742 33.951 L 86.0042 33.551 L 87.1242 33.151 L 88.2642 32.761 L 89.3942 32.371 L 90.5442 31.991 L 91.6942 31.621 L 92.8542 31.251 L 94.0242 30.891 L 95.2042 30.541 L 96.3942 30.201 L 97.5842 29.871 L 98.7942 29.551 L 100.0042 29.241 L 101.2242 28.941 L 102.4542 28.651 L 103.6842 28.361 L 104.9242 28.081 L 106.1742 27.801 L 107.4342 27.531 L 108.6942 27.261 L 109.9642 27.001 L 111.2442 26.731 L 112.5242 26.471 L 113.8142 26.221 L 115.1142 25.961 L 116.4142 25.711 L 117.7242 25.451 L 119.0442 25.201 L 120.3642 24.951 L 121.6942 24.711 L 123.0242 24.461 L 124.3642 24.221 L 125.7142 23.981 L 127.0642 23.741 L 128.4242 23.501 L 129.7942 23.271 L 131.1642 23.041 L 132.5442 22.821 L 133.9342 22.601 L 135.3242 22.391 L 136.7242 22.181 L 138.1342 21.981 L 139.5442 21.791 L 140.9742 21.611 L 142.3942 21.431 L 143.8342 21.251 L 145.2742 21.081 L 146.7242 20.911 L 148.1742 20.751 L 149.6342 20.591 L 151.1042 20.431 L 152.5742 20.271 L 154.0542 20.111 L 155.5342 19.961 L 157.0242 19.801 L 158.5242 19.651 L 160.0242 19.501 L 161.5342 19.351 L 163.0442 19.201 L 164.5642 19.061 L 166.0942 18.921 L 167.6242 18.781 L 169.1542 18.651 L 170.7042 18.511 L 172.2442 18.381 L 173.8042 18.251 L 175.3642 18.131 L 176.9242 18.011 L 178.4842 17.891 L 180.0542 17.771 L 181.6242 17.661 L 183.2042 17.551 L 184.7942 17.451 L 186.3842 17.351 L 187.9742 17.261 L 189.5742 17.161 L 191.1842 17.071 L 192.7842 16.991 L 194.4042 16.911 L 196.0242 16.831 L 197.6442 16.751 L 199.2742 16.681 L 200.9042 16.621 L 202.5442 16.551 L 204.1842 16.501 L 205.8342 16.441 L 207.4842 16.391 L 209.1442 16.341 L 210.8042 16.291 L 212.4642 16.241 L 214.1342 16.191 L 215.8142 16.151 L 217.4842 16.101 L 219.1742 16.061 L 220.8542 16.021 L 222.5442 15.981 L 224.2442 15.951 L 225.9442 15.911 L 227.6442 15.881 L 229.3442 15.861 L 231.0642 15.841 L 232.7742 15.821 L 234.4942 15.811 L 236.2142 15.801 H 237.9442 L 239.6742 15.811 L 241.4042 15.821"
       style="fill:none;stroke:#000000;stroke-width:0.5;stroke-linecap:round;stroke-linejoin:round;stroke-miterlimit:10;stroke-dasharray:none;stroke-opacity:1" />
  </g>
</svg>
