<?xml version="1.0" encoding="UTF-8" standalone="no"?>
<!-- Created with Inkscape (http://www.inkscape.org/) -->

<svg
   inkscape:version="1.3.2 (091e20e, 2023-11-25, custom)"
   sodipodi:docname="track_brand_hatch.svg"
   xmlns:inkscape="http://www.inkscape.org/namespaces/inkscape"
   xmlns:sodipodi="http://sodipodi.sourceforge.net/DTD/sodipodi-0.dtd"
   xmlns="http://www.w3.org/2000/svg"
   xmlns:svg="http://www.w3.org/2000/svg">
  <g>
    <path
       id="track"
       d="M 300.5338 81.2899 H 301.3938 H 302.2538 H 303.1138 H 303.9738 H 304.8338 H 305.7138 H 306.5738 L 307.4538 81.2699 H 308.3138 H 309.1938 H 310.0738 L 310.9538 81.2499 H 311.8338 H 312.7138 H 313.6138 L 314.4938 81.2299 H 315.3938 H 316.2738 H 317.1738 H 318.0738 L 318.9738 81.2099 H 319.8738 H 320.7738 H 321.6738 L 322.5938 81.1899 H 323.4938 H 324.4138 H 325.3138 L 326.2338 81.1699 H 327.1538 H 328.0738 L 328.9938 81.1499 H 329.9138 H 330.8338 L 331.7538 81.1299 H 332.6938 H 333.6138 L 334.5538 81.1099 H 335.4738 L 336.4138 81.0899 H 337.3538 L 338.2738 81.0699 H 339.2138 L 340.1538 81.0499 H 341.1138 L 342.0538 81.0299 H 342.9938 L 343.9538 81.0099 H 344.8938 L 345.8538 80.9899 H 346.7938 L 347.7538 80.9699 H 348.7138 H 349.6538 L 350.6138 80.9499 H 351.5938 L 352.5538 80.9299 H 353.5138 H 354.4738 L 355.4338 80.9099 H 356.4138 L 357.3738 80.8899 H 358.3338 H 359.3138 L 360.2738 80.8699 H 361.2538 H 362.2338 L 363.1938 80.8499 H 364.1738 H 365.1538 L 366.1338 80.8299 H 367.1138 H 368.0938 L 369.0738 80.8099 H 370.0738 H 371.0538 L 372.0338 80.7899 H 373.0338 H 374.0138 L 375.0138 80.7699 H 376.0138 H 377.0138 L 377.9938 80.7499 H 378.9938 H 379.9938 L 380.9938 80.7299 H 382.0138 H 383.0138 L 384.0138 80.7099 H 385.0138 H 386.0338 L 387.0338 80.6899 H 388.0538 H 389.0538 L 390.0738 80.6699 H 391.0938 H 392.1138 L 393.1338 80.6499 H 394.1538 L 395.1738 80.6299 H 396.1938 L 397.2138 80.6099 H 398.2538 L 399.2738 80.5899 L 400.2938 80.5699 H 401.3338 L 402.3538 80.5499 H 403.3938 L 404.4338 80.5299 H 405.4538 L 406.4938 80.5099 L 407.5338 80.4899 H 408.5738 L 409.6138 80.4699 L 410.6538 80.4499 H 411.6938 L 412.7338 80.4299 L 413.7938 80.4099 H 414.8338 L 415.8738 80.3899 L 416.9338 80.3699 H 417.9738 L 419.0338 80.3499 L 420.0738 80.3299 H 421.1338 L 422.1938 80.3099 H 423.2538 L 424.2938 80.2899 H 425.3538 L 426.4138 80.2699 H 427.4738 L 428.5338 80.2499 H 429.6138 H 430.6738 L 431.7338 80.2299 H 432.7938 H 433.8538 L 434.9338 80.2099 H 435.9938 H 437.0738 L 438.1338 80.1899 H 439.2138 H 440.2738 L 441.3538 80.1699 H 442.4338 H 443.5138 L 444.5738 80.1499 H 445.6538 H 446.7338 H 447.8138 H 448.8938 L 449.9738 80.1299 H 451.0538 H 452.1538 H 453.2338 H 454.3138 H 455.3938 H 456.4738 H 457.5338 L 458.5738 80.1099 H 459.6138 H 460.6338 H 461.6538 L 462.6338 80.0899 L 463.6138 80.0699 H 464.5738 L 465.5338 80.0499 L 466.4738 80.0299 L 467.3938 80.0099 L 468.3138 79.9899 L 469.2138 79.9699 L 470.0938 79.9299 L 470.9538 79.9099 L 471.8138 79.8899 L 472.6538 79.8699 L 473.4738 79.8499 L 474.2738 79.8099 L 475.0738 79.7899 L 475.8538 79.7699 L 476.6338 79.7299 L 477.3938 79.6899 L 478.1338 79.6699 L 478.8538 79.6099 L 479.5738 79.5699 L 480.2738 79.5299 L 480.9738 79.4699 L 481.6538 79.4099 L 482.3338 79.3299 L 482.9938 79.2499 L 483.6338 79.1699 L 484.2738 79.0699 L 484.8938 78.9699 L 485.5138 78.8499 L 486.1338 78.7299 L 486.7338 78.6099 L 487.3138 78.4699 L 487.8938 78.3099 L 488.4738 78.1499 L 489.0338 77.9899 L 489.5938 77.8099 L 490.1538 77.6099 L 490.6938 77.4099 L 491.2338 77.1898 L 491.7738 76.9699 L 492.2938 76.7299 L 492.8138 76.4899 L 493.3338 76.2299 L 493.8338 75.9699 L 494.3138 75.6898 L 494.8138 75.4099 L 495.2938 75.1099 L 495.7738 74.8098 L 496.2338 74.5099 L 496.6938 74.1898 L 497.1338 73.8699 L 497.5738 73.5299 L 497.9938 73.1898 L 498.3938 72.8499 L 498.8138 72.4899 L 499.2138 72.1299 L 499.5938 71.7699 L 499.9738 71.3899 L 500.3538 71.0099 L 500.7138 70.6099 L 501.0538 70.2099 L 501.3938 69.8098 L 501.7138 69.4099 L 502.0138 68.9899 L 502.3138 68.5699 L 502.6138 68.1299 L 502.8938 67.7099 L 503.1538 67.2699 L 503.4138 66.8098 L 503.6538 66.3699 L 503.8738 65.9099 L 504.0938 65.4499 L 504.2938 64.9899 L 504.4738 64.5099 L 504.6538 64.0299 L 504.8138 63.5498 L 504.9538 63.0498 L 505.0938 62.5699 L 505.2138 62.0698 L 505.3338 61.5699 L 505.4538 61.0698 L 505.5538 60.5498 L 505.6738 60.0498 L 505.7938 59.5299 L 505.9138 59.0299 L 506.0338 58.5099 L 506.1738 58.0099 L 506.3338 57.4899 L 506.4938 56.9899 L 506.6738 56.4899 L 506.8538 55.9699 L 507.0538 55.4699 L 507.2538 54.9699 L 507.4738 54.4899 L 507.6938 53.9899 L 507.9338 53.4899 L 508.1938 53.0099 L 508.4538 52.5099 L 508.7138 52.0299 L 508.9938 51.5498 L 509.2938 51.0698 L 509.5938 50.6099 L 509.9138 50.1299 L 510.2338 49.6698 L 510.5538 49.2099 L 510.8938 48.7699 L 511.2538 48.3299 L 511.6138 47.8899 L 511.9738 47.4499 L 512.3538 47.0299 L 512.7338 46.5899 L 513.1338 46.1698 L 513.5338 45.7499 L 513.9338 45.35 L 514.3538 44.95 L 514.7738 44.55 L 515.2138 44.15 L 515.6538 43.77 L 516.1138 43.4101 L 516.5738 43.0301 L 517.0338 42.6699 L 517.5138 42.31 L 517.9938 41.97 L 518.4938 41.63 L 519.0138 41.2899 L 519.5338 40.97 L 520.0538 40.65 L 520.5938 40.33 L 521.1338 40.0301 L 521.6938 39.73 L 522.2538 39.43 L 522.8138 39.15 L 523.3938 38.87 L 523.9738 38.61 L 524.5738 38.35 L 525.1738 38.09 L 525.7738 37.83 L 526.3938 37.59 L 526.9938 37.37 L 527.6138 37.13 L 528.2538 36.93 L 528.8738 36.71 L 529.5138 36.53 L 530.1538 36.3299 L 530.7938 36.1499 L 531.4538 35.9699 L 532.0938 35.8099 L 532.7538 35.6499 L 533.4138 35.5099 L 534.0738 35.3899 L 534.7538 35.2699 L 535.4138 35.1499 L 536.0938 35.0299 L 536.7738 34.9299 L 537.4538 34.8499 L 538.1538 34.7699 L 538.8538 34.6899 L 539.5338 34.6299 L 540.2338 34.5499 L 540.9538 34.5099 L 541.6538 34.4499 L 542.3738 34.4099 L 543.0738 34.3899 L 543.7938 34.3699 L 544.5138 34.3499 H 545.2338 H 545.9738 H 546.6938 L 547.4338 34.3699 L 548.1738 34.3899 L 548.8938 34.4099 L 549.6538 34.4299 L 550.3938 34.4699 L 551.1338 34.5099 L 551.8938 34.5499 L 552.6338 34.5899 L 553.3938 34.6299 L 554.1538 34.6899 L 554.9138 34.7299 L 555.6938 34.7899 L 556.4538 34.8499 L 557.2138 34.8899 L 557.9938 34.9499 L 558.7738 35.0099 L 559.5538 35.0699 L 560.3338 35.1499 L 561.1138 35.2099 L 561.8938 35.2699 L 562.6938 35.3099 L 563.4738 35.3699 L 564.2738 35.4299 L 565.0738 35.4699 L 565.8738 35.5299 L 566.6738 35.5699 L 567.4738 35.6099 L 568.2738 35.6499 L 569.0938 35.6899 L 569.8938 35.7299 L 570.7138 35.7499 L 571.5338 35.7899 L 572.3338 35.8099 L 573.1738 35.8299 L 573.9738 35.8499 L 574.8138 35.8699 L 575.6338 35.8899 H 576.4538 L 577.2938 35.9099 H 578.1138 H 578.9538 H 579.7938 L 580.6138 35.8899 H 581.4538 L 582.2938 35.8699 L 583.1338 35.8499 L 583.9938 35.8299 L 584.8338 35.8099 L 585.6938 35.7699 L 586.5338 35.7299 L 587.3938 35.6899 L 588.2538 35.6499 L 589.1138 35.6099 L 589.9738 35.5499 L 590.8338 35.4899 L 591.6938 35.4299 L 592.5538 35.3699 L 593.4138 35.2899 L 594.2938 35.2099 L 595.1538 35.1299 L 596.0338 35.0499 L 596.8938 34.9499 L 597.7738 34.8699 L 598.6538 34.7699 L 599.5338 34.6699 L 600.4138 34.5499 L 601.2938 34.4499 L 602.1738 34.3299 L 603.0738 34.2099 L 603.9538 34.0899 L 604.8338 33.9699 L 605.7338 33.8299 L 606.6138 33.6899 L 607.5138 33.5499 L 608.3938 33.4101 L 609.2938 33.2701 L 610.1938 33.1101 L 611.0938 32.9701 L 611.9738 32.8101 L 612.8938 32.6501 L 613.7938 32.4901 L 614.6938 32.3101 L 615.5938 32.1501 L 616.4938 31.9701 L 617.3938 31.7901 L 618.3138 31.5901 L 619.2138 31.4101 L 620.1138 31.21 L 621.0338 30.9901 L 621.9338 30.79 L 622.8338 30.57 L 623.7538 30.33 L 624.6538 30.09 L 625.5538 29.85 L 626.4738 29.61 L 627.3738 29.35 L 628.2938 29.11 L 629.1938 28.85 L 630.1138 28.59 L 631.0138 28.33 L 631.9338 28.07 L 632.8338 27.79 L 633.7538 27.5301 L 634.6738 27.2701 L 635.5938 26.9901 L 636.5138 26.73 L 637.4338 26.47 L 638.3538 26.21 L 639.2938 25.97 L 640.2138 25.71 L 641.1538 25.47 L 642.0938 25.23 L 643.0338 24.9901 L 643.9738 24.7501 L 644.9138 24.5101 L 645.8538 24.29 L 646.7938 24.07 L 647.7538 23.85 L 648.6938 23.6301 L 649.6538 23.43 L 650.5738 23.21 L 651.5138 23.01 L 652.4138 22.83 L 653.3338 22.63 L 654.2138 22.45 L 655.0938 22.29 L 655.9738 22.11 L 656.8138 21.95 L 657.6738 21.81 L 658.4938 21.67 L 659.3138 21.5302 L 660.1338 21.3902 L 660.9338 21.2702 L 661.7138 21.1702 L 662.4938 21.0502 L 663.2538 20.9502 L 664.0138 20.8702 L 664.7538 20.7702 L 665.4738 20.6902 L 666.2138 20.6102 L 666.9138 20.5502 L 667.6138 20.4902 L 668.2938 20.4302 L 668.9538 20.3902 L 669.6138 20.3702 L 670.2738 20.3302 L 670.9138 20.3102 L 671.5338 20.2902 H 672.1538 L 672.7738 20.3102 L 673.3738 20.3302 L 673.9538 20.3502 L 674.5538 20.3902 L 675.1338 20.4502 L 675.6938 20.5102 L 676.2738 20.5902 L 676.8538 20.6902 L 677.4138 20.7902 L 677.9738 20.9104 L 678.5138 21.0304 L 679.0738 21.1702 L 679.6138 21.3302 L 680.1538 21.4902 L 680.6738 21.6702 L 681.2138 21.8703 L 681.7138 22.0703 L 682.2338 22.2704 L 682.7338 22.4904 L 683.2338 22.7303 L 683.7338 22.9703 L 684.2138 23.2103 L 684.6938 23.4703 L 685.1538 23.7504 L 685.6138 24.0304 L 686.0738 24.3103 L 686.5138 24.6304 L 686.9538 24.9303 L 687.3738 25.2504 L 687.7938 25.5903 L 688.1938 25.9303 L 688.5938 26.2704 L 688.9938 26.6304 L 689.3738 26.9904 L 689.7538 27.3704 L 690.1338 27.7704 L 690.5138 28.1703 L 690.8738 28.5703 L 691.2338 28.9703 L 691.5938 29.3904 L 691.9538 29.8103 L 692.3138 30.2303 L 692.6738 30.6504 L 693.0338 31.0703 L 693.3738 31.4703 L 693.7338 31.8704 L 694.0538 32.2504 L 694.3938 32.6304 L 694.7138 32.9904 L 695.0338 33.3303 L 695.3538 33.6703 L 695.6738 34.0104 L 695.9938 34.3303 L 696.2938 34.6304 L 696.6138 34.9303 L 696.9338 35.2103 L 697.2738 35.4904 L 697.6138 35.7704 L 697.9538 36.0104 L 698.2938 36.2704 L 698.6538 36.5104 L 699.0138 36.7303 L 699.3738 36.9503 L 699.7538 37.1504 L 700.1338 37.3504 L 700.4938 37.5304 L 700.8738 37.6904 L 701.2538 37.8504 L 701.6538 37.9904 L 702.0338 38.1304 L 702.4338 38.2504 L 702.8138 38.3504 L 703.2138 38.4504 L 703.6138 38.5304 L 703.9938 38.5904 L 704.3938 38.6504 L 704.7938 38.6904 L 705.1738 38.7304 L 705.5738 38.7504 L 705.9738 38.7704 L 706.3538 38.7504 H 706.7538 L 707.1538 38.7104 L 707.5338 38.6704 L 707.9338 38.6304 L 708.3338 38.5704 L 708.7338 38.5104 L 709.1338 38.4304 L 709.5538 38.3304 L 709.9538 38.2304 L 710.3538 38.1304 L 710.7538 37.9904 L 711.1538 37.8704 L 711.5538 37.7104 L 711.9338 37.5704 L 712.3338 37.4104 L 712.7338 37.2304 L 713.1138 37.0504 L 713.4938 36.8504 L 713.8938 36.6304 L 714.2738 36.4104 L 714.6538 36.1903 L 715.0138 35.9504 L 715.3938 35.7104 L 715.7738 35.4504 L 716.1538 35.1903 L 716.5338 34.9104 L 716.9138 34.6304 L 717.2938 34.3504 L 717.6538 34.0503 L 718.0338 33.7304 L 718.4138 33.4104 L 718.7938 33.0904 L 719.1538 32.7504 L 719.5338 32.4104 L 719.9138 32.0703 L 720.2938 31.7304 L 720.6738 31.3904 L 721.0738 31.0503 L 721.4338 30.7104 L 721.8138 30.3904 L 722.1738 30.0904 L 722.5138 29.7704 L 722.8538 29.4904 L 723.1938 29.2104 L 723.5538 28.9303 L 723.8938 28.6504 L 724.2338 28.3904 L 724.5738 28.1304 L 724.9138 27.8904 L 725.2738 27.6504 L 725.6138 27.4104 L 725.9738 27.1903 L 726.3338 26.9903 L 726.6938 26.7704 L 727.0738 26.5904 L 727.4338 26.4104 L 727.8138 26.2304 L 728.1738 26.0704 L 728.5338 25.9304 L 728.9138 25.8104 L 729.2738 25.6904 L 729.6338 25.5704 L 730.0138 25.4904 L 730.3738 25.3904 L 730.7538 25.3304 L 731.1138 25.2704 L 731.4938 25.2304 L 731.8538 25.1904 L 732.2138 25.1704 H 732.5938 H 732.9538 L 733.3138 25.1904 L 733.6538 25.2104 L 734.0138 25.2504 L 734.3538 25.3104 L 734.7138 25.3904 L 735.0338 25.4704 L 735.3738 25.5504 L 735.7138 25.6704 L 736.0338 25.7904 L 736.3338 25.9106 L 736.6538 26.0504 L 736.9538 26.1904 L 737.2538 26.3504 L 737.5538 26.5104 L 737.8338 26.6904 L 738.1138 26.8704 L 738.3938 27.0704 L 738.6738 27.2704 L 738.9538 27.4904 L 739.2138 27.7104 L 739.4738 27.9504 L 739.7138 28.1904 L 739.9738 28.4304 L 740.2138 28.6904 L 740.4538 28.9704 L 740.6938 29.2504 L 740.9138 29.5305 L 741.1338 29.8304 L 741.3538 30.1304 L 741.5738 30.4504 L 741.7938 30.7504 L 741.9938 31.0904 L 742.2138 31.4105 L 742.4138 31.7504 L 742.6138 32.1104 L 742.7938 32.4704 L 742.9938 32.8304 L 743.1738 33.1904 L 743.3338 33.5704 L 743.5138 33.9504 L 743.6738 34.3304 L 743.8338 34.7304 L 743.9938 35.1304 L 744.1538 35.5504 L 744.2938 35.9704 L 744.4538 36.3904 L 744.5938 36.8104 L 744.7338 37.2504 L 744.8738 37.6904 L 744.9938 38.1504 L 745.1138 38.6104 L 745.2338 39.0704 L 745.3538 39.5305 L 745.4738 40.0104 L 745.5738 40.4904 L 745.6938 40.9904 L 745.7938 41.4704 L 745.8738 41.9704 L 745.9738 42.4704 L 746.0538 42.9704 L 746.1138 43.4704 L 746.1938 43.9704 L 746.2338 44.4904 L 746.2738 44.9904 L 746.3138 45.5104 L 746.3338 46.0104 L 746.3538 46.5104 L 746.3338 47.0305 V 47.5305 L 746.2938 48.0305 L 746.2538 48.5305 L 746.2138 49.0104 L 746.1338 49.5104 L 746.0738 49.9904 L 745.9738 50.4704 L 745.8738 50.9504 L 745.7538 51.4304 L 745.6338 51.8904 L 745.5138 52.3504 L 745.3538 52.8104 L 745.1938 53.2704 L 745.0338 53.7104 L 744.8538 54.1504 L 744.6538 54.5704 L 744.4538 55.0104 L 744.2538 55.4105 L 744.0138 55.8304 L 743.7938 56.2304 L 743.5337 56.6304 L 743.2938 57.0305 L 743.0138 57.4105 L 742.7338 57.7903 L 742.4538 58.1703 L 742.1537 58.5305 L 741.8538 58.8904 L 741.5337 59.2304 L 741.2137 59.5704 L 740.8738 59.8904 L 740.5337 60.2104 L 740.1738 60.5305 L 739.8138 60.8304 L 739.4538 61.1104 L 739.0738 61.3904 L 738.6938 61.6703 L 738.2938 61.9304 L 737.8938 62.1904 L 737.4938 62.4504 L 737.0937 62.6904 L 736.6537 62.9105 L 736.2338 63.1504 L 735.7938 63.3704 L 735.3538 63.5704 L 734.8938 63.7705 L 734.4538 63.9705 L 733.9737 64.1505 L 733.5138 64.3105 L 733.0337 64.4705 L 732.5538 64.6305 L 732.0538 64.7705 L 731.5538 64.8905 L 731.0538 65.0105 L 730.5538 65.1105 L 730.0337 65.2105 L 729.5138 65.3105 L 728.9938 65.3905 L 728.4737 65.4505 L 727.9338 65.5105 L 727.3938 65.5705 L 726.8538 65.6105 L 726.3138 65.6505 L 725.7538 65.6905 L 725.1938 65.7105 L 724.6338 65.7305 L 724.0738 65.7505 L 723.4938 65.7705 L 722.9338 65.7905 H 722.3538 H 721.7538 L 721.1738 65.7705 L 720.5937 65.7505 L 719.9938 65.7105 L 719.3938 65.6705 L 718.7938 65.6305 L 718.1938 65.5705 L 717.5738 65.5105 L 716.9737 65.4305 L 716.3538 65.3505 L 715.7338 65.2705 L 715.1138 65.1705 L 714.4938 65.0705 L 713.8738 64.9705 L 713.2538 64.8505 L 712.6138 64.7305 L 711.9938 64.6105 L 711.3538 64.4705 L 710.7137 64.3305 L 710.0738 64.1905 L 709.4538 64.0305 L 708.8138 63.8505 L 708.1738 63.6705 L 707.5538 63.4905 L 706.9137 63.2904 L 706.2737 63.0904 L 705.6537 62.8704 L 705.0138 62.6505 L 704.3738 62.4105 L 703.7538 62.1704 L 703.1138 61.9304 L 702.4737 61.6704 L 701.8538 61.4105 L 701.2137 61.1505 L 700.5738 60.8905 L 699.9338 60.6104 L 699.2938 60.3304 L 698.6537 60.0504 L 698.0138 59.7705 L 697.3738 59.4704 L 696.7338 59.1704 L 696.0738 58.8905 L 695.4338 58.5904 L 694.7737 58.3104 L 694.1138 58.0105 L 693.4538 57.7104 L 692.7938 57.4304 L 692.1138 57.1505 L 691.4338 56.8704 L 690.7538 56.5904 L 690.0738 56.3104 L 689.3938 56.0504 L 688.6938 55.7705 L 687.9938 55.5105 L 687.2938 55.2705 L 686.5937 55.0105 L 685.8738 54.7705 L 685.1537 54.5504 L 684.4338 54.3104 L 683.6938 54.0904 L 682.9737 53.8904 L 682.2338 53.6903 L 681.4737 53.5103 L 680.7338 53.3303 L 679.9737 53.1503 L 679.2338 52.9903 L 678.4538 52.8503 L 677.6938 52.7103 L 676.9338 52.5703 L 676.1537 52.4503 L 675.3738 52.3503 L 674.5937 52.2503 L 673.8138 52.1703 L 673.0337 52.0903 L 672.2338 52.0303 L 671.4538 51.9703 L 670.6537 51.9103 L 669.8538 51.8703 L 669.0538 51.8303 L 668.2538 51.7903 L 667.4538 51.7703 L 666.6537 51.7503 H 665.8337 H 665.0337 L 664.2338 51.7703 L 663.4137 51.7903 L 662.5937 51.8103 L 661.7938 51.8503 L 660.9737 51.8903 L 660.1537 51.9503 L 659.3538 52.0303 L 658.5337 52.1103 L 657.7137 52.1903 L 656.8938 52.3103 L 656.0738 52.4303 L 655.2538 52.5503 L 654.4538 52.6903 L 653.6338 52.8503 L 652.8138 53.0103 L 651.9938 53.1903 L 651.1938 53.3703 L 650.3738 53.5703 L 649.5738 53.7903 L 648.7538 54.0104 L 647.9538 54.2303 L 647.1338 54.4703 L 646.3337 54.7303 L 645.5337 54.9904 L 644.7338 55.2704 L 643.9137 55.5503 L 643.1138 55.85 L 642.3138 56.15 L 641.5138 56.45 L 640.7138 56.75 L 639.9138 57.07 L 639.1138 57.37 L 638.3138 57.69 L 637.4938 57.99 L 636.6738 58.2899 L 635.8738 58.59 L 635.0538 58.9101 L 634.2338 59.19 L 633.3938 59.49 L 632.5738 59.7899 L 631.7338 60.09 L 630.9138 60.37 L 630.0738 60.6699 L 629.2338 60.95 L 628.3938 61.25 L 627.5538 61.5301 L 626.7138 61.81 L 625.8538 62.11 L 625.0138 62.39 L 624.1538 62.6699 L 623.2938 62.95 L 622.4338 63.23 L 621.5738 63.51 L 620.7338 63.77 L 619.8538 64.05 L 618.9938 64.33 L 618.1338 64.61 L 617.2538 64.89 L 616.3938 65.1699 L 615.5138 65.45 L 614.6338 65.73 L 613.7738 66.01 L 612.8938 66.2899 L 612.0138 66.57 L 611.1338 66.85 L 610.2338 67.13 L 609.3538 67.4101 L 608.4738 67.69 L 607.5938 67.97 L 606.6938 68.27 L 605.8138 68.55 L 604.9138 68.83 L 604.0338 69.11 L 603.1338 69.4101 L 602.2338 69.69 L 601.3338 69.97 L 600.4338 70.27 L 599.5338 70.55 L 598.6338 70.83 L 597.7338 71.13 L 596.8338 71.4101 L 595.9338 71.71 L 595.0138 72.01 L 594.1138 72.2899 L 593.1938 72.59 L 592.2938 72.89 L 591.3738 73.19 L 590.4738 73.49 L 589.5538 73.7899 L 588.6538 74.09 L 587.7338 74.39 L 586.8138 74.69 L 585.8938 74.99 L 584.9938 75.2899 L 584.0738 75.59 L 583.1538 75.89 L 582.2338 76.19 L 581.3138 76.49 L 580.3938 76.81 L 579.4738 77.11 L 578.5338 77.4101 L 577.6138 77.73 L 576.6938 78.0301 L 575.7738 78.33 L 574.8338 78.65 L 573.9138 78.95 L 572.9738 79.27 L 572.0538 79.57 L 571.1138 79.89 L 570.1738 80.19 L 569.2338 80.51 L 568.3138 80.81 L 567.3738 81.13 L 566.4338 81.43 L 565.4938 81.75 L 564.5538 82.07 L 563.6138 82.37 L 562.6538 82.69 L 561.7138 83.01 L 560.7738 83.31 L 559.8138 83.63 L 558.8738 83.95 L 557.9138 84.25 L 556.9738 84.57 L 556.0138 84.89 L 555.0538 85.21 L 554.1138 85.5301 L 553.1538 85.83 L 552.1938 86.15 L 551.2338 86.47 L 550.2738 86.7899 L 549.3138 87.11 L 548.3538 87.43 L 547.3938 87.75 L 546.4138 88.07 L 545.4538 88.39 L 544.4938 88.71 L 543.5138 89.0301 L 542.5538 89.35 L 541.5938 89.6699 L 540.6138 89.99 L 539.6338 90.31 L 538.6738 90.63 L 537.6938 90.95 L 536.7138 91.27 L 535.7338 91.61 L 534.7538 91.93 L 533.7738 92.25 L 532.7938 92.57 L 531.8138 92.89 L 530.8338 93.21 L 529.8538 93.55 L 528.8738 93.87 L 527.8938 94.19 L 526.8938 94.51 L 525.9138 94.85 L 524.9138 95.1699 L 523.9338 95.49 L 522.9538 95.83 L 521.9538 96.15 L 520.9538 96.47 L 519.9738 96.81 L 518.9738 97.13 L 517.9738 97.45 L 516.9738 97.7899 L 515.9738 98.11 L 514.9738 98.43 L 513.9738 98.77 L 512.9738 99.09 L 511.9738 99.43 L 510.9738 99.75 L 509.9738 100.09 L 508.9738 100.4101 L 507.9738 100.75 L 506.9538 101.07 L 505.9538 101.4101 L 504.9538 101.75 L 503.9338 102.07 L 502.9338 102.4101 L 501.9138 102.73 L 500.9138 103.07 L 499.8938 103.4101 L 498.8938 103.73 L 497.8738 104.07 L 496.8538 104.4101 L 495.8538 104.73 L 494.8338 105.07 L 493.8138 105.4101 L 492.7938 105.73 L 491.7738 106.07 L 490.7538 106.4101 L 489.7338 106.75 L 488.7138 107.09 L 487.6938 107.4101 L 486.6738 107.75 L 485.6538 108.09 L 484.6338 108.43 L 483.6138 108.77 L 482.5738 109.09 L 481.5538 109.43 L 480.5338 109.77 L 479.4938 110.11 L 478.4738 110.45 L 477.4538 110.7899 L 476.4138 111.13 L 475.3938 111.47 L 474.3538 111.81 L 473.3338 112.15 L 472.2938 112.49 L 471.2538 112.83 L 470.2338 113.1699 L 469.1938 113.51 L 468.1538 113.85 L 467.1138 114.19 L 466.0938 114.5301 L 465.0538 114.87 L 464.0138 115.21 L 462.9738 115.55 L 461.9338 115.89 L 460.8938 116.23 L 459.8538 116.57 L 458.8138 116.9101 L 457.7738 117.25 L 456.7338 117.59 L 455.6938 117.93 L 454.6538 118.27 L 453.5938 118.61 L 452.5538 118.95 L 451.5138 119.31 L 450.4738 119.65 L 449.4138 119.99 L 448.3738 120.33 L 447.3338 120.6699 L 446.2738 121.01 L 445.2338 121.37 L 444.1738 121.71 L 443.1338 122.05 L 442.0938 122.39 L 441.0338 122.73 L 439.9738 123.09 L 438.9338 123.43 L 437.8738 123.77 L 436.8338 124.11 L 435.7738 124.47 L 434.7338 124.81 L 433.6738 125.15 L 432.6338 125.49 L 431.5738 125.83 L 430.5138 126.19 L 429.4738 126.5301 L 428.4138 126.87 L 427.3538 127.23 L 426.2938 127.57 L 425.2538 127.9101 L 424.1938 128.25 L 423.1338 128.61 L 422.0938 128.95 L 421.0338 129.2899 L 419.9738 129.65 L 418.9138 129.99 L 417.8538 130.33 L 416.7938 130.69 L 415.7338 131.0301 L 414.6738 131.39 L 413.6138 131.73 L 412.5538 132.07 L 411.4938 132.43 L 410.4338 132.77 L 409.3738 133.13 L 408.3138 133.47 L 407.2538 133.81 L 406.1738 134.1699 L 405.1138 134.51 L 404.0538 134.87 L 402.9938 135.21 L 401.9138 135.57 L 400.8538 135.9101 L 399.7938 136.27 L 398.7138 136.61 L 397.6538 136.97 L 396.5738 137.31 L 395.5138 137.6699 L 394.4338 138.01 L 393.3738 138.37 L 392.2938 138.71 L 391.2338 139.07 L 390.1538 139.4101 L 389.0938 139.77 L 388.0138 140.13 L 386.9538 140.47 L 385.8738 140.83 L 384.7938 141.1699 L 383.7138 141.5301 L 382.6538 141.89 L 381.5738 142.23 L 380.4938 142.59 L 379.4138 142.95 L 378.3338 143.2899 L 377.2538 143.65 L 376.1938 143.99 L 375.1138 144.35 L 374.0338 144.71 L 372.9538 145.05 L 371.8738 145.4101 L 370.7738 145.77 L 369.6938 146.11 L 368.6138 146.47 L 367.5338 146.83 L 366.4538 147.1699 L 365.3738 147.5301 L 364.2938 147.89 L 363.1938 148.23 L 362.1138 148.59 L 361.0338 148.95 L 359.9538 149.31 L 358.8538 149.65 L 357.7738 150.01 L 356.6738 150.37 L 355.5938 150.73 L 354.5138 151.07 L 353.4138 151.43 L 352.3338 151.7899 L 351.2338 152.15 L 350.1538 152.51 L 349.0538 152.85 L 347.9738 153.21 L 346.8738 153.57 L 345.7938 153.93 L 344.6938 154.2899 L 343.6138 154.65 L 342.5138 155.01 L 341.4138 155.37 L 340.3338 155.73 L 339.2338 156.09 L 338.1338 156.45 L 337.0538 156.7899 L 335.9538 157.15 L 334.8538 157.51 L 333.7538 157.87 L 332.6538 158.23 L 331.5738 158.59 L 330.4738 158.97 L 329.3738 159.33 L 328.2738 159.69 L 327.1738 160.05 L 326.0738 160.4101 L 324.9938 160.77 L 323.8738 161.13 L 322.7938 161.49 L 321.6938 161.87 L 320.5938 162.23 L 319.4938 162.59 L 318.3938 162.95 L 317.2938 163.31 L 316.1938 163.69 L 315.0938 164.05 L 313.9938 164.4101 L 312.8738 164.77 L 311.7738 165.15 L 310.6738 165.51 L 309.5738 165.87 L 308.4738 166.25 L 307.3738 166.61 L 306.2738 166.97 L 305.1538 167.35 L 304.0538 167.71 L 302.9538 168.07 L 301.8538 168.45 L 300.7338 168.81 L 299.6338 169.1699 L 298.5338 169.55 L 297.4338 169.9101 L 296.3138 170.2899 L 295.2138 170.65 L 294.0938 171.0301 L 292.9938 171.39 L 291.8938 171.75 L 290.7738 172.13 L 289.6738 172.49 L 288.5538 172.87 L 287.4538 173.23 L 286.3338 173.61 L 285.2338 173.97 L 284.1138 174.35 L 283.0138 174.71 L 281.8938 175.09 L 280.7738 175.45 L 279.6738 175.83 L 278.5538 176.19 L 277.4338 176.57 L 276.3338 176.93 L 275.2138 177.31 L 274.1138 177.6699 L 272.9938 178.05 L 271.8738 178.4101 L 270.7538 178.7899 L 269.6338 179.15 L 268.5338 179.5301 L 267.4138 179.89 L 266.2938 180.27 L 265.1738 180.63 L 264.0538 181.01 L 262.9338 181.37 L 261.8138 181.75 L 260.7138 182.11 L 259.5938 182.47 L 258.4538 182.85 L 257.3538 183.21 L 256.2338 183.57 L 255.1138 183.95 L 253.9938 184.31 L 252.8538 184.6699 L 251.7338 185.05 L 250.6138 185.4101 L 249.4938 185.77 L 248.3738 186.15 L 247.2538 186.51 L 246.1338 186.87 L 245.0138 187.25 L 243.8738 187.61 L 242.7538 187.99 L 241.6338 188.35 L 240.5138 188.71 L 239.3938 189.09 L 238.2538 189.45 L 237.1338 189.81 L 236.0138 190.19 L 234.8938 190.55 L 233.7738 190.93 L 232.6338 191.2899 L 231.5138 191.65 L 230.3938 192.0301 L 229.2538 192.39 L 228.1338 192.77 L 227.0138 193.13 L 225.8938 193.49 L 224.7538 193.87 L 223.6338 194.23 L 222.5138 194.61 L 221.3738 194.97 L 220.2538 195.35 L 219.1338 195.71 L 217.9938 196.09 L 216.8738 196.45 L 215.7538 196.81 L 214.6138 197.19 L 213.4938 197.55 L 212.3538 197.93 L 211.2338 198.2899 L 210.1138 198.6699 L 208.9738 199.0301 L 207.8538 199.39 L 206.7138 199.77 L 205.5938 200.13 L 204.4738 200.51 L 203.3338 200.87 L 202.2138 201.25 L 201.0738 201.61 L 199.9538 201.99 L 198.8138 202.35 L 197.6938 202.73 L 196.5538 203.11 L 195.4338 203.47 L 194.2938 203.85 L 193.1738 204.21 L 192.0538 204.59 L 190.9138 204.97 L 189.7938 205.33 L 188.6538 205.71 L 187.5338 206.09 L 186.3938 206.47 L 185.2738 206.83 L 184.1338 207.21 L 183.0138 207.59 L 181.8938 207.97 L 180.7538 208.35 L 179.6338 208.71 L 178.4938 209.09 L 177.3738 209.47 L 176.2338 209.85 L 175.1138 210.23 L 173.9938 210.63 L 172.8538 211.01 L 171.7338 211.39 L 170.6138 211.77 L 169.4738 212.1699 L 168.3538 212.55 L 167.2338 212.95 L 166.0938 213.33 L 164.9738 213.73 L 163.8538 214.11 L 162.7338 214.51 L 161.6138 214.89 L 160.4738 215.2899 L 159.3538 215.6699 L 158.2338 216.07 L 157.0938 216.45 L 155.9738 216.85 L 154.8538 217.23 L 153.7138 217.61 L 152.5938 218.01 L 151.4738 218.39 L 150.3338 218.77 L 149.2138 219.1699 L 148.0938 219.55 L 146.9538 219.93 L 145.8338 220.31 L 144.6938 220.69 L 143.5738 221.07 L 142.4338 221.45 L 141.2938 221.81 L 140.1738 222.1699 L 139.0338 222.5301 L 137.8938 222.87 L 136.7538 223.21 L 135.6138 223.55 L 134.4538 223.87 L 133.3138 224.19 L 132.1738 224.49 L 131.0338 224.7899 L 129.9138 225.07 L 128.8138 225.35 L 127.7138 225.61 L 126.6338 225.87 L 125.5538 226.11 L 124.5138 226.33 L 123.4538 226.55 L 122.4338 226.77 L 121.4138 226.95 L 120.3938 227.1501 L 119.3938 227.3101 L 118.4138 227.4901 L 117.4538 227.6301 L 116.4938 227.7901 L 115.5338 227.9301 L 114.5938 228.0501 L 113.6538 228.1701 L 112.7338 228.2901 L 111.7938 228.3701 L 110.8738 228.4501 L 109.9338 228.5301 L 109.0138 228.5701 L 108.0938 228.6101 L 107.1738 228.6301 L 106.2538 228.6501 H 105.3338 L 104.4338 228.6301 L 103.5138 228.5901 L 102.5938 228.5501 L 101.6938 228.4901 L 100.7938 228.4101 L 99.8938 228.3301 L 99.0138 228.2301 L 98.1138 228.1301 L 97.2338 228.0101 L 96.3538 227.8701 L 95.4738 227.7101 L 94.5938 227.5701 L 93.7138 227.4101 L 92.8538 227.2301 L 91.9738 227.0301 L 91.1138 226.83 L 90.2738 226.61 L 89.4138 226.3701 L 88.5738 226.1301 L 87.7538 225.85 L 86.9138 225.57 L 86.0938 225.2899 L 85.2738 224.99 L 84.4538 224.6699 L 83.6538 224.33 L 82.8338 224.01 L 82.0338 223.65 L 81.2138 223.31 L 80.4138 222.95 L 79.6138 222.57 L 78.8138 222.19 L 78.0338 221.7899 L 77.2338 221.39 L 76.4538 220.97 L 75.6738 220.55 L 74.8938 220.11 L 74.1338 219.65 L 73.3538 219.19 L 72.5938 218.73 L 71.8338 218.25 L 71.0938 217.75 L 70.3338 217.25 L 69.5938 216.73 L 68.8538 216.21 L 68.1338 215.6699 L 67.3938 215.13 L 66.6738 214.57 L 65.9738 214.01 L 65.2538 213.43 L 64.5538 212.85 L 63.8738 212.25 L 63.1738 211.65 L 62.4938 211.0301 L 61.8338 210.4101 L 61.1538 209.77 L 60.4938 209.11 L 59.8538 208.47 L 59.2138 207.7899 L 58.5738 207.13 L 57.9338 206.45 L 57.2938 205.77 L 56.6738 205.09 L 56.0338 204.39 L 55.4138 203.69 L 54.7938 202.99 L 54.1738 202.2899 L 53.5738 201.57 L 52.9538 200.85 L 52.3538 200.13 L 51.7538 199.39 L 51.1538 198.6699 L 50.5738 197.9101 L 49.9738 197.1699 L 49.3938 196.43 L 48.7938 195.6699 L 48.2138 194.93 L 47.6138 194.1699 L 47.0338 193.43 L 46.4338 192.6699 L 45.8338 191.9101 L 45.2538 191.15 L 44.6738 190.39 L 44.0738 189.63 L 43.4938 188.87 L 42.9138 188.09 L 42.3138 187.33 L 41.7338 186.57 L 41.1538 185.7899 L 40.5738 185.01 L 39.9938 184.23 L 39.4138 183.45 L 38.8338 182.65 L 38.2738 181.87 L 37.6938 181.07 L 37.1138 180.27 L 36.5538 179.47 L 35.9738 178.6699 L 35.4138 177.87 L 34.8338 177.07 L 34.2738 176.27 L 33.6938 175.47 L 33.1338 174.65 L 32.5538 173.85 L 31.9938 173.0301 L 31.4138 172.21 L 30.8538 171.39 L 30.2938 170.57 L 29.7338 169.75 L 29.1738 168.9101 L 28.6338 168.09 L 28.0938 167.25 L 27.5538 166.43 L 27.0338 165.59 L 26.5138 164.7899 L 26.0138 163.99 L 25.5138 163.19 L 25.0338 162.39 L 24.5738 161.61 L 24.1138 160.85 L 23.6738 160.07 L 23.2538 159.31 L 22.8338 158.57 L 22.4338 157.81 L 22.0538 157.09 L 21.6738 156.35 L 21.2938 155.63 L 20.9538 154.9101 L 20.6138 154.19 L 20.2938 153.49 L 19.9738 152.7899 L 19.6738 152.09 L 19.3738 151.4101 L 19.1138 150.73 L 18.8538 150.05 L 18.5938 149.39 L 18.3738 148.71 L 18.1538 148.05 L 17.9538 147.39 L 17.7538 146.73 L 17.5738 146.07 L 17.4138 145.39 L 17.2738 144.73 L 17.1338 144.07 L 17.0138 143.39 L 16.9138 142.73 L 16.8138 142.07 L 16.7338 141.39 L 16.6738 140.73 L 16.6338 140.07 L 16.5938 139.4101 L 16.5738 138.75 L 16.5538 138.09 V 137.43 L 16.5738 136.77 L 16.6138 136.11 L 16.6538 135.47 L 16.7138 134.81 L 16.7738 134.1699 L 16.8538 133.5301 L 16.9538 132.89 L 17.0538 132.25 L 17.1738 131.63 L 17.3138 130.99 L 17.4538 130.37 L 17.6338 129.77 L 17.7938 129.15 L 17.9938 128.55 L 18.1938 127.95 L 18.3938 127.37 L 18.6138 126.7899 L 18.8538 126.21 L 19.0938 125.63 L 19.3538 125.07 L 19.6338 124.51 L 19.9138 123.97 L 20.1938 123.43 L 20.5138 122.89 L 20.8138 122.37 L 21.1338 121.85 L 21.4738 121.33 L 21.8138 120.83 L 22.1738 120.35 L 22.5338 119.85 L 22.8938 119.37 L 23.2738 118.9101 L 23.6738 118.45 L 24.0738 118.01 L 24.4738 117.57 L 24.8938 117.15 L 25.3138 116.73 L 25.7538 116.33 L 26.1938 115.95 L 26.6338 115.57 L 27.0938 115.19 L 27.5538 114.85 L 28.0138 114.49 L 28.5138 114.1699 L 28.9938 113.85 L 29.4738 113.5301 L 29.9938 113.23 L 30.4938 112.95 L 31.0138 112.6699 L 31.5338 112.39 L 32.0538 112.15 L 32.5938 111.89 L 33.1338 111.65 L 33.6738 111.43 L 34.2338 111.21 L 34.7738 110.99 L 35.3338 110.81 L 35.9138 110.61 L 36.4738 110.45 L 37.0338 110.29 L 37.6138 110.1502 L 38.1738 110.0302 L 38.7538 109.9102 L 39.3338 109.79 L 39.9138 109.71 L 40.4938 109.63 L 41.0938 109.55 L 41.6738 109.49 L 42.2538 109.43 L 42.8538 109.41 L 43.4338 109.37 H 44.0138 H 44.5938 H 45.1738 L 45.7538 109.39 L 46.3338 109.43 L 46.8938 109.49 L 47.4738 109.55 L 48.0338 109.61 L 48.5938 109.71 L 49.1338 109.79 L 49.6938 109.9102 L 50.2338 110.0302 L 50.7738 110.17 L 51.3138 110.31 L 51.8338 110.47 L 52.3538 110.63 L 52.8738 110.81 L 53.3938 110.99 L 53.8938 111.19 L 54.3938 111.4101 L 54.8738 111.6301 L 55.3738 111.8501 L 55.8338 112.09 L 56.3138 112.33 L 56.7738 112.5901 L 57.2338 112.8501 L 57.6738 113.1301 L 58.1138 113.4101 L 58.5538 113.71 L 58.9738 114.0101 L 59.3738 114.33 L 59.7738 114.67 L 60.1738 115.0101 L 60.5538 115.3501 L 60.9338 115.7301 L 61.2938 116.09 L 61.6538 116.4901 L 62.0138 116.8701 L 62.3538 117.2701 L 62.7138 117.69 L 63.0338 118.1101 L 63.3738 118.55 L 63.6938 118.9701 L 64.0138 119.43 L 64.3338 119.8901 L 64.6338 120.3501 L 64.9138 120.83 L 65.1938 121.31 L 65.4738 121.79 L 65.7338 122.29 L 65.9938 122.79 L 66.2338 123.29 L 66.4738 123.81 L 66.6938 124.33 L 66.8938 124.8701 L 67.0938 125.3901 L 67.2938 125.93 L 67.4738 126.4901 L 67.6538 127.0301 L 67.8138 127.57 L 67.9538 128.1501 L 68.0938 128.71 L 68.2338 129.2701 L 68.3538 129.8501 L 68.4738 130.43 L 68.5738 131.0301 L 68.6538 131.6101 L 68.7538 132.21 L 68.8338 132.83 L 68.9138 133.43 L 68.9738 134.05 L 69.0338 134.6501 L 69.0938 135.2701 L 69.1538 135.9101 L 69.2138 136.5301 L 69.2538 137.17 L 69.2938 137.81 L 69.3138 138.45 L 69.3338 139.09 L 69.3538 139.7301 L 69.3738 140.3901 V 141.05 V 141.71 L 69.3538 142.3501 L 69.3338 143.0101 L 69.3138 143.69 L 69.2738 144.3501 L 69.2338 145.0101 L 69.1938 145.69 L 69.1338 146.3501 L 69.0738 147.0301 L 69.0138 147.71 L 68.9538 148.3901 L 68.8738 149.07 L 68.8138 149.7501 L 68.7338 150.43 L 68.6538 151.1301 L 68.5738 151.81 L 68.4938 152.5101 L 68.4138 153.21 L 68.3338 153.9101 L 68.2538 154.6101 L 68.1938 155.31 L 68.1138 156.0301 L 68.0538 156.7501 L 67.9938 157.45 L 67.9538 158.17 L 67.9138 158.9101 L 67.8738 159.6301 L 67.8538 160.3501 L 67.8338 161.09 V 161.83 V 162.55 V 163.29 L 67.8538 164.05 L 67.8738 164.79 L 67.8938 165.5301 L 67.9338 166.29 L 67.9738 167.0301 L 68.0138 167.79 L 68.0738 168.55 L 68.1338 169.31 L 68.2138 170.07 L 68.2738 170.83 L 68.3538 171.5901 L 68.4538 172.3501 L 68.5538 173.1101 L 68.6538 173.8901 L 68.7738 174.6501 L 68.8938 175.4101 L 69.0338 176.1301 L 69.1538 176.8701 L 69.2938 177.57 L 69.4339 178.2701 L 69.5938 178.95 L 69.7338 179.6101 L 69.8938 180.2701 L 70.0538 180.9101 L 70.2338 181.55 L 70.3938 182.17 L 70.5738 182.7701 L 70.7538 183.3501 L 70.9338 183.93 L 71.1338 184.4901 L 71.3338 185.05 L 71.5338 185.5901 L 71.7338 186.1101 L 71.9538 186.6301 L 72.1738 187.1301 L 72.3938 187.6301 L 72.6339 188.1101 L 72.8738 188.57 L 73.1138 189.05 L 73.3738 189.4901 L 73.6339 189.95 L 73.9139 190.3701 L 74.1939 190.79 L 74.4738 191.21 L 74.7739 191.6101 L 75.0739 192.0101 L 75.3738 192.3901 L 75.6939 192.7701 L 76.0138 193.1501 L 76.3339 193.5101 L 76.6738 193.8701 L 76.9939 194.2301 L 77.3339 194.5901 L 77.6738 194.93 L 78.0138 195.2501 L 78.3738 195.5901 L 78.7338 195.8901 L 79.0938 196.21 L 79.4738 196.5101 L 79.8339 196.79 L 80.2139 197.07 L 80.5938 197.3501 L 80.9738 197.6101 L 81.3738 197.8501 L 81.7739 198.09 L 82.1738 198.31 L 82.5739 198.5301 L 82.9738 198.7501 L 83.3938 198.9301 L 83.8138 199.1101 L 84.2139 199.2901 L 84.6339 199.4501 L 85.0539 199.5901 L 85.4738 199.7301 L 85.8738 199.8501 L 86.2938 199.9501 L 86.6939 200.0501 L 87.1138 200.1301 L 87.5138 200.1901 L 87.9339 200.2501 L 88.3339 200.2901 L 88.7538 200.3301 L 89.1538 200.3501 H 89.5539 H 89.9538 L 90.3539 200.3301 L 90.7538 200.2901 L 91.1339 200.2501 L 91.5338 200.2101 L 91.9139 200.1501 L 92.2938 200.0701 L 92.6738 199.9901 L 93.0539 199.8901 L 93.4339 199.7701 L 93.8138 199.6501 L 94.1738 199.5301 L 94.5539 199.3901 L 94.9139 199.2301 L 95.2739 199.0701 L 95.6538 198.8901 L 96.0138 198.7101 L 96.3738 198.5301 L 96.7338 198.33 L 97.0739 198.11 L 97.4339 197.8901 L 97.7739 197.6501 L 98.1339 197.4101 L 98.4738 197.17 L 98.8138 196.9101 L 99.1538 196.63 L 99.4939 196.35 L 99.8339 196.05 L 100.1538 195.75 L 100.4939 195.45 L 100.8339 195.13 L 101.1538 194.81 L 101.4738 194.47 L 101.8138 194.13 L 102.1338 193.77 L 102.4338 193.4101 L 102.7538 193.0301 L 103.0538 192.65 L 103.3538 192.25 L 103.6538 191.85 L 103.9338 191.45 L 104.2138 191.0301 L 104.4938 190.61 L 104.7738 190.1699 L 105.0338 189.73 L 105.3138 189.2899 L 105.5738 188.85 L 105.8338 188.39 L 106.0938 187.93 L 106.3338 187.47 L 106.5938 186.99 L 106.8538 186.51 L 107.0938 186.01 L 107.3338 185.51 L 107.5738 185.01 L 107.8138 184.51 L 108.0338 183.99 L 108.2738 183.47 L 108.5138 182.95 L 108.7538 182.43 L 108.9938 181.89 L 109.2538 181.37 L 109.4938 180.83 L 109.7538 180.2899 L 109.9938 179.75 L 110.2538 179.19 L 110.5338 178.65 L 110.8138 178.09 L 111.0938 177.55 L 111.3738 176.99 L 111.6738 176.43 L 111.9738 175.89 L 112.2738 175.33 L 112.5938 174.77 L 112.9138 174.21 L 113.2538 173.65 L 113.5738 173.09 L 113.9338 172.5301 L 114.2738 171.97 L 114.6338 171.43 L 115.0138 170.87 L 115.3738 170.33 L 115.7538 169.77 L 116.1538 169.23 L 116.5538 168.6699 L 116.9538 168.13 L 117.3538 167.59 L 117.7738 167.05 L 118.1938 166.51 L 118.6338 165.97 L 119.0538 165.43 L 119.5138 164.89 L 119.9538 164.35 L 120.4138 163.81 L 120.8938 163.2899 L 121.3538 162.75 L 121.8338 162.23 L 122.3338 161.71 L 122.8338 161.19 L 123.3338 160.6699 L 123.8538 160.1699 L 124.3938 159.65 L 124.9138 159.1699 L 125.4738 158.6699 L 126.0138 158.1699 L 126.5738 157.69 L 127.1538 157.21 L 127.7138 156.73 L 128.2938 156.25 L 128.8938 155.7899 L 129.4738 155.31 L 130.0738 154.85 L 130.6938 154.39 L 131.2938 153.93 L 131.9138 153.47 L 132.5338 153.01 L 133.1538 152.55 L 133.7938 152.11 L 134.4338 151.6699 L 135.0938 151.23 L 135.7538 150.7899 L 136.4138 150.37 L 137.0738 149.95 L 137.7538 149.55 L 138.4338 149.13 L 139.1338 148.73 L 139.8138 148.35 L 140.5338 147.97 L 141.2338 147.59 L 141.9538 147.21 L 142.6738 146.85 L 143.4138 146.51 L 144.1338 146.15 L 144.8738 145.83 L 145.6338 145.49 L 146.3738 145.19 L 147.1338 144.87 L 147.8938 144.59 L 148.6538 144.2899 L 149.4338 144.0301 L 150.2138 143.75 L 150.9938 143.49 L 151.7738 143.25 L 152.5738 142.99 L 153.3538 142.75 L 154.1538 142.51 L 154.9538 142.2899 L 155.7738 142.05 L 156.5738 141.83 L 157.3738 141.63 L 158.1938 141.41 L 159.0138 141.2099 L 159.8338 141.0299 L 160.6738 140.8499 L 161.4938 140.6699 L 162.3338 140.5099 L 163.1738 140.3499 L 164.0138 140.2099 L 164.8538 140.0699 L 165.7138 139.9499 L 166.5538 139.8299 L 167.4138 139.7299 L 168.2738 139.6299 L 169.1338 139.5499 L 169.9938 139.4699 L 170.8538 139.4099 L 171.7338 139.3499 L 172.5938 139.3099 L 173.4738 139.2699 L 174.3538 139.2499 L 175.2338 139.2299 H 176.1138 H 176.9938 H 177.8738 H 178.7338 L 179.5938 139.2099 H 180.4338 H 181.2738 H 182.0738 H 182.8738 H 183.6738 H 184.4538 H 185.2138 H 185.9538 H 186.7138 H 187.4338 H 188.1738 H 188.8938 H 189.5938 H 190.2938 H 190.9738 L 191.6338 139.1899 H 192.2938 L 192.9538 139.1699 L 193.5938 139.1299 L 194.2138 139.1099 L 194.8538 139.0699 L 195.4538 139.0099 L 196.0538 138.9499 L 196.6538 138.8899 L 197.2338 138.8099 L 197.8138 138.7299 L 198.3938 138.6299 L 198.9538 138.5299 L 199.5138 138.3899 L 200.0738 138.2699 L 200.6138 138.1099 L 201.1538 137.9499 L 201.6738 137.7899 L 202.2138 137.6099 L 202.7338 137.4299 L 203.2338 137.21 L 203.7538 137.01 L 204.2538 136.77 L 204.7338 136.5499 L 205.2138 136.2899 L 205.6938 136.03 L 206.1538 135.77 L 206.6138 135.4899 L 207.0738 135.1899 L 207.5138 134.89 L 207.9338 134.5899 L 208.3538 134.27 L 208.7738 133.9299 L 209.1938 133.5899 L 209.5738 133.2499 L 209.9738 132.89 L 210.3538 132.53 L 210.7338 132.15 L 211.0938 131.77 L 211.4538 131.3699 L 211.8138 130.9699 L 212.1538 130.5699 L 212.4938 130.15 L 212.8138 129.7299 L 213.1338 129.2899 L 213.4538 128.8499 L 213.7538 128.41 L 214.0538 127.9499 L 214.3338 127.4899 L 214.6138 127.03 L 214.8738 126.5499 L 215.1338 126.0699 L 215.3938 125.5899 L 215.6338 125.0899 L 215.8538 124.5899 L 216.0738 124.0899 L 216.2738 123.5899 L 216.4738 123.0899 L 216.6538 122.5699 L 216.8338 122.0499 L 216.9938 121.53 L 217.1338 121.01 L 217.2738 120.4899 L 217.3938 119.9699 L 217.4938 119.4299 L 217.5938 118.91 L 217.6738 118.39 L 217.7338 117.8699 L 217.7938 117.3299 L 217.8338 116.8099 L 217.8538 116.2899 L 217.8738 115.77 V 115.2499 V 114.7499 L 217.8338 114.2299 L 217.7938 113.7299 L 217.7538 113.2099 L 217.6738 112.7099 L 217.5938 112.2099 L 217.5138 111.7299 L 217.4138 111.2299 L 217.2938 110.7499 L 217.1538 110.27 L 217.0338 109.7899 L 216.8738 109.3099 L 216.7138 108.8499 L 216.5538 108.39 L 216.3738 107.9299 L 216.1738 107.4899 L 215.9738 107.0499 L 215.7538 106.6099 L 215.5338 106.1699 L 215.3138 105.7499 L 215.0738 105.3299 L 214.8138 104.91 L 214.5538 104.4899 L 214.2738 104.0699 L 213.9938 103.6699 L 213.7138 103.27 L 213.4138 102.8699 L 213.0938 102.4699 L 212.7738 102.0699 L 212.4538 101.6899 L 212.1138 101.3099 L 211.7538 100.9299 L 211.4138 100.5499 L 211.0338 100.1899 L 210.6738 99.8299 L 210.2938 99.4699 L 209.9138 99.1299 L 209.5538 98.8099 L 209.1938 98.4899 L 208.8538 98.1699 L 208.4938 97.8699 L 208.1538 97.5699 L 207.8338 97.2899 L 207.5138 96.9899 L 207.2138 96.7099 L 206.9338 96.4299 L 206.6538 96.15 L 206.3738 95.8699 L 206.1138 95.5899 L 205.8738 95.3099 L 205.6538 95.01 L 205.4338 94.7099 L 205.2138 94.4299 L 205.0138 94.1299 L 204.8338 93.8299 L 204.6738 93.53 L 204.4938 93.2099 L 204.3538 92.89 L 204.2138 92.5699 L 204.0738 92.2499 L 203.9738 91.9299 L 203.8538 91.6099 L 203.7738 91.2899 L 203.6938 90.9499 L 203.6138 90.6299 L 203.5538 90.2899 L 203.5138 89.9699 L 203.4738 89.6299 L 203.4538 89.3099 V 88.9699 V 88.65 L 203.4738 88.3299 L 203.4938 88.01 L 203.5338 87.6899 L 203.5738 87.3699 L 203.6338 87.0699 L 203.7138 86.77 L 203.7938 86.4699 L 203.8938 86.1699 L 204.1138 85.6099 L 204.3938 85.0699 L 204.7138 84.5499 L 205.0738 84.0499 L 205.2738 83.8099 L 205.6738 83.3499 L 205.8938 83.1099 L 206.1338 82.89 L 206.3738 82.6899 L 206.6138 82.4699 L 206.8738 82.2699 L 207.1338 82.0698 L 207.4138 81.8698 L 207.6938 81.6898 L 207.9938 81.4898 L 208.2938 81.3298 L 208.5938 81.1498 L 208.9138 80.9898 L 209.2338 80.8298 L 209.5538 80.6698 L 209.8938 80.53 L 210.2338 80.39 L 210.5938 80.27 L 210.9538 80.15 L 211.2938 80.03 L 211.6738 79.93 L 212.0338 79.83 L 212.4138 79.75 L 212.7938 79.65 L 213.1738 79.59 L 213.5738 79.51 L 213.9538 79.45 L 214.3538 79.41 L 214.7538 79.35 L 215.1738 79.31 L 215.5938 79.27 L 216.0138 79.23 L 216.4538 79.21 L 216.8738 79.17 L 217.3138 79.15 L 217.7738 79.13 H 218.2138 L 218.6738 79.11 L 219.1338 79.13 H 219.5938 L 220.0738 79.15 H 220.5338 L 221.0138 79.17 L 221.4938 79.19 L 221.9938 79.23 L 222.4938 79.25 L 222.9938 79.29 L 223.4738 79.31 L 223.9938 79.35 L 224.4938 79.37 L 225.0138 79.41 L 225.5338 79.45 L 226.0538 79.47 L 226.5738 79.51 L 227.0938 79.55 L 227.6338 79.59 L 228.1738 79.61 L 228.7138 79.65 L 229.2538 79.69 L 229.8138 79.71 L 230.3738 79.75 L 230.9338 79.77 L 231.4938 79.79 L 232.0538 79.83 L 232.6338 79.85 L 233.2138 79.87 L 233.7938 79.89 L 234.3938 79.93 L 234.9738 79.95 L 235.5738 79.97 L 236.1738 79.99 L 236.7738 80.01 L 237.3938 80.03 L 237.9938 80.05 H 238.6138 L 239.2538 80.07 L 239.8738 80.09 L 240.4938 80.11 L 241.1338 80.13 H 241.7738 L 242.4138 80.15 L 243.0538 80.17 L 243.7138 80.19 H 244.3538 L 245.0138 80.21 L 245.6738 80.23 L 246.3338 80.25 L 247.0138 80.27 L 247.6738 80.29 H 248.3338 L 249.0138 80.31 L 249.6938 80.33 L 250.3738 80.35 L 251.0538 80.37 L 251.7338 80.39 L 252.4138 80.41 H 253.1138 L 253.8138 80.43 L 254.4938 80.45 L 255.1938 80.47 L 255.8938 80.49 L 256.6138 80.51 L 257.3138 80.53 L 258.0338 80.55 L 258.7538 80.57 H 259.4538 L 260.1938 80.59 L 260.9138 80.61 L 261.6338 80.63 L 262.3738 80.65 L 263.0938 80.67 L 263.8338 80.69 L 264.5738 80.71 L 265.3138 80.73 L 266.0738 80.75 L 266.8138 80.77 L 267.5738 80.79 L 268.3138 80.81 H 269.0738 L 269.8338 80.83 L 270.6138 80.85 L 271.3738 80.87 L 272.1338 80.89 L 272.9138 80.91 L 273.6938 80.93 L 274.4738 80.95 L 275.2338 80.97 L 276.0338 80.99 L 276.8138 81.01 L 277.5938 81.03 L 278.3938 81.05 L 279.1738 81.07 H 279.9738 L 280.7738 81.09 L 281.5738 81.11 L 282.3738 81.13 L 283.1938 81.15 H 283.9938 L 284.7938 81.17 L 285.6138 81.19 H 286.4138 L 287.2338 81.21 L 288.0538 81.23 H 288.8738 L 289.6938 81.25 H 290.5138 H 291.3338 L 292.1538 81.27 H 292.9738 H 293.8138 L 294.6538 81.29 H 295.4738 H 296.3138 H 297.1538 H 297.9938 H 298.8338 H 299.6938 H 300.5338"
       style="fill:none;stroke:#000000;stroke-width:0.5;stroke-linecap:round;stroke-linejoin:round;stroke-miterlimit:10;stroke-dasharray:none;stroke-opacity:1" />
  </g>
</svg>
